<svg xmlns="http://www.w3.org/2000/svg" xmlns:xlink="http://www.w3.org/1999/xlink" width="906.02" height="839.73" viewBox="0 0 906.02 839.73"><defs><linearGradient id="a" x1="394.06" y1="449.73" x2="512.01" y2="449.73" gradientUnits="userSpaceOnUse"><stop offset="0" stop-color="blue"/><stop offset="0.25" stop-color="#f0f"/><stop offset="0.53" stop-color="#ff5100"/><stop offset="0.78" stop-color="#26ff00"/><stop offset="1" stop-color="#ff0"/></linearGradient><linearGradient id="b" x1="399.06" y1="449.73" x2="507.01" y2="449.73" gradientUnits="userSpaceOnUse"><stop offset="0" stop-color="#13c0ff"/><stop offset="0.18" stop-color="#31cdd3"/><stop offset="0.58" stop-color="#70e678"/><stop offset="0.87" stop-color="#97f73f"/><stop offset="1" stop-color="#a6fd29"/></linearGradient><linearGradient id="c" x1="510.97" y1="2137.12" x2="1416.99" y2="2137.12" gradientTransform="translate(-510.98 -1717.26)" xlink:href="#a"/><linearGradient id="d" x1="664.07" y1="1995.4" x2="834.8" y2="1995.4" gradientTransform="translate(-510.98 -1717.26)" xlink:href="#a"/><linearGradient id="e" x1="684.77" y1="2377.5" x2="830.36" y2="2377.5" gradientTransform="translate(-510.98 -1717.26)" xlink:href="#a"/><linearGradient id="f" x1="724.94" y1="2343.07" x2="726.06" y2="2343.07" gradientTransform="translate(-510.98 -1717.26)" xlink:href="#a"/><linearGradient id="g" x1="1093.13" y1="1995.35" x2="1263.78" y2="1995.35" gradientTransform="translate(-510.98 -1717.26)" xlink:href="#a"/><linearGradient id="h" x1="1097.65" y1="2377.43" x2="1243.38" y2="2377.43" gradientTransform="translate(-510.98 -1717.26)" xlink:href="#a"/><linearGradient id="i" x1="1201.99" y1="2343.07" x2="1203.11" y2="2343.07" gradientTransform="translate(-510.98 -1717.26)" xlink:href="#a"/><linearGradient id="j" x1="974.03" y1="1946.42" x2="974.13" y2="1946.42" gradientTransform="translate(-510.98 -1717.26)" xlink:href="#a"/><linearGradient id="k" x1="669.05" y1="1995.44" x2="829.86" y2="1995.44" gradientTransform="translate(-510.98 -1717.26)" xlink:href="#b"/><linearGradient id="l" x1="689.64" y1="2377.51" x2="825.36" y2="2377.51" gradientTransform="translate(-510.98 -1717.26)" xlink:href="#b"/><linearGradient id="m" x1="516.04" y1="2137.13" x2="1411.99" y2="2137.13" gradientTransform="translate(-510.98 -1717.26)" xlink:href="#b"/><linearGradient id="n" x1="1098.21" y1="1995.37" x2="1258.93" y2="1995.37" gradientTransform="translate(-510.98 -1717.26)" xlink:href="#b"/><linearGradient id="o" x1="1102.43" y1="2377.41" x2="1238.41" y2="2377.41" gradientTransform="translate(-510.98 -1717.26)" xlink:href="#b"/><linearGradient id="p" x1="969.03" y1="1946.23" x2="969.13" y2="1946.23" gradientTransform="translate(-510.98 -1717.26)" xlink:href="#b"/></defs><path d="M453,508.71a59,59,0,1,1,59-59A59,59,0,0,1,453,508.71Zm0-97.95a39,39,0,1,0,39,39A39,39,0,0,0,453,410.76Z" transform="translate(0.01 0)" fill="url(#a)"/><path d="M453,503.71a54,54,0,1,1,54-54A54,54,0,0,1,453,503.71Zm0-97.95a44,44,0,1,0,44,44A44,44,0,0,0,453,405.76Z" transform="translate(0.01 0)" fill="url(#b)"/><path d="M863.84,437.74c10.82-15,26.8-44.71,20.11-83.16-7.2-41.3-36-64.4-49.25-73,.18-17.47-3.29-45.59-23-72C784.47,173,745,164.92,725.14,163.24c1.51-17.81.26-51.61-25.14-78.14a98.29,98.29,0,0,0-63.57-29.8C625.43,41,585.81-3.7,525,.24,492,2.37,467.47,17.86,453,30.15,438.55,17.86,414,2.37,381,.24,320.26-3.68,280.66,41,269.62,55.3A98.26,98.26,0,0,0,206,85.13c-25.4,26.53-26.66,60.32-25.15,78.14C161,165,121.53,173,94.31,209.61c-19.66,26.39-23.13,54.51-22.94,72-13.24,8.61-42.06,31.71-49.26,73-6.7,38.45,9.3,68.18,20.11,83.16C16.22,455.77-1,490,0,523.91c1.19,37.57,24.37,71.91,60.19,90.72-6.45,9.57-11.15,23.8-9.4,44.76,2.86,34.29,30.91,65.57,73.51,82.26a226.89,226.89,0,0,0,16.29,23.48c13.38,16.9,27.22,34.38,46.77,42.28a63,63,0,0,0,23.81,4.48c19.86,0,38.46-8.22,50.09-14.75,15.79,23.77,47.41,38.59,90.53,42.11q5.91.48,11.6.48c39.5,0,71-16.47,89.58-29.26,18.52,12.79,50.06,29.26,89.57,29.26q5.7,0,11.6-.48c43.13-3.52,74.75-18.34,90.54-42.11,11.63,6.53,30.22,14.75,50.08,14.75a63,63,0,0,0,23.81-4.48c19.55-7.9,33.39-25.38,46.78-42.28a228.35,228.35,0,0,0,16.28-23.48c42.6-16.69,70.65-48,73.51-82.26,1.75-21-3-35.18-9.4-44.76,35.83-18.81,59-53.15,60.19-90.72C907.09,490,889.86,455.74,863.84,437.74ZM443,793c-17.55,12.4-49.6,29.53-89.55,26.26-23.87-2-65.91-9.77-79.33-40.21-3.69-8.36-5-17.89-3.83-28.33a10,10,0,0,0-19.86-2.36v.18a76.55,76.55,0,0,0,2.41,30.37c-12.76,7.43-37,18.38-57.94,9.9-14.64-5.92-26.27-20.61-38.58-36.16a204,204,0,0,1-16.5-24.2,10.08,10.08,0,0,0-5.2-4.36C97.51,710.52,73,685,70.77,657.72c-1.51-18.2,2.61-31.16,12.25-38.52l.12-.09c13.6-10.26,32.54-4.75,34.66-4.08a10,10,0,1,0,6-19.09h0c-4.72-1.48-27.75-7.71-47.91,4-33.06-14.65-54.8-44.28-55.86-76.7-1-30.29,16.81-61.88,41.36-73.6l.21-.1.3-.14c5-2.37,13.94-6.37,24.13-3.82,13.39,3.39,20.44,16.17,22.29,20a10,10,0,1,0,18.56-7.44,3.05,3.05,0,0,0-.13-.32c-.13-.3-.27-.61-.43-.9-3.57-7.45-14.19-25.36-35.39-30.74-12.42-3.15-23.3-.59-30.73,2.19C51.88,417.5,36,391.54,41.8,358c6.91-39.66,38.33-58.74,44.56-62.16a10,10,0,0,0,5.17-9.39c-.86-13.67.44-40.28,18.8-64.92,30-40.23,79.47-38.75,81.57-38.67,48.3,1.91,74.59,39.36,77.43,43.62A10,10,0,0,0,286,215.42h0c-3.26-4.88-32.09-46-85.06-51.88C199.46,150,199.32,121.08,220.49,99,242.93,75.51,280.08,68.23,305,82.39c9.76,5.53,18,14.46,23.7,25.81A10,10,0,1,0,347,100h0c-.12-.26-.25-.51-.39-.76C339,84.32,328.12,72.5,314.93,65a74.88,74.88,0,0,0-20.48-7.84A141.27,141.27,0,0,1,310.23,43C332,26.36,355.34,18.71,379.72,20.28,409.67,22.18,431.36,37.41,443,48V148c-13.44-19-31.92-30.84-51.49-30.91-13.41-.06-27.57,6.07-39.83,17.21a10,10,0,0,0,13.27,15l.18-.16c11.54-10.49,21.42-12,26.31-12,20.61.08,45.32,24.15,51.56,64.41V288.4c-86.26,5.08-154.85,75.52-154.85,161.38S356.79,606,443,611.14Zm10-201.61c-79.86,0-144.84-63.56-144.84-141.69S373.18,308,453,308h0c79.87,0,144.84,63.56,144.84,141.68S532.86,591.43,453,591.44Zm433-68.17c-1,32.42-22.76,62-55.83,76.7-20.16-11.74-43.18-5.51-47.91-4a10,10,0,0,0,6,19.09h0c2.12-.67,21.06-6.18,34.66,4.08l.12.09c9.65,7.36,13.77,20.32,12.25,38.52-2.28,27.35-26.74,52.8-63.85,66.42a10.06,10.06,0,0,0-5.19,4.36,208.13,208.13,0,0,1-16.5,24.2c-12.32,15.55-24,30.24-38.59,36.16-21,8.48-45.18-2.47-57.93-9.9a76.91,76.91,0,0,0,2.4-30.37,10,10,0,0,0-19.88,2.18c1.15,10.44-.14,20-3.82,28.33-13.43,30.44-55.47,38.26-79.34,40.21-3.37.27-6.69.41-9.94.41-35.3,0-63.53-15.31-79.6-26.66V723.22c.9-27.07,16.81-50.15,38.77-56.15,17.06-4.66,32.67,2.63,38.58,6a10,10,0,0,0,9.86-17.4c-8.08-4.58-29.48-14.49-53.71-7.87A67.73,67.73,0,0,0,463,669.55V611.14c86.3-5.11,154.88-75.53,154.88-161.39S549.31,293.46,463,288.37V226.74c0-20.15,11.46-37.64,28-42.23,15.39-4.26,29.61,5.06,32.3,7A10.06,10.06,0,0,0,535,175.13h0c-5.6-4-25.7-16.45-49.21-9.95a53.61,53.61,0,0,0-22.71,13V48c11.68-10.63,33.37-25.85,63.31-27.77,40.09-2.58,69.94,21.11,85.2,36.93A74.75,74.75,0,0,0,591.21,65C578,72.47,567,84.29,559.53,99.17a10,10,0,1,0,17.5,9.77c.14-.25.27-.51.39-.77,5.75-11.35,13.94-20.28,23.7-25.81,25-14.16,62.13-6.88,84.58,16.57,21.17,22.12,21,51,19.52,64.58-53,5.92-81.8,47-85.06,51.88a10,10,0,0,0,16.65,11.09h0c2.84-4.26,29.14-41.71,77.43-43.62,2.11-.08,51.6-1.56,81.57,38.67,18.36,24.64,19.66,51.25,18.8,64.92a10,10,0,0,0,5.17,9.39c6.23,3.42,37.66,22.5,44.56,62.16,5.85,33.55-10.08,59.51-18.4,70.38-7.43-2.78-18.31-5.34-30.73-2.19-21.2,5.38-31.81,23.29-35.39,30.74a10,10,0,0,0,18,8.66c1.84-3.84,8.89-16.62,22.28-20,10.26-2.61,19.27,1.53,24.21,3.86l.21.1.21.1C869.21,461.39,887,493,886,523.27Z" transform="translate(0.01 0)" fill="url(#c)"/><path d="M315.11,275.49c-20,2.53-37.26,9.14-51.45,19.65-9.91,7.34-16.67,15.4-22.64,22.52-9,10.79-17.59,21-33,23.88a43.46,43.46,0,0,1-7.89.73c-13.65,0-28.22-6.38-43.42-19a10,10,0,0,1,12.46-15.64l.33.27c13.37,11.12,25.09,15.84,34.83,14,8-1.5,12.82-6.88,21.35-17.07l4.21-5c-9.11-4.8-18.18-9.8-27.09-14.8-16-9-24.47-14.21-28.73-25.52-3.43-9.13-4.11-22.65,4.27-33.24,10-12.59,25.4-12.4,28.39-12.23a10,10,0,1,1-1.11,20h0c-.31,0-7.61-.37-11.6,4.68-4.22,5.33-1.55,12.93-1.23,13.78,1.58,4.18,4.91,6.73,19.83,15.13,10.45,5.89,21.15,11.7,31.87,17.31,2.25-2,4.66-3.93,7.26-5.86,17-12.58,37.44-20.45,60.83-23.42a10,10,0,1,1,2.87,19.79l-.2,0h-.14Z" transform="translate(0.01 0)" fill="url(#d)"/><path d="M317.2,611.19a10,10,0,0,1-14.06,1.49A29.67,29.67,0,0,0,292.36,607c-9.45-2.59-18.08.66-23.25,2.6-7.43,2.79-19,10.38-33.58,23.68l37.4,40.33c.17.19.33.38.49.58,8.68,10.92,9,20.53,8.45,25.29-2.39,20-25.5,34.77-54,34.78h-1.05a10,10,0,1,1,.13-20h.13c21.15.28,34.07-10,34.93-17.14.16-1.32.07-4.92-4-10.2l-36.73-39.61A447.34,447.34,0,0,0,191.62,682a10,10,0,0,1-15.8-12.26,441.59,441.59,0,0,1,38.12-43.31H214l1.12-1.1h0c17.74-17.31,34.24-29.52,47-34.31,6.45-2.43,19.87-7.48,35.58-3.17a49.54,49.54,0,0,1,18.07,9.37A10,10,0,0,1,317.2,611.19Z" transform="translate(0.01 0)" fill="url(#e)"/><path d="M215.08,625.26l-1.12,1.1a6.91,6.91,0,0,1,.75-.78C214.83,625.47,215,625.36,215.08,625.26Z" transform="translate(0.01 0)" fill="url(#f)"/><path d="M749.37,323.24c-15.2,12.65-29.77,19-43.42,19a43.46,43.46,0,0,1-7.89-.73c-15.39-2.89-23.94-13.09-33-23.88-3.52-4.2-7.32-8.73-11.88-13.25l-.49-.48a98.81,98.81,0,0,0-10.27-8.79C628.23,284.6,610.92,278,591,275.46a10,10,0,0,1,2.37-19.86h.15c23.39,3,43.86,10.84,60.83,23.42,2.61,1.93,5,3.89,7.27,5.86,10.72-5.61,21.41-11.42,31.86-17.31,14.92-8.4,18.26-11,19.83-15.13.32-.85,3-8.45-1.23-13.78-4-5-11.28-4.7-11.6-4.68a10,10,0,0,1-1.11-20h0c3-.17,18.42-.36,28.39,12.23,8.38,10.58,7.7,24.11,4.27,33.24C727.74,270.78,719.22,276,703.27,285c-8.9,5-18,10-27.09,14.79q2.22,2.58,4.21,5c8.54,10.19,13.36,15.57,21.35,17.07,9.74,1.83,21.46-2.89,34.83-14a10,10,0,0,1,12.79,15.37Z" transform="translate(0.01 0)" fill="url(#g)"/><path d="M728.53,683.74a10,10,0,0,1-14-1.77,438.5,438.5,0,0,0-29.66-34.63L648.14,687c-4.1,5.28-4.18,8.88-4,10.2.86,7.18,13.79,17.44,34.93,17.14h.14a10,10,0,1,1,.13,20h-1.09c-28.47,0-51.58-14.83-54-34.78-.57-4.76-.23-14.37,8.44-25.29.16-.2.32-.39.5-.58l37.39-40.32C656,620,644.43,612.43,637,609.63c-5.16-1.94-13.8-5.2-23.25-2.6A29.71,29.71,0,0,0,603,612.66a10,10,0,0,1-12.57-15.55,49.58,49.58,0,0,1,18.06-9.37c15.71-4.31,29.13.75,35.58,3.17,12.73,4.79,29.23,17,47,34.31h0l1.12,1.1v0a441.59,441.59,0,0,1,38.12,43.31,10,10,0,0,1-1.76,14Z" transform="translate(0.01 0)" fill="url(#h)"/><path d="M692.13,626.36l-1.12-1.1c.13.1.25.21.37.32A6.91,6.91,0,0,1,692.13,626.36Z" transform="translate(0.01 0)" fill="url(#i)"/><path d="M463,231.58v-4.84c0,1,0,2,.08,2.95A9.21,9.21,0,0,1,463,231.58Z" transform="translate(0.01 0)" fill="url(#j)"/><path d="M314.48,270.53c-20.81,2.64-38.91,9.57-53.79,20.59a105,105,0,0,0-10.94,9.37,183.1,183.1,0,0,0-12.56,14c-8.82,10.52-16.44,19.61-30.08,22.17a37.36,37.36,0,0,1-7,.64c-12.47,0-26-6-40.24-17.86a5,5,0,1,1,6.4-7.69h0c14.56,12.13,27.67,17.2,38.94,15.08,10.12-1.9,16-9,24.27-18.76,2.58-3.08,5.29-6.32,8.35-9.63-10.92-5.78-21.81-11.7-32.56-17.7-15.33-8.64-22.86-13.22-26.51-22.92-1-2.71-5.64-16.82,3.51-28.37,8.44-10.66,21.63-10.49,24.19-10.35a5,5,0,1,1-.55,10h0c-1,0-10.31-.36-15.8,6.57-5.81,7.34-2.67,16.82-2,18.65,2.22,5.89,6.69,9.07,22.06,17.73,11.49,6.48,23.28,12.86,35.07,19a111.53,111.53,0,0,1,9.48-7.88c16.28-12.05,36-19.61,58.49-22.47a5,5,0,0,1,1.34,9.91h-.08Z" transform="translate(0.01 0)" fill="url(#k)"/><path d="M313.32,608a5,5,0,0,1-7,.74,34.43,34.43,0,0,0-12.59-6.56c-11-3-20.61.59-26.34,2.74-8.45,3.18-22,12.17-38.85,28.14l40.76,44,.25.29c7.54,9.5,7.87,17.6,7.39,21.59-2,17.15-23.5,30.36-49,30.37h-1a5,5,0,0,1,.13-10h1c22.55,0,37.79-11.1,39-21.56.29-2.42,0-7.45-5.18-14l-40.43-43.61A431.48,431.48,0,0,0,187.66,679a5,5,0,1,1-8-6l.07-.09a438.07,438.07,0,0,1,38.4-43.61c17.36-17,33.43-29,45.72-33.64,6.42-2.41,18.36-6.91,32.5-3a44.33,44.33,0,0,1,16.24,8.43A5,5,0,0,1,313.32,608Z" transform="translate(0.01 0)" fill="url(#l)"/><path d="M887.37,471.16c-8-13.76-18.75-25-30.78-32.1,9.86-12.29,29.54-42.79,22.43-83.6-7.34-42.13-38.28-64.4-49.39-71.15.58-16.42-2-45-21.89-71.72-28.44-38.17-72.06-43.85-88.08-44.61,2-14.66,3.61-51.36-23.22-79.39A94.24,94.24,0,0,0,647.81,62a88.68,88.68,0,0,0-13.88-1.75c-8.08-11-47.11-58.92-108.53-55-34.3,2.21-59,19.46-72.35,31.57-13.34-12-38-29.32-72.36-31.53-61.42-3.95-100.44,44-108.52,55A89,89,0,0,0,258.28,62a94.18,94.18,0,0,0-48.62,26.6c-26.83,28-25.21,64.72-23.23,79.39-16,.76-59.64,6.44-88.08,44.61-19.89,26.71-22.46,55.3-21.89,71.72-11.11,6.75-42,29-49.39,71.15C20,396.3,39.64,426.81,49.5,439.1c-12,7.15-22.81,18.35-30.78,32.1A100.07,100.07,0,0,0,5.08,523.74c1.19,37.59,25.6,71.83,62.89,89.1C60.4,621.38,53.9,635.6,55.85,659c2.73,32.79,30.24,62.8,71.94,78.63A221.84,221.84,0,0,0,144.59,762c13,16.4,26.4,33.35,44.72,40.76a58.34,58.34,0,0,0,22,4.12c21.28,0,41.24-10.14,51.73-16.55,13.89,24.81,45.28,40.32,89.24,43.92C397.88,838,434,818.09,453,804.35c17.47,12.6,49.27,30.37,89.58,30.37q5.49,0,11.18-.46c44-3.6,75.35-19.11,89.24-43.92,10.47,6.41,30.45,16.55,51.73,16.55a58.34,58.34,0,0,0,22-4.12c18.32-7.41,31.74-24.36,44.73-40.76a219.21,219.21,0,0,0,16.79-24.42c41.7-15.83,69.21-45.84,71.94-78.62,1.94-23.36-4.54-37.58-12.12-46.12,37.28-17.27,61.7-51.52,62.89-89.11A100.21,100.21,0,0,0,887.37,471.16ZM448,795.62c-17.62,12.89-51.81,32.2-95,28.67-43-3.51-72.61-18.76-83.41-43l-.09-.21-.06-.13c-4-9.15-5.39-19.49-4.16-30.76a5,5,0,0,0-9.94-1.1,70.56,70.56,0,0,0,3.43,32c-12.12,7.6-40.72,22.45-65.8,12.31-15.87-6.41-28.46-22.31-40.63-37.68a210.82,210.82,0,0,1-16.91-24.79,5,5,0,0,0-2.59-2.18c-39-14.31-64.67-41.4-67.11-70.71-1.67-20,3.11-34.44,14.2-42.9H80c15.27-11.61,35.37-6.14,39.25-4.92a5,5,0,0,0,3-9.55c-4.52-1.41-27.19-7.56-46,4.88-36.2-15-60.14-47-61.25-82.17C14,491.14,33.09,457.44,59.44,445l.15-.07c5.12-2.41,15.59-7.28,27.63-4.22,15.49,3.93,23.48,18.36,25.56,22.7a5,5,0,0,0,9-4.33c-3.28-6.82-13-23.2-32.12-28.06-13-3.31-24.37.47-31.07,3.36C51,425.28,30,396,36.83,357.13c7.3-41.91,40.5-62.07,47.09-65.68a5,5,0,0,0,2.58-4.7c-.9-14.35.47-42.3,19.78-68.22,31.53-42.32,83.58-40.75,85.77-40.67,50.78,2,78.42,41.36,81.4,45.84a5,5,0,0,0,8.33-5.55h0c-3.2-4.79-32.14-46-85.32-50.05-1.84-11.79-4.63-46.56,20.33-72.64,24-25,63.78-32.7,90.66-17.46,10.61,6,19.5,15.67,25.69,27.9a5,5,0,1,0,9.06-4.24h0c0-.09-.09-.18-.14-.27-7.08-14-17.35-25.09-29.68-32.09a71.82,71.82,0,0,0-27.84-8.75A145.92,145.92,0,0,1,307.11,39C329.83,21.6,354.34,13.6,380,15.25c32.89,2.12,56.24,19.46,68,30.59V166.56c-12.45-26.67-33.7-44.33-56.51-44.42h-.14c-12.13,0-25,5.65-36.31,15.91a5,5,0,1,0,6.73,7.4c12.79-11.63,24.06-13.29,29.68-13.31,22.8.09,50,25.91,56.55,69v92C362.21,295.74,293.2,365,293.2,449.74s69,154,154.85,156.61Zm5-199.18c-82.62,0-149.84-65.8-149.84-146.69S370.42,303,453,303h0c82.63,0,149.84,65.8,149.84,146.68S535.68,596.43,453,596.44Zm438-73c-1.11,35.16-25.06,67.15-61.26,82.17-18.79-12.44-41.47-6.29-46-4.88a5,5,0,0,0,3,9.55c3.87-1.22,24-6.68,39.22,4.91l.08.06c11.09,8.46,15.87,22.9,14.2,42.9-2.44,29.31-28.15,56.4-67.1,70.71a4.94,4.94,0,0,0-2.6,2.18,211.85,211.85,0,0,1-16.9,24.78C741.49,771.2,728.9,787.1,713,793.51c-25.08,10.14-53.67-4.71-65.79-12.31a70.83,70.83,0,0,0,3.42-32,5,5,0,0,0-9.94,1.1c1.24,11.27-.16,21.61-4.16,30.76l-.06.13-.09.21c-10.8,24.2-40.42,39.45-83.41,43q-5.28.44-10.36.43c-38.24,0-68.39-17.25-84.59-29.1V723.41c.86-29.37,18.32-54.49,42.46-61.08,18.84-5.15,35.9,2.79,42.36,6.45a5,5,0,0,0,5.2-8.54l-.28-.16c-7.53-4.27-27.48-13.53-49.92-7.4-16.89,4.62-31,16.77-39.82,33V606.5c85.84-2.6,154.84-71.85,154.84-156.61s-69-154-154.84-156.6V226.74c0-22.38,13-41.88,31.7-47.06,17.14-4.74,32.3,4.71,36.54,7.72a5,5,0,0,0,6-8l-.19-.13c-5.15-3.66-23.6-15.12-45-9.21-12,3.33-22.13,11.32-29,22V45.82c11.76-11.13,35.11-28.46,68-30.58C551.72,13.59,576.23,21.59,599,39a145.39,145.39,0,0,1,22.58,21.57,71.91,71.91,0,0,0-27.85,8.75c-12.33,7-22.59,18.09-29.68,32.09a5,5,0,0,0,8.78,4.78c0-.09.1-.18.14-.27C579.09,93.71,588,84,598.58,78c26.88-15.23,66.7-7.57,90.66,17.46,24.94,26.06,22.17,60.82,20.34,72.63-53.18,4-82.13,45.27-85.32,50.06a5,5,0,1,0,8.32,5.55c3-4.48,30.62-43.84,81.4-45.84,2.2-.09,54.24-1.65,85.77,40.67,19.31,25.92,20.68,53.87,19.78,68.22a5,5,0,0,0,2.59,4.7c6.58,3.61,39.78,23.77,47.08,65.68,6.78,38.92-14.16,68.17-21.75,77.27-6.69-2.9-18-6.68-31.08-3.37-19.15,4.86-28.84,21.24-32.11,28.06A5,5,0,0,0,793,463.9c.08-.15.15-.3.22-.45,2.08-4.34,10.07-18.77,25.56-22.7,12.08-3.06,22.58,1.84,27.68,4.24h.1C872.93,457.48,892,491.18,891,523.42Z" transform="translate(0.01 0)" fill="url(#m)"/><path d="M746.17,319.4c-14.27,11.88-27.77,17.86-40.24,17.86a37.57,37.57,0,0,1-6.94-.64c-13.64-2.56-21.26-11.65-30.09-22.17-3.64-4.34-7.56-9-12.32-13.72l-.26-.25a102.39,102.39,0,0,0-10.91-9.36c-14.89-11-33-18-53.8-20.59a5,5,0,0,1,1.18-9.93h.08c22.53,2.86,42.21,10.42,58.49,22.47a111.53,111.53,0,0,1,9.48,7.88c11.8-6.13,23.59-12.5,35.07-19,15.37-8.66,19.84-11.84,22.06-17.73.69-1.83,3.82-11.32-2-18.65-5.49-6.93-14.76-6.63-15.79-6.57a5,5,0,0,1-.56-10h0c2.55-.14,15.75-.31,24.19,10.35,9.15,11.55,4.53,25.66,3.51,28.37-3.65,9.7-11.18,14.28-26.51,22.92-10.69,6-21.64,12-32.61,17.71,3.06,3.31,5.78,6.55,8.36,9.63,8.21,9.79,14.14,16.86,24.26,18.76,11.27,2.12,24.38-3,39-15.08a5,5,0,0,1,6.39,7.69Z" transform="translate(0.01 0)" fill="url(#n)"/><path d="M725.47,679.8a5,5,0,0,1-7-.89,431.87,431.87,0,0,0-33.72-38.8L644.3,683.74c-5.18,6.58-5.47,11.61-5.18,14,1.25,10.46,16.49,21.56,39,21.56h1a5,5,0,0,1,.07,10h-1c-25.54,0-47-13.22-49-30.37-.48-4-.15-12.09,7.4-21.59.07-.1.16-.19.24-.29l40.76-44c-16.85-16-30.4-25-38.85-28.14-5.73-2.15-15.31-5.76-26.33-2.74a34.47,34.47,0,0,0-12.6,6.56,5,5,0,0,1-6.72-7.41l.24-.2.19-.16a44.33,44.33,0,0,1,16.24-8.43c14.15-3.89,26.09.61,32.5,3,12.29,4.62,28.36,16.59,45.72,33.64a435.76,435.76,0,0,1,38.37,43.53,5,5,0,0,1-.79,7Z" transform="translate(0.01 0)" fill="url(#o)"/><path d="M458.14,229.92a5.48,5.48,0,0,1-.09,1.28v-4.46C458,227.74,458.08,228.84,458.14,229.92Z" transform="translate(0.01 0)" fill="url(#p)"/><path d="M192.34,175.45a2.5,2.5,0,0,1-2.44-2c-1.1-5-9.84-50.3,21.56-83.11a91.85,91.85,0,0,1,47.33-25.9c18.87-3.9,37.49-1.38,52.44,7.1,12,6.8,21.66,17.24,28.69,31a2.5,2.5,0,0,1-4.46,2.27c-6.57-12.91-15.55-22.65-26.69-29-27.82-15.77-69-7.9-93.69,17.92-29.62,30.94-21.34,73.8-20.3,78.59a2.49,2.49,0,0,1-1.86,3h0A2.42,2.42,0,0,1,192.34,175.45Z" transform="translate(0.01 0)" fill="#fff"/><path d="M57.37,443a2.54,2.54,0,0,1-1.83-.79c-5.78-6.18-34.19-39.36-26-86.35C37,313,69.53,291.2,79,285.69c-.75-15.79,1.3-44.7,21.31-71.6,33.9-45.47,89.75-43.78,92.11-43.69,54.6,2.11,84.15,44.38,87.34,49.19a2.5,2.5,0,0,1-4,3l-.15-.23c-3-4.59-31.26-44.94-83.38-46.95-2.25-.09-55.55-1.7-87.9,41.67C84.61,243.61,83.19,272.24,84.1,287a2.49,2.49,0,0,1-1.29,2.34C76,293,42,313.67,34.46,356.75,26.68,401.4,53.7,433,59.2,438.82A2.5,2.5,0,0,1,57.37,443Z" transform="translate(0.01 0)" fill="#fff"/><path d="M77,613.7a2.52,2.52,0,0,1-.9-.17c-40.39-15.67-67.28-51-68.51-89.92-1.11-35,19.83-71.71,48.72-85.34,5.4-2.55,18-8.53,32.83-4.78,18.13,4.6,27.36,20.22,30.48,26.72a2.5,2.5,0,0,1-4.5,2.16c-2.2-4.57-10.67-19.84-27.21-24-13-3.3-24.14,1.94-29.46,4.46-27.2,12.83-46.92,47.51-45.86,80.66,1.16,37,26.8,70.48,65.31,85.42a2.5,2.5,0,0,1-.9,4.83Z" transform="translate(0.01 0)" fill="#fff"/><path d="M211.36,804.42a55.88,55.88,0,0,1-21.11-3.95c-17.64-7.14-30.89-23.84-43.7-40a220.11,220.11,0,0,1-17.06-24.9C88.24,720.16,61,690.78,58.35,658.76c-2.36-28.31,8-42.54,17.12-49.5,18.22-13.89,41.6-7.57,46.1-6.16a2.5,2.5,0,1,1-1.5,4.78h0c-4.09-1.28-25.31-7-41.56,5.36-11.81,9-16.92,24.19-15.18,45.1,2.52,30.29,28.85,58.21,68.73,72.86a2.53,2.53,0,0,1,1.3,1.09,213.83,213.83,0,0,0,17.11,25.09c13,16.36,25.23,31.81,41.66,38.45,29,11.71,62-8.33,71.48-14.75a2.5,2.5,0,0,1,2.82,4.14C258.68,790.48,235.84,804.42,211.36,804.42Z" transform="translate(0.01 0)" fill="#fff"/><path d="M200.21,334.76c-11.87,0-24.85-5.79-38.69-17.28a2.5,2.5,0,0,1,3.11-3.92l.09.08c15.19,12.6,29,17.85,41,15.61,11-2.06,17.5-9.81,25.72-19.62,6.42-7.65,13.69-16.32,24.78-24.54,16-11.79,35.24-19.2,57.31-22a2.52,2.52,0,1,1,.63,5c-21.21,2.69-39.71,9.78-55,21.06-10.62,7.86-17.69,16.3-23.92,23.73-8.52,10.16-15.87,18.93-28.64,21.33A35.13,35.13,0,0,1,200.21,334.76Z" transform="translate(0.01 0)" fill="#fff"/><path d="M246.12,299.54a2.57,2.57,0,0,1-1.15-.28c-12.84-6.62-25.79-13.6-38.48-20.74-14.79-8.34-22-12.74-25.39-21.63-.94-2.48-5.21-15.42,3.13-25.94,7.66-9.7,19.75-9.54,22.1-9.41a2.5,2.5,0,1,1-.28,5c-1.17-.07-11.64-.42-17.9,7.51-6.66,8.41-3.14,19-2.37,21.08,2.62,7,8.12,10.55,23.17,19,12.63,7.12,25.53,14.06,38.32,20.66a2.5,2.5,0,0,1-1.15,4.72Z" transform="translate(0.01 0)" fill="#fff"/><path d="M183.69,678.35a2.41,2.41,0,0,1-1.53-.53,2.49,2.49,0,0,1-.45-3.49h0c30.47-39.26,62.27-68.52,83-76.37,6.17-2.31,17.62-6.61,31-3A41.85,41.85,0,0,1,311,603a2.49,2.49,0,0,1-3.16,3.86,36.88,36.88,0,0,0-13.51-7c-11.78-3.24-22.24.7-27.86,2.81-19.61,7.43-51.33,36.77-80.82,74.75A2.49,2.49,0,0,1,183.69,678.35Z" transform="translate(0.01 0)" fill="#fff"/><path d="M227.8,726.85h-.89a2.5,2.5,0,0,1-2.47-2.53h0a2.46,2.46,0,0,1,2.45-2.47H227c24.79.33,41.06-11.88,42.49-23.8.33-2.82,0-8.65-5.77-16l-44-47.48a2.5,2.5,0,1,1,3.52-3.55l.14.15,44.08,47.55.13.14c5.16,6.49,7.6,13.49,6.87,19.73C272.75,712.6,254.89,726.85,227.8,726.85Z" transform="translate(0.01 0)" fill="#fff"/><path d="M274.78,67.67a2.5,2.5,0,0,1-2.07-3.9c1.67-2.46,41.58-60.24,107.79-56C415.5,10,440.41,28.36,453,40.24,465.62,28.36,490.48,10,525.56,7.76c64.27-4.12,103.47,49.79,107.78,56a2.5,2.5,0,1,1-4.12,2.84c-4.09-5.92-41.8-57.75-103.34-53.8C490.71,15,466.24,34.24,454.77,45.52a2.49,2.49,0,0,1-3.5,0C439.8,34.27,415.32,15,380.18,12.78,316.79,8.72,278.45,64.21,276.85,66.57A2.49,2.49,0,0,1,274.78,67.67Z" transform="translate(0.01 0)" fill="#fff"/><path d="M713.75,175.45a2.5,2.5,0,0,1-2.49-2.51,2.72,2.72,0,0,1,0-.49c1.05-4.77,9.41-47.55-20.3-78.58-24.71-25.84-65.86-33.72-93.69-18-11.14,6.31-20.12,16-26.69,29a2.5,2.5,0,1,1-4.46-2.27h0c7-13.8,16.68-24.24,28.69-31,14.95-8.48,33.58-11,52.44-7.1a91.7,91.7,0,0,1,47.33,25.9c31.5,32.9,22.67,78.08,21.56,83.12A2.52,2.52,0,0,1,713.75,175.45Z" transform="translate(0.01 0)" fill="#fff"/><path d="M848.74,443a2.5,2.5,0,0,1-1.83-4.2h0c3.37-3.59,32.69-36.38,24.74-82.07-7.51-43.08-41.6-63.75-48.35-67.46a2.47,2.47,0,0,1-1.29-2.35c.92-14.68-.48-43.29-20.28-69.87-32.33-43.38-85.64-41.76-87.89-41.67-52.13,2-80.33,42.36-83.38,46.95a2.5,2.5,0,0,1-4.16-2.76c3.18-4.81,32.73-47.08,87.34-49.19,2.37-.09,58.21-1.78,92.1,43.69,20.06,26.94,22.1,55.82,21.34,71.6,9.49,5.51,42,27.29,49.49,70.2,8.2,47.08-20.23,80.19-26,86.35A2.46,2.46,0,0,1,848.74,443Z" transform="translate(0.01 0)" fill="#fff"/><path d="M829.11,613.7a2.5,2.5,0,0,1-.9-4.83c38.5-14.94,64.14-48.47,65.3-85.42,1.06-33.15-18.66-67.83-45.86-80.66-5.33-2.52-16.41-7.76-29.47-4.46-16.53,4.2-25,19.47-27.2,24a2.5,2.5,0,0,1-4.5-2.16c3.12-6.5,12.35-22.12,30.47-26.72,14.81-3.75,27.44,2.23,32.84,4.78,28.89,13.63,49.83,50.32,48.72,85.34-1.23,39-28.11,74.25-68.5,89.92A2.33,2.33,0,0,1,829.11,613.7Z" transform="translate(0.01 0)" fill="#fff"/><path d="M694.71,804.43c-24.49,0-47.3-13.94-55-19.21a2.5,2.5,0,1,1,2.82-4.14C652,787.51,685,807.56,714,795.83c16.44-6.64,28.69-22.09,41.67-38.45a213.75,213.75,0,0,0,17.1-25.09,2.53,2.53,0,0,1,1.3-1.09c39.88-14.65,66.21-42.57,68.74-72.86,1.74-20.91-3.37-36.09-15.18-45.1-16.26-12.41-37.48-6.64-41.57-5.36a2.5,2.5,0,1,1-1.5-4.78c4.51-1.41,27.89-7.74,46.11,6.16,9.11,7,19.48,21.19,17.12,49.5-2.67,32-29.9,61.4-71.15,76.82a218.73,218.73,0,0,1-17,24.9c-12.81,16.15-26.06,32.85-43.71,40A56.18,56.18,0,0,1,694.71,804.43Z" transform="translate(0.01 0)" fill="#fff"/><path d="M363.45,832.22q-5.38,0-11-.45h-.23c-45.93-3.91-77.72-20.82-89.53-47.61-4.59-10.41-6.21-22.09-4.81-34.73a2.51,2.51,0,0,1,5,.54h0c-1.29,11.76.2,22.58,4.43,32.17,11,25,41.35,40.9,85.37,44.65h.22c45.63,3.72,81.39-17.61,98.64-30.65a2.49,2.49,0,0,1,3,0c17.23,13,53,34.38,98.65,30.65,44.1-3.63,74.48-19.49,85.58-44.67,4.23-9.59,5.71-20.41,4.41-32.17a2.51,2.51,0,1,1,5-.54c1.39,12.64-.23,24.32-4.81,34.73C631.49,811,599.63,828,553.65,831.77q-5.6.45-11,.45c-40.83,0-72.76-18.52-89.61-31C436.19,813.69,404.24,832.22,363.45,832.22Z" transform="translate(0.01 0)" fill="#fff"/><path d="M705.88,334.76a35.52,35.52,0,0,1-6.43-.59c-12.76-2.4-20.11-11.17-28.63-21.33-6.24-7.43-13.31-15.86-23.93-23.73-15.25-11.28-33.75-18.37-55-21.06a2.52,2.52,0,0,1,.62-5h0c22.08,2.8,41.36,10.2,57.32,22,11.09,8.22,18.36,16.89,24.78,24.54,8.22,9.81,14.72,17.56,25.72,19.62,12,2.24,25.81-3,41-15.61a2.5,2.5,0,1,1,3.29,3.76l-.09.08C730.73,329,717.75,334.76,705.88,334.76Z" transform="translate(0.01 0)" fill="#fff"/><path d="M660,299.54a2.5,2.5,0,0,1-1.14-4.72c12.87-6.64,25.41-13.39,38.31-20.66,15-8.47,20.55-12.06,23.17-19,.77-2,4.29-12.67-2.37-21.08-6.26-7.93-16.73-7.58-17.9-7.51a2.5,2.5,0,0,1-.28-5c2.35-.13,14.44-.29,22.1,9.41,8.34,10.52,4.07,23.46,3.13,25.94-3.35,8.9-10.61,13.3-25.39,21.63-13,7.3-25.55,14.08-38.49,20.74A2.5,2.5,0,0,1,660,299.54Z" transform="translate(0.01 0)" fill="#fff"/><path d="M722.4,678.35a2.49,2.49,0,0,1-2-1c-29.48-38-61.2-67.32-80.82-74.75-5.61-2.11-16.06-6.05-27.87-2.81a37,37,0,0,0-13.5,7,2.49,2.49,0,1,1-3.16-3.86,42,42,0,0,1,15.33-8c13.38-3.67,24.82.64,31,3,20.73,7.86,52.53,37.12,83,76.37a2.48,2.48,0,0,1-.43,3.49h0A2.43,2.43,0,0,1,722.4,678.35Z" transform="translate(0.01 0)" fill="#fff"/><path d="M678.3,726.85c-27.1,0-45-14.25-46.62-28.21-.44-3.6-.13-11,6.86-19.74l.13-.14,44.08-47.55a2.5,2.5,0,0,1,3.66,3.4l-44,47.48c-5.8,7.32-6.1,13.13-5.76,16,1.38,11.74,17.38,23.76,41.63,23.76h.88a2.5,2.5,0,0,1,0,5Z" transform="translate(0.01 0)" fill="#fff"/><path d="M453,300.57a2.5,2.5,0,0,1-2.5-2.5V43.74a2.5,2.5,0,0,1,5,0V298a2.5,2.5,0,0,1-2.46,2.54Z" transform="translate(0.01 0)" fill="#fff"/><path d="M453,800.63a2.5,2.5,0,0,1-2.5-2.5V601.44a2.5,2.5,0,0,1,5,0V798.13A2.5,2.5,0,0,1,453,800.63Z" transform="translate(0.01 0)" fill="#fff"/><path d="M453.19,204.24a2.51,2.51,0,0,1-2.48-2.15c-2.91-20.62-10.89-39.37-22.47-52.79-10.89-12.63-23.93-19.61-36.73-19.66-7.3,0-18.68,2.42-31.38,14a2.5,2.5,0,0,1-3.47-3.6l.11-.1c13.88-12.61,26.56-15.26,34.75-15.26,14.28,0,28.66,7.65,40.51,21.39,12.19,14.14,20.59,33.8,23.64,55.36a2.51,2.51,0,0,1-2.13,2.83Z" transform="translate(0.01 0)" fill="#fff"/><path d="M453.15,232.69a2.51,2.51,0,0,1-2.5-2.36c-1.51-27.2,14.1-51.56,37.1-57.92,20.27-5.59,37.94,5.34,42.87,8.83a2.5,2.5,0,0,1-2.68,4.22l-.2-.14c-4.48-3.16-20.52-13.1-38.66-8.09-20.75,5.74-34.81,28-33.43,52.82a2.51,2.51,0,0,1-2.36,2.64Z" transform="translate(0.01 0)" fill="#fff"/><path d="M453,725.65H453a2.5,2.5,0,0,1-2.42-2.58h0c1-32.64,20.75-60.64,48-68.08,20.6-5.66,38.93,2,48,7.15a2.5,2.5,0,0,1-2.27,4.45l-.17-.09c-8.43-4.72-25.37-11.87-44.26-6.69-25.14,6.87-43.35,33-44.3,63.42A2.5,2.5,0,0,1,453,725.65Z" transform="translate(0.01 0)" fill="#fff"/><path d="M453,603.94c-86.76,0-157.35-69.16-157.35-154.18S366.28,295.58,453,295.58s157.35,69.16,157.35,154.18S539.8,603.94,453,603.94Zm0-303.36c-84,0-152.35,66.92-152.35,149.18S369,598.94,453,598.94,605.39,532,605.39,449.76,537,300.58,453,300.58Z" transform="translate(0.01 0)" fill="#fff"/><path d="M453,501.21a51.48,51.48,0,1,1,51.47-51.47A51.53,51.53,0,0,1,453,501.21Zm0-97.95a46.48,46.48,0,1,0,46.47,46.48A46.53,46.53,0,0,0,453,403.26Z" transform="translate(0.01 0)" fill="#fff"/></svg>