<svg xmlns="http://www.w3.org/2000/svg" xmlns:xlink="http://www.w3.org/1999/xlink" width="906.03" height="839.69" viewBox="0 0 906.03 839.69"><defs><linearGradient id="a" x1="664.1" y1="837.4" x2="834.83" y2="837.4" gradientUnits="userSpaceOnUse"><stop offset="0" stop-color="blue"/><stop offset="0.25" stop-color="#f0f"/><stop offset="0.53" stop-color="#ff5100"/><stop offset="0.78" stop-color="#26ff00"/><stop offset="1" stop-color="#ff0"/></linearGradient><linearGradient id="b" x1="684.67" y1="1219.45" x2="830.41" y2="1219.45" xlink:href="#a"/><linearGradient id="c" x1="724.94" y1="1185.07" x2="726.06" y2="1185.07" xlink:href="#a"/><linearGradient id="d" x1="511.01" y1="979.13" x2="1417.04" y2="979.13" xlink:href="#a"/><linearGradient id="e" x1="1093.22" y1="837.4" x2="1263.95" y2="837.4" xlink:href="#a"/><linearGradient id="f" x1="1097.65" y1="1219.45" x2="1243.38" y2="1219.45" xlink:href="#a"/><linearGradient id="g" x1="1201.99" y1="1185.07" x2="1203.11" y2="1185.07" xlink:href="#a"/><linearGradient id="h" x1="974.03" y1="788.39" x2="974.13" y2="788.39" xlink:href="#a"/><linearGradient id="i" x1="902.21" y1="1043.67" x2="904.08" y2="1043.67" xlink:href="#a"/><linearGradient id="j" x1="834.77" y1="1021.9" x2="837.53" y2="1021.9" xlink:href="#a"/><linearGradient id="k" x1="669.1" y1="837.4" x2="829.83" y2="837.4" gradientUnits="userSpaceOnUse"><stop offset="0" stop-color="#13c0ff"/><stop offset="0.18" stop-color="#31cdd3"/><stop offset="0.58" stop-color="#70e678"/><stop offset="0.87" stop-color="#97f73f"/><stop offset="1" stop-color="#a6fd29"/></linearGradient><linearGradient id="l" x1="689.67" y1="1219.45" x2="825.41" y2="1219.45" xlink:href="#k"/><linearGradient id="m" x1="516.02" y1="979.13" x2="1412.03" y2="979.13" xlink:href="#k"/><linearGradient id="n" x1="1098.22" y1="837.4" x2="1258.95" y2="837.4" xlink:href="#k"/><linearGradient id="o" x1="1102.64" y1="1219.45" x2="1238.38" y2="1219.45" xlink:href="#k"/><linearGradient id="p" x1="969.03" y1="788.21" x2="969.13" y2="788.21" xlink:href="#k"/><linearGradient id="q" x1="901.47" y1="1048.58" x2="902.81" y2="1048.58" xlink:href="#k"/><linearGradient id="r" x1="833.16" y1="1026.47" x2="835.06" y2="1026.47" xlink:href="#k"/></defs><path d="M826.09,834.75c-20,2.53-37.26,9.14-51.45,19.65-9.91,7.34-16.67,15.4-22.64,22.52-9,10.79-17.59,21-33,23.88a43.29,43.29,0,0,1-7.89.73c-13.65,0-28.22-6.38-43.42-19a10,10,0,1,1,12.79-15.37c13.37,11.12,25.09,15.84,34.83,14,8-1.5,12.82-6.88,21.35-17.07,1.33-1.58,2.72-3.24,4.21-5-9.11-4.82-18.18-9.78-27.09-14.8-15.95-9-24.47-14.21-28.73-25.52-3.43-9.13-4.11-22.65,4.27-33.24,10-12.59,25.4-12.4,28.39-12.23a10,10,0,0,1-1.11,20c-.31,0-7.61-.37-11.6,4.68-4.22,5.33-1.55,12.93-1.23,13.78,1.58,4.18,4.91,6.73,19.83,15.13,10.45,5.89,21.15,11.7,31.87,17.31,2.25-2,4.66-3.93,7.26-5.86,17-12.58,37.44-20.45,60.83-23.42a10,10,0,1,1,2.52,19.84Z" transform="translate(-511.01 -559.29)" fill="url(#a)"/><path d="M828.18,1170.45a10,10,0,0,1-14.06,1.49,29.64,29.64,0,0,0-10.78-5.63c-9.45-2.59-18.08.66-23.25,2.6-7.43,2.79-19.05,10.38-33.58,23.68l37.4,40.33c.17.19.33.38.49.58,8.68,10.92,9,20.53,8.45,25.29-2.39,20-25.5,34.77-54,34.78H737.8a10,10,0,0,1,.13-20h.13c21.15.28,34.07-10,34.93-17.14.16-1.32.07-4.92-4-10.2l-36.73-39.61a444.39,444.39,0,0,0-29.66,34.63,10,10,0,0,1-15.8-12.26,441.72,441.72,0,0,1,38.12-43.31l.05-.05,1.12-1.1,0,0c17.74-17.31,34.24-29.52,47-34.31,6.45-2.43,19.87-7.48,35.58-3.17a49.53,49.53,0,0,1,18.07,9.37A10,10,0,0,1,828.18,1170.45Z" transform="translate(-511.01 -559.29)" fill="url(#b)"/><path d="M726.06,1184.52l-1.12,1.1a9.15,9.15,0,0,1,.75-.78C725.81,1184.73,725.93,1184.62,726.06,1184.52Z" transform="translate(-511.01 -559.29)" fill="url(#c)"/><path d="M1374.82,997c10.82-15,26.8-44.71,20.11-83.16-7.2-41.3-36-64.4-49.25-73,.18-17.47-3.29-45.59-23-72-27.23-36.55-66.69-44.66-86.56-46.34,1.51-17.81.26-51.61-25.14-78.14a98.26,98.26,0,0,0-63.57-29.8c-11-14.28-50.62-59-111.4-55.06-33.06,2.13-57.56,17.62-72,29.91-14.48-12.29-39-27.78-72-29.91-60.77-3.92-100.37,40.78-111.41,55.06A98.21,98.21,0,0,0,717,644.39c-25.4,26.53-26.66,60.32-25.15,78.14-19.87,1.68-59.34,9.79-86.56,46.34-19.66,26.39-23.13,54.51-22.94,72-13.24,8.61-42.06,31.71-49.26,73-6.7,38.45,9.3,68.18,20.11,83.16-26,18-43.24,52.19-42.17,86.14,1.19,37.57,24.37,71.91,60.19,90.72-6.45,9.57-11.15,23.8-9.4,44.76,2.86,34.29,30.91,65.57,73.51,82.26a226.89,226.89,0,0,0,16.29,23.48c13.38,16.9,27.22,34.38,46.77,42.28a63.16,63.16,0,0,0,23.81,4.48c19.86,0,38.46-8.22,50.09-14.75,15.79,23.77,47.41,38.59,90.53,42.11q5.91.48,11.6.48c39.5,0,71-16.47,89.58-29.26,18.52,12.79,50.06,29.26,89.57,29.26q5.7,0,11.6-.48c43.13-3.52,74.75-18.34,90.54-42.11,11.63,6.53,30.22,14.75,50.08,14.75a63.12,63.12,0,0,0,23.81-4.48c19.55-7.9,33.39-25.38,46.78-42.28a226.79,226.79,0,0,0,16.28-23.48c42.6-16.69,70.65-48,73.51-82.26,1.75-21-3-35.18-9.4-44.76,35.83-18.81,59-53.15,60.19-90.72C1418.07,1049.21,1400.84,1015,1374.82,997ZM954,707.31c-13.44-19-31.92-30.84-51.49-30.91-13.41-.06-27.57,6.07-39.83,17.21a10,10,0,1,0,13.45,14.8c11.54-10.49,21.42-12,26.31-12,20.61.08,45.32,24.15,51.56,64.41V1050a318.62,318.62,0,0,1-49.94-6.08h0l-1.87-.39h0a321.06,321.06,0,0,1-64.58-20.91l-.07-.05c-.93-.4-1.85-.82-2.76-1.23h0A334.58,334.58,0,0,1,739.53,956a10,10,0,0,0-14.09,14.19,330.65,330.65,0,0,0,36.63,31.23l-25,30.15a10,10,0,0,0,15.4,12.77l26.07-31.46c6.72,4.4,13.94,8.81,21.64,13.12q8.56,4.8,17.28,9.08l-19.35,29.54a10,10,0,1,0,16.74,11l21-32.08a339.68,339.68,0,0,0,50.82,17L870,1095.34a10,10,0,0,0,18,8.62l18.73-39.22A337.81,337.81,0,0,0,954,1070v282.34c-17.55,12.4-49.6,29.53-89.55,26.26-23.87-2-65.91-9.77-79.33-40.21-3.69-8.36-5-17.89-3.83-28.33a10,10,0,1,0-19.88-2.18,76.65,76.65,0,0,0,2.41,30.37c-12.76,7.43-37,18.38-57.94,9.9-14.64-5.92-26.27-20.61-38.58-36.16a204.46,204.46,0,0,1-16.5-24.2,10.08,10.08,0,0,0-5.2-4.36c-37.11-13.62-61.57-39.07-63.85-66.42-1.51-18.2,2.61-31.16,12.25-38.52l.12-.09c13.6-10.26,32.54-4.75,34.66-4.08a10,10,0,0,0,6-19.09c-4.72-1.48-27.75-7.71-47.91,4-33.06-14.65-54.8-44.28-55.83-76.7-1-30.29,16.81-61.88,41.36-73.6l.21-.1.32-.15c5-2.34,13.9-6.4,24.1-3.81,13.39,3.39,20.44,16.17,22.29,20a10,10,0,1,0,18-8.66c-3.57-7.45-14.19-25.36-35.39-30.74-12.42-3.15-23.3-.59-30.73,2.19-8.32-10.87-24.25-36.83-18.4-70.38,6.91-39.66,38.33-58.74,44.56-62.16a10,10,0,0,0,5.17-9.39c-.86-13.67.44-40.28,18.8-64.92,30-40.23,79.47-38.75,81.57-38.67,48.3,1.91,74.59,39.36,77.43,43.62A10,10,0,1,0,797,774.68c-3.26-4.88-32.09-46-85.06-51.88-1.51-13.55-1.65-42.46,19.52-64.58,22.45-23.45,59.6-30.73,84.58-16.57,9.76,5.53,18,14.46,23.7,25.81a10,10,0,1,0,17.84-9c-7.53-14.88-18.48-26.7-31.67-34.18a74.83,74.83,0,0,0-20.48-7.84,140.92,140.92,0,0,1,15.78-14.17c21.73-16.67,45.11-24.32,69.49-22.75,29.95,1.92,51.64,17.15,63.32,27.78Zm443,375.22c-1,32.42-22.76,62-55.83,76.7-20.16-11.74-43.18-5.51-47.91-4a10,10,0,0,0,6,19.09c2.12-.67,21.06-6.18,34.66,4.08l.12.09c9.65,7.36,13.77,20.32,12.25,38.52-2.28,27.35-26.74,52.8-63.85,66.42a10.06,10.06,0,0,0-5.19,4.36,207.73,207.73,0,0,1-16.5,24.2c-12.32,15.55-24,30.24-38.59,36.16-21,8.48-45.18-2.47-57.93-9.9a76.84,76.84,0,0,0,2.4-30.37,10,10,0,0,0-19.88,2.18c1.15,10.44-.14,20-3.82,28.33-13.43,30.44-55.47,38.26-79.34,40.21-3.37.27-6.69.41-9.94.41-35.3,0-63.53-15.31-79.6-26.66v-69.87c.9-27.07,16.81-50.15,38.77-56.15,17.06-4.66,32.67,2.63,38.58,6a10,10,0,0,0,9.86-17.4c-8.08-4.58-29.48-14.49-53.71-7.87a67.83,67.83,0,0,0-33.5,21.75V1070.18a335.9,335.9,0,0,0,54.54-5.42l18.72,39.2a10,10,0,1,0,18-8.62l-16.66-34.9a340.94,340.94,0,0,0,50.83-17l21,32.06a10,10,0,1,0,16.73-11l-19.32-29.5q8-3.93,15.89-8.29c7.8-4.31,15.52-9,23-13.9l26,31.41a10,10,0,0,0,15.4-12.77l-24.94-30.09a327.69,327.69,0,0,0,36.88-31.29A10,10,0,1,0,1196.13,956c-22.05,21.88-101.91,91.83-222.1,94.2V786c0-20.15,11.46-37.64,28-42.23,15.39-4.26,29.61,5.06,32.3,7A10,10,0,0,0,1046,734.39c-5.6-4-25.7-16.45-49.21-9.95a53.71,53.71,0,0,0-22.71,13V607.26c11.68-10.63,33.37-25.85,63.31-27.77,40.09-2.58,69.94,21.11,85.2,36.93a75.06,75.06,0,0,0-20.4,7.83c-13.2,7.48-24.15,19.3-31.68,34.18a10,10,0,1,0,17.84,9c5.75-11.35,13.94-20.28,23.7-25.81,25-14.16,62.13-6.88,84.58,16.57,21.17,22.12,21,51,19.52,64.58-53,5.92-81.8,47-85.06,51.88a10,10,0,0,0,16.65,11.09c2.84-4.26,29.14-41.71,77.43-43.62,2.11-.08,51.6-1.56,81.57,38.67,18.36,24.64,19.66,51.25,18.8,64.92a10,10,0,0,0,5.17,9.39c6.23,3.42,37.66,22.5,44.56,62.16,5.85,33.55-10.08,59.51-18.4,70.38-7.43-2.78-18.31-5.34-30.73-2.19-21.2,5.38-31.81,23.29-35.39,30.74a10,10,0,0,0,18,8.66c1.84-3.84,8.89-16.62,22.28-20,10.26-2.61,19.27,1.53,24.21,3.86l.21.1.21.1C1380.19,1020.65,1398,1052.24,1397,1082.53Z" transform="translate(-511.01 -559.29)" fill="url(#d)"/><path d="M1260.35,882.5c-15.2,12.65-29.77,19-43.42,19a43.38,43.38,0,0,1-7.89-.73c-15.39-2.89-23.94-13.09-33-23.88-3.52-4.2-7.32-8.73-11.88-13.25l-.49-.48a98.61,98.61,0,0,0-10.27-8.79c-14.19-10.51-31.5-17.12-51.45-19.65a10,10,0,1,1,2.52-19.84c23.39,3,43.86,10.84,60.83,23.42,2.61,1.93,5,3.89,7.27,5.86,10.72-5.61,21.41-11.42,31.86-17.31,14.92-8.4,18.26-11,19.83-15.13.32-.85,3-8.45-1.23-13.78-4-5.05-11.28-4.7-11.6-4.68a10,10,0,1,1-1.11-20c3-.17,18.42-.36,28.39,12.23,8.38,10.58,7.7,24.11,4.27,33.24-4.26,11.31-12.78,16.53-28.73,25.52-8.9,5-18,10-27.09,14.79q2.22,2.58,4.21,5c8.54,10.19,13.36,15.57,21.35,17.07,9.74,1.83,21.46-2.89,34.83-14a10,10,0,0,1,12.79,15.37Z" transform="translate(-511.01 -559.29)" fill="url(#e)"/><path d="M1239.51,1243a10,10,0,0,1-14-1.77,442.24,442.24,0,0,0-29.66-34.63l-36.73,39.61c-4.1,5.28-4.18,8.88-4,10.2.86,7.18,13.79,17.44,34.93,17.14h.14a10,10,0,0,1,.13,20h-1.09c-28.47,0-51.58-14.83-54-34.78-.57-4.76-.23-14.37,8.44-25.29.16-.2.32-.39.5-.58l37.39-40.32c-14.53-13.3-26.15-20.89-33.58-23.69-5.16-1.94-13.8-5.2-23.25-2.6a29.64,29.64,0,0,0-10.78,5.63,10,10,0,0,1-12.57-15.55,49.41,49.41,0,0,1,18.06-9.37c15.71-4.31,29.13.75,35.58,3.17,12.73,4.79,29.23,17,47,34.31l0,0,1.12,1.1.05.05a440.41,440.41,0,0,1,38.12,43.31A10,10,0,0,1,1239.51,1243Z" transform="translate(-511.01 -559.29)" fill="url(#f)"/><path d="M1203.11,1185.62l-1.12-1.1c.13.1.25.21.37.32A9.15,9.15,0,0,1,1203.11,1185.62Z" transform="translate(-511.01 -559.29)" fill="url(#g)"/><path d="M974,790.84V786c0,1,0,2,.08,2.95A9.61,9.61,0,0,1,974,790.84Z" transform="translate(-511.01 -559.29)" fill="url(#h)"/><path d="M904.08,1043.87l-1.87-.39A10.2,10.2,0,0,1,904.08,1043.87Z" transform="translate(-511.01 -559.29)" fill="url(#i)"/><path d="M837.53,1022.52c-.93-.4-1.85-.82-2.76-1.23A10.12,10.12,0,0,1,837.53,1022.52Z" transform="translate(-511.01 -559.29)" fill="url(#j)"/><path d="M825.46,829.79c-20.81,2.64-38.91,9.57-53.79,20.59a103.73,103.73,0,0,0-10.94,9.37c-4.86,4.78-8.86,9.55-12.56,14-8.82,10.52-16.44,19.61-30.08,22.17a37.44,37.44,0,0,1-7,.64c-12.47,0-26-6-40.24-17.86a5,5,0,1,1,6.4-7.69c14.56,12.13,27.67,17.2,38.94,15.08,10.12-1.9,16-9,24.27-18.76,2.58-3.08,5.29-6.32,8.35-9.63C737.89,851.92,727,846,716.25,840c-15.33-8.64-22.86-13.22-26.51-22.92-1-2.71-5.64-16.82,3.51-28.37,8.44-10.66,21.63-10.49,24.19-10.35a5,5,0,1,1-.55,10c-1,0-10.31-.36-15.8,6.57-5.81,7.34-2.67,16.82-2,18.65,2.22,5.89,6.69,9.07,22.06,17.73,11.49,6.48,23.28,12.86,35.07,19a110.34,110.34,0,0,1,9.48-7.88c16.28-12.05,36-19.61,58.49-22.47a5,5,0,1,1,1.26,9.92Z" transform="translate(-511.01 -559.29)" fill="url(#k)"/><path d="M824.3,1167.31a5,5,0,0,1-7,.74,34.43,34.43,0,0,0-12.59-6.56c-11-3-20.61.59-26.34,2.74-8.45,3.18-22,12.17-38.85,28.14l40.76,44,.25.29c7.54,9.5,7.87,17.6,7.39,21.59-2,17.15-23.5,30.36-49,30.37h-1a5,5,0,0,1,.13-10h.92c22.55,0,37.79-11.1,39-21.56.29-2.42,0-7.45-5.18-14l-40.43-43.61a431.15,431.15,0,0,0-33.72,38.8,5,5,0,1,1-7.9-6.13,436.63,436.63,0,0,1,38.37-43.53c17.36-17,33.43-29,45.72-33.64,6.42-2.41,18.36-6.91,32.5-3a44.48,44.48,0,0,1,16.24,8.43A5,5,0,0,1,824.3,1167.31Z" transform="translate(-511.01 -559.29)" fill="url(#l)"/><path d="M1398.35,1030.42c-8-13.76-18.75-25-30.78-32.1,9.86-12.29,29.54-42.79,22.43-83.6-7.34-42.13-38.28-64.4-49.39-71.15.58-16.42-2-45-21.89-71.72-28.44-38.17-72.06-43.85-88.08-44.61,2-14.66,3.61-51.36-23.22-79.39a94.21,94.21,0,0,0-48.63-26.62,89,89,0,0,0-13.88-1.75c-8.08-11-47.11-58.92-108.53-55-34.3,2.21-59,19.46-72.35,31.57C950.69,584,926,566.73,891.67,564.52c-61.42-3.95-100.44,44-108.52,55a89.12,89.12,0,0,0-13.89,1.75,94.14,94.14,0,0,0-48.62,26.62c-26.83,28-25.21,64.72-23.23,79.39-16,.76-59.64,6.44-88.08,44.61-19.89,26.71-22.46,55.3-21.89,71.72-11.11,6.75-42.05,29-49.39,71.15-7.11,40.8,12.57,71.31,22.43,83.6-12,7.15-22.81,18.35-30.78,32.1A100.15,100.15,0,0,0,516.06,1083c1.19,37.59,25.6,71.83,62.89,89.1-7.57,8.54-14.07,22.76-12.12,46.12,2.73,32.79,30.24,62.8,71.94,78.63a220.22,220.22,0,0,0,16.8,24.42c13,16.4,26.4,33.35,44.72,40.76a58.43,58.43,0,0,0,22,4.12c21.28,0,41.24-10.14,51.73-16.55,13.89,24.81,45.28,40.32,89.24,43.92,45.6,3.73,81.7-16.17,100.77-29.91,17.47,12.6,49.27,30.37,89.58,30.37q5.49,0,11.18-.46c44-3.6,75.35-19.11,89.24-43.92,10.47,6.41,30.45,16.55,51.73,16.55a58.43,58.43,0,0,0,22-4.12c18.32-7.41,31.74-24.36,44.73-40.76a220.14,220.14,0,0,0,16.79-24.42c41.7-15.83,69.21-45.84,71.94-78.62,1.94-23.36-4.54-37.58-12.12-46.12,37.28-17.27,61.7-51.52,62.89-89.11A100.15,100.15,0,0,0,1398.35,1030.42ZM959,725.82c-12.45-26.67-33.7-44.33-56.51-44.42h-.14c-12.13,0-25,5.65-36.31,15.91a5,5,0,1,0,6.73,7.4c12.79-11.63,24.06-13.29,29.68-13.31,22.8.09,50,25.91,56.55,69.05v294.67a323.3,323.3,0,0,1-56.22-6.4l-1.34-.28a325,325,0,0,1-66.39-21.53s0,0,0,0l-1.9-.85h0A340,340,0,0,1,736,959.53a5,5,0,1,0-7,7.09,327.28,327.28,0,0,0,40.36,33.86l-28.4,34.26a5,5,0,0,0,.66,7,4.92,4.92,0,0,0,3.18,1.15,5,5,0,0,0,3.86-1.81l28.94-34.91c7.66,5.16,16,10.34,25.06,15.41q10.95,6.14,22.15,11.41l-22.47,34.31a5,5,0,1,0,8.36,5.48l23.31-35.6A334.17,334.17,0,0,0,893.87,1057l-19.35,40.51a5,5,0,1,0,9,4.31l20.38-42.69a332.65,332.65,0,0,0,55.1,6v289.75c-17.62,12.89-51.81,32.2-95,28.67-43-3.51-72.61-18.76-83.41-43l-.09-.21-.06-.13c-4-9.15-5.39-19.49-4.16-30.76a5,5,0,1,0-9.94-1.1,70.57,70.57,0,0,0,3.43,32c-12.12,7.6-40.72,22.45-65.8,12.31-15.87-6.41-28.46-22.31-40.63-37.68a212.1,212.1,0,0,1-16.91-24.79,5,5,0,0,0-2.59-2.18c-39-14.31-64.67-41.4-67.11-70.71-1.67-20,3.11-34.44,14.2-42.9l.06,0c15.27-11.61,35.37-6.14,39.25-4.92a5,5,0,0,0,3-9.55c-4.52-1.41-27.19-7.56-46,4.88-36.2-15-60.14-47-61.25-82.17-1-32.24,18.08-65.94,44.43-78.37l.16-.08c5.13-2.41,15.58-7.27,27.62-4.21,15.49,3.93,23.48,18.36,25.56,22.7a5,5,0,0,0,9-4.33c-3.28-6.82-13-23.2-32.12-28.06-13-3.31-24.37.47-31.07,3.36-7.61-9.11-28.54-38.36-21.76-77.26,7.3-41.91,40.5-62.07,47.09-65.68a5,5,0,0,0,2.58-4.7c-.9-14.35.47-42.3,19.78-68.22,31.53-42.32,83.58-40.75,85.77-40.67,50.78,2,78.42,41.36,81.4,45.84a5,5,0,0,0,8.33-5.55c-3.2-4.79-32.14-46-85.32-50.05-1.84-11.79-4.63-46.56,20.33-72.64,24-25,63.78-32.7,90.66-17.46,10.61,6,19.5,15.67,25.69,27.9a5,5,0,1,0,8.92-4.51c-7.08-14-17.35-25.09-29.68-32.09a71.83,71.83,0,0,0-27.84-8.75,146.31,146.31,0,0,1,22.57-21.57c22.72-17.43,47.23-25.43,72.85-23.78,32.89,2.12,56.24,19.46,68,30.59Zm443,356.86c-1.11,35.16-25.06,67.15-61.26,82.17-18.79-12.44-41.47-6.29-46-4.88a5,5,0,0,0,3,9.55c3.87-1.22,23.88-6.67,39.14,4.84l0,0,0,0h0l.08.06c11.09,8.46,15.87,22.9,14.2,42.9-2.44,29.31-28.15,56.4-67.1,70.71a4.94,4.94,0,0,0-2.6,2.18,211.07,211.07,0,0,1-16.9,24.78c-12.18,15.38-24.77,31.28-40.64,37.69-25.08,10.14-53.67-4.71-65.79-12.31a70.71,70.71,0,0,0,3.42-32,5,5,0,1,0-9.94,1.1c1.24,11.27-.16,21.61-4.16,30.76l-.06.13-.09.21c-10.8,24.2-40.42,39.45-83.41,43q-5.28.43-10.36.43c-38.24,0-68.39-17.25-84.59-29.1v-72.32c.86-29.37,18.32-54.49,42.46-61.08,18.84-5.15,35.9,2.79,42.36,6.45a5,5,0,1,0,4.92-8.7c-7.53-4.27-27.48-13.53-49.92-7.4-16.89,4.62-31,16.77-39.82,33V1065.24a332.64,332.64,0,0,0,62.39-6.1l20.38,42.66a5,5,0,1,0,9-4.31L1041.49,1057a335.75,335.75,0,0,0,59.89-19.76l23.29,35.58a5,5,0,0,0,8.37-5.48l-22.44-34.28q10.49-4.93,20.77-10.63c9-5,17.85-10.4,26.45-16.17l28.9,34.86a5,5,0,0,0,7.7-6.38l-28.34-34.19a328.36,328.36,0,0,0,40.61-33.92,5,5,0,1,0-7-7.1C1177,982,1093.92,1054.75,969,1055.24V786c0-22.38,13-41.88,31.7-47.06,17.14-4.74,32.3,4.71,36.54,7.72a5,5,0,1,0,5.79-8.15c-5.15-3.66-23.6-15.12-45-9.21-12,3.33-22.13,11.32-29,22V605.08c11.76-11.13,35.11-28.46,68-30.58,25.62-1.65,50.13,6.35,72.85,23.78a146,146,0,0,1,22.58,21.57,71.88,71.88,0,0,0-27.85,8.75c-12.33,7-22.59,18.09-29.68,32.09a5,5,0,1,0,8.92,4.51c6.2-12.23,15.08-21.88,25.69-27.9,26.88-15.23,66.7-7.57,90.66,17.46,24.94,26.06,22.17,60.82,20.34,72.63-53.18,4.05-82.13,45.27-85.32,50.06a5,5,0,1,0,8.32,5.55c3-4.48,30.62-43.84,81.4-45.84,2.2-.09,54.24-1.65,85.77,40.67,19.31,25.92,20.68,53.87,19.78,68.22a5,5,0,0,0,2.59,4.7c6.58,3.61,39.78,23.77,47.08,65.68,6.78,38.92-14.16,68.17-21.75,77.27-6.69-2.9-18.05-6.68-31.08-3.37-19.15,4.86-28.84,21.24-32.11,28.06a5,5,0,1,0,9,4.33c2.08-4.34,10.07-18.77,25.56-22.7,12.08-3.06,22.58,1.84,27.68,4.24l.1,0C1383.91,1016.74,1403,1050.44,1402,1082.68Z" transform="translate(-511.01 -559.29)" fill="url(#m)"/><path d="M1257.15,878.66c-14.27,11.88-27.77,17.86-40.24,17.86a37.26,37.26,0,0,1-6.94-.64c-13.64-2.56-21.26-11.65-30.09-22.17-3.64-4.34-7.56-9-12.32-13.72l-.26-.25a100.94,100.94,0,0,0-10.91-9.36c-14.89-11-33-18-53.8-20.59a5,5,0,1,1,1.26-9.92c22.53,2.86,42.21,10.42,58.49,22.47a112.21,112.21,0,0,1,9.48,7.88c11.8-6.13,23.59-12.5,35.07-19,15.37-8.66,19.84-11.84,22.06-17.73.69-1.83,3.82-11.32-2-18.65-5.49-6.93-14.76-6.63-15.79-6.57a5,5,0,1,1-.56-10c2.55-.14,15.75-.31,24.19,10.35,9.15,11.55,4.53,25.66,3.51,28.37-3.65,9.7-11.18,14.28-26.51,22.92-10.69,6-21.64,12-32.61,17.71,3.06,3.31,5.78,6.55,8.36,9.63,8.21,9.79,14.14,16.86,24.26,18.76,11.27,2.12,24.38-2.95,39-15.08a5,5,0,0,1,6.39,7.69Z" transform="translate(-511.01 -559.29)" fill="url(#n)"/><path d="M1236.45,1239.06a5,5,0,0,1-7-.89,429.57,429.57,0,0,0-33.72-38.8L1155.28,1243c-5.18,6.58-5.47,11.61-5.18,14,1.25,10.46,16.49,21.56,39,21.56h1a5,5,0,0,1,.07,10h-1c-25.54,0-47-13.22-49-30.37-.48-4-.15-12.09,7.4-21.59.07-.1.16-.19.24-.29l40.76-44c-16.85-16-30.4-25-38.85-28.14-5.73-2.15-15.31-5.76-26.33-2.74a34.47,34.47,0,0,0-12.6,6.56,5,5,0,1,1-6.29-7.77,44.48,44.48,0,0,1,16.24-8.43c14.15-3.89,26.09.61,32.5,3,12.29,4.62,28.36,16.59,45.72,33.64a435.37,435.37,0,0,1,38.37,43.53A5,5,0,0,1,1236.45,1239.06Z" transform="translate(-511.01 -559.29)" fill="url(#o)"/><path d="M969.12,789.18a5.41,5.41,0,0,1-.09,1.28V786C969,787,969.06,788.1,969.12,789.18Z" transform="translate(-511.01 -559.29)" fill="url(#p)"/><path d="M902.81,1048.72l-1.34-.28A4.86,4.86,0,0,1,902.81,1048.72Z" transform="translate(-511.01 -559.29)" fill="url(#q)"/><path d="M835.06,1026.9l-1.9-.85a4.83,4.83,0,0,1,1.7.7A1.3,1.3,0,0,1,835.06,1026.9Z" transform="translate(-511.01 -559.29)" fill="url(#r)"/><path d="M825.14,827.31c-21.24,2.69-39.73,9.78-55,21.06A105.55,105.55,0,0,0,758.94,858l-.14.15c-4.85,4.78-8.85,9.54-12.55,14-8.51,10.16-15.87,18.93-28.63,21.32a34.87,34.87,0,0,1-6.48.6c-11.87,0-24.83-5.79-38.64-17.28a2.5,2.5,0,0,1,3.2-3.84c15.16,12.62,29,17.87,41,15.61,11-2.06,17.5-9.81,25.72-19.62,3.18-3.79,6.56-7.82,10.52-11.93-11.92-6.19-23.84-12.63-35.47-19.19-14.78-8.33-22-12.73-25.39-21.62-.93-2.49-5.18-15.44,3.13-25.94,7.68-9.69,19.75-9.54,22.09-9.4a2.49,2.49,0,0,1,2.36,2.63A2.52,2.52,0,0,1,717,785.8c-1.18-.07-11.63-.41-17.9,7.51-6.64,8.39-3.14,19-2.37,21.08,2.62,7,8.12,10.55,23.17,19,12,6.78,24.38,13.45,36.72,19.83a110.74,110.74,0,0,1,10.55-8.9c15.93-11.79,35.22-19.2,57.32-22a2.5,2.5,0,1,1,.62,5Z" transform="translate(-511.01 -559.29)" fill="#fff"/><path d="M822.35,1165.74a2.49,2.49,0,0,1-3.51.37,37.09,37.09,0,0,0-13.51-7c-11.8-3.24-22.26.7-27.88,2.81-10.87,4.09-25.51,15-41.44,30.4l42.4,45.73.12.15c7,8.78,7.3,16.13,6.87,19.73-1.67,13.95-19.47,28.17-46.48,28.17h-1a2.5,2.5,0,0,1,0-5h0c24.42.34,41.08-12.08,42.47-23.75.34-2.82,0-8.63-5.76-16l-42.24-45.55a436.11,436.11,0,0,0-35.79,40.84,2.48,2.48,0,0,1-2,1,2.43,2.43,0,0,1-1.53-.53,2.5,2.5,0,0,1-.45-3.5c30.53-39.33,62.33-68.59,83-76.37,6.15-2.31,17.6-6.62,31-3a42.09,42.09,0,0,1,15.33,8A2.51,2.51,0,0,1,822.35,1165.74Z" transform="translate(-511.01 -559.29)" fill="#fff"/><path d="M1155.15,1341.45c-.25.66-.53,1.31-.81,2-.4.9-.81,1.78-1.25,2.66-.93-.58-1.75-1.13-2.44-1.6a2.49,2.49,0,0,1-.88-3.07l0-.07a2.79,2.79,0,0,1,.19-.33,2.5,2.5,0,0,1,3.47-.66Z" transform="translate(-511.01 -559.29)" fill="#fff"/><path d="M1155.15,1341.45c-.25.66-.53,1.31-.81,2-.4.9-.81,1.78-1.25,2.66-.93-.58-1.75-1.13-2.44-1.6a2.49,2.49,0,0,1-.88-3.07l0-.07c4.2-9.57,5.68-20.37,4.39-32.11a2.5,2.5,0,0,1,5-.54C1160.46,1320.54,1159.12,1331.56,1155.15,1341.45Z" transform="translate(-511.01 -559.29)" fill="#fff"/><path d="M1255.55,876.74c-13.81,11.49-26.77,17.28-38.64,17.28a34.87,34.87,0,0,1-6.48-.6c-12.76-2.39-20.12-11.16-28.63-21.31-3.7-4.42-7.7-9.18-12.56-14l-.13-.13a105.55,105.55,0,0,0-11.24-9.63c-15.23-11.28-33.72-18.37-55-21.06a2.5,2.5,0,1,1,.63-5c22.1,2.8,41.38,10.21,57.31,22a109.51,109.51,0,0,1,10.55,8.9c12.35-6.39,24.7-13,36.72-19.83,15.05-8.48,20.55-12.07,23.17-19,.77-2,4.27-12.69-2.37-21.08-6.27-7.92-16.72-7.58-17.89-7.51a2.52,2.52,0,0,1-2.64-2.36,2.49,2.49,0,0,1,2.36-2.63c2.34-.14,14.42-.29,22.09,9.4,8.31,10.49,4.07,23.45,3.13,25.94-3.35,8.89-10.6,13.29-25.39,21.62-11.62,6.55-23.53,13-35.46,19.19,4,4.11,7.33,8.14,10.51,11.93,8.22,9.81,14.72,17.56,25.72,19.62,12,2.26,25.84-3,41-15.61a2.5,2.5,0,1,1,3.19,3.84Z" transform="translate(-511.01 -559.29)" fill="#fff"/><path d="M1233.38,1237.61a2.48,2.48,0,0,1-2-1c-29.54-38.05-61.26-67.39-80.81-74.75-5.62-2.11-16.08-6.05-27.87-2.81a37,37,0,0,0-13.51,7,2.5,2.5,0,0,1-3.15-3.89,42.09,42.09,0,0,1,15.33-8c13.36-3.67,24.81.64,31,3,20.67,7.78,52.47,37,83,76.37a2.5,2.5,0,0,1-2,4Z" transform="translate(-511.01 -559.29)" fill="#fff"/><path d="M1189.13,1286.07c-27,0-44.81-14.22-46.48-28.17-.43-3.6-.11-11,6.87-19.73l.13-.15,44.08-47.55a2.5,2.5,0,0,1,3.67,3.41l-44,47.47c-5.8,7.33-6.1,13.14-5.76,16,1.38,11.52,17.61,23.76,41.54,23.76h.93a2.53,2.53,0,0,1,2.53,2.47,2.49,2.49,0,0,1-2.46,2.53Z" transform="translate(-511.01 -559.29)" fill="#fff"/><path d="M966.53,761.25v.57a2.53,2.53,0,0,1-.64,1C966.09,762.29,966.31,761.77,966.53,761.25Z" transform="translate(-511.01 -559.29)" fill="#fff"/><path d="M1363.72,999c7.89-9.36,31.24-41.24,23.82-83.87-7.47-42.88-40-64.68-49.49-70.2.77-15.78-1.28-44.67-21.34-71.6-29.73-39.91-76.4-43.49-89-43.71,2-11.78,5.85-50.81-22.14-80.06a91.63,91.63,0,0,0-47.33-25.9,84.64,84.64,0,0,0-14.69-1.74h0c-5.94-8.32-44.74-58.93-107-54.92-35,2.26-59.91,20.6-72.51,32.48-12.6-11.88-37.46-30.22-72.52-32.48-62.31-4-101.13,46.64-107,54.93a84.76,84.76,0,0,0-14.69,1.74,91.67,91.67,0,0,0-47.33,25.9c-28,29.25-24.11,68.28-22.14,80.06-12.55.22-59.23,3.81-89,43.71-20.06,26.92-22.1,55.82-21.34,71.6-9.49,5.52-42,27.32-49.49,70.2-7.42,42.63,15.93,74.51,23.82,83.87-27.35,14.67-46.84,50.06-45.77,83.9,1.19,37.72,26.43,72,64.67,88.36-8.14,7.72-16,21.74-13.91,46.74,2.67,32,29.91,61.4,71.16,76.81a218.2,218.2,0,0,0,17,24.89c12.78,16.14,26,32.83,43.7,40a55.92,55.92,0,0,0,21.09,4c22.29,0,43.23-11.55,52.64-17.6,12.77,25.41,44,41.34,88.5,45q5.6.45,11,.45c40.77,0,72.73-18.53,89.59-31,16.85,12.44,48.8,31,89.58,31,3.59,0,7.26-.15,11-.45,44.46-3.63,75.73-19.56,88.5-45-.93-.58-1.75-1.13-2.44-1.6a2.49,2.49,0,0,1-.88-3.07c-11.11,25.19-41.51,41-85.59,44.65-3.58.3-7.1.44-10.56.44-39.75,0-70.89-18.29-87.09-30.33v-73.67c.9-30.45,19.11-56.53,44.3-63.41,19.75-5.4,37.52,2.87,44.25,6.68a2.5,2.5,0,1,0,2.46-4.35c-7.26-4.11-26.49-13-48-7.15-19.62,5.36-35.34,21.34-43,42V1062.73h1.32a328.39,328.39,0,0,0,65-6.44l21.21,44.42a2.51,2.51,0,0,0,2.26,1.43,2.47,2.47,0,0,0,1.08-.25,2.5,2.5,0,0,0,1.18-3.33l-20.69-43.32a333.38,333.38,0,0,0,64.43-21.15l24.46,37.35a2.49,2.49,0,0,0,2.09,1.13,2.57,2.57,0,0,0,1.37-.41,2.5,2.5,0,0,0,.72-3.46l-24-36.69q11.74-5.41,23.25-11.78c9.57-5.29,19-11.11,28.14-17.32l30.35,36.61a2.5,2.5,0,0,0,3.85-3.19l-30.07-36.27a327.84,327.84,0,0,0,42.5-35.22,2.5,2.5,0,0,0-3.52-3.55c-22.94,22.77-107.09,96.44-233.64,96.44h-1.24V786c0-23.48,13.71-44,33.54-49.48,18.2-5,34.18,4.92,38.64,8.09a2.5,2.5,0,1,0,2.9-4.08c-4.92-3.49-22.55-14.45-42.87-8.83-14.36,4-25.84,15-32.07,29.26v0a2.25,2.25,0,0,1-.14.86,2.53,2.53,0,0,1-.64,1c.2-.53.42-1.05.64-1.57V604c11.76-11.34,35.94-29.8,70.33-32,54.71-3.51,90.56,37,100.54,50a70.35,70.35,0,0,0-31.57,8.8c-11.9,6.75-21.82,17.48-28.68,31a2.5,2.5,0,0,0,4.46,2.26c6.42-12.68,15.65-22.69,26.69-29,27.83-15.78,69-7.91,93.7,17.9,27.28,28.51,22.42,67,20.66,76.73-53.23,3.08-82.21,44.33-85.37,49.08a2.5,2.5,0,1,0,4.16,2.77c3-4.59,31.33-44.84,83.28-47h.1c2.26-.09,55.57-1.68,87.87,41.68,19.79,26.56,21.2,55.17,20.28,69.87a2.49,2.49,0,0,0,1.29,2.34c6.76,3.72,40.85,24.41,48.34,67.46,7.36,42.26-17.11,73.42-23.53,80.74-6.08-2.79-17.74-7.4-31.14-4-18.14,4.6-27.36,20.22-30.48,26.72a2.5,2.5,0,0,0,4.51,2.16c2.19-4.57,10.65-19.84,27.2-24,13-3.3,24,1.9,29.41,4.42l.05,0c27.2,12.83,46.91,47.53,45.86,80.71-1.15,36.55-26.24,69.75-64,84.92-18-12.79-40.53-6.7-44.94-5.32a2.5,2.5,0,0,0,1.5,4.77c4.09-1.28,25.3-7,41.57,5.37l.12.09c11.73,9,16.79,24.17,15.06,45-2.53,30.29-28.87,58.2-68.74,72.84a2.49,2.49,0,0,0-1.3,1.09,214.19,214.19,0,0,1-17.1,25.09c-12.38,15.63-25.18,31.79-41.66,38.45-27.43,11.09-58.56-6.3-69.8-13.62-.25.66-.53,1.31-.81,2-.4.9-.81,1.78-1.25,2.66,9.42,6.06,30.36,17.6,52.64,17.6a55.88,55.88,0,0,0,21.09-4c17.71-7.16,30.92-23.85,43.71-40a220.4,220.4,0,0,0,17-24.89c41.25-15.41,68.48-44.78,71.15-76.81,2.08-25-5.76-39-13.91-46.74,38.24-16.36,63.48-50.64,64.67-88.36C1410.56,1049.08,1391.07,1013.69,1363.72,999ZM961.53,738.83A99.66,99.66,0,0,0,943,705.29c-11.85-13.74-26.23-21.34-40.5-21.39h-.12c-6.73,0-20.06,2-34.64,15.26a2.5,2.5,0,1,0,3.37,3.7c13.42-12.2,25.37-14,31.37-14,12.8.05,25.84,7,36.73,19.66,11.38,13.19,19.29,31.53,22.31,51.73v297.39a326.12,326.12,0,0,1-59.46-6.57l-.91-.19h0a329.87,329.87,0,0,1-67.28-21.81l0,0-1.37-.62h0a342.55,342.55,0,0,1-98.14-67.15,2.5,2.5,0,1,0-3.52,3.55A327.92,327.92,0,0,0,773,1000l-30.12,36.33a2.5,2.5,0,0,0,.33,3.52,2.47,2.47,0,0,0,1.59.57,2.51,2.51,0,0,0,1.93-.9l30.4-36.67c8.11,5.54,17,11.13,26.75,16.57q12.15,6.81,24.6,12.56l-24.05,36.72a2.5,2.5,0,0,0,.72,3.46,2.55,2.55,0,0,0,1.37.41,2.5,2.5,0,0,0,2.09-1.13l24.48-37.37a332.37,332.37,0,0,0,64.42,21.14l-20.7,43.35a2.49,2.49,0,0,0,1.18,3.33,2.44,2.44,0,0,0,1.08.25,2.5,2.5,0,0,0,2.25-1.43l21.23-44.44a329.66,329.66,0,0,0,59,6.4v293.46c-17.6,13.09-52.88,33.57-97.66,29.9-44.08-3.6-74.48-19.46-85.59-44.65l0-.07c-4.2-9.57-5.68-20.37-4.38-32.11a2.5,2.5,0,0,0-5-.54c-1.31,11.86,0,22.88,4,32.78-11.24,7.32-42.36,24.71-69.8,13.62-16.48-6.66-29.28-22.82-41.65-38.45a214.27,214.27,0,0,1-17.11-25.09,2.49,2.49,0,0,0-1.3-1.09c-39.87-14.64-66.21-42.55-68.73-72.84-1.74-20.84,3.32-36,15.05-45l.12-.09c16.27-12.41,37.48-6.65,41.57-5.37a2.5,2.5,0,1,0,1.5-4.77c-4.4-1.38-26.9-7.47-44.94,5.32-37.81-15.17-62.89-48.37-64.05-84.92-1-33.18,18.67-67.88,45.86-80.71l.05,0c5.36-2.52,16.43-7.72,29.42-4.42,16.54,4.19,25,19.46,27.2,24a2.5,2.5,0,0,0,4.5-2.16c-3.12-6.5-12.34-22.12-30.47-26.72-13.4-3.4-25.06,1.2-31.14,4-6.45-7.34-30.9-38.49-23.54-80.73,7.5-43,41.59-63.74,48.34-67.46a2.49,2.49,0,0,0,1.29-2.34c-.92-14.7.49-43.31,20.28-69.87,32.3-43.36,85.62-41.77,87.87-41.68h.1c52,2.11,80.23,42.36,83.28,47a2.5,2.5,0,1,0,4.17-2.77c-3.17-4.75-32.14-46-85.38-49.08-1.76-9.71-6.62-48.22,20.67-76.73,24.71-25.81,65.86-33.68,93.69-17.9,11,6.26,20.27,16.27,26.69,29a2.5,2.5,0,1,0,4.46-2.26c-6.86-13.56-16.78-24.29-28.68-31a70.35,70.35,0,0,0-31.57-8.8c10-12.93,45.84-53.5,100.54-50,34.41,2.22,58.59,20.69,70.34,32Z" transform="translate(-511.01 -559.29)" fill="#fff"/><path d="M966.67,760.93v0a2.25,2.25,0,0,1-.14.86,2.53,2.53,0,0,1-.64,1c.2-.53.42-1.05.64-1.57v-1.41l.12.81A1.37,1.37,0,0,1,966.67,760.93Z" transform="translate(-511.01 -559.29)" fill="#fff"/><path d="M966.62,789.31a2.2,2.2,0,0,1-.09.81V786C966.53,787.08,966.56,788.19,966.62,789.31Z" transform="translate(-511.01 -559.29)" fill="#fff"/><path d="M966.67,761a2.25,2.25,0,0,1-.14.86,2.53,2.53,0,0,1-.64,1c.2-.53.42-1.05.64-1.57Z" transform="translate(-511.01 -559.29)" fill="#fff"/><path d="M902.07,1051.11l-.91-.19A2.65,2.65,0,0,1,902.07,1051.11Z" transform="translate(-511.01 -559.29)" fill="#fff"/><path d="M833.8,1029.08l-1.37-.62a2.51,2.51,0,0,1,1.07.38A1.76,1.76,0,0,1,833.8,1029.08Z" transform="translate(-511.01 -559.29)" fill="#fff"/></svg>