<svg xmlns="http://www.w3.org/2000/svg" xmlns:xlink="http://www.w3.org/1999/xlink" width="906.03" height="839.68" viewBox="0 0 906.03 839.68"><defs><linearGradient id="a" x1="546.53" y1="1001.63" x2="1452.56" y2="1001.63" gradientUnits="userSpaceOnUse"><stop offset="0" stop-color="blue"/><stop offset="0.25" stop-color="#f0f"/><stop offset="0.53" stop-color="#ff5100"/><stop offset="0.78" stop-color="#26ff00"/><stop offset="1" stop-color="#ff0"/></linearGradient><linearGradient id="b" x1="699.62" y1="859.9" x2="870.35" y2="859.9" xlink:href="#a"/><linearGradient id="c" x1="720.19" y1="1241.95" x2="865.93" y2="1241.95" xlink:href="#a"/><linearGradient id="d" x1="760.46" y1="1207.57" x2="761.58" y2="1207.57" xlink:href="#a"/><linearGradient id="e" x1="1128.74" y1="859.9" x2="1299.48" y2="859.9" xlink:href="#a"/><linearGradient id="f" x1="1133.17" y1="1241.95" x2="1278.9" y2="1241.95" xlink:href="#a"/><linearGradient id="g" x1="1237.55" y1="1207.59" x2="1238.63" y2="1207.59" xlink:href="#a"/><linearGradient id="h" x1="1009.55" y1="810.89" x2="1009.65" y2="810.89" xlink:href="#a"/><linearGradient id="i" x1="551.54" y1="1001.63" x2="1447.55" y2="1001.63" gradientUnits="userSpaceOnUse"><stop offset="0" stop-color="#13c0ff"/><stop offset="0.18" stop-color="#31cdd3"/><stop offset="0.58" stop-color="#70e678"/><stop offset="0.87" stop-color="#97f73f"/><stop offset="1" stop-color="#a6fd29"/></linearGradient><linearGradient id="j" x1="704.62" y1="859.9" x2="865.35" y2="859.9" xlink:href="#i"/><linearGradient id="k" x1="725.19" y1="1241.94" x2="860.93" y2="1241.94" xlink:href="#i"/><linearGradient id="l" x1="1133.74" y1="859.9" x2="1294.47" y2="859.9" xlink:href="#i"/><linearGradient id="m" x1="1138.17" y1="1241.94" x2="1273.9" y2="1241.94" xlink:href="#i"/><linearGradient id="n" x1="1004.55" y1="810.71" x2="1004.65" y2="810.71" xlink:href="#i"/></defs><path d="M1410.35,1019.52c10.81-15,26.8-44.7,20.1-83.16-7.19-41.3-36-64.4-49.25-73,.18-17.47-3.29-45.59-23-72-27.23-36.55-66.7-44.66-86.56-46.34,1.51-17.81.26-51.61-25.14-78.14a98.18,98.18,0,0,0-63.56-29.8c-11-14.28-50.63-59-111.41-55.06-33.06,2.13-57.55,17.62-72,29.9-14.48-12.28-39-27.77-72-29.9-60.74-3.9-100.36,40.78-111.41,55.06a98.18,98.18,0,0,0-63.56,29.8c-25.4,26.54-26.66,60.33-25.15,78.14h0c-19.86,1.67-59.32,9.78-86.55,46.33-19.67,26.39-23.14,54.51-23,72-13.24,8.61-42.06,31.71-49.25,73-6.7,38.46,9.29,68.19,20.1,83.16-26,17.94-43.24,52.19-42.17,86.14,1.19,37.57,24.37,71.91,60.19,90.72-6.45,9.57-11.15,23.8-9.4,44.76,2.86,34.29,30.91,65.57,73.52,82.26a226.79,226.79,0,0,0,16.28,23.48c13.38,16.9,27.23,34.38,46.77,42.28a63.17,63.17,0,0,0,23.82,4.48c19.85,0,38.45-8.22,50.08-14.75,15.79,23.77,47.41,38.59,90.53,42.11q5.91.48,11.6.47c39.51,0,71-16.47,89.58-29.25,18.53,12.79,50.06,29.26,89.57,29.25q5.7,0,11.6-.47c43.13-3.52,74.75-18.34,90.54-42.11,11.63,6.53,30.22,14.75,50.08,14.75a63.09,63.09,0,0,0,23.81-4.48c19.55-7.9,33.39-25.38,46.78-42.28a228.35,228.35,0,0,0,16.28-23.48c42.61-16.69,70.66-48,73.51-82.26,1.75-21-3-35.19-9.4-44.76,35.83-18.8,59-53.15,60.19-90.72C1453.59,1071.71,1436.36,1037.46,1410.35,1019.52ZM989.55,729.81c-13.44-19-31.92-30.84-51.49-30.91h-.16c-13.37,0-27.46,6.11-39.67,17.21a10,10,0,0,0,13.45,14.8c11.48-10.43,21.33-12,26.23-12H938c20.62.08,45.32,24.15,51.56,64.41v591.5c-17.56,12.41-49.61,29.52-89.55,26.26-23.87-2-65.91-9.77-79.33-40.21-3.69-8.36-5-17.89-3.83-28.33a10,10,0,1,0-19.88-2.18,77,77,0,0,0,2.41,30.37c-12.76,7.43-37,18.38-57.93,9.9-14.65-5.92-26.28-20.61-38.59-36.16a204.46,204.46,0,0,1-16.5-24.2,10,10,0,0,0-5.2-4.36c-37.1-13.62-61.57-39.07-63.85-66.42-1.51-18.2,2.61-31.16,12.25-38.52,13.61-10.38,32.66-4.84,34.78-4.17a10,10,0,0,0,6-19.09c-4.73-1.48-27.75-7.71-47.91,4-33.06-14.65-54.8-44.28-55.82-76.71-1-30.37,16.91-62.06,41.56-73.69l.22-.11c4.94-2.32,13.94-6.46,24.2-3.86,13.39,3.4,20.44,16.18,22.29,20a10,10,0,0,0,18-8.66c-3.58-7.45-14.19-25.36-35.4-30.74-12.41-3.15-23.3-.59-30.73,2.19-8.31-10.87-24.24-36.83-18.4-70.38,6.91-39.66,38.34-58.74,44.57-62.16a10,10,0,0,0,5.16-9.4c-.86-13.66.44-40.27,18.8-64.92,30-40.22,79.48-38.75,81.57-38.66,48.29,1.91,74.59,39.35,77.43,43.62a10,10,0,1,0,16.65-11.09c-3.26-4.88-32.09-46-85.06-51.88-1.5-13.54-1.64-42.46,19.53-64.58,22.44-23.45,59.6-30.73,84.57-16.57,9.76,5.53,17.95,14.46,23.7,25.81a10,10,0,1,0,17.84-9c-7.52-14.88-18.48-26.7-31.67-34.18A74.8,74.8,0,0,0,841,638.92c15.27-15.82,45.12-39.52,85.2-36.93,29.95,1.92,51.64,17.15,63.32,27.77Zm443,375.21c-1,32.43-22.76,62.06-55.83,76.71-20.16-11.74-43.18-5.51-47.91-4a10,10,0,0,0,6,19.09c2.13-.67,21.17-6.22,34.78,4.17,9.65,7.36,13.77,20.32,12.25,38.52-2.28,27.35-26.74,52.8-63.85,66.42a10.06,10.06,0,0,0-5.19,4.36,206.89,206.89,0,0,1-16.5,24.2c-12.32,15.55-24,30.24-38.59,36.16-21,8.48-45.18-2.47-57.93-9.9a76.84,76.84,0,0,0,2.4-30.37,10,10,0,1,0-19.88,2.18c1.15,10.44-.14,20-3.82,28.33-13.42,30.44-55.47,38.26-79.34,40.21q-5.05.4-9.94.4c-35.3,0-63.53-15.3-79.6-26.66V1305c.9-27.08,16.82-50.15,38.78-56.15,17.05-4.66,32.66,2.63,38.58,6a10,10,0,1,0,9.85-17.41c-8.08-4.57-29.48-14.48-53.71-7.86a67.85,67.85,0,0,0-33.5,21.76V808.45c0-20.15,11.46-37.64,28-42.23,15.41-4.26,29.61,5.06,32.3,7a10,10,0,1,0,11.58-16.3c-5.59-4-25.69-16.45-49.21-9.95a53.71,53.71,0,0,0-22.71,13V629.75c11.68-10.62,33.37-25.84,63.31-27.76,40.1-2.58,70,21.12,85.21,36.94a74.46,74.46,0,0,0-20.41,7.82c-13.2,7.48-24.15,19.3-31.68,34.18a10,10,0,0,0,17.85,9c5.74-11.35,13.94-20.28,23.69-25.81,25-14.16,62.13-6.88,84.58,16.57,21.17,22.12,21,51,19.52,64.58-53,5.93-81.8,47-85,51.88a10,10,0,1,0,16.64,11.09c2.84-4.27,29.14-41.71,77.44-43.62,2.1-.09,51.59-1.56,81.56,38.66,18.36,24.65,19.66,51.26,18.8,64.92a10,10,0,0,0,5.17,9.4c6.23,3.42,37.66,22.5,44.57,62.16,5.84,33.55-10.09,59.51-18.41,70.38-7.44-2.78-18.31-5.34-30.73-2.19-21.2,5.38-31.81,23.29-35.39,30.74a10,10,0,0,0,18,8.66c1.84-3.84,8.89-16.62,22.28-20,10.42-2.64,19.53,1.66,24.42,4C1415.61,1043,1433.48,1074.65,1432.52,1105Z" transform="translate(-546.53 -581.79)" fill="url(#a)"/><path d="M861.61,857.25c-20,2.53-37.26,9.14-51.45,19.65-9.9,7.33-16.67,15.4-22.64,22.52-9,10.79-17.59,21-33,23.87a42.35,42.35,0,0,1-7.89.73c-13.65,0-28.22-6.37-43.42-19A10,10,0,1,1,716,889.63c13.36,11.12,25.08,15.84,34.82,14,8-1.5,12.82-6.89,21.36-17.07,1.33-1.58,2.72-3.24,4.2-5-9.11-4.83-18.18-9.78-27.09-14.8-15.95-9-24.47-14.21-28.72-25.52-3.44-9.13-4.12-22.65,4.26-33.24,10-12.59,25.4-12.4,28.39-12.24a10,10,0,0,1-1.11,20c-.31,0-7.6-.36-11.6,4.69-4.22,5.33-1.55,12.93-1.23,13.78,1.58,4.18,4.91,6.72,19.83,15.13,10.45,5.89,21.15,11.7,31.87,17.3,2.25-2,4.66-3.93,7.26-5.86,17-12.57,37.44-20.45,60.83-23.41a10,10,0,1,1,2.52,19.84Z" transform="translate(-546.53 -581.79)" fill="url(#b)"/><path d="M863.71,1193a10,10,0,0,1-14.07,1.49,29.48,29.48,0,0,0-10.78-5.63c-9.45-2.59-18.08.66-23.24,2.6-7.43,2.79-19.06,10.38-33.58,23.68l37.39,40.33c.17.19.33.38.49.58,8.68,10.91,9,20.53,8.45,25.29-2.39,20-25.5,34.77-54,34.77h-1.08a10,10,0,0,1,.26-20h.85c20.63,0,33.23-10.06,34.08-17.14.16-1.32.07-4.92-4-10.2l-36.72-39.62a442.78,442.78,0,0,0-29.67,34.64,10,10,0,0,1-15.8-12.26,441.93,441.93,0,0,1,38.13-43.32l0,0,1.12-1.1,0,0c17.74-17.31,34.24-29.52,47-34.31,6.45-2.43,19.88-7.48,35.59-3.17a49.57,49.57,0,0,1,18.06,9.37A10,10,0,0,1,863.71,1193Z" transform="translate(-546.53 -581.79)" fill="url(#c)"/><path d="M761.58,1207l-1.12,1.1a9.15,9.15,0,0,1,.75-.78C761.33,1207.23,761.45,1207.12,761.58,1207Z" transform="translate(-546.53 -581.79)" fill="url(#d)"/><path d="M1295.87,905c-15.2,12.65-29.76,19-43.41,19a42.35,42.35,0,0,1-7.89-.73c-15.4-2.89-24-13.08-33-23.87-6-7.12-12.73-15.19-22.64-22.52-14.18-10.51-31.49-17.12-51.44-19.65a10,10,0,1,1,2.51-19.84c23.39,3,43.86,10.84,60.83,23.41,2.61,1.93,5,3.89,7.27,5.86,10.72-5.6,21.41-11.41,31.86-17.3,14.92-8.41,18.26-11,19.83-15.13.32-.85,3-8.45-1.22-13.78-4-5.05-11.3-4.7-11.6-4.69a10,10,0,0,1-1.12-20c3-.16,18.42-.35,28.39,12.24,8.38,10.58,7.7,24.11,4.27,33.24-4.26,11.31-12.78,16.52-28.73,25.52-8.91,5-18,10-27.09,14.79q2.22,2.58,4.21,5c8.54,10.18,13.36,15.57,21.35,17.07,9.75,1.83,21.46-2.89,34.83-14A10,10,0,0,1,1295.87,905Z" transform="translate(-546.53 -581.79)" fill="url(#e)"/><path d="M1275,1265.51a10,10,0,0,1-14-1.77,442.24,442.24,0,0,0-29.66-34.63l-36.73,39.61c-4.1,5.28-4.18,8.88-4,10.2.86,7.18,13.77,17.38,34.92,17.14h.14a10,10,0,0,1,.13,20h-1.09c-28.47,0-51.58-14.82-54-34.77-.57-4.76-.23-14.38,8.44-25.29.16-.2.33-.39.5-.58l37.39-40.33c-14.53-13.3-26.15-20.89-33.58-23.68-5.16-1.94-13.79-5.19-23.25-2.6a29.48,29.48,0,0,0-10.78,5.63,10,10,0,1,1-12.57-15.55,49.49,49.49,0,0,1,18.06-9.37c15.71-4.31,29.13.74,35.58,3.17,12.74,4.79,29.24,17,47,34.33l0,0,1.08,1.07,0,0a441.75,441.75,0,0,1,38.12,43.32A10,10,0,0,1,1275,1265.51Z" transform="translate(-546.53 -581.79)" fill="url(#f)"/><path d="M1238.63,1208.12l-1.08-1.07.33.29A9.15,9.15,0,0,1,1238.63,1208.12Z" transform="translate(-546.53 -581.79)" fill="url(#g)"/><path d="M1009.55,813.34v-4.89c0,1,0,2,.08,2.95A9.61,9.61,0,0,1,1009.55,813.34Z" transform="translate(-546.53 -581.79)" fill="url(#h)"/><path d="M1433.87,1052.92c-8-13.76-18.75-25-30.78-32.1,9.86-12.29,29.54-42.79,22.43-83.6-7.33-42.13-38.27-64.4-49.38-71.16.57-16.41-2-45-21.9-71.71-28.45-38.18-72.06-43.85-88.08-44.61,2-14.67,3.61-51.36-23.22-79.39a94.1,94.1,0,0,0-48.63-26.62,89,89,0,0,0-13.88-1.75c-8.08-11-47.07-58.92-108.53-55-34.29,2.2-59,19.46-72.35,31.56-13.34-12.1-38.06-29.36-72.36-31.56-61.44-4-100.44,44-108.52,55a89.12,89.12,0,0,0-13.89,1.75,94.07,94.07,0,0,0-48.62,26.62c-26.83,28-25.21,64.72-23.23,79.39-16,.76-59.64,6.44-88.07,44.61-19.9,26.71-22.47,55.3-21.9,71.71-11.11,6.76-42.05,29-49.39,71.16-7.11,40.81,12.58,71.31,22.44,83.6-12,7.15-22.82,18.34-30.79,32.1a100.25,100.25,0,0,0-13.64,52.58c1.19,37.59,25.6,71.83,62.89,89.1-7.57,8.54-14.07,22.76-12.12,46.12,2.74,32.79,30.24,62.8,71.94,78.63a221.59,221.59,0,0,0,16.8,24.42c13,16.4,26.41,33.35,44.73,40.75a58.17,58.17,0,0,0,22,4.13c21.28,0,41.25-10.14,51.73-16.55,13.89,24.81,45.28,40.32,89.24,43.92,45.59,3.73,81.7-16.17,100.77-29.92,17.48,12.61,49.27,30.38,89.58,30.37,3.66,0,7.39-.14,11.18-.45,44-3.6,75.35-19.11,89.24-43.92,10.47,6.41,30.45,16.55,51.73,16.55a58.25,58.25,0,0,0,22-4.13c18.32-7.4,31.75-24.35,44.73-40.75a221.51,221.51,0,0,0,16.79-24.42c41.7-15.83,69.21-45.84,71.94-78.63,1.94-23.35-4.54-37.57-12.12-46.11,37.29-17.27,61.7-51.52,62.89-89.11A100.15,100.15,0,0,0,1433.87,1052.92ZM994.55,748.32C982.1,721.65,960.85,704,938,703.9h-.14c-12.13,0-25,5.65-36.31,15.91a5,5,0,0,0,6.73,7.4c12.79-11.63,24.07-13.33,29.69-13.31,22.79.08,50,25.9,56.54,69.05v594.43c-17.62,12.88-51.81,32.2-94.95,28.67s-72.62-18.77-83.42-43l-.09-.21-.06-.13c-4-9.15-5.39-19.49-4.16-30.77a5,5,0,0,0-9.94-1.09,70.57,70.57,0,0,0,3.43,32c-12.12,7.6-40.72,22.45-65.8,12.31-15.87-6.41-28.46-22.31-40.63-37.69a210.35,210.35,0,0,1-16.9-24.79,5,5,0,0,0-2.6-2.17c-38.95-14.31-64.67-41.4-67.11-70.71-1.67-20,3.11-34.44,14.2-42.9l.06,0c15.28-11.61,35.37-6.14,39.25-4.92a5,5,0,0,0,3-9.55c-4.52-1.41-27.19-7.56-46,4.88-36.2-15-60.14-47-61.25-82.17-1-32.24,18.08-65.94,44.43-78.37,5.07-2.4,15.63-7.38,27.78-4.29,15.49,3.93,23.48,18.36,25.56,22.69a5,5,0,1,0,9-4.33c-3.28-6.81-13-23.19-32.12-28.06-13-3.3-24.38.48-31.07,3.38-7.6-9.1-28.54-38.35-21.76-77.27,7.31-41.91,40.51-62.07,47.09-65.69a5,5,0,0,0,2.58-4.69c-.9-14.35.47-42.3,19.79-68.22,30.42-40.84,80-40.82,85.36-40.7l.41,0h.19c50.65,2.1,78.22,41.36,81.21,45.84a5,5,0,0,0,8.32-5.55c-3.2-4.79-32.14-46-85.32-50.05-1.84-11.79-4.63-46.56,20.33-72.64,24-25,63.78-32.7,90.66-17.46,10.62,6,19.5,15.67,25.69,27.9a5,5,0,1,0,8.92-4.51c-7.08-14-17.34-25.1-29.68-32.09a71.83,71.83,0,0,0-27.84-8.75,145.82,145.82,0,0,1,22.57-21.58c22.72-17.42,47.23-25.42,72.85-23.77,32.89,2.12,56.24,19.45,68,30.59Zm443,356.86c-1.11,35.16-25.06,67.15-61.26,82.17-18.79-12.44-41.47-6.29-46-4.88a5,5,0,0,0,3,9.55c3.87-1.22,24-6.69,39.25,4.92l.06,0c11.08,8.46,15.86,22.89,14.2,42.9-2.45,29.31-28.16,56.4-67.11,70.71a5,5,0,0,0-2.6,2.17,211.57,211.57,0,0,1-16.9,24.79c-12.18,15.38-24.77,31.28-40.64,37.69-25.08,10.13-53.67-4.71-65.79-12.31a70.59,70.59,0,0,0,3.42-32,5,5,0,0,0-9.94,1.09c1.24,11.28-.16,21.62-4.16,30.77l-.06.13-.09.21c-10.8,24.2-40.41,39.45-83.41,43-3.52.29-7,.42-10.36.42-38.24,0-68.39-17.24-84.59-29.09v-72.33c.87-29.36,18.33-54.48,42.46-61.07,18.84-5.15,35.9,2.79,42.36,6.45a5,5,0,0,0,4.92-8.71c-7.53-4.26-27.48-13.52-49.92-7.39-16.88,4.61-31,16.76-39.82,33V808.46c0-22.38,13-41.88,31.71-47.06,17.14-4.74,32.29,4.71,36.53,7.72a5,5,0,0,0,5.79-8.16c-5.15-3.65-23.59-15.11-45-9.2-12,3.32-22.13,11.31-29,22V627.58c11.77-11.14,35.12-28.46,68-30.58,25.62-1.66,50.13,6.35,72.85,23.77A145.51,145.51,0,0,1,1168,642.35a71.88,71.88,0,0,0-27.85,8.75c-12.33,7-22.59,18.09-29.68,32.09a5,5,0,1,0,8.92,4.51c6.2-12.23,15.08-21.88,25.69-27.9,26.88-15.24,66.71-7.57,90.66,17.46,25,26.07,22.18,60.84,20.34,72.64-53.18,4-82.13,45.26-85.32,50.05a5,5,0,0,0,8.32,5.55c3-4.48,30.56-43.74,81.21-45.84h.43c4.44-.13,54.76-.62,85.53,40.69,19.31,25.92,20.69,53.87,19.78,68.22a5,5,0,0,0,2.59,4.69c6.58,3.62,39.78,23.78,47.08,65.69,6.78,38.92-14.16,68.17-21.75,77.27-6.69-2.9-18.05-6.68-31.08-3.38-19.16,4.87-28.84,21.25-32.11,28.06a5,5,0,1,0,9,4.33c2.08-4.33,10.07-18.76,25.56-22.69,12.16-3.09,22.71,1.89,27.78,4.29C1419.43,1039.24,1438.54,1072.94,1437.52,1105.18Z" transform="translate(-546.53 -581.79)" fill="url(#i)"/><path d="M861,852.29c-20.81,2.64-38.91,9.57-53.79,20.59-10.38,7.69-17.35,16-23.5,23.33-8.82,10.52-16.44,19.61-30.08,22.17a37.44,37.44,0,0,1-7,.64c-12.47,0-26-6-40.24-17.86a5,5,0,0,1,6.4-7.69c14.56,12.12,27.67,17.2,38.94,15.08,10.12-1.9,16.06-9,24.27-18.77,2.58-3.08,5.3-6.32,8.34-9.63-11-5.73-21.91-11.67-32.6-17.7-15.33-8.64-22.85-13.22-26.5-22.92-1-2.71-5.65-16.82,3.5-28.38,8.44-10.65,21.63-10.48,24.19-10.34a5,5,0,1,1-.55,10c-1-.06-10.31-.36-15.8,6.57-5.81,7.34-2.67,16.82-2,18.65,2.22,5.89,6.7,9.07,22.06,17.73,11.49,6.48,23.28,12.85,35.08,19a110.34,110.34,0,0,1,9.48-7.88c16.27-12.05,36-19.61,58.48-22.47a5,5,0,1,1,1.26,9.92Z" transform="translate(-546.53 -581.79)" fill="url(#j)"/><path d="M859.82,1189.81a5,5,0,0,1-7,.74,34.47,34.47,0,0,0-12.6-6.56c-11-3-20.61.58-26.34,2.74-8.45,3.18-22,12.17-38.84,28.14l40.75,44,.25.29c7.54,9.49,7.87,17.6,7.39,21.59-2,17.14-23.5,30.36-49,30.36h-1a5,5,0,0,1,.07-10h.07c23.07.33,38.69-11,40-21.55.29-2.42,0-7.45-5.18-14l-40.43-43.61a431.15,431.15,0,0,0-33.72,38.8,5,5,0,0,1-3.95,1.94,5.07,5.07,0,0,1-3.07-1,5,5,0,0,1-.88-7A436.63,436.63,0,0,1,764.61,1211c17.37-17,33.44-29,45.72-33.64,6.42-2.41,18.36-6.91,32.5-3a44.5,44.5,0,0,1,16.24,8.44A5,5,0,0,1,859.82,1189.81Z" transform="translate(-546.53 -581.79)" fill="url(#k)"/><path d="M1292.67,901.16C1278.4,913,1264.9,919,1252.44,919a37.36,37.36,0,0,1-7-.64c-13.64-2.56-21.26-11.65-30.08-22.17-3.7-4.41-7.7-9.18-12.57-14a102.37,102.37,0,0,0-10.93-9.36c-14.89-11-33-18-53.79-20.59a5,5,0,1,1,1.25-9.92c22.53,2.86,42.21,10.42,58.49,22.47a112.21,112.21,0,0,1,9.48,7.88c11.8-6.12,23.58-12.5,35.08-19,15.36-8.66,19.83-11.84,22-17.73.69-1.83,3.82-11.32-2-18.65-5.5-6.93-14.76-6.63-15.8-6.57a5,5,0,1,1-.56-10c2.55-.14,15.75-.32,24.2,10.34,9.14,11.55,4.52,25.66,3.5,28.38-3.65,9.7-11.18,14.28-26.5,22.92-10.7,6-21.64,12-32.61,17.7,3,3.31,5.77,6.55,8.35,9.63,8.21,9.8,14.14,16.87,24.26,18.77,11.28,2.12,24.38-3,39-15.08a5,5,0,0,1,6.39,7.69Z" transform="translate(-546.53 -581.79)" fill="url(#l)"/><path d="M1272,1261.56a5,5,0,0,1-7-.89,429.57,429.57,0,0,0-33.72-38.8l-40.43,43.61c-5.18,6.58-5.47,11.61-5.18,14,1.25,10.46,16.5,21.55,39.05,21.55h1a5,5,0,0,1,.06,10h-1c-25.54,0-47-13.21-49-30.36-.47-4-.15-12.1,7.4-21.59l.24-.29,40.76-44c-16.85-16-30.4-24.95-38.85-28.13-5.73-2.16-15.31-5.76-26.33-2.74a34.47,34.47,0,0,0-12.6,6.56,5,5,0,1,1-6.29-7.77,44.5,44.5,0,0,1,16.24-8.44c14.15-3.88,26.09.62,32.5,3,12.28,4.62,28.34,16.58,45.7,33.62l0,0a.43.43,0,0,1,.09.1,435.58,435.58,0,0,1,38.27,43.43A5,5,0,0,1,1272,1261.56Z" transform="translate(-546.53 -581.79)" fill="url(#m)"/><path d="M1004.64,811.67a5.53,5.53,0,0,1-.09,1.29v-4.5Q1004.55,810.05,1004.64,811.67Z" transform="translate(-546.53 -581.79)" fill="url(#n)"/><path d="M860.67,849.81c-21.24,2.69-39.74,9.78-55,21.06a105.94,105.94,0,0,0-11.26,9.65l-.11.11c-4.86,4.79-8.85,9.56-12.56,14-8.51,10.16-15.86,18.93-28.62,21.32a35,35,0,0,1-6.49.6c-11.87,0-24.83-5.79-38.64-17.28a2.5,2.5,0,0,1,3.2-3.85c15.17,12.62,29,17.88,41,15.62,11-2.07,17.5-9.81,25.72-19.62,3.18-3.79,6.56-7.82,10.52-11.93-11.92-6.19-23.84-12.63-35.46-19.19-14.79-8.33-22-12.73-25.4-21.62-.93-2.49-5.18-15.44,3.13-25.94,7.68-9.7,19.75-9.54,22.09-9.41a2.5,2.5,0,0,1-.27,5c-1.18-.07-11.63-.41-17.9,7.51-6.64,8.39-3.14,19-2.37,21.08,2.62,7,8.12,10.54,23.17,19,12,6.78,24.37,13.44,36.72,19.83a110.74,110.74,0,0,1,10.55-8.9c15.93-11.8,35.22-19.2,57.32-22a2.5,2.5,0,0,1,.63,5Z" transform="translate(-546.53 -581.79)" fill="#fff"/><path d="M857.87,1188.24a2.49,2.49,0,0,1-3.51.37,36.94,36.94,0,0,0-13.51-7c-11.8-3.24-22.26.7-27.88,2.81-10.87,4.09-25.51,15-41.44,30.4l42.4,45.73.12.15c7,8.78,7.3,16.13,6.87,19.73-1.67,13.95-19.47,28.16-46.48,28.16h-1a2.5,2.5,0,0,1,0-5h1c23.93,0,40.16-12.23,41.54-23.75.33-2.82,0-8.63-5.77-16L768,1218.29a436.3,436.3,0,0,0-35.79,40.85,2.49,2.49,0,0,1-2,1,2.43,2.43,0,0,1-1.53-.53,2.5,2.5,0,0,1-.44-3.51c30.52-39.32,62.32-68.58,83-76.36,6.15-2.31,17.6-6.62,31-3a42.26,42.26,0,0,1,15.33,8A2.51,2.51,0,0,1,857.87,1188.24Z" transform="translate(-546.53 -581.79)" fill="#fff"/><path d="M1291.07,899.24c-13.8,11.49-26.77,17.28-38.64,17.28a34.87,34.87,0,0,1-6.48-.6c-12.76-2.39-20.11-11.16-28.63-21.32-6.24-7.43-13.3-15.87-23.92-23.73-15.24-11.28-33.73-18.37-55-21.06a2.5,2.5,0,1,1,.63-5c22.1,2.8,41.38,10.2,57.31,22a109.51,109.51,0,0,1,10.55,8.9c12.35-6.39,24.69-13,36.72-19.83,15-8.49,20.55-12.07,23.17-19,.77-2,4.27-12.69-2.36-21.08-6.28-7.92-16.73-7.58-17.9-7.51a2.5,2.5,0,0,1-.28-5c2.34-.13,14.42-.29,22.1,9.41,8.31,10.49,4.06,23.45,3.12,25.94-3.34,8.89-10.6,13.29-25.39,21.62-11.63,6.56-23.55,13-35.46,19.19,3.95,4.11,7.33,8.14,10.51,11.93,8.23,9.81,14.72,17.55,25.72,19.62,12,2.26,25.84-3,41-15.62a2.5,2.5,0,0,1,3.19,3.85Z" transform="translate(-546.53 -581.79)" fill="#fff"/><path d="M1270.44,1259.58a2.49,2.49,0,0,1-3.51-.44,436.11,436.11,0,0,0-35.79-40.84l-42.24,45.55c-5.79,7.33-6.1,13.14-5.76,16,1.4,11.67,18,24.09,42.47,23.75a2.5,2.5,0,1,1,.07,5h-1c-27,0-44.82-14.21-46.49-28.16-.43-3.6-.11-11,6.87-19.73l.13-.15,42.39-45.73c-15.93-15.42-30.57-26.31-41.44-30.4-5.62-2.11-16.08-6.05-27.87-2.81a36.86,36.86,0,0,0-13.51,7,2.5,2.5,0,0,1-3.15-3.89,42.26,42.26,0,0,1,15.33-8c13.36-3.66,24.81.65,31,3,20.67,7.78,52.47,37,83,76.36A2.5,2.5,0,0,1,1270.44,1259.58Z" transform="translate(-546.53 -581.79)" fill="#fff"/><path d="M1002.05,783.75v.57a2.42,2.42,0,0,1-.64,1C1001.62,784.78,1001.83,784.27,1002.05,783.75Z" transform="translate(-546.53 -581.79)" fill="#fff"/><path d="M1399.24,1021.51c7.92-9.37,31.25-41.24,23.82-83.86-7.47-42.88-40-64.68-49.48-70.2.76-15.78-1.29-44.68-21.34-71.6-29.71-39.89-76.39-43.49-89-43.71,2-11.78,5.85-50.81-22.15-80.06a91.59,91.59,0,0,0-47.33-25.9,85.65,85.65,0,0,0-14.69-1.75c-5.94-8.33-44.74-58.94-107-54.92-35,2.26-59.91,20.6-72.51,32.48C987,610.11,962.09,591.77,927,589.51c-62.34-4-101.13,46.63-107,54.93a84.76,84.76,0,0,0-14.69,1.74A91.67,91.67,0,0,0,758,672.08c-28,29.25-24.11,68.28-22.14,80.06-12.55.22-59.23,3.81-89,43.71-20.06,26.92-22.1,55.82-21.34,71.6-9.49,5.52-42,27.32-49.48,70.2-7.43,42.61,15.9,74.49,23.82,83.86-27.35,14.67-46.85,50.06-45.78,83.91,1.19,37.71,26.42,72,64.66,88.35-8.13,7.74-16,21.75-13.89,46.75,2.66,32,29.9,61.4,71.15,76.8a217.44,217.44,0,0,0,17,24.9c12.78,16.14,26,32.83,43.7,40a55.93,55.93,0,0,0,21.1,4c22.28,0,43.22-11.56,52.63-17.6,12.77,25.41,44,41.34,88.5,45,3.73.3,7.39.44,11,.44,40.77,0,72.73-18.52,89.59-31,16.85,12.44,48.81,31,89.58,31,3.59,0,7.26-.14,11-.44,44.46-3.63,75.72-19.55,88.5-45,9.42,6,30.36,17.59,52.64,17.59a55.88,55.88,0,0,0,21.09-4c17.71-7.16,30.93-23.85,43.71-40a219.14,219.14,0,0,0,17-24.9c41.25-15.4,68.48-44.77,71.15-76.81,2.08-25-5.76-39-13.9-46.74,38.24-16.36,63.47-50.64,64.66-88.35C1446.08,1071.57,1426.58,1036.18,1399.24,1021.51ZM997.05,1378.63c-17.6,13.1-52.87,33.57-97.66,29.91-44.08-3.6-74.48-19.46-85.59-44.66l0-.06c-4.2-9.57-5.68-20.36-4.38-32.11a2.5,2.5,0,1,0-5-.54c-1.3,11.87,0,22.88,4,32.78-11.24,7.33-42.36,24.71-69.78,13.62-16.48-6.66-29.28-22.82-41.66-38.45A214.27,214.27,0,0,1,679.86,1314a2.51,2.51,0,0,0-1.29-1.09c-39.88-14.64-66.22-42.55-68.74-72.84-1.73-20.84,3.32-36,15-45l.12-.09.18-.14c16.24-12.23,37.32-6.51,41.39-5.23a2.5,2.5,0,1,0,1.5-4.77c-4.41-1.38-26.9-7.48-45,5.32-37.8-15.18-62.88-48.38-64-84.92-1.05-33.15,18.64-67.82,45.79-80.69l.07,0,.16-.07c5.39-2.54,16.41-7.65,29.31-4.38,16.54,4.2,25,19.46,27.2,24a2.5,2.5,0,1,0,4.5-2.16c-3.12-6.5-12.34-22.12-30.47-26.72-13.4-3.4-25.07,1.2-31.15,4-6.44-7.34-30.89-38.48-23.53-80.74,7.5-43,41.59-63.74,48.34-67.45a2.5,2.5,0,0,0,1.3-2.35c-.93-14.69.48-43.3,20.27-69.87,32.3-43.36,85.62-41.76,87.87-41.67h.1c52,2.1,80.23,42.36,83.29,47a2.5,2.5,0,0,0,4.16-2.77c-3.16-4.75-32.15-46-85.38-49.08-1.76-9.71-6.62-48.22,20.67-76.73,24.71-25.81,65.86-33.68,93.69-17.9,11.05,6.26,20.28,16.27,26.69,28.94a2.5,2.5,0,1,0,4.46-2.25c-6.86-13.56-16.78-24.29-28.68-31a70.28,70.28,0,0,0-31.57-8.8c10-12.93,45.85-53.51,100.54-50,34.4,2.21,58.57,20.68,70.34,32V761.33a99.49,99.49,0,0,0-18.52-33.54c-11.85-13.74-26.23-21.34-40.5-21.39h-.12c-6.72,0-20,2-34.64,15.26a2.5,2.5,0,0,0,3.37,3.7c13.42-12.2,25.41-14,31.38-14,12.79.05,25.84,7,36.73,19.65,11.36,13.18,19.26,31.5,22.3,51.67Zm443-273.37c-1.16,36.54-26.25,69.74-64,84.92-18-12.8-40.53-6.7-44.94-5.32a2.5,2.5,0,1,0,1.49,4.77c4.09-1.28,25.3-7.05,41.57,5.37l.12.09c11.73,9,16.79,24.17,15.06,45-2.53,30.29-28.87,58.2-68.74,72.84a2.49,2.49,0,0,0-1.3,1.09,214.19,214.19,0,0,1-17.1,25.09c-12.38,15.63-25.18,31.79-41.66,38.45-27.42,11.09-58.54-6.29-69.79-13.62,4-9.9,5.3-20.91,4-32.78a2.5,2.5,0,1,0-5,.54c1.29,11.75-.19,22.55-4.39,32.11l0,.06c-11.11,25.2-41.5,41.06-85.59,44.66-44.79,3.66-80.06-16.81-97.65-29.91V1305c.9-30.45,19.12-56.53,44.3-63.41,19.74-5.4,37.52,2.87,44.25,6.68a2.5,2.5,0,1,0,2.46-4.35c-7.27-4.11-26.5-13.05-48-7.16-19.63,5.37-35.34,21.37-43,42.07V808.47c0-23.49,13.71-44,33.54-49.48,18.21-5,34.18,4.92,38.65,8.09a2.5,2.5,0,0,0,2.89-4.08c-4.92-3.49-22.55-14.45-42.87-8.83-14.36,4-25.84,15-32.07,29.26a2.51,2.51,0,0,1-.78,1.88c.21-.53.42-1,.64-1.56V626.51c11.76-11.33,35.94-29.8,70.33-32,54.71-3.53,90.56,37,100.55,50a70.28,70.28,0,0,0-31.57,8.8c-11.91,6.75-21.83,17.48-28.69,31a2.5,2.5,0,1,0,4.46,2.25c6.42-12.67,15.65-22.68,26.69-28.94,27.83-15.78,69-7.92,93.7,17.9,27.28,28.51,22.43,67,20.66,76.73-53.23,3.08-82.21,44.33-85.37,49.08a2.5,2.5,0,0,0,4.16,2.77c3.06-4.59,31.33-44.85,83.28-47h.1c2.26-.09,55.57-1.69,87.88,41.67C1368,825.4,1369.42,854,1368.5,868.7a2.49,2.49,0,0,0,1.29,2.35c6.76,3.71,40.85,24.41,48.34,67.45,7.36,42.26-17.09,73.4-23.52,80.74-6.09-2.79-17.74-7.39-31.15-4-18.14,4.6-27.36,20.22-30.48,26.72a2.5,2.5,0,0,0,4.51,2.16c2.2-4.58,10.65-19.84,27.2-24,12.93-3.28,24,1.86,29.34,4.39l.12.06h0C1421.36,1037.41,1441.07,1072.09,1440,1105.26Z" transform="translate(-546.53 -581.79)" fill="#fff"/><path d="M1002.19,783.43a2.51,2.51,0,0,1-.78,1.88c.21-.53.42-1,.64-1.56v-1.41l.12.81A1.37,1.37,0,0,1,1002.19,783.43Z" transform="translate(-546.53 -581.79)" fill="#fff"/><path d="M1002.05,808.47c0,1.11,0,2.22.09,3.34a2.2,2.2,0,0,1-.09.81Z" transform="translate(-546.53 -581.79)" fill="#fff"/><path d="M1002.05,784.32a2.42,2.42,0,0,1-.64,1c.21-.53.42-1,.64-1.56l.14-.32A2.41,2.41,0,0,1,1002.05,784.32Z" transform="translate(-546.53 -581.79)" fill="#fff"/></svg>