<svg width="200" height="200" viewBox="0 0 200 200" fill="none" xmlns="http://www.w3.org/2000/svg">
<path fill-rule="evenodd" clip-rule="evenodd" d="M81.5422 44.4316C79.2574 46.7066 78.1137 49.4566 78.109 52.682C78.1137 55.9062 79.2574 58.6566 81.5422 60.9316C83.8172 63.2074 86.568 64.3437 89.7937 64.341C93.0191 64.3441 95.7699 63.2078 98.0457 60.9316C98.341 60.6328 98.6133 60.3301 98.8641 60.0227L107.344 63.9086C107.215 64.5789 107.148 65.2758 107.139 66V66.023C107.146 69.2461 108.291 71.9957 110.572 74.273C112.842 76.5379 115.584 77.6668 118.8 77.659C122.025 77.6668 124.775 76.5379 127.053 74.273C127.346 73.9766 127.617 73.6738 127.871 73.3641L136.35 77.273C136.243 77.9406 136.19 78.6301 136.191 79.341C136.188 82.5734 137.325 85.3312 139.601 87.6141C141.482 89.4887 143.688 90.5867 146.216 90.9098L147.489 102.182C145.982 102.745 144.61 103.647 143.375 104.887C141.089 107.161 139.946 109.912 139.942 113.137C139.948 114.842 140.273 116.418 140.92 117.864L128.462 127.546L126.598 110.751C128.143 110.182 129.546 109.264 130.804 108C133.096 105.725 134.247 102.975 134.259 99.7508C134.247 96.5184 133.096 93.7605 130.804 91.4777C128.528 89.1937 125.778 88.0504 122.552 88.0461C119.326 88.0504 116.576 89.1937 114.3 91.4777C113.996 91.7844 113.716 92.1031 113.459 92.432L105.048 88.5684C105.171 87.8746 105.232 87.1551 105.23 86.4094C105.234 83.1844 104.097 80.4344 101.82 78.1598C99.5375 75.8758 96.7789 74.732 93.5457 74.7281C90.3129 74.732 87.5539 75.8758 85.2711 78.1598C82.9945 80.4344 81.8582 83.1844 81.8613 86.4094C81.8582 89.6414 82.9945 92.3992 85.2711 94.682C87.5539 96.9578 90.3125 98.0941 93.5457 98.0914C96.7789 98.0945 99.5375 96.9582 101.82 94.682C102.116 94.3844 102.389 94.0734 102.639 93.7504L111.073 97.6367C110.949 98.3125 110.889 99.0176 110.89 99.7504C110.893 101.518 111.234 103.146 111.913 104.636L104.321 110.773C102.307 109.226 99.9734 108.453 97.3191 108.455C94.0863 108.459 91.3281 109.602 89.0449 111.887C88.732 112.195 88.4441 112.513 88.1809 112.841L79.7473 108.954C79.8699 108.257 79.9305 107.537 79.9289 106.795C79.9324 103.571 78.7957 100.821 76.5191 98.5457C74.2359 96.2699 71.4781 95.1336 68.2445 95.1363C65.0184 95.1332 62.2676 96.2695 59.9922 98.5457C59.6859 98.8473 59.398 99.1582 59.1281 99.4773L50.7402 95.6137C50.8625 94.916 50.9238 94.1883 50.9219 93.432C50.9203 91.6406 50.5723 89.9965 49.8762 88.5004L57.4691 82.3867C59.4992 83.9578 61.8559 84.7461 64.5387 84.7504C67.7719 84.7461 70.5305 83.6023 72.8141 81.3187C75.0902 79.0434 76.227 76.2937 76.2238 73.0687C76.227 69.8437 75.0902 67.0937 72.8141 64.8184C70.5305 62.543 67.7723 61.4066 64.5387 61.4094C61.3059 61.4062 58.5477 62.5426 56.2641 64.8184C53.9879 67.0937 52.8512 69.8437 52.8543 73.0687C52.8551 74.8383 53.2039 76.4676 53.9 77.9551L46.3074 84.0687C44.275 82.5047 41.9184 81.7246 39.2375 81.7277C36.0121 81.7246 33.2613 82.8609 30.9855 85.1371C28.7012 87.4273 27.557 90.1922 27.5531 93.4324C27.557 96.657 28.7012 99.407 30.9855 101.682C33.2613 103.958 36.0117 105.095 39.2375 105.091C42.4707 105.095 45.2285 103.959 47.5121 101.682C47.7922 101.398 48.0578 101.11 48.3078 100.819L56.7414 104.683C56.6187 105.359 56.5578 106.064 56.5598 106.796C56.5645 110.036 57.7082 112.801 59.9922 115.091C62.2676 117.367 65.0184 118.504 68.2445 118.5C71.4777 118.504 74.2359 117.368 76.5191 115.091C76.8145 114.786 77.0875 114.468 77.3379 114.137L85.8168 118.023C85.6863 118.713 85.618 119.426 85.6125 120.159C85.6168 123.385 86.7605 126.134 89.0453 128.41C91.3285 130.686 94.0863 131.822 97.3195 131.819C100.545 131.823 103.295 130.686 105.571 128.41C107.856 126.134 108.999 123.385 109.005 120.159C109.003 118.359 108.655 116.707 107.959 115.205L115.529 109.068C117.126 110.313 118.929 111.063 120.939 111.319C123.311 132.614 125.683 153.909 128.054 175.205L120.166 177.638L108.096 146.501H95.8199C93.1758 146.507 90.7289 145.575 88.4777 143.705C86.2262 141.837 84.832 139.579 84.2949 136.933L83.9992 135.501H69.2688C66.65 135.5 64.2254 134.576 61.9941 132.728C61.9707 132.72 61.9484 132.712 61.9254 132.705C59.6742 130.837 58.2801 128.579 57.7426 125.933L57.4473 124.523H42.7395C40.0809 124.522 37.618 123.583 35.3512 121.705C33.0996 119.829 31.7055 117.564 31.1684 114.91L30.8957 113.523H19.5273C19.1082 113.518 18.6988 113.487 18.2996 113.433C16.2648 113.14 14.4844 112.23 12.9574 110.705C11.0895 108.829 10.1574 106.564 10.1613 103.91V92.5691C10.1574 89.9242 11.0891 87.6672 12.9574 85.7965C14.8289 83.9207 17.0867 82.9816 19.7316 82.9781H20.1406V71.6371C20.1371 68.9859 21.0687 66.7207 22.9367 64.8418C24.8234 62.9664 27.0965 62.0269 29.7563 62.0234H31.0066L33.8937 50.6824C34.548 48.023 36.041 45.7504 38.3723 43.8644C40.7223 42.0043 43.223 41.0801 45.8738 41.0918H57.4445L57.7398 39.6824C58.2773 37.0355 59.6715 34.7777 61.9227 32.9098C64.1738 31.0316 66.6219 30.0926 69.266 30.0914H110.23C112.881 30.0922 115.336 31.0316 117.595 32.9098C119.847 34.7777 121.241 37.0355 121.778 39.6824L122.05 41.0918H136.758C139.406 41.0844 141.861 42.0012 144.124 43.8418C144.138 43.8566 144.154 43.8723 144.169 43.8867C146.412 45.7629 147.799 48.0281 148.329 50.682H154.193C156.836 50.6875 159.329 51.6191 161.673 53.4777C164.011 55.3637 165.511 57.6363 166.174 60.2957L169.061 71.6363H170.311C172.971 71.632 175.244 72.5641 177.131 74.432C178.998 76.3105 179.931 78.5754 179.927 81.2273V92.568H180.336C182.98 92.5641 185.239 93.4957 187.11 95.3633C188.986 97.2418 189.926 99.5066 189.929 102.159V113.522C189.926 116.177 188.986 118.441 187.11 120.318C185.584 121.828 183.802 122.721 181.768 123C181.369 123.062 180.959 123.1 180.54 123.113H175.812L174.562 129.954C174.089 132.616 172.747 134.889 170.538 136.773C168.326 138.634 165.893 139.559 163.24 139.545H158.83L158.807 139.636C158.309 145.844 154.976 149.889 148.805 151.773C142.64 153.643 140.223 160.021 141.554 170.909L133.553 173.432L129.21 134.114L144.373 122.318C146.439 123.987 148.857 124.821 151.624 124.818C154.857 124.821 157.615 123.685 159.899 121.408C162.176 119.126 163.313 116.368 163.309 113.136C163.313 109.911 162.176 107.16 159.899 104.886C157.983 102.972 155.733 101.857 153.147 101.545L151.874 90.3629C153.439 89.798 154.857 88.8816 156.125 87.6129C158.409 85.3301 159.554 82.5727 159.558 79.3398C159.554 76.1078 158.409 73.35 156.125 71.0668C153.85 68.7914 151.099 67.6551 147.874 67.6578C144.64 67.6547 141.882 68.791 139.599 71.0668C139.276 71.3937 138.973 71.727 138.689 72.0672L130.278 68.1812C130.401 67.4824 130.461 66.7629 130.461 66.0223V65.9992C130.459 63.0066 129.474 60.4234 127.505 58.2492C127.36 58.0879 127.208 57.9289 127.051 57.7715C124.773 55.5066 122.023 54.3777 118.798 54.3855C115.583 54.3777 112.84 55.5066 110.57 57.7715C110.413 57.9285 110.261 58.0879 110.116 58.2492C109.977 58.3988 109.84 58.5504 109.706 58.7039L101.273 54.8172C101.395 54.1312 101.455 53.4195 101.454 52.6812C101.458 49.4559 100.321 46.7059 98.0445 44.4309C95.7688 42.1473 93.018 41.0031 89.7926 40.9992C86.568 41.0039 83.8172 42.148 81.5422 44.4316Z" fill="#5DADF8"/>
<path fill-rule="evenodd" clip-rule="evenodd" d="M93.7035 115.364C94.7543 114.569 95.9594 114.174 97.3176 114.182C98.1281 114.175 98.8859 114.311 99.5906 114.591C100.298 114.889 100.95 115.336 101.546 115.932C102.443 116.827 102.996 117.857 103.205 119.023C103.271 119.386 103.302 119.765 103.296 120.159C103.302 121.788 102.718 123.191 101.546 124.364C100.364 125.544 98.9551 126.135 97.3172 126.137C95.6805 126.135 94.2707 125.543 93.0891 124.364C92.0188 123.296 91.443 122.038 91.3617 120.592C91.3453 120.448 91.3375 120.304 91.3387 120.159C91.3328 118.523 91.9164 117.113 93.0887 115.933C93.291 115.728 93.4953 115.539 93.7035 115.364Z" fill="#5DADF8"/>
<path fill-rule="evenodd" clip-rule="evenodd" d="M74.2215 106.432C74.2219 106.548 74.2219 106.669 74.2215 106.795C74.2191 108.432 73.6281 109.842 72.4488 111.023C72.2402 111.234 72.0207 111.431 71.7895 111.614C70.7652 112.393 69.5836 112.779 68.2434 112.773C66.6059 112.778 65.1965 112.195 64.0148 111.023C62.9453 109.947 62.3691 108.683 62.2871 107.228C62.2625 107.086 62.2473 106.942 62.2418 106.796C62.2441 105.166 62.8352 103.765 64.0148 102.591C64.2172 102.385 64.4293 102.196 64.6512 102.023C65.6902 101.22 66.8875 100.819 68.2434 100.819C69.873 100.821 71.2754 101.412 72.4492 102.591C73.5352 103.673 74.1262 104.954 74.2215 106.432Z" fill="#5DADF8"/>
<path fill-rule="evenodd" clip-rule="evenodd" d="M45.2148 93.0684C45.2148 93.1879 45.2148 93.3086 45.2148 93.432C45.2129 95.0613 44.6215 96.4629 43.4414 97.6367C43.2187 97.8629 42.9914 98.068 42.7594 98.2504C41.7293 99.0203 40.5551 99.4066 39.2359 99.4094C37.5984 99.407 36.1895 98.8164 35.0078 97.6367C33.8277 96.4629 33.2367 95.0613 33.2348 93.432C33.2367 91.7949 33.8277 90.3859 35.0078 89.2047C36.1895 88.0246 37.5984 87.4344 39.2359 87.432C40.0703 87.4316 40.8434 87.5836 41.5551 87.8863C42.2402 88.1875 42.8687 88.6266 43.4414 89.2047C44.3492 90.1106 44.9102 91.1488 45.1238 92.3184C45.1645 92.5637 45.1945 92.8137 45.2148 93.0684Z" fill="#5DADF8"/>
<path fill-rule="evenodd" clip-rule="evenodd" d="M70.5394 73.0684C70.5371 74.7051 69.9457 76.1145 68.766 77.2953C67.5848 78.4754 66.1754 79.066 64.5375 79.0684C63.6961 79.0625 62.9156 78.8957 62.1961 78.568C61.5211 78.2848 60.9 77.8609 60.3324 77.2953C59.4137 76.3738 58.8531 75.3137 58.65 74.1133C58.593 73.7758 58.5625 73.427 58.559 73.068C58.5613 71.4383 59.1523 70.0371 60.3324 68.8633C61.5062 67.6832 62.9082 67.0926 64.5379 67.0902C66.1758 67.0926 67.5852 67.6836 68.7664 68.8633C69.9457 70.0375 70.5371 71.4387 70.5394 73.0684Z" fill="#5DADF8"/>
<path fill-rule="evenodd" clip-rule="evenodd" d="M98.0457 82.4547C98.1129 82.5297 98.1813 82.6058 98.25 82.682C98.3027 82.7527 98.3555 82.8285 98.409 82.9094C99.0922 83.8269 99.4711 84.8644 99.5457 86.0226C99.5457 86.1515 99.5457 86.2805 99.5457 86.409C99.5434 88.0383 98.9523 89.4398 97.7723 90.6137C97.5602 90.8297 97.3406 91.0269 97.1133 91.2051C96.0754 91.991 94.8859 92.3851 93.5438 92.3863C91.9141 92.384 90.5121 91.7933 89.3383 90.6137C88.1582 89.4398 87.5672 88.0383 87.5652 86.409C87.5672 84.7719 88.1582 83.3629 89.3383 82.1816C90.5121 81.0019 91.9141 80.4113 93.5438 80.4094C95.1813 80.4113 96.591 81.0023 97.7719 82.1816C97.8254 82.2355 97.8781 82.2883 97.9313 82.341C97.9703 82.3816 98.0082 82.4199 98.0457 82.4547Z" fill="#5DADF8"/>
<path fill-rule="evenodd" clip-rule="evenodd" d="M122.551 93.7727C124.188 93.7672 125.597 94.3504 126.779 95.523C127.959 96.7035 128.55 98.1129 128.553 99.75C128.55 101.386 127.959 102.796 126.779 103.977C126.5 104.247 126.212 104.481 125.915 104.682C124.923 105.378 123.802 105.727 122.551 105.727C121.729 105.728 120.964 105.576 120.255 105.273H120.232C119.551 104.983 118.921 104.552 118.345 103.977C117.422 103.053 116.862 101.985 116.663 100.773C116.634 100.584 116.612 100.386 116.594 100.182C116.579 100.04 116.57 99.8965 116.571 99.7504C116.573 98.1133 117.165 96.7039 118.345 95.5234C118.546 95.3262 118.758 95.1441 118.981 94.9777C120.011 94.1738 121.2 93.7727 122.551 93.7727Z" fill="#5DADF8"/>
<path fill-rule="evenodd" clip-rule="evenodd" d="M85.5652 48.4543C86.7465 47.2824 88.1559 46.6988 89.7934 46.7047C91.423 46.6988 92.825 47.2824 93.9988 48.4543C95.0832 49.5371 95.6746 50.8102 95.7723 52.2727C95.7723 52.4105 95.7723 52.5465 95.7723 52.682C95.7699 54.3113 95.1785 55.7129 93.9988 56.8867C93.7906 57.0981 93.5707 57.2949 93.3395 57.4773C92.3156 58.2641 91.1332 58.6578 89.7934 58.659C88.1559 58.6566 86.7465 58.0656 85.5652 56.8867C84.3926 55.7129 83.8094 54.3113 83.8152 52.682C83.8094 51.0445 84.3926 49.6356 85.5652 48.4543Z" fill="#5DADF8"/>
<path fill-rule="evenodd" clip-rule="evenodd" d="M115.208 61.25C116.247 60.4633 117.444 60.0699 118.8 60.0687C120.432 60.066 121.826 60.634 122.984 61.773L123.006 61.841C123.093 61.9078 123.175 61.9758 123.256 62.0453L123.279 62.0683C124.193 63.0836 124.686 64.2726 124.756 65.6367C124.758 65.7582 124.758 65.8797 124.756 66.0004V66.0234C124.754 67.666 124.17 69.068 123.006 70.2281C122.79 70.4402 122.563 70.6297 122.324 70.7961C121.311 71.5664 120.137 71.9523 118.8 71.9551C117.15 71.9594 115.739 71.3836 114.573 70.2281C113.516 69.1715 112.948 67.9141 112.868 66.4555C112.85 66.3141 112.843 66.1703 112.845 66.0238V66.0008C112.849 64.4836 113.349 63.1734 114.346 62.0691L114.368 62.0461C114.433 61.9762 114.502 61.9082 114.573 61.8418L114.595 61.7738C114.796 61.5785 115 61.4039 115.208 61.25Z" fill="#5DADF8"/>
<path fill-rule="evenodd" clip-rule="evenodd" d="M147.875 73.3641C149.505 73.3656 150.907 73.9567 152.081 75.1363C153.261 76.3102 153.852 77.7113 153.853 79.341C153.852 80.9781 153.26 82.3871 152.081 83.568C151.803 83.8461 151.516 84.0887 151.217 84.2957C150.234 84.9918 149.121 85.3406 147.875 85.341C147.041 85.3414 146.268 85.1899 145.556 84.8863C144.871 84.5856 144.241 84.1461 143.67 83.568C142.596 82.5086 142.006 81.266 141.896 79.8414C141.881 79.6738 141.872 79.507 141.873 79.341C141.883 77.7113 142.481 76.3102 143.67 75.1363C143.849 74.9524 144.039 74.7863 144.238 74.6367C145.285 73.7926 146.497 73.3688 147.875 73.3641Z" fill="#5DADF8"/>
<path fill-rule="evenodd" clip-rule="evenodd" d="M151.626 107.159C152.405 107.154 153.134 107.282 153.808 107.545C154.545 107.841 155.218 108.295 155.832 108.909C157.011 110.09 157.602 111.499 157.604 113.136C157.602 114.765 157.011 116.166 155.832 117.341C154.658 118.521 153.255 119.111 151.626 119.114C150.741 119.116 149.923 118.95 149.171 118.613C148.532 118.31 147.941 117.885 147.398 117.341C146.457 116.402 145.897 115.318 145.715 114.091C145.666 113.78 145.643 113.463 145.647 113.137C145.641 111.5 146.225 110.091 147.397 108.909C147.642 108.667 147.9 108.446 148.17 108.25C149.177 107.52 150.33 107.157 151.626 107.159Z" fill="#5DADF8"/>
</svg>
