<svg xmlns="http://www.w3.org/2000/svg" xmlns:xlink="http://www.w3.org/1999/xlink" width="927.82" height="873.79" viewBox="0 0 927.82 873.79"><defs><linearGradient id="a" x1="1359.38" y1="294.47" x2="1407.74" y2="294.47" gradientTransform="matrix(1, 0, 0, -1, -429.92, 884.56)" gradientUnits="userSpaceOnUse"><stop offset="0" stop-color="blue"/><stop offset="0.25" stop-color="#f0f"/><stop offset="0.53" stop-color="#ff5100"/><stop offset="0.78" stop-color="#26ff00"/><stop offset="1" stop-color="#ff0"/></linearGradient><linearGradient id="b" x1="1168.52" y1="366.96" x2="1445.53" y2="366.96" xlink:href="#a"/><linearGradient id="c" x1="1041.04" y1="553.26" x2="1089.4" y2="553.26" xlink:href="#a"/><linearGradient id="d" x1="850.18" y1="625.69" x2="1127.21" y2="625.69" xlink:href="#a"/><linearGradient id="e" x1="708.59" y1="299.17" x2="756.95" y2="299.17" xlink:href="#a"/><linearGradient id="f" x1="517.71" y1="371.62" x2="794.76" y2="371.62" xlink:href="#a"/><linearGradient id="g" x1="854.19" y1="-26.48" x2="902.55" y2="-26.48" xlink:href="#a"/><linearGradient id="h" x1="663.33" y1="45.98" x2="940.33" y2="45.98" xlink:href="#a"/><linearGradient id="i" x1="1206.12" y1="-36.74" x2="1254.48" y2="-36.74" xlink:href="#a"/><linearGradient id="j" x1="1015.25" y1="35.79" x2="1292.25" y2="35.79" xlink:href="#a"/><linearGradient id="k" x1="1172.16" y1="366.95" x2="1441.88" y2="366.95" gradientTransform="matrix(1, 0, 0, -1, -429.92, 884.56)" gradientUnits="userSpaceOnUse"><stop offset="0" stop-color="#13c0ff"/><stop offset="0.18" stop-color="#31cdd3"/><stop offset="0.58" stop-color="#70e678"/><stop offset="0.87" stop-color="#97f73f"/><stop offset="1" stop-color="#a6fd29"/></linearGradient><linearGradient id="l" x1="1363.02" y1="294.47" x2="1404.1" y2="294.47" xlink:href="#k"/><linearGradient id="m" x1="1239.54" y1="375.12" x2="1369.86" y2="375.12" xlink:href="#k"/><linearGradient id="n" x1="967.71" y1="640.29" x2="992.89" y2="640.29" xlink:href="#k"/><linearGradient id="o" x1="950.1" y1="636.97" x2="968.8" y2="636.97" xlink:href="#k"/><linearGradient id="p" x1="947.53" y1="655.38" x2="966.22" y2="655.38" xlink:href="#k"/><linearGradient id="q" x1="935.6" y1="689.38" x2="948.16" y2="689.38" xlink:href="#k"/><linearGradient id="r" x1="922.57" y1="676.88" x2="936.9" y2="676.88" xlink:href="#k"/><linearGradient id="s" x1="914.48" y1="661.4" x2="929.86" y2="661.4" xlink:href="#k"/><linearGradient id="t" x1="911.49" y1="642.66" x2="927.39" y2="642.66" xlink:href="#k"/><linearGradient id="u" x1="913.42" y1="624.99" x2="928.98" y2="624.99" xlink:href="#k"/><linearGradient id="v" x1="921.69" y1="609.04" x2="935.84" y2="609.04" xlink:href="#k"/><linearGradient id="w" x1="933.49" y1="594.93" x2="946.93" y2="594.93" xlink:href="#k"/><linearGradient id="x" x1="949.14" y1="585.95" x2="961.03" y2="585.95" xlink:href="#k"/><linearGradient id="y" x1="967.45" y1="580.45" x2="976.67" y2="580.45" xlink:href="#k"/><linearGradient id="z" x1="930.73" y1="642.23" x2="1038.16" y2="642.23" xlink:href="#k"/><linearGradient id="aa" x1="853.82" y1="625.69" x2="1123.48" y2="625.69" xlink:href="#k"/><linearGradient id="ab" x1="1044.68" y1="553.22" x2="1085.76" y2="553.22" xlink:href="#k"/><linearGradient id="ac" x1="521.36" y1="371.63" x2="791.05" y2="371.63" xlink:href="#k"/><linearGradient id="ad" x1="712.23" y1="299.17" x2="753.31" y2="299.17" xlink:href="#k"/><linearGradient id="ae" x1="583.29" y1="381.95" x2="729.53" y2="381.95" xlink:href="#k"/><linearGradient id="af" x1="620.83" y1="370.12" x2="663.31" y2="370.12" xlink:href="#k"/><linearGradient id="ag" x1="591.33" y1="376.75" x2="614.07" y2="376.75" xlink:href="#k"/><linearGradient id="ah" x1="639.53" y1="424.6" x2="662.27" y2="424.6" xlink:href="#k"/><linearGradient id="ai" x1="604.26" y1="349.71" x2="627" y2="349.71" xlink:href="#k"/><linearGradient id="aj" x1="631.81" y1="339.06" x2="654.55" y2="339.06" xlink:href="#k"/><linearGradient id="ak" x1="659.04" y1="375.45" x2="673.09" y2="375.45" xlink:href="#k"/><linearGradient id="al" x1="857.83" y1="-26.48" x2="898.91" y2="-26.48" xlink:href="#k"/><linearGradient id="am" x1="666.97" y1="45.99" x2="936.65" y2="45.99" xlink:href="#k"/><linearGradient id="an" x1="1018.9" y1="35.8" x2="1288.58" y2="35.8" xlink:href="#k"/><linearGradient id="ao" x1="1209.76" y1="-36.69" x2="1250.84" y2="-36.69" xlink:href="#k"/><linearGradient id="ap" x1="1079.68" y1="45.12" x2="1215.56" y2="45.12" xlink:href="#k"/><linearGradient id="aq" x1="1119.3" y1="88.7" x2="1195.9" y2="88.7" xlink:href="#k"/><linearGradient id="ar" x1="1146.7" y1="80.82" x2="1170.13" y2="80.82" xlink:href="#k"/><linearGradient id="as" x1="1114.85" y1="69.63" x2="1141.1" y2="69.63" xlink:href="#k"/><linearGradient id="at" x1="1111.75" y1="60.19" x2="1137.99" y2="60.19" xlink:href="#k"/><linearGradient id="au" x1="1160.33" y1="60.19" x2="1186.57" y2="60.19" xlink:href="#k"/><linearGradient id="av" x1="1157.22" y1="50.7" x2="1183.47" y2="50.7" xlink:href="#k"/></defs><path d="M953.65,614.27a24.18,24.18,0,1,1,24.17-24.19h0A24.19,24.19,0,0,1,953.65,614.27Zm0-33.79a9.62,9.62,0,1,0,9.61,9.63v0A9.63,9.63,0,0,0,953.65,580.48Z" transform="translate(-87.79 -116.92)" fill="url(#a)"/><path d="M1013.61,623.1l-17.32-18.33a10.92,10.92,0,0,0,.83-11.17,14.35,14.35,0,0,1-.72-11.51,11,11,0,0,0-5.76-13.67,16.67,16.67,0,0,1-9.31-10.7,11,11,0,0,0-5.41-6.58,10.81,10.81,0,0,0-8.45-.66,5.52,5.52,0,0,1-5.74-1.24c-.12-.11-.23-.22-.36-.32v-123h35.12a7.28,7.28,0,0,0,7.28-7.28h0V397.48a21.86,21.86,0,0,0-21.84-21.84H811.08a6.73,6.73,0,0,0-1,.07,28.05,28.05,0,0,0-26,28.35V550.74h-38.2A7.28,7.28,0,0,0,738.6,558h0v17.31a30.15,30.15,0,0,0,26.74,30.31c.51.05,1,.1,1.56.13s1.12,0,1.69,0H911.41a10.91,10.91,0,0,0,6.87,8.4,15.24,15.24,0,0,1,9.33,9.9,10.09,10.09,0,0,0,1,2.25l-1.77,25.44a7.29,7.29,0,0,0,10.43,7.07l10.23-4.94,8.84,4.79a7.29,7.29,0,0,0,10.74-6.41V632.05l15.59,16.43a7.26,7.26,0,0,0,5.28,2.27,7,7,0,0,0,1.21-.11,7.22,7.22,0,0,0,5.42-4.16l3.54-7.77,12.25-3.58a7.28,7.28,0,0,0,3.24-12Zm-229.53-48c0,8.91-7,16.17-15.52,16.17h-.89a3.64,3.64,0,0,1-.82-.06c-7.69-.83-13.71-7.77-13.71-15.83v-10h31ZM981.89,390.24a7.29,7.29,0,0,1,7.28,7.27v13.85H840v-7.27A28.13,28.13,0,0,0,837.4,392c-.28-.6-.58-1.17-.89-1.74ZM869.17,557.69a40.73,40.73,0,0,0,8.26.35,16.67,16.67,0,0,0,1.86-.16,7.25,7.25,0,0,0-.67,2.93l-.22,11.41-8.87-.17.2-11.39A7.37,7.37,0,0,0,869.17,557.69Zm7.42-14.2A25.79,25.79,0,0,1,850.23,525h49.53a26.14,26.14,0,0,1-23.17,18.47Zm28.4,1.28a7.71,7.71,0,0,0,1.07,1.58l8.19,9.32-6.67,5.81-7.65-8.7a7.34,7.34,0,0,0-2.21-1.7,40.83,40.83,0,0,0,7.27-6.31Zm-84.46-34.29v-3H929.08v3Zm29.11,38.71a7.63,7.63,0,0,0-2.35,1.53l-8.33,8-6.17-6.39,8.92-8.61a7.54,7.54,0,0,0,1.19-1.51,39.48,39.48,0,0,0,4.37,4.86c.77.74,1.56,1.43,2.37,2.09Zm9.68-69.48a7.26,7.26,0,0,0,7.28-7.26V446.63h12.9v25.8a7.29,7.29,0,0,0,14.57,0v-1.14a7.28,7.28,0,0,0,6.92-5.38l.49-1.8a48.41,48.41,0,0,1,10.35,13.52,45.82,45.82,0,0,1,2.24,5.08,10.56,10.56,0,0,0-9.27,10.22H889.7a10.26,10.26,0,0,0-10.25-10.25H863.94A10.63,10.63,0,0,0,853.33,493h-12.8a10.49,10.49,0,0,0-9.88-10.28,35.84,35.84,0,0,1,4.74-10.21,36.51,36.51,0,0,1,9-9.22l.73,2.69a7.28,7.28,0,0,0,6.93,5.38v1.14a7.27,7.27,0,0,0,7.27,7.2Zm61,60.8c.29-.63.56-1.26.81-1.9l9.45.38a5.57,5.57,0,0,0,1,0,13.46,13.46,0,0,0,12-11.32,7.08,7.08,0,0,0,.09-1.13V505.39a12.53,12.53,0,0,0-10.11-12.26v-.52a10,10,0,0,0-3.62-7.7,62.57,62.57,0,0,0-5.14-14,64.13,64.13,0,0,0-20.72-23.35,10.54,10.54,0,0,0-6.31-6.41l-4.94-1.79A12.91,12.91,0,0,0,881.2,432H865a12.93,12.93,0,0,0-11.63,7.32L848.88,441a11.07,11.07,0,0,0-6.52,6.43,51.71,51.71,0,0,0-19,16.88,51,51,0,0,0-8.1,20.92,10.22,10.22,0,0,0-3.44,7.65v1.63A11.73,11.73,0,0,0,806,504.59v17.79a12.49,12.49,0,0,0,10.72,12c.26,0,.51.06.76.07l9.92.39c.2.63.41,1.26.63,1.88L820.51,544a11.49,11.49,0,0,0-.3,16.24h0l9.85,10.22a12.29,12.29,0,0,0,17.35.29l6.14-5.94c.5.24,1,.47,1.51.69l-.17,9a11.82,11.82,0,0,0,11.58,12l14.8.27h.23a11.4,11.4,0,0,0,11.38-11.18l.17-8.58,4.73,5.38a12.73,12.73,0,0,0,8.78,4.34,13.24,13.24,0,0,0,3.71-.29,10.88,10.88,0,0,0,.66,7.67,21.36,21.36,0,0,1,2,7.07H794.17A30.93,30.93,0,0,0,798.69,575V404a14.3,14.3,0,0,1,1-5.56A13.38,13.38,0,0,1,825.4,404v14.55a7.3,7.3,0,0,0,7.29,7.29h114.1v123a11.91,11.91,0,0,0-1.2,1.26,4.29,4.29,0,0,1-2.74,1.62,4,4,0,0,1-2.27-.38,10.87,10.87,0,0,0-8.83-.1,11,11,0,0,0-2.2,1.28,11.42,11.42,0,0,0-2.4-4.35Zm32.23,99.61-1.37-.73a7.28,7.28,0,0,0-6.63-.15l-2.27,1.09.63-9.14a12.36,12.36,0,0,1,2.91.19,13.17,13.17,0,0,1,5.07,2.1,10.83,10.83,0,0,0,1.66.93Zm28.12-40.69A34.24,34.24,0,0,0,972,613.75a24.21,24.21,0,0,0-6.49,1.07h-.13l-.65.22h-.07c-.41.14-.83.3-1.24.46a24.2,24.2,0,0,0-6.91,4.32,27.56,27.56,0,0,0-13-3.28,29.09,29.09,0,0,0-3.09.17,29.87,29.87,0,0,0-6.38-9.23,29.54,29.54,0,0,0-7.51-5.47c.15-.61.29-1.23.4-1.85v-.24a1.13,1.13,0,0,0,0-.26,34.72,34.72,0,0,0,.56-6.11A35.81,35.81,0,0,0,925.3,581a35.07,35.07,0,0,0,12.83-15,18.14,18.14,0,0,0,6.69.29A18.65,18.65,0,0,0,954.3,562a19.94,19.94,0,0,0,14.11,3.16,31.23,31.23,0,0,0,13.25,15.09,28.94,28.94,0,0,0,1.1,17.12c-.68.56-1.32,1.15-2,1.77Zm10.18,26.24a7.26,7.26,0,0,0-4.58,4l-.45,1-4.28-4.5a10.88,10.88,0,0,0,4-6.34,20.68,20.68,0,0,1,1.23-3.89l8.13,8.6Z" transform="translate(-87.79 -116.92)" fill="url(#b)"/><path d="M635.3,355.48a24.18,24.18,0,1,1,24.18-24.18A24.18,24.18,0,0,1,635.3,355.48Zm0-33.79a9.61,9.61,0,1,0,9.62,9.61,9.61,9.61,0,0,0-9.62-9.61Z" transform="translate(-87.79 -116.92)" fill="url(#c)"/><path d="M695.27,364.35,678,346a10.94,10.94,0,0,0,.83-11.18,14.32,14.32,0,0,1-.72-11.5,11,11,0,0,0-5.77-13.67A16.63,16.63,0,0,1,663,299a11,11,0,0,0-5.41-6.58,10.81,10.81,0,0,0-8.45-.66,5.62,5.62,0,0,1-3.37.13,5.5,5.5,0,0,1-2.37-1.37l-.36-.32v-123h35.12a7.28,7.28,0,0,0,7.28-7.28h0V138.76a21.86,21.86,0,0,0-21.84-21.84H492.78a8.39,8.39,0,0,0-1,.06,28.06,28.06,0,0,0-26,28.36V292H427.54a7.28,7.28,0,0,0-7.28,7.28h0v17.31A30.16,30.16,0,0,0,447,346.9l1.56.13H593.08a10.86,10.86,0,0,0,6.87,8.4,15.27,15.27,0,0,1,9.33,9.89,10.87,10.87,0,0,0,1,2.26L608.51,393a7.28,7.28,0,0,0,6.75,7.77,4.35,4.35,0,0,0,.51,0,7.26,7.26,0,0,0,3.17-.73l10.23-4.93,8.83,4.78a7.28,7.28,0,0,0,10.75-6.4V373.3l15.59,16.39a7.27,7.27,0,0,0,5.28,2.26,7,7,0,0,0,1.21-.1,7.27,7.27,0,0,0,5.41-4.16l3.54-7.77L692,376.33a7.27,7.27,0,0,0,3.25-12Zm-229.49-48c0,8.91-7,16.17-15.52,16.17h-.9l-.82-.07c-7.69-.82-13.71-7.76-13.71-15.83v-10h31ZM663.59,131.48a7.3,7.3,0,0,1,7.28,7.27V152.6H521.65v-7.27a28.07,28.07,0,0,0-2.57-12.1c-.28-.6-.58-1.18-.89-1.74ZM480.35,145.34a13.94,13.94,0,0,1,1-5.56,13.32,13.32,0,0,1,24.52-.34,13.79,13.79,0,0,1,1.19,5.9v14.55a7.29,7.29,0,0,0,7.29,7.29H628.44V290.23a11.67,11.67,0,0,0-1.19,1.25,4.32,4.32,0,0,1-2.74,1.62,4,4,0,0,1-2.28-.38,10.87,10.87,0,0,0-8.83-.1,11.27,11.27,0,0,0-2.22,1.31,7.18,7.18,0,0,0-1.71-4.64l-2.94-3.5-.07,0a6.87,6.87,0,0,0-.45-.65c-.07-.1-.15-.19-.23-.29l.75.89,2.52-2a7.28,7.28,0,0,0,1.17-10.36l-5-6.11a7.31,7.31,0,0,0-7.49-2.43A51.81,51.81,0,0,0,602,252.11a52.93,52.93,0,0,0-.45-22.55,7.26,7.26,0,0,0-4.91-5.25,7.29,7.29,0,0,0,.21-7.19q-.81-1.55-1.74-3a9.57,9.57,0,0,0,1.15-3.76l.51-5.44A10,10,0,0,0,591,195a9.5,9.5,0,0,0-.91-11.27l-3.89-4.47a9.61,9.61,0,0,0-10.48-2.73,9.54,9.54,0,0,0-8.42-6.73l-5.87-.41a9.72,9.72,0,0,0-9,4.7,9.78,9.78,0,0,0-10.09,1.23L538,178.7a9.81,9.81,0,0,0-3.12,11,9.5,9.5,0,0,0-4.12,2,10.74,10.74,0,0,0-1.45,1.49,52.27,52.27,0,0,0-7.63,4,7.13,7.13,0,0,0-1.38-3.1l-5.24-6.79a7.28,7.28,0,0,0-11.55,8.88l5.28,6.87a7.21,7.21,0,0,0,3.08,2.32c-.67.7-1.32,1.41-2,2.15a7.19,7.19,0,0,0-2-2.57l-7-5.8a7.28,7.28,0,0,0-9.27,11.24h0l7,5.8a7.13,7.13,0,0,0,4.3,1.65c-.38.73-.74,1.45-1.07,2.2a7.28,7.28,0,0,0-3.11-2.22l-8.1-3a7.28,7.28,0,0,0-5.59,13.45,5.89,5.89,0,0,0,.59.21l8.09,3a7.29,7.29,0,0,0,2.53.45,7,7,0,0,0,1.88-.26v.08c-.25,1.3-.45,2.6-.6,3.89a7.33,7.33,0,0,0-3.74-1h-8.62a7.25,7.25,0,0,0-4.86,1.86Zm79.73,93.82,2.73.18a3.53,3.53,0,0,0,.65,0,9.15,9.15,0,0,0,8-4.66,9.78,9.78,0,0,0,9.91-1.32l4.78-3.78a8.75,8.75,0,0,0,2-2.16l.22.07a7.15,7.15,0,0,0-.86,5.47,38.26,38.26,0,0,1,.63,14.42,8.36,8.36,0,0,0-1.46-3l-4-5.23a8.4,8.4,0,0,0-11.75-1.66l0,0-5.24,4a8.33,8.33,0,0,0-3.23,5.43l-2.87-3.58h0A8.14,8.14,0,0,0,560.08,239.16Zm-40.42-.3a7.69,7.69,0,0,0,.85.95l-.62.47A8.4,8.4,0,0,0,518.27,252l4,5.25A8.38,8.38,0,0,0,534,259l-.26,3.93a8.38,8.38,0,0,0,7.7,9h.08l5,.34a8.21,8.21,0,0,0,1.64,4.22l2.91,3.84a3.53,3.53,0,0,1-.46,0h-.23a38.4,38.4,0,0,1-37.86-45.8A36.58,36.58,0,0,1,514,229a8.21,8.21,0,0,0,1.67,4.62Zm-2.07-17.2a38.75,38.75,0,0,1,10.86-11.34,9.35,9.35,0,0,0,4.12,3.45,9.23,9.23,0,0,0-1.28,3.27,8.42,8.42,0,0,0-8.73.86Zm86,84.49a20.58,20.58,0,0,1-6.14,4.91,10.89,10.89,0,0,0-4.76,14.37,21.36,21.36,0,0,1,2,7.07H475.83a30.93,30.93,0,0,0,4.52-16.17V264.06a7.26,7.26,0,0,1,0-5.23V247.32a7.15,7.15,0,0,0,4.86,1.86h8.62a7.14,7.14,0,0,0,3.74-1c.1.93.24,1.85.4,2.77a7.31,7.31,0,0,0-5.53.17l-8.26,3.7a7.19,7.19,0,0,0-3.83,4v5.23a1.11,1.11,0,0,0,.14.35,7.27,7.27,0,0,0,9.59,3.68l8.28-3.69a7.16,7.16,0,0,0,2.82-2.24c.51,1.24,1.07,2.45,1.69,3.65a7.24,7.24,0,0,0-4.87,1.34l-6.86,4.92a7.28,7.28,0,0,0,8.49,11.84L506.5,279a7.25,7.25,0,0,0,2.64-3.55l.24.29c1,1.22,2.06,2.37,3.16,3.47a7.3,7.3,0,0,0-4.42,2.17L502,287.68a7.29,7.29,0,0,0,10.45,10.16l6.16-6.34a7.27,7.27,0,0,0,2-5.66q1.82,1.23,3.72,2.28a7.34,7.34,0,0,0-3.16,2.91L516.51,299a7.29,7.29,0,0,0,12.6,7.32l4.6-7.92a7.24,7.24,0,0,0,.62-5.94c1.52.47,3,.87,4.61,1.2a7.22,7.22,0,0,0-3,4.44l-1.94,8.8a7.27,7.27,0,0,0,5.53,8.67h0a6.87,6.87,0,0,0,1.57.18,7.27,7.27,0,0,0,7.1-5.72l1.94-8.8a7.25,7.25,0,0,0-1.67-6.41h2a51.09,51.09,0,0,0,8-.66,7.3,7.3,0,0,0,.47,8l5.27,7a7.29,7.29,0,0,0,4.85,2.85,6.73,6.73,0,0,0,1,.07,7.3,7.3,0,0,0,4.47-1.53l2.25-1.76-.63-.8a7.19,7.19,0,0,0,.68.77h0l3.26,4.11a7.35,7.35,0,0,0,5.71,2.76,7.27,7.27,0,0,0,4.54-1.59l16.36-13a20.43,20.43,0,0,1-3.24,5.15Zm30.66,75.2-1.36-.75a7.34,7.34,0,0,0-6.63-.15l-2.28,1.1.64-9.14a12.36,12.36,0,0,1,2.91.19,13,13,0,0,1,5.06,2.1,13.6,13.6,0,0,0,1.66.94Zm28.41-41-.31.31a34.38,34.38,0,0,0-8.6,14.3,24.92,24.92,0,0,0-6.52,1.08h0l-.72.24h-.06c-.43.15-.84.3-1.26.47a24.15,24.15,0,0,0-6.9,4.32,28.14,28.14,0,0,0-8.12-2.85,28.94,28.94,0,0,0-4.92-.44,26.68,26.68,0,0,0-3.09.18,29.83,29.83,0,0,0-13.8-14.77c.16-.65.3-1.32.43-2v-.11a35.49,35.49,0,0,0-1.63-18.9,35.19,35.19,0,0,0,12.83-15,17.93,17.93,0,0,0,6.69.3,18.65,18.65,0,0,0,9.48-4.29,19.58,19.58,0,0,0,5.82,2.67,20,20,0,0,0,8.29.49,31.28,31.28,0,0,0,13.16,15.13,29,29,0,0,0,1.1,17.12c-.65.55-1.29,1.11-1.89,1.71Zm9.9,26.53a7.24,7.24,0,0,0-4.58,4l-.45,1-4.27-4.49a11,11,0,0,0,4-6.34,20.45,20.45,0,0,1,1.23-3.89l8.12,8.59Z" transform="translate(-87.79 -116.92)" fill="url(#d)"/><path d="M302.85,609.57a24.18,24.18,0,1,1,24.23-24.18A24.17,24.17,0,0,1,302.85,609.57Zm0-33.79a9.61,9.61,0,1,0,9.61,9.61h0a9.63,9.63,0,0,0-9.61-9.61Z" transform="translate(-87.79 -116.92)" fill="url(#e)"/><path d="M362.81,618.4l-17.32-18.33a10.94,10.94,0,0,0,.83-11.18,14.48,14.48,0,0,1-.72-11.5,11,11,0,0,0-5.76-13.67,16.77,16.77,0,0,1-9.31-10.7,10.87,10.87,0,0,0-13.47-7.37l-.39.12a5.59,5.59,0,0,1-3.36.14,5.49,5.49,0,0,1-2.39-1.38l-.34-.32v-123h35.11a7.28,7.28,0,0,0,7.29-7.27h0V392.81A21.88,21.88,0,0,0,331.14,371H160.32a8.39,8.39,0,0,0-1,.06,28.06,28.06,0,0,0-26,28.36V546H95.08a7.3,7.3,0,0,0-7.29,7.28v17.32A30.18,30.18,0,0,0,114.53,601c.52.06,1,.09,1.56.12s.89,0,1.33,0H260.61a11,11,0,0,0,6.88,8.4,15.3,15.3,0,0,1,9.32,9.89,10.87,10.87,0,0,0,1,2.26l-1.73,25.49a7.26,7.26,0,0,0,10.43,7.06l10.22-4.93,8.84,4.78a7.28,7.28,0,0,0,10.75-6.4V627.36l15.59,16.38a7.25,7.25,0,0,0,5.27,2.26,7,7,0,0,0,1.21-.1,7.29,7.29,0,0,0,5.42-4.16l3.53-7.76,12.26-3.59a7.28,7.28,0,0,0,3.24-12Zm-229.49-48c0,8.92-7,16.17-15.52,16.19h-.9l-.82-.11c-7.7-.81-13.72-7.77-13.72-15.82v-10h31ZM331.14,385.53a7.3,7.3,0,0,1,7.27,7.28v13.84H189.19v-7.26a28.31,28.31,0,0,0-2.58-12.12c-.29-.59-.58-1.17-.9-1.74ZM271.08,560.21a20.43,20.43,0,0,1-6.15,4.9,10.9,10.9,0,0,0-4.78,14.37,20.88,20.88,0,0,1,2,7.08H143.37a31,31,0,0,0,4.52-16.19v-171a13.94,13.94,0,0,1,1-5.56,13.38,13.38,0,0,1,25.71,5.56v14.55a7.26,7.26,0,0,0,7.26,7.28H296v61.43a175.42,175.42,0,0,0-36.67-10.27c-3.81-.64-7.66-1.14-11.5-1.51.3-.34.61-.68.94-1a15.17,15.17,0,0,1,4-2.73,10.5,10.5,0,0,0,2.51-17.38,62.08,62.08,0,0,0-41.17-15.88c-35.51,0-64.41,30.85-64.41,68.77s28.95,68.85,64.46,68.85c23.8,0,45.56-13.92,56.8-36.33a30.67,30.67,0,0,0-.71-29c-.55-.95-1.11-1.89-1.69-2.81A178.17,178.17,0,0,0,296,498v46.26a11.81,11.81,0,0,0-1.2,1.25,4.29,4.29,0,0,1-2.73,1.62,4,4,0,0,1-2.28-.38,10.87,10.87,0,0,0-8.83-.1,10.94,10.94,0,0,0-6,6.59A20.59,20.59,0,0,1,271.08,560.21ZM238,550.27a47.14,47.14,0,0,1-13.76,5.49,15,15,0,0,0-6-24.41,28.45,28.45,0,0,0,16.34-7.08,7.22,7.22,0,0,0,2.39-4.56,10.65,10.65,0,0,0,8.76-15.29h5.62l.54.65a60.69,60.69,0,0,1,5.68,8.28,16,16,0,0,1,2.09,7.9,16.21,16.21,0,0,1-1.74,7.3c-.21.41-.41.8-.63,1.19A15,15,0,1,0,238,550.25ZM210.74,516a14,14,0,0,1-8.91-11.86,7,7,0,0,0-.17-1,15.53,15.53,0,0,0,5.49-3.85,168.73,168.73,0,0,0,20,3.82h.14a10.62,10.62,0,0,0-1.85,6,10.43,10.43,0,0,0,.58,3.46,6.67,6.67,0,0,0-1.15.82,13.91,13.91,0,0,1-14.2,2.61Zm-8.91,39.2a47,47,0,0,1-12.75-5.71,15,15,0,0,0,9.48-6.82,15.11,15.11,0,0,0-.28,2.84,14.94,14.94,0,0,0,3.53,9.69Zm-1.35-17.5a15,15,0,0,0-14.71-17.86A15.2,15.2,0,0,0,180,521a15,15,0,0,0,7.82-12.41,28.46,28.46,0,0,0,22.15,22.3,15,15,0,0,0-9.48,6.81Zm-22.6-65.55c-.48.27-.95.55-1.42.84l-.81.5c-.43.28-.86.56-1.28.86a11.3,11.3,0,0,0-3,15.71,11.47,11.47,0,0,0,1.75,2c.3.28.62.55.93.82a11.33,11.33,0,0,0-1.3-.07,14.91,14.91,0,0,0-8,2.32C168,469.8,187.44,450,211.26,448.55a15,15,0,0,0-1.75,21.07,15.5,15.5,0,0,0,1.5,1.53h.51l-.5.06-.89.1-1.6.19a17.72,17.72,0,0,0-1.86-1.59,18.91,18.91,0,0,0-3.79-2.22,19.21,19.21,0,0,0-13.58-.57,60.75,60.75,0,0,0-5.9,2.25l-1.16.53-.92.44c-.47.23-.92.46-1.38.71l-1.08.58h-.08C178.48,471.8,178.17,472,177.88,472.14Zm.68,49.52a15.13,15.13,0,0,0-7.2,8.8,55.94,55.94,0,0,1-3.83-8.59,15,15,0,0,0,11-.21Zm21.73-37.18a7.32,7.32,0,0,0-3,3.16,1.6,1.6,0,0,1-.1.23l-.15.37c0,.12-.09.24-.13.36h0a1.82,1.82,0,0,1-.9,1.06,1.13,1.13,0,0,1-.57.09,2.12,2.12,0,0,1-.88-.28,67.29,67.29,0,0,1-8.2-5.38c1-.52,2-1,3-1.45a46.79,46.79,0,0,1,4.45-1.69,4.66,4.66,0,0,1,3.29,0,4.56,4.56,0,0,1,1.31.9,4.3,4.3,0,0,1,.71.94A7.08,7.08,0,0,0,200.29,484.48Zm12.48,1.18q4.5-.51,9-.76l-.22,2.59c-2.93-.57-5.87-1.18-8.78-1.87Zm21.54-32.56a49.6,49.6,0,0,1,7,4.12,29.68,29.68,0,0,0-5.52,5.45A14,14,0,0,0,236,460a15,15,0,0,0-1.73-6.94Zm20.26,36.73h-.26a159.29,159.29,0,0,1-18.28-.45l.4-4.64H237a157.9,157.9,0,0,1,20,2c3.49.57,6.94,1.26,10.38,2.07q-6.45.76-12.81,1Zm47.15,145.61-1.37-.75a7.34,7.34,0,0,0-6.63-.15l-2.27,1.1.63-9.16a13.58,13.58,0,0,1,2.92.2,13,13,0,0,1,5.06,2.1,10.89,10.89,0,0,0,1.66.94Zm28.13-40.71a33.87,33.87,0,0,0-4.1,4.92,34.35,34.35,0,0,0-4.53,9.41,24,24,0,0,0-6.62,1.11l-.4.13c-.53.17-1,.37-1.57.58a24.2,24.2,0,0,0-6.91,4.32,27.25,27.25,0,0,0-8.12-2.84,29,29,0,0,0-4.92-.45,26.68,26.68,0,0,0-3.09.18,29.79,29.79,0,0,0-13.8-14.77c.17-.65.31-1.31.43-2a.2.2,0,0,0,0-.11,33.84,33.84,0,0,0,.6-6.36,35.33,35.33,0,0,0-2.24-12.54,35,35,0,0,0,12.84-15,18.21,18.21,0,0,0,6.7.29,18.69,18.69,0,0,0,9.47-4.28,20,20,0,0,0,14.14,3.16A31.12,31.12,0,0,0,331,575.56a28.91,28.91,0,0,0,1.1,17.11c-.68.57-1.33,1.16-2,1.77ZM340,621a7.29,7.29,0,0,0-4.58,4l-.44,1-4.29-4.51a10.73,10.73,0,0,0,4-6.33,19.7,19.7,0,0,1,1.24-3.88l8.13,8.58Z" transform="translate(-87.79 -116.92)" fill="url(#f)"/><path d="M448.45,935.22A24.18,24.18,0,1,1,472.63,911,24.18,24.18,0,0,1,448.45,935.22Zm0-33.79a9.61,9.61,0,1,0,9.61,9.61h0a9.62,9.62,0,0,0-9.61-9.56Z" transform="translate(-87.79 -116.92)" fill="url(#g)"/><path d="M508.42,944l-17.34-18.31a10.94,10.94,0,0,0,.83-11.18,14.35,14.35,0,0,1-.72-11.51,11,11,0,0,0-5.77-13.67,16.63,16.63,0,0,1-9.3-10.7,10.87,10.87,0,0,0-13.47-7.37l-.39.12a5.55,5.55,0,0,1-5.75-1.23l-.35-.33v-123h35.12a7.28,7.28,0,0,0,7.28-7.28h0v-21.1a21.86,21.86,0,0,0-21.84-21.84H305.92a6.73,6.73,0,0,0-1,.07,28.05,28.05,0,0,0-26,28.35V871.71H240.69a7.28,7.28,0,0,0-7.28,7.28h0v17.31a30.13,30.13,0,0,0,26.74,30.3c.51.06,1,.11,1.55.13s.9,0,1.34,0H406.22a10.86,10.86,0,0,0,6.87,8.4,15.27,15.27,0,0,1,9.33,9.89,10.09,10.09,0,0,0,1,2.25l-1.78,25.45a7.29,7.29,0,0,0,6.8,7.77,7.16,7.16,0,0,0,3.64-.7l10.22-4.94,8.84,4.78a7.28,7.28,0,0,0,10.75-6.41V953l15.59,16.38a7.23,7.23,0,0,0,5.28,2.26,7,7,0,0,0,1.21-.1,7.27,7.27,0,0,0,5.41-4.16l3.54-7.76L505.17,956a7.3,7.3,0,0,0,3.25-12ZM476.74,711.19a7.3,7.3,0,0,1,7.28,7.27v13.85H334.8V725a28.13,28.13,0,0,0-2.59-12.11c-.28-.59-.58-1.18-.89-1.74ZM427.25,853.37a63.18,63.18,0,0,0-11-66.47l1.5-1.55a7.27,7.27,0,0,0,1.07-8.72H419a7.3,7.3,0,0,0,5.12-2.22l7.09-7.32a7.29,7.29,0,0,0-.17-10.3l-10.24-9.92h20.86V869.93a10.05,10.05,0,0,0-1.19,1.25,4.35,4.35,0,0,1-1.59,1.26,1.22,1.22,0,0,0,0-.27v-3.36A16.1,16.1,0,0,0,427.25,853.37Zm-27.09-20.25H371.08a14.34,14.34,0,0,0-14.35,14.31v.92a7.15,7.15,0,0,0,2,5,15.91,15.91,0,0,0-7,4,29.56,29.56,0,0,0-2.12-3l-.13-.17-.14-.18h0l-.94-1.1-.07-.07a74.47,74.47,0,0,0-6.94-6.82,48.11,48.11,0,0,0,4.46-5h0c.29-.37.58-.75.84-1.12a51.37,51.37,0,0,0,4.82-8.07v-.06c.2-.41.39-.83.57-1.25h0a49,49,0,0,0,3-9,.48.48,0,0,0,0-.17l.21-1v-.09a47.83,47.83,0,0,0,1-8.6V808.8c0-.53-.05-1-.09-1.56l20.18,19.24a7.22,7.22,0,0,0,5.06,2h.12a7.29,7.29,0,0,0,5.12-2.21l6.51-6.73a7.27,7.27,0,0,0,.53-9.52l3.36-3.46a50.68,50.68,0,0,1,4.49,8.57,14.18,14.18,0,0,0-4,9.8,14,14,0,0,0,2.59,8.19Zm-43.85-86.25h47.91l-4.14,4.29a7.27,7.27,0,0,0-2,5.76,7.46,7.46,0,0,0-2.84-.53,7.28,7.28,0,0,0-5.12,2.22L366,783.48a7.29,7.29,0,0,0-9,1.18l-5.48,5.66a60.17,60.17,0,0,0-10.42-14.7,64.81,64.81,0,0,0,6-5.14h0c.63-.61,1.23-1.25,1.79-1.91.11-.11.2-.22.3-.34a30.85,30.85,0,0,0,5.91-11.1,2.21,2.21,0,0,1,.12-.42,31.18,31.18,0,0,0,1.16-8.43v-.65C356.34,747.38,356.33,747.12,356.31,746.87Zm45.86,33.61-9.63,9.94-.27.28-9,9.25-6.68-6.48L395.44,774ZM400.23,852a4.94,4.94,0,0,1,.2-1.37l.06-.17a4.1,4.1,0,0,1,2.55-2.63,6,6,0,0,1,.61-.15h.8a4.64,4.64,0,0,1,1.33.28,3.17,3.17,0,0,1,.92.55h0l.24.21.07.06a4.68,4.68,0,0,1,1.28,3.25v.75h-8.1ZM263.39,912.23h-.88a3.33,3.33,0,0,1-.83-.07c-7.68-.81-13.7-7.77-13.7-15.82v-10h31v9.77c0,8.9-7,16.16-15.52,16.17Zm153.27-26.34a20.86,20.86,0,0,1-6.14,4.91,10.88,10.88,0,0,0-4.76,14.36,21.84,21.84,0,0,1,2,7.07H289a30.93,30.93,0,0,0,4.52-16.17v-171a14.3,14.3,0,0,1,1-5.56,13.32,13.32,0,0,1,24.52-.34,13.94,13.94,0,0,1,1.19,5.9v14.55a7.28,7.28,0,0,0,7.28,7.28h14.3v.75H317.3a7.29,7.29,0,0,0-14.57,0v.65a31,31,0,0,0,1.07,8.08.53.53,0,0,0,.09.36,2.47,2.47,0,0,1,.17.56,30.83,30.83,0,0,0,5.83,10.9l.29.34c.56.66,1.17,1.3,1.79,1.91l.11.11a60.41,60.41,0,0,0,5.84,5c-5.48,5.75-11.61,14.19-14.07,24.83a42.16,42.16,0,0,0-1.09,8.14,47.77,47.77,0,0,0,1,11.44.17.17,0,0,0,0,.1c.06.34.14.68.21,1v.17a49,49,0,0,0,3,9h0c.18.42.37.84.57,1.25a.06.06,0,0,0,0,.06,49.46,49.46,0,0,0,4.82,8.07c.27.37.54.75.84,1.12h0a47.92,47.92,0,0,0,4.44,5,74.25,74.25,0,0,0-6.93,6.81l-.09.1c-.35.38-.69.79-1,1.19-.07.08-.14.18-.21.27A31.31,31.31,0,0,0,304,864.61h0s-.09.29-.13.45a31.38,31.38,0,0,0-1.16,8.45v.69a7.29,7.29,0,1,0,14.57.54,4.86,4.86,0,0,0,0-.54h24.55a7.28,7.28,0,0,0,12.51,5.07h66.07a20.61,20.61,0,0,1-3.7,6.59Zm30.66,75.18-1.36-.73a7.27,7.27,0,0,0-6.64-.16l-2.27,1.1.64-9.14a13.52,13.52,0,0,1,2.91.19,13.11,13.11,0,0,1,5.06,2.09,10.89,10.89,0,0,0,1.66.94Zm24-35.78a34.35,34.35,0,0,0-4.53,9.41,24,24,0,0,0-6.51,1.08h-.11c-.22.06-.44.14-.65.22-.44.14-.89.31-1.32.49a24.15,24.15,0,0,0-6.9,4.32,27.53,27.53,0,0,0-13-3.28,29.09,29.09,0,0,0-3.09.17,30.1,30.1,0,0,0-6.29-9.29,29.54,29.54,0,0,0-7.51-5.47c.16-.67.3-1.33.43-2l.06-.37a33.78,33.78,0,0,0,.55-6.11,35.3,35.3,0,0,0-2.23-12.53,35.07,35.07,0,0,0,12.83-15,18.21,18.21,0,0,0,6.7.29,18.65,18.65,0,0,0,9.48-4.29,19.94,19.94,0,0,0,14.11,3.16,31.23,31.23,0,0,0,13.25,15.09,29,29,0,0,0,1.09,17.12,35,35,0,0,0-6.29,7Zm14.28,21.33a7.24,7.24,0,0,0-4.58,4l-.46,1-4.27-4.5a10.88,10.88,0,0,0,4-6.34,19.76,19.76,0,0,1,1.23-3.89l8.12,8.6Z" transform="translate(-87.79 -116.92)" fill="url(#h)"/><path d="M800.38,945.48a24.18,24.18,0,1,1,24.18-24.18A24.18,24.18,0,0,1,800.38,945.48Zm0-33.79A9.61,9.61,0,1,0,810,921.3h0a9.62,9.62,0,0,0-9.58-9.66h0Z" transform="translate(-87.79 -116.92)" fill="url(#i)"/><path d="M860.35,954.25,843,935.93a10.91,10.91,0,0,0,.84-11.18,14.32,14.32,0,0,1-.72-11.5,11,11,0,0,0-5.77-13.67,16.71,16.71,0,0,1-9.31-10.71,10.87,10.87,0,0,0-13.48-7.36l-.38.12a5.59,5.59,0,0,1-3.36.14,5.4,5.4,0,0,1-2.38-1.38l-.35-.32v-123h35.12a7.28,7.28,0,0,0,7.28-7.29V728.67a21.88,21.88,0,0,0-21.84-21.85H657.85a8.4,8.4,0,0,0-1,.07,28,28,0,0,0-26,28.35V881.9H592.61a7.28,7.28,0,0,0-7.28,7.28h0v17.3a30.16,30.16,0,0,0,26.73,30.31c.52.06,1,.1,1.56.13s1.14,0,1.71,0h142.8a10.93,10.93,0,0,0,6.88,8.4,15.38,15.38,0,0,1,5.51,3.54,15.55,15.55,0,0,1,3.82,6.36,10.37,10.37,0,0,0,1,2.26l-1.78,25.44a7.3,7.3,0,0,0,6.78,7.77h.49A7.07,7.07,0,0,0,784,990L794.22,985l8.84,4.79a7.28,7.28,0,0,0,10.75-6.41V963.17L812.73,962a11.51,11.51,0,0,1,1.08-.88v2l15.59,16.37a7.22,7.22,0,0,0,5.27,2.27,7,7,0,0,0,1.21-.1,7.3,7.3,0,0,0,5.43-4.16l3.53-7.77,12.25-3.59a7.3,7.3,0,0,0,3.25-12Zm-229.49-48c0,8.91-7,16.18-15.52,16.18h-.9a3.87,3.87,0,0,1-.83-.06c-7.69-.82-13.7-7.77-13.7-15.83v-10h31ZM828.67,721.41a7.29,7.29,0,0,1,7.28,7.28v13.79H686.72v-7.27a28.12,28.12,0,0,0-2.58-12.11c-.28-.59-.58-1.17-.89-1.74Zm-69.1,102.26a7.29,7.29,0,0,0-4.73-3.89l-15.2-3.94a7.29,7.29,0,0,0-.33-4.61l-2-4.79,3.86-3.13a7.22,7.22,0,0,0,2.68-6L761,800.49a7.08,7.08,0,0,0,4.14-.45ZM727.47,825a7.3,7.3,0,0,0-2.93,9.89,7.21,7.21,0,0,0,2.23,2.49,7.3,7.3,0,0,0-2,.53,7.31,7.31,0,0,0-7.89-2.45,8,8,0,0,0-2,1,7,7,0,0,0-2.51-1.1,5.33,5.33,0,0,1-5.4-1.71,7.31,7.31,0,0,0,3.94-9.94,7.25,7.25,0,0,0,3.38-8.88,7,7,0,0,1-.82-1.61,6.61,6.61,0,0,1,.82,1.61,5,5,0,0,0,.38.52,7.23,7.23,0,0,0,5.66,2.69,7.15,7.15,0,0,0,4.58-1.63l.51-.42.36.86a2.18,2.18,0,0,1,1.13,3.24,7.19,7.19,0,0,0,.51,4.89Zm-11.64-19.92a7.29,7.29,0,0,0-2.28,8.11,7.16,7.16,0,0,0-3.35-2.67l8.37-11.14,1.09,2.59Zm-1.7-24-5.8,7.7-.89-4.68a7.28,7.28,0,0,0-8.53-5.79l-.47.1-5.82,1.5,1.56-6.55L717,778.8a7.39,7.39,0,0,0-2.91,2.28Zm-19.55,13.37L697,807.07l-6.59-1.7a7.13,7.13,0,0,0-3.78,0l2.78-11.72A7.16,7.16,0,0,0,694.58,794.48Zm37.29,84a7.29,7.29,0,0,1,9.72,2.31l4.24,1-.27,1.11L672.29,866l.4-1.66Zm9.76-34.63a9.4,9.4,0,0,0-1.06-.19,21.09,21.09,0,0,0-1-2.41l8.48,2.2a7.07,7.07,0,0,0,1.83.24,7.3,7.3,0,0,0,5.54-2.57l-1.53,6.5a7.32,7.32,0,0,0-2.57-1.25Zm46.55-52.46a7.31,7.31,0,0,0-4.52-3.27L783,788l.22-1a7.26,7.26,0,0,0-5.36-8.76h-.05l-87.35-20.76a7.29,7.29,0,0,0-8.76,5.41h0l-20.57,87L651,853.32a7.27,7.27,0,0,0-3,11.79l7.56,8.35-2,8.57a7.29,7.29,0,0,0,5.4,8.77h0l.66.16-.23,1a7.28,7.28,0,0,0,5.41,8.76h0l87.35,20.67a7.31,7.31,0,0,0,7-2.11,23.07,23.07,0,0,1,.58,3.18H640.91a31.06,31.06,0,0,0,4.52-16.18v-171a13.86,13.86,0,0,1,1-5.55,13.38,13.38,0,0,1,25.71,5.55v14.55a7.28,7.28,0,0,0,7.28,7.29H793.53v123a11.91,11.91,0,0,0-1.2,1.26,4.28,4.28,0,0,1-2.75,1.61,3.94,3.94,0,0,1-2.27-.37,10.76,10.76,0,0,0-8.82-.1,10.54,10.54,0,0,0-2.87,1.83,21.91,21.91,0,0,0-1.34-7.47,7.28,7.28,0,0,0-3.26-3.82l18-76.26a7.21,7.21,0,0,0-.84-5.53Zm-118,87.16-.3-.06h.19Zm129.11,92.77-1.37-.74a7.3,7.3,0,0,0-6.64-.15l-2.27,1.1.64-9.15a13.09,13.09,0,0,1,8,2.29,10.19,10.19,0,0,0,1.67.94Zm24-35.79a34.35,34.35,0,0,0-4.53,9.41,24.12,24.12,0,0,0-6.58,1.1h0l-.65.22c-.44.15-.88.31-1.32.5a24.17,24.17,0,0,0-6.91,4.31,27.53,27.53,0,0,0-8.12-2.84,27.84,27.84,0,0,0-4.91-.44,29.09,29.09,0,0,0-3.09.17,30.28,30.28,0,0,0-6.29-9.29,30,30,0,0,0-7.51-5.47c.16-.65.3-1.32.43-2v-.11a37.63,37.63,0,0,0,.6-6.36,35.64,35.64,0,0,0-2.24-12.55,35.07,35.07,0,0,0,12.83-15,18.21,18.21,0,0,0,6.7.29,18.42,18.42,0,0,0,9.47-4.29,19.92,19.92,0,0,0,14.12,3.17,31.12,31.12,0,0,0,13.24,15.09,29.17,29.17,0,0,0-.75,8.43,28.65,28.65,0,0,0,1.85,8.68,35.41,35.41,0,0,0-6.35,6.93Zm14.27,21.33a7.34,7.34,0,0,0-4.58,4l-.45,1-4.28-4.5a10.73,10.73,0,0,0,4-6.34,19.7,19.7,0,0,1,1.24-3.88l8.13,8.59Z" transform="translate(-87.79 -116.92)" fill="url(#j)"/><path d="M1011,625.6,991.2,604.7l.32-.23a7.29,7.29,0,0,0,2.36-9.22,17.85,17.85,0,0,1-1-14.39,7.29,7.29,0,0,0-3.82-9.11,20.34,20.34,0,0,1-11.32-13,7.21,7.21,0,0,0-3.6-4.38,7.1,7.1,0,0,0-5.6-.44,9.3,9.3,0,0,1-5.5.19,9.14,9.14,0,0,1-3.93-2.26,7.19,7.19,0,0,0-1.47-1.09V422.28h38.76a3.63,3.63,0,0,0,3.64-3.62V397.48a18.22,18.22,0,0,0-18.2-18.2H810.5a24.66,24.66,0,0,0-20.85,14.82,25,25,0,0,0-1.93,9.91v150.3H745.88a3.64,3.64,0,0,0-3.64,3.62v17.33A26.53,26.53,0,0,0,765.72,602c.45,0,.91.08,1.37.1s1,.05,1.5.05H915.14a7.24,7.24,0,0,0,4.43,8.63A18.93,18.93,0,0,1,931.08,623a7.36,7.36,0,0,0,1.24,2.35h0l-1.86,26.67a3.64,3.64,0,0,0,3.39,3.89h.24a3.5,3.5,0,0,0,1.59-.37l11.9-5.74,10.5,5.64A3.63,3.63,0,0,0,963,654a3.59,3.59,0,0,0,.44-1.73v-24a12.76,12.76,0,0,1,3.06-2.19l18.81,19.77A3.58,3.58,0,0,0,988,647a4,4,0,0,0,.6,0,3.64,3.64,0,0,0,2.71-2.08l4.23-9.28,13.85-4a3.65,3.65,0,0,0,1.62-6Zm-29-239a10.93,10.93,0,0,1,10.89,10.88V415H836.35V404.09a24.66,24.66,0,0,0-2.24-10.56,25.06,25.06,0,0,0-4.88-6.93ZM768.63,594.9h-1.08l-1-.08a19.26,19.26,0,0,1-17-19.45v-13.7h38.23v13.41c0,10.92-8.61,19.81-19.18,19.82ZM917.43,573a7.28,7.28,0,0,0-3.17,9.58,24.55,24.55,0,0,1,2.48,10.87,13.29,13.29,0,0,1,0,1.41h-130a27.37,27.37,0,0,0,8.39-19.82v-171a17.51,17.51,0,0,1,1.33-7,17,17,0,0,1,32.69,7v14.55a3.64,3.64,0,0,0,3.64,3.64H950.48V550.81a7.19,7.19,0,0,0-2,1.72,8,8,0,0,1-5,2.93,7.56,7.56,0,0,1-4.32-.68,7.25,7.25,0,0,0-5.86-.07,7.4,7.4,0,0,0-4,4.4A24.16,24.16,0,0,1,917.5,573Zm14.13,37a26.23,26.23,0,0,0-9.34-6,31.06,31.06,0,0,0,1.24-4.66v-.19a30.51,30.51,0,0,0,.52-5.64,31.89,31.89,0,0,0-3.19-14,31.55,31.55,0,0,0,15.29-18.07,14.76,14.76,0,0,0,8.31,1.24,15.55,15.55,0,0,0,9.73-5.56,16.32,16.32,0,0,0,7,4,16.57,16.57,0,0,0,9.66-.28,27.72,27.72,0,0,0,15.3,17.51,25.22,25.22,0,0,0-1.47,10.07,24.27,24.27,0,0,0,.83,5.15,25.86,25.86,0,0,0,1.88,4.89h0a30.68,30.68,0,0,0-3.92,3.26,29.43,29.43,0,0,0-3.88,4.61,31.08,31.08,0,0,0-4.76,11.09,20.43,20.43,0,0,0-8.33.86,2.4,2.4,0,0,0-.38.12c-.43.14-.86.29-1.27.47a20.35,20.35,0,0,0-7.49,5.31.13.13,0,0,0-.06.07v.05l-.06.06v.06h-.07a23.87,23.87,0,0,0-9.29-3.83,23.23,23.23,0,0,0-4.24-.39,24.46,24.46,0,0,0-5.46.63A26.93,26.93,0,0,0,931.53,610Zm24.63,36.18-6.75-3.65a3.63,3.63,0,0,0-3.36-.09l-7.93,3.83L939.43,628h.21a16.72,16.72,0,0,1,13.25,2.5,7.19,7.19,0,0,0,3.24,1.24Zm35.68-17.08a3.64,3.64,0,0,0-2.29,2L986.9,637l-11.68-12.28A7.25,7.25,0,0,0,982,619a23.49,23.49,0,0,1,3.64-8.51c.15-.23.31-.45.47-.66l15.55,16.45Z" transform="translate(-87.79 -116.92)" fill="url(#k)"/><path d="M953.65,610.63a20.54,20.54,0,1,1,20.53-20.55h0A20.55,20.55,0,0,1,953.65,610.63Zm0-33.79a13.26,13.26,0,1,0,13.25,13.27v0a13.27,13.27,0,0,0-13.25-13.25Z" transform="translate(-87.79 -116.92)" fill="url(#l)"/><path d="M931.17,496.54h-1.25v-3.93a6.36,6.36,0,0,0-3.22-5.53,58.21,58.21,0,0,0-5.15-14.47,60.29,60.29,0,0,0-20.66-22.78h0a6.83,6.83,0,0,0-4.39-5.25L890,442.24a9.29,9.29,0,0,0-8.86-6.55H864.93a9.29,9.29,0,0,0-8.85,6.55l-6,2.17a7.43,7.43,0,0,0-4.73,5.56,48.17,48.17,0,0,0-19,16.35,47.57,47.57,0,0,0-7.72,20.87,6.64,6.64,0,0,0-3.2,5.67v4a8.09,8.09,0,0,0-5.81,7.74v17.66a8.88,8.88,0,0,0,7.61,8.52h.38l12.55.49a44.26,44.26,0,0,0,2.13,6.35l-9.29,9a7.86,7.86,0,0,0-.19,11.1L832.72,568a8.63,8.63,0,0,0,12.2.21l8-7.74a45,45,0,0,0,5.87,2.67l-.22,11.48a8.16,8.16,0,0,0,8,8.32h0l14.81.28h.15a7.77,7.77,0,0,0,7.75-7.61l.22-11.92c1.37-.46,2.73-1,4-1.56l7,8a9.14,9.14,0,0,0,12.9.86l0,0,10.25-9a7.91,7.91,0,0,0,.73-11.17v0l-8.48-9.65a43.79,43.79,0,0,0,2.67-6.22l12.07.48a2,2,0,0,0,.49,0,9.81,9.81,0,0,0,8.79-8.25,5.42,5.42,0,0,0,0-.57V505.39A8.86,8.86,0,0,0,931.17,496.54Zm-8.54-3v3h-6.92v-3Zm-90.25-23.15a40.54,40.54,0,0,1,14.23-12.91l2,7.43a3.62,3.62,0,0,0,3.51,2.68,3.38,3.38,0,0,0,1-.12,3.62,3.62,0,0,0,2.59-2.67V463l-3.16-11.66a.12.12,0,0,1,.07-.13l3.11-1.12v13a3.53,3.53,0,0,1,0,1.71v7.58a3.64,3.64,0,0,0,7.28,0V444.93a2,2,0,0,1,2-2h16.24a2,2,0,0,1,2,2V472.4a3.65,3.65,0,0,0,7.29,0v-7.58a3.31,3.31,0,0,1,0-1.71v-13l3.2,1.16L890.56,463v1.79a3.59,3.59,0,0,0,2.58,2.67,3.38,3.38,0,0,0,1,.12,3.62,3.62,0,0,0,3.51-2.68l2-7.24a52.82,52.82,0,0,1,15.43,18.26,50.21,50.21,0,0,1,3.94,10.3h-3.66a6.94,6.94,0,0,0-6.92,6.92v3.38H886.08v-3.69a6.62,6.62,0,0,0-6.61-6.61H864a7,7,0,0,0-7,7v3.33H836.88v-3.49a6.85,6.85,0,0,0-6.83-6.84h-4a40,40,0,0,1,6.33-15.87Zm46.39,23.09v3H864.25v-3Zm-56.08,0h6.92v3h-6.92Zm-5.8,11.09a.78.78,0,0,1,.78-.78h113.5a1.58,1.58,0,0,1,1.57,1.56v8.7H816.89Zm87.33,16.76a1.71,1.71,0,0,1-.07.59,29.46,29.46,0,0,1-58.39-.59Zm28.51,4.76a2.66,2.66,0,0,1-.7,1.23,2.7,2.7,0,0,1-1.35.67l-14.6-.51a3.67,3.67,0,0,0-3.66,2.68,38.08,38.08,0,0,1-4.06,9.54,3.66,3.66,0,0,0,.4,4.27L919,555.48a.61.61,0,0,1,.15.46.66.66,0,0,1-.21.44l-10.25,9a1.91,1.91,0,0,1-1.37.46,1.81,1.81,0,0,1-1.28-.64l-8.82-10a3.63,3.63,0,0,0-4.4-.82,39.3,39.3,0,0,1-7.83,3,3.64,3.64,0,0,0-2.7,3.45L882,575.48a.48.48,0,0,1-.47.47h0l-14.81-.28a.84.84,0,0,1-.61-.27.81.81,0,0,1-.24-.63l.26-14.15a3.64,3.64,0,0,0-2.59-3.55,38.69,38.69,0,0,1-9.23-4.21,3.63,3.63,0,0,0-1.92-.55,3.7,3.7,0,0,0-2.54,1l-10,9.65a1.34,1.34,0,0,1-1.9,0h0l-9.85-10.29a.5.5,0,0,1-.16-.4.62.62,0,0,1,.18-.4l11.12-10.75a3.64,3.64,0,0,0,.75-4.22,38.76,38.76,0,0,1-3.27-9.79,3.63,3.63,0,0,0-3.43-3l-15.1-.6a1.5,1.5,0,0,1-.79-.43,1.62,1.62,0,0,1-.45-1v-.7h21.55A36.71,36.71,0,0,0,911.36,523c.07-.53.14-1.07.19-1.6h21.18Z" transform="translate(-87.79 -116.92)" fill="url(#m)"/><path d="M562.18,252.48l-7.1-8.89a4.74,4.74,0,0,0,.4-6.2l-4-5.24a4.75,4.75,0,0,0-6.64-.93h0l-5.23,4a4.73,4.73,0,0,0-1,6.62l0,0,4,5.25a4.73,4.73,0,0,0,6.61.94l7.15,8.95a3.65,3.65,0,0,0,5.7-4.55Zm-14.89-13.86.9,1.19-1.2.9-.91-1.23Z" transform="translate(-87.79 -116.92)" fill="url(#n)"/><path d="M528.9,257a4.7,4.7,0,0,1-3.82-1.88l-4-5.24a4.74,4.74,0,0,1,.91-6.65h0l5.24-4a4.75,4.75,0,0,1,6.65.92l4,5.24A4.77,4.77,0,0,1,537,252h0l-5.24,4A4.77,4.77,0,0,1,528.9,257Zm-.42-9.48.9,1.2,1.2-.91-.91-1.19Zm4.12-1.24Z" transform="translate(-87.79 -116.92)" fill="url(#o)"/><path d="M526.32,238.54a4.74,4.74,0,0,1-3.79-1.88l-4-5.24a4.75,4.75,0,0,1,.92-6.65l5.24-4a4.77,4.77,0,0,1,6.65.92l4,5.24a4.75,4.75,0,0,1-.92,6.65h0l-5.24,4A4.76,4.76,0,0,1,526.32,238.54Zm5.9-7.83Zm-6.32-1.66.91,1.19,1.19-.9-.9-1.2Z" transform="translate(-87.79 -116.92)" fill="url(#p)"/><path d="M514.6,202.25a3.64,3.64,0,0,1-2.89-1.42L506.43,194a3.64,3.64,0,0,1,5.78-4.44l5.28,6.87a3.64,3.64,0,0,1-2.89,5.86Z" transform="translate(-87.79 -116.92)" fill="url(#q)"/><path d="M503.33,214.22a3.63,3.63,0,0,1-2.31-.84l-7-5.8a3.64,3.64,0,1,1,4.63-5.62l7,5.81a3.64,3.64,0,0,1-2.32,6.45Z" transform="translate(-87.79 -116.92)" fill="url(#r)"/><path d="M496.3,228.3a3.7,3.7,0,0,1-1.27-.23l-8.09-3a3.64,3.64,0,1,1,2.52-6.83l8.1,3a3.64,3.64,0,0,1-1.26,7.06Z" transform="translate(-87.79 -116.92)" fill="url(#s)"/><path d="M493.83,245.54h-8.62a3.64,3.64,0,1,1,0-7.28h8.62a3.64,3.64,0,1,1,0,7.28Z" transform="translate(-87.79 -116.92)" fill="url(#t)"/><path d="M487.15,265.08a3.64,3.64,0,0,1-1.49-7l8.27-3.7a3.65,3.65,0,1,1,3,6.65l-8.27,3.7A3.45,3.45,0,0,1,487.15,265.08Z" transform="translate(-87.79 -116.92)" fill="url(#u)"/><path d="M495.42,281.62a3.64,3.64,0,0,1-2.13-6.6l6.87-4.93A3.64,3.64,0,0,1,504.4,276h0l-6.86,4.93A3.59,3.59,0,0,1,495.42,281.62Z" transform="translate(-87.79 -116.92)" fill="url(#v)"/><path d="M507.21,296.4a3.63,3.63,0,0,1-3.64-3.63,3.67,3.67,0,0,1,1-2.55l6.16-6.33A3.64,3.64,0,0,1,516,289l-6.16,6.34A3.63,3.63,0,0,1,507.21,296.4Z" transform="translate(-87.79 -116.92)" fill="url(#w)"/><path d="M522.87,306.26a3.65,3.65,0,0,1-3.16-5.48h0l4.61-7.92a3.64,3.64,0,0,1,6.39,3.49l-.1.17-4.6,7.92A3.64,3.64,0,0,1,522.87,306.26Z" transform="translate(-87.79 -116.92)" fill="url(#x)"/><path d="M541.18,312.07a3.48,3.48,0,0,1-.79-.09,3.62,3.62,0,0,1-2.77-4.32v0l1.93-8.8a3.65,3.65,0,0,1,7.12,1.57l-1.94,8.8A3.64,3.64,0,0,1,541.18,312.07Z" transform="translate(-87.79 -116.92)" fill="url(#y)"/><path d="M608.22,278.48a3.65,3.65,0,0,0-.8-2.71l-5-6.11a3.65,3.65,0,0,0-4.88-.69l-2.17,1.5-2.67-3.82a48.11,48.11,0,0,0,5.74-15.2,49.41,49.41,0,0,0-.41-21,3.64,3.64,0,0,0-7.11,1.57l0,.12a42.35,42.35,0,0,1,.34,17.93,40.27,40.27,0,0,1-3.24,9.8l-4.88-7a4.76,4.76,0,0,0,.51-6.3l-4-5.23a4.74,4.74,0,0,0-6.62-1l0,0-5.24,4a4.75,4.75,0,0,0-.93,6.65l4,5.24a4.75,4.75,0,0,0,6.51,1l3.34,4.8-.74-.93a3.64,3.64,0,0,0-2.58-1.38L553.68,258v-.28a4.76,4.76,0,0,0-4.4-5.07l-6.56-.45a4.76,4.76,0,0,0-5.06,4.41l-.45,6.55a4.72,4.72,0,0,0,4.36,5.06h0l6.55.46h.34a4.75,4.75,0,0,0,4.55-3.42l1.66.12-2.89,2.19a4.74,4.74,0,0,0-.93,6.64h0l4,5.24a4.7,4.7,0,0,0,3.13,1.84,3.75,3.75,0,0,0,.67,0,4.64,4.64,0,0,0,2.6-.78l1.62,2a3.67,3.67,0,0,0-2-.05,40.81,40.81,0,0,1-10.37,1.4h-.25a42,42,0,0,1-19.79-79.07,5.81,5.81,0,0,0,5.27,6.05l4.15.38a1.34,1.34,0,0,0,.11.36l-3.34,2.91a5.54,5.54,0,0,0-.54,7.8l4.18,4.8a5.88,5.88,0,0,0,8.29.56l2.68-2.33.19.11-.26,3.75a5.66,5.66,0,0,0,5.25,6l6.6.47h.39a5.48,5.48,0,0,0,5.47-5.1l.19-2.82,1.37,1.73a6.13,6.13,0,0,0,8.58,1l4.79-3.79a5.56,5.56,0,0,0,.9-7.8L582,215.4l.18-.37h.28a42.63,42.63,0,0,1,4.77,7.13,3.65,3.65,0,0,0,6.44-3.42,52.2,52.2,0,0,0-3-4.9,6,6,0,0,0,2-3.93l.5-5.43a6.29,6.29,0,0,0-5.68-6.83l-4.16-.38,3.46-3a5.88,5.88,0,0,0,.57-8.28l-3.9-4.46A6,6,0,0,0,575,181l-2.82,2.46.27-3.84a5.86,5.86,0,0,0-5.43-6.26h0l-5.87-.42a6,6,0,0,0-6.41,5.56h0l-.17,2.31-1.36-1.72a6.13,6.13,0,0,0-8.61-1l-4.3,3.41a6.12,6.12,0,0,0-1,8.6h0l2.7,3.43-4.5-.42a6,6,0,0,0-4.37,1.36,5.73,5.73,0,0,0-1.36,1.62,49.26,49.26,0,0,0,18.76,95,48,48,0,0,0,9.86-1.08l3.2,4-1,.85a3.64,3.64,0,0,0-.64,5l5.27,7a3.65,3.65,0,0,0,2.43,1.42h.48a3.69,3.69,0,0,0,2.24-.76l5.1-4,1.64,2.07,3.85,4.86a3.64,3.64,0,0,0,2.44,1.36h.42a3.59,3.59,0,0,0,2.27-.8l18.12-14.45a3.63,3.63,0,0,0,.57-5.11l-.06-.08-5.37-6.4,5.51-4.28A3.6,3.6,0,0,0,608.22,278.48ZM576.13,249.1l-1,.74-.9-1.19,1.19-.91.9,1.2Zm-29.94,12.11-1.5-.1.1-1.5,1.5.11Zm13,11.81-.91-1.2,1.2-.9.9,1.19Zm26.63-68.09-.29,3.18h-.27l-1.5-.14-3.6-.32a3.64,3.64,0,0,0-1.57.2v-.18a17.8,17.8,0,0,0,.31-3.5,2.93,2.93,0,0,0,1,.24Zm-11.88-13.25,4.9-4.26,2.09,2.4-4.62,4a4.29,4.29,0,0,0-.54.59,16.57,16.57,0,0,0-2.16-2.5,3.29,3.29,0,0,0,.33-.23Zm.06,24.69a3.67,3.67,0,0,0,.74,1.7l3.21,4-2.51,2-3-3.75a3.57,3.57,0,0,0-1.94-1.26,16.64,16.64,0,0,0,3.5-2.69Zm-13.07-25.89a3.65,3.65,0,0,0-.61-1.11,3.61,3.61,0,0,0,1.16-2.42l.46-6.54,3.18.22-.46,6.55a3.68,3.68,0,0,0,.8,2.54,3.93,3.93,0,0,0-.77,1,3.66,3.66,0,0,0,.16,3.57,10.47,10.47,0,0,0-3-.44h-.08a13.94,13.94,0,0,0-1.45.11A3.59,3.59,0,0,0,560.93,190.48Zm-2.25,13.28a3.24,3.24,0,0,1,3.11-2.6h0a3.24,3.24,0,0,1,.09,6.47,3.3,3.3,0,0,1-2.53-1.17,3.18,3.18,0,0,1-.67-2.75Zm3.21,17.72h1.18a3.58,3.58,0,0,0-1,2.24l-.33,4.7-3.19-.23.33-4.69a3.68,3.68,0,0,0-.67-2.36A17.45,17.45,0,0,0,561.89,221.48Zm-13.42-3.32-3.62,3.15-2.09-2.41,3.89-3.39a3.68,3.68,0,0,0,1-1.54,14.57,14.57,0,0,0,1,1.34,16.5,16.5,0,0,0,1.92,2,3.58,3.58,0,0,0-2.1.81Zm-.22-33.54,4,5.1a1.72,1.72,0,0,0,.29.31,17.18,17.18,0,0,0-2.6,2.06,3.13,3.13,0,0,0-.42-.67l-3.81-4.82Zm-10.09,16,5.9.55a3.73,3.73,0,0,0,1,0h0a16.57,16.57,0,0,0-.31,3.65,3.82,3.82,0,0,0-1.51-.48l-5.37-.5ZM575.27,267l9.11,11.51-.87.64-9.24-11.56a3.78,3.78,0,0,0-.89-.8Zm-5.31-.4a3.43,3.43,0,0,0-.8.49,3.67,3.67,0,0,0-1.37,2.83l-.07-.09L565,266.19Zm-2.88,9.56a4.72,4.72,0,0,0,1.56-3.9l9,11.26-2.88,2.13Zm3.69,23.56-.93-1.24,1.14-.91h0l5.19-3.87.26-.19,8.42-6.28.26-.19,6.67-5,4.72-3.52.11-.08,2.28-1.56.5.62Z" transform="translate(-87.79 -116.92)" fill="url(#z)"/><path d="M692.62,366.84,672.86,346l.32-.23a7.29,7.29,0,0,0,2.36-9.22,18,18,0,0,1-.91-14.39A7.3,7.3,0,0,0,670.8,313a20.33,20.33,0,0,1-11.31-13,7.33,7.33,0,0,0-3.6-4.38,7.1,7.1,0,0,0-5.6-.44,9.1,9.1,0,0,1-9.43-2.06,7.94,7.94,0,0,0-1.47-1.1V163.53h38.76a3.64,3.64,0,0,0,3.64-3.64h0V138.76a18.22,18.22,0,0,0-18.2-18.2H492.78a3.79,3.79,0,0,0-.58,0,24.4,24.4,0,0,0-22.78,24.73V295.63H427.54a3.64,3.64,0,0,0-3.64,3.64h0v17.31a26.55,26.55,0,0,0,23.48,26.7c.45.05.91.08,1.38.11s1,0,1.5,0H596.8a7.24,7.24,0,0,0,4.43,8.63,19,19,0,0,1,11.52,12.21,7.41,7.41,0,0,0,1.24,2.36l-1.86,26.68a3.64,3.64,0,0,0,3.39,3.89h.24a3.67,3.67,0,0,0,1.59-.37l11.9-5.74,10.47,5.67a3.64,3.64,0,0,0,4.94-1.48,3.58,3.58,0,0,0,.44-1.72v-24a13.21,13.21,0,0,1,3-2.19l18.82,19.77a3.58,3.58,0,0,0,2.64,1.13,4,4,0,0,0,.6-.05,3.64,3.64,0,0,0,2.71-2.08l4.23-9.28,13.85-4a3.65,3.65,0,0,0,1.62-6Zm-29-239a10.94,10.94,0,0,1,10.92,10.91v17.49H518v-10.9a24,24,0,0,0-7.13-17.49ZM450.26,336.15h-1.1l-1-.08a19.28,19.28,0,0,1-17-19.46v-13.7H469.4v13.42C469.42,327.25,460.83,336.14,450.26,336.15Zm148.82-21.86a7.26,7.26,0,0,0-3.17,9.57,24.86,24.86,0,0,1,2.48,10.88v1.41h-130a27.36,27.36,0,0,0,8.42-19.82v-171a17.52,17.52,0,0,1,1.34-7,17,17,0,0,1,32.68,7v14.55a3.66,3.66,0,0,0,3.65,3.64h117.6V292.06a7.19,7.19,0,0,0-2,1.72,8,8,0,0,1-5,2.93,7.57,7.57,0,0,1-4.32-.69,7.21,7.21,0,0,0-5.86-.06,7.58,7.58,0,0,0-2.46,1.77,7.24,7.24,0,0,0-1.55,2.63,24.26,24.26,0,0,1-11.8,13.93Zm38.74,73.19-6.75-3.65a3.62,3.62,0,0,0-3.31-.08l-7.93,3.83,1.28-18.33h.22a16.59,16.59,0,0,1,13.25,2.5,7.19,7.19,0,0,0,3.24,1.24Zm10.32-27.9a3.53,3.53,0,0,0-.46.15c-.4.13-.81.28-1.21.45a20.17,20.17,0,0,0-7.46,5.28h0a2.85,2.85,0,0,0-.23.26h-.06a23.85,23.85,0,0,0-13.53-4.21,23.89,23.89,0,0,0-5.46.63,26.8,26.8,0,0,0-6.52-10.82,26.28,26.28,0,0,0-9.33-6,33.19,33.19,0,0,0,1.23-4.6,2.25,2.25,0,0,0,.06-.36,30.21,30.21,0,0,0,.51-5.54,31.75,31.75,0,0,0-3.19-14,31.55,31.55,0,0,0,15.31-18,14.76,14.76,0,0,0,8.31,1.24,15.55,15.55,0,0,0,9.73-5.56,16.35,16.35,0,0,0,16.66,3.71,27.52,27.52,0,0,0,6.17,11,28,28,0,0,0,9.09,6.57A25.25,25.25,0,0,0,669,339.85h0a31.48,31.48,0,0,0-3.93,3.26l-.27.28a30.41,30.41,0,0,0-3.6,4.33,31.08,31.08,0,0,0-4.76,11.09,20.44,20.44,0,0,0-8.3.75ZM673.5,370.4a3.62,3.62,0,0,0-2.29,2l-2.68,5.88L656.85,366a7.25,7.25,0,0,0,6.73-5.73,23.71,23.71,0,0,1,3.64-8.52c.15-.22.3-.44.47-.65l15.55,16.45Z" transform="translate(-87.79 -116.92)" fill="url(#aa)"/><path d="M635.3,351.88a20.54,20.54,0,1,1,20.54-20.54A20.54,20.54,0,0,1,635.3,351.88Zm0-33.79a13.26,13.26,0,1,0,13.26,13.26h0a13.27,13.27,0,0,0-13.26-13.25Z" transform="translate(-87.79 -116.92)" fill="url(#ab)"/><path d="M360.17,620.9,340.41,600l.32-.23a7.28,7.28,0,0,0,2.35-9.22,18,18,0,0,1-.9-14.39,7.32,7.32,0,0,0-3.83-9.12A20.33,20.33,0,0,1,327,554a7.28,7.28,0,0,0-3.6-4.37,7.17,7.17,0,0,0-5.61-.45,9.12,9.12,0,0,1-9.43-2.06,7.94,7.94,0,0,0-1.47-1.1V417.58h38.76a3.66,3.66,0,0,0,3.65-3.64V392.81a18.22,18.22,0,0,0-18.2-18.2H159.74A24.39,24.39,0,0,0,137,399.34V549.68H95.08a3.64,3.64,0,0,0-3.64,3.64h0v17.32a26.53,26.53,0,0,0,23.48,26.69c.45,0,.91.09,1.37.11s1,0,1.49,0H264.34a7.26,7.26,0,0,0,4.43,8.63,19.11,19.11,0,0,1,11.52,12.26,7.19,7.19,0,0,0,1.25,2.35h0l-1.87,26.67a3.63,3.63,0,0,0,1.6,3.27,3.51,3.51,0,0,0,2,.63,3.59,3.59,0,0,0,1.58-.36l11.91-5.75,10.47,5.67a3.63,3.63,0,0,0,4.93-1.47,3.59,3.59,0,0,0,.44-1.73v-24a12.76,12.76,0,0,1,3.06-2.19l18.82,19.77a3.59,3.59,0,0,0,2.63,1.13,3.11,3.11,0,0,0,.61,0,3.64,3.64,0,0,0,2.71-2.08l4.22-9.28,13.85-4.06a3.65,3.65,0,0,0,1.63-6Zm-29-239a10.93,10.93,0,0,1,10.91,10.91V410.3H185.55V399.39a24,24,0,0,0-7.13-17.5ZM116.7,590.17a8.26,8.26,0,0,1-1-.09,19.27,19.27,0,0,1-17-19.44V557h38.24v13.41c0,10.93-8.6,19.82-19.17,19.83C117.43,590.21,117.08,590.18,116.7,590.17Zm149.91-21.84a7.26,7.26,0,0,0-3.17,9.58,24.72,24.72,0,0,1,2.47,10.88,13.29,13.29,0,0,1-.05,1.41h-130a27.33,27.33,0,0,0,8.44-19.83v-171a17,17,0,0,1,34,0v14.55a3.64,3.64,0,0,0,3.64,3.64H299.65V546.11a7.33,7.33,0,0,0-2,1.72,8,8,0,0,1-5,2.93,7.57,7.57,0,0,1-4.32-.69,7.14,7.14,0,0,0-5.85-.05,7.25,7.25,0,0,0-4,4.38h0a24.21,24.21,0,0,1-11.8,13.92Zm38.75,73.15-6.74-3.65a3.7,3.7,0,0,0-3.32-.08l-7.92,3.83,1.27-18.32h.23a16.65,16.65,0,0,1,13.24,2.5,7.35,7.35,0,0,0,3.24,1.24Zm10.3-27.9-.42.14c-.41.14-.82.29-1.23.46a20.24,20.24,0,0,0-7.48,5.31h0a.52.52,0,0,0-.1.11l-.05,0-.06.06h-.06a23.76,23.76,0,0,0-9.28-3.83,25.16,25.16,0,0,0-4.25-.39,23.82,23.82,0,0,0-5.45.65h0a26.6,26.6,0,0,0-6.51-10.82,26.23,26.23,0,0,0-9.34-6,29.67,29.67,0,0,0,1.26-4.75,30.88,30.88,0,0,0,.55-5.76,32,32,0,0,0-3.2-14,31.6,31.6,0,0,0,15.31-18.06,14.6,14.6,0,0,0,8.31,1.25,15.17,15.17,0,0,0,9.62-5.52h.08a16.32,16.32,0,0,0,7,4,16.6,16.6,0,0,0,9.67-.28,27.62,27.62,0,0,0,6.16,11,28.16,28.16,0,0,0,9.09,6.57,25.38,25.38,0,0,0,1.24,20.11h0a30.75,30.75,0,0,0-3.92,3.27l-.27.27a29.83,29.83,0,0,0-3.61,4.33A31.26,31.26,0,0,0,324,612.84a20.63,20.63,0,0,0-8.3.77Zm25.42,10.9a3.7,3.7,0,0,0-2.29,2l-2.71,5.82L324.4,620a7.25,7.25,0,0,0,6.74-5.73,23.77,23.77,0,0,1,3.63-8.52l.48-.66,15.55,16.45Z" transform="translate(-87.79 -116.92)" fill="url(#ac)"/><path d="M302.85,605.93a20.54,20.54,0,1,1,20.54-20.54h0A20.56,20.56,0,0,1,302.85,605.93Zm0-33.79a13.26,13.26,0,1,0,13.23,13.29v0a13.27,13.27,0,0,0-13.23-13.25Z" transform="translate(-87.79 -116.92)" fill="url(#ad)"/><path d="M297.33,487.13A172.19,172.19,0,0,0,258.75,476a170,170,0,0,0-17-1.94,18.86,18.86,0,0,1,9.56-10.18,6.86,6.86,0,0,0,1.58-11.37,58.4,58.4,0,0,0-38.75-15c-33.5,0-60.77,29.22-60.77,65.13s27.27,65.13,60.77,65.13c22.41,0,42.93-13.15,53.54-34.32a27,27,0,0,0-.62-25.51,71.26,71.26,0,0,0-5-7.65A175.35,175.35,0,0,0,297,493.94a3.64,3.64,0,0,0,.4-6.86Zm-34,34.13a20.06,20.06,0,0,1-2.13,9,58.27,58.27,0,0,1-6.76,10.51,11.16,11.16,0,0,0,.83-4.24,11.36,11.36,0,1,0-6.44,10.24,51.05,51.05,0,0,1-34.69,13.71c-29.49,0-53.48-26-53.48-57.85s24-57.85,53.48-57.85a51.11,51.11,0,0,1,33.45,12.72,26.29,26.29,0,0,0-13.51,16.21H229.4a171.82,171.82,0,0,0-22.32,1.61,14.61,14.61,0,0,0-2.65-2.56,15.16,15.16,0,0,0-3-1.79,15.56,15.56,0,0,0-11-.43c-1.86.6-3.72,1.31-5.53,2.1l-2.18,1-.9.46-.6.32-.83.45-.86.49c-.35.2-.69.41-1,.62-.74.45-1.46.91-2.16,1.4a7.64,7.64,0,0,0-.75,11.92c.86.76,1.74,1.51,2.64,2.24l1.07.86a77,77,0,0,0,10,6.58,12.94,12.94,0,0,0,5.62,1.65,12.16,12.16,0,0,0,10.87-5.55,163.89,163.89,0,0,0,22,4.4c.7.1,1.41.19,2.11.27a167.33,167.33,0,0,0,19.12,1.06H253c.61.67,1.17,1.34,1.72,2a67.17,67.17,0,0,1,6,8.79,19.63,19.63,0,0,1,2.62,9.66ZM225.78,481l-.92,10.66a156.47,156.47,0,0,1-16.32-3.39,24.21,24.21,0,0,0,.74-5.93A165.52,165.52,0,0,1,225.78,481Zm-24,3.68a16.73,16.73,0,0,1-1.32,4.6v.09h0l-.1.27v.09a5.47,5.47,0,0,1-3,3.25,4.82,4.82,0,0,1-2.09.34,5.73,5.73,0,0,1-2.46-.74,70.06,70.06,0,0,1-9-5.95c-.63-.49-1.24-1-1.85-1.5l-.91-.77-.26-.23-.27-.23h0l-.31-.27.36-.24h0l.44-.29.2-.13c.28-.19.56-.37.86-.55l.87-.53c.66-.39,1.33-.77,2-1.13l1-.5c.32-.17.66-.33,1-.49l1-.46a48,48,0,0,1,4.81-1.82,8.33,8.33,0,0,1,5.86.16,8.21,8.21,0,0,1,1.59.94,7.82,7.82,0,0,1,1.81,1.91,17.2,17.2,0,0,1-.18,4.18Zm52.66,8.76a160.39,160.39,0,0,1-22.35-.81l1-11.64c1.27,0,2.53,0,3.79.08a163.62,163.62,0,0,1,46.94,8.7A165.08,165.08,0,0,1,254.44,493.48Z" transform="translate(-87.79 -116.92)" fill="url(#ae)"/><path d="M215.66,527.82a24.82,24.82,0,0,1-24.73-22.73,3.64,3.64,0,0,1,7.24-.8c0,.06,0,.11,0,.16a17.55,17.55,0,0,0,29.16,11.64,3.64,3.64,0,0,1,5,5.29l-.19.16A24.86,24.86,0,0,1,215.66,527.82Z" transform="translate(-87.79 -116.92)" fill="url(#af)"/><path d="M172.78,519.18a11.37,11.37,0,1,1,11.37-11.37h0A11.37,11.37,0,0,1,172.78,519.18Zm0-15.45a4.09,4.09,0,1,0,4.09,4.09h0a4.08,4.08,0,0,0-4.08-4.08Z" transform="translate(-87.79 -116.92)" fill="url(#ag)"/><path d="M221,471.33A11.37,11.37,0,1,1,232.35,460h0A11.38,11.38,0,0,1,221,471.33Zm0-15.45a4.08,4.08,0,1,0,4.08,4.08,4.08,4.08,0,0,0-4.08-4.08Z" transform="translate(-87.79 -116.92)" fill="url(#ah)"/><path d="M185.72,546.22a11.37,11.37,0,1,1,11.36-11.38h0A11.38,11.38,0,0,1,185.72,546.22Zm0-15.45a4.08,4.08,0,1,0,4.08,4.08,4.08,4.08,0,0,0-4.08-4.08Z" transform="translate(-87.79 -116.92)" fill="url(#ai)"/><path d="M213.26,556.87a11.37,11.37,0,1,1,11.37-11.39,11.37,11.37,0,0,1-11.37,11.39Zm0-15.45a4.09,4.09,0,1,0,4.08,4.1v0a4.08,4.08,0,0,0-4.08-4.08Z" transform="translate(-87.79 -116.92)" fill="url(#aj)"/><path d="M236.15,516.11a7,7,0,1,1,7-7A7,7,0,0,1,236.15,516.11Zm0-7.29a.27.27,0,0,0-.21.32.25.25,0,0,0,.21.21.26.26,0,0,0,.21-.31A.27.27,0,0,0,236.15,508.82Z" transform="translate(-87.79 -116.92)" fill="url(#ak)"/><path d="M448.45,931.58A20.54,20.54,0,1,1,469,911,20.54,20.54,0,0,1,448.45,931.58Zm0-33.79a13.26,13.26,0,1,0,13.26,13.26h0a13.27,13.27,0,0,0-13.26-13.25Z" transform="translate(-87.79 -116.92)" fill="url(#al)"/><path d="M505.77,946.55,486,925.65a3.55,3.55,0,0,1,.31-.23,7.29,7.29,0,0,0,2.36-9.22,18,18,0,0,1-.91-14.39A7.3,7.3,0,0,0,484,892.7a20.62,20.62,0,0,1-6.74-4.85,20.33,20.33,0,0,1-4.57-8.15,7.21,7.21,0,0,0-3.6-4.38,7.12,7.12,0,0,0-5.61-.44,9.26,9.26,0,0,1-5.49.18,8.92,8.92,0,0,1-3.93-2.25,6.88,6.88,0,0,0-1.47-1.1V743.23H491.3a3.64,3.64,0,0,0,3.64-3.64h0V718.48a18.22,18.22,0,0,0-18.2-18.2H305.35A24.4,24.4,0,0,0,282.57,725V875.31H240.69a3.66,3.66,0,0,0-3.64,3.65v17.31A26.52,26.52,0,0,0,260.53,923c.45,0,.91.09,1.37.12s1,0,1.47,0H410a7.24,7.24,0,0,0,4.43,8.63,19,19,0,0,1,11.51,12.22,7.39,7.39,0,0,0,1.25,2.37L425.28,973a3.64,3.64,0,0,0,3.39,3.89h.24a3.46,3.46,0,0,0,1.58-.37l11.9-5.74,10.48,5.67a3.65,3.65,0,0,0,4.94-1.45,3.7,3.7,0,0,0,.44-1.76v-24A13,13,0,0,1,461.3,947h0l18.78,19.87a3.58,3.58,0,0,0,2.64,1.13,3,3,0,0,0,.6,0,3.64,3.64,0,0,0,2.71-2.08l4.23-9.28,13.85-4.06a3.63,3.63,0,0,0,2.47-4.51,3.58,3.58,0,0,0-.85-1.49Zm-29-239a10.93,10.93,0,0,1,10.89,10.93V736H331.16V725a24.12,24.12,0,0,0-7.13-17.5ZM263.44,915.85h0a10.09,10.09,0,0,1-1.1,0,4.22,4.22,0,0,1-1-.08,19.26,19.26,0,0,1-17-19.44V882.66h38.24v13.41c0,10.88-8.6,19.76-19.17,19.77ZM412.23,894a7.26,7.26,0,0,0-3.16,9.57,24.86,24.86,0,0,1,2.48,10.88,13.1,13.1,0,0,1-.05,1.4h-130A27.29,27.29,0,0,0,289.93,896V725a17.68,17.68,0,0,1,1.33-7A17,17,0,0,1,324,725v14.55a3.64,3.64,0,0,0,3.64,3.64H445.26V871.76a7.48,7.48,0,0,0-2,1.72,8,8,0,0,1-5.06,2.93,7.63,7.63,0,0,1-4.31-.68,6.52,6.52,0,0,0-.73-.29,3.61,3.61,0,0,0,2-3.27v-3.36a12.46,12.46,0,0,0-12.44-12.45h-.87a59.74,59.74,0,0,0-10.7-69.52l3.89-4a3.63,3.63,0,0,0-.06-5.13l0,0L413.19,776l3.53-3.64a3.56,3.56,0,0,0,2.07.66h.06a3.58,3.58,0,0,0,2.56-1.1l7.08-7.32a3.63,3.63,0,0,0-.06-5.13l0,0-13.53-13.11a3.62,3.62,0,0,0-5.13.07h0l-7.08,7.32a3.64,3.64,0,0,0,.08,5.15h0l.21.2-3.48,3.6-1.65-1.6a3.67,3.67,0,0,0-2.59-1,3.74,3.74,0,0,0-2.56,1.1l-26.42,27.31-1.42-1.37a3.65,3.65,0,0,0-5.15.08h0l-6.51,6.73a3.64,3.64,0,0,0-1,2.58,3.72,3.72,0,0,0,1.11,2.57l25.67,24.86a3.61,3.61,0,0,0,2.53,1h.06a3.63,3.63,0,0,0,2.56-1.11l6.51-6.73a3.62,3.62,0,0,0-.08-5.14h0l-1.86-1.8,8.87-9.17a54.51,54.51,0,0,1,8.37,15.34,10.53,10.53,0,0,0,2.9,18.81c0,.74-.05,1.48-.1,2.22a15,15,0,0,0-5.81-.58H371.08a10.7,10.7,0,0,0-10.71,10.67v.92A3.64,3.64,0,0,0,364,852h25.3v4.42H362.72a12.06,12.06,0,0,0-11.48,8.44,27.73,27.73,0,0,0-4.45-8.21l-.15-.2-.16-.2h0c-.27-.33-.55-.65-.83-1l-.07-.08a71.64,71.64,0,0,0-9.81-9.1,46.41,46.41,0,0,0,7.31-7.58h0l.53-.71h0a47.17,47.17,0,0,0,4.68-7.85h0l.34-.76h0a44.93,44.93,0,0,0,2.92-8.77h0l.15-.71a43.82,43.82,0,0,0,.93-8.39v-.07h0v-2.29c-.56-15.56-10.32-27.23-17.13-33.53a62.61,62.61,0,0,0,8.93-7.23l.09-.09a17.31,17.31,0,0,0,1.49-1.6c.08-.09.18-.19.26-.29a27,27,0,0,0,5.3-10,2.29,2.29,0,0,0,.08-.28,27.32,27.32,0,0,0,1-7.42v-.65a3.64,3.64,0,1,0-7.28,0h0v.65a20,20,0,0,1-.22,3H313.87a21.4,21.4,0,0,1-.21-3v-.65a3.65,3.65,0,0,0-7.29,0v.65a27.73,27.73,0,0,0,1,7.36,2.77,2.77,0,0,0,.12.41,27,27,0,0,0,5.28,9.89,20.94,20.94,0,0,0,1.75,1.89l.1.09a62.53,62.53,0,0,0,8.92,7.23c-6.82,6.3-16.58,18-17.14,33.53a45,45,0,0,0,.92,10.8,2.9,2.9,0,0,0,.15.71h0a46.54,46.54,0,0,0,2.92,8.77h0c.11.26.22.51.34.76h0a46.37,46.37,0,0,0,4.68,7.85h0l.52.71h0a46.47,46.47,0,0,0,7.31,7.59,73.45,73.45,0,0,0-9.81,9.09l-.08.09c-.31.35-.62.72-.9,1.08a1.86,1.86,0,0,0-.21.28,27.59,27.59,0,0,0-4.83,9.37,2,2,0,0,1-.11.4,27.81,27.81,0,0,0-1,7.37v.69a3.65,3.65,0,1,0,7.29.39,2.54,2.54,0,0,0,0-.39v-.69a21.61,21.61,0,0,1,.21-3h31.33a20.19,20.19,0,0,1,.22,3v.69a37.83,37.83,0,0,1,8.91,1.43h73.37a7.22,7.22,0,0,0-2.15,1.61,7.47,7.47,0,0,0-1.54,2.62,24.27,24.27,0,0,1-11.81,13.94Zm10.56-30.35a5.18,5.18,0,0,1,5.15,4.89H358v-.14a4.77,4.77,0,0,1,4.75-4.75Zm-31.65-19H369.08A3.38,3.38,0,0,1,371,844h20.4a5.36,5.36,0,0,0-.34.62Zm-19.66-51.17,23.92-24.7,1.65,1.59,8.5,8.24,1.77,1.72L383.39,805Zm11.33,21.12-1.45,1.5-20.44-19.81,1.45-1.49,1.42,1.37,17.15,16.62Zm27.83-58.31-.19-.18,2-2.09,8.3,8-2,2.08-8.08-7.83h0Zm.84,11-3.48,3.6-3.28-3.17,3.49-3.6Zm-5.37,24.8a53.67,53.67,0,0,1,14.14,26.68,10.53,10.53,0,0,0-7.3-4.22,61.23,61.23,0,0,0-10.33-18.86Zm15.14,37.58a53.31,53.31,0,0,1-3,16.74,15.49,15.49,0,0,0-2.71-4.58,59.18,59.18,0,0,0,.53-7.17,10.52,10.52,0,0,0,5.18-5Zm-10.2-7.82h.08a3.49,3.49,0,0,1,.65-.06,3.25,3.25,0,0,1,.26,6.49h-.26a3.25,3.25,0,0,1-.73-6.42ZM412,852v4.39H396.59V852a8.51,8.51,0,0,1,.41-2.6,7.83,7.83,0,0,1,4.92-5,8.41,8.41,0,0,1,1.49-.32,7.88,7.88,0,0,1,1.19,0,7.64,7.64,0,0,1,2.5.52A8,8,0,0,1,412,852Zm-77.82-57.32a3.53,3.53,0,0,1,.37-1.59,3.65,3.65,0,0,0-3.28-2H319.6c.28-.47.59-.92.89-1.36h18.09c.3.44.6.89.89,1.36h-1.68a3.65,3.65,0,0,0-3.27,2,3.69,3.69,0,0,1,0,3.18,3.6,3.6,0,0,0,3.27,2h5.38l.06.16H315.84l.06-.16h15.34a3.64,3.64,0,0,0,3.28-2,3.5,3.5,0,0,1-.37-1.59Zm-.1-27.38c-1.15.88-2.33,1.7-3.56,2.48l-1,.63-1-.63c-1.21-.78-2.4-1.61-3.55-2.48ZM317.37,760a15.48,15.48,0,0,1-.94-1.44h26.21a15.48,15.48,0,0,1-.94,1.44Zm15.15,22.38h-6a39.78,39.78,0,0,1,3-2.81c.94.81,2,1.75,3,2.81Zm12.56,23.38c.08.54.14,1.08.19,1.64H313.78a11.12,11.12,0,0,1,.18-1.64Zm.06,8.92a4.5,4.5,0,0,1-.11.81H324.22a3.62,3.62,0,0,1-5.11.46,3.33,3.33,0,0,1-.46-.46H314a7.46,7.46,0,0,0-.1-.81Zm-26.51,8.09a3.62,3.62,0,0,1,5.11-.45,3.26,3.26,0,0,1,.46.45h19.11c-.18.52-.37,1-.58,1.57H316.31c-.2-.52-.39-1-.57-1.57ZM339,831.6l-.45.69h-18c-.16-.22-.31-.46-.46-.69Zm-6.89,8c-.83.73-1.68,1.43-2.57,2.09-.89-.66-1.74-1.36-2.56-2.09ZM328.8,851c.23-.18.47-.34.71-.5.24.16.48.32.72.5a59.92,59.92,0,0,1,4.88,4H323.94a54.61,54.61,0,0,1,4.88-4Zm13.09,11.26c.26.39.51.79.74,1.19H316.42c.22-.41.48-.8.73-1.19ZM451,967.18l-6.75-3.65a3.68,3.68,0,0,0-3.31-.07L433,967.29,434.24,949h.22a16.65,16.65,0,0,1,13.24,2.5,7.1,7.1,0,0,0,3.25,1.23Zm10.35-27.9-.44.14c-.42.14-.85.29-1.26.47a20.1,20.1,0,0,0-7.48,5.3h0l-.2.24h-.06a23.85,23.85,0,0,0-13.54-4.21,23.81,23.81,0,0,0-5.45.64h0A26.19,26.19,0,0,0,417,925a30,30,0,0,0,1.24-4.67,2,2,0,0,0,.05-.26,30.43,30.43,0,0,0,.51-5.56,31.73,31.73,0,0,0-3.2-14,31.53,31.53,0,0,0,15.32-18,14.76,14.76,0,0,0,8.31,1.24,15.55,15.55,0,0,0,9.73-5.56,16.22,16.22,0,0,0,7,4,16.65,16.65,0,0,0,9.66-.28,27.52,27.52,0,0,0,6.17,11,28,28,0,0,0,9.09,6.57,25.22,25.22,0,0,0-1.47,10.07,24.89,24.89,0,0,0,2.71,10h0a31,31,0,0,0-3.9,3.23h0a2.44,2.44,0,0,0-.27.29,29.15,29.15,0,0,0-3.61,4.31,31.36,31.36,0,0,0-4.75,11.1,20.39,20.39,0,0,0-8.29.73Zm25.33,10.83a3.62,3.62,0,0,0-2.29,2L481.66,958,470,945.73a7.24,7.24,0,0,0,6.74-5.74,23.67,23.67,0,0,1,3.63-8.5c.15-.23.31-.45.47-.67l15.56,16.46Z" transform="translate(-87.79 -116.92)" fill="url(#am)"/><path d="M857.7,956.75,838,935.86l.31-.24a7.28,7.28,0,0,0,2.35-9.22,18.12,18.12,0,0,1-.9-14.39,7.3,7.3,0,0,0-3.83-9.11,20.43,20.43,0,0,1-11.31-13,7.33,7.33,0,0,0-3.6-4.38,7.1,7.1,0,0,0-5.6-.44,9.1,9.1,0,0,1-9.43-2.06,6.88,6.88,0,0,0-1.47-1.1V753.48h38.76a3.65,3.65,0,0,0,3.64-3.65V728.67a18.21,18.21,0,0,0-18.2-18.2H657.85a2.72,2.72,0,0,0-.57,0,24.38,24.38,0,0,0-22.78,24.72v150.3H592.62a3.64,3.64,0,0,0-3.64,3.64h0v17.35a26.52,26.52,0,0,0,23.48,26.69c.45,0,.91.08,1.37.11s1,0,1.51,0H761.88a7.24,7.24,0,0,0,4.43,8.63,19,19,0,0,1,11.51,12.22,7.19,7.19,0,0,0,1.25,2.35h0l-1.86,26.68a3.6,3.6,0,0,0,1.59,3.26,3.51,3.51,0,0,0,2,.63,3.59,3.59,0,0,0,1.58-.36l11.9-5.74,10.48,5.66a3.65,3.65,0,0,0,4.94-1.45,3.69,3.69,0,0,0,.44-1.75v-24a13.19,13.19,0,0,1,3.05-2.19L832,977a3.64,3.64,0,0,0,2.65,1.13,3,3,0,0,0,.6,0A3.63,3.63,0,0,0,838,976l4.23-9.28,13.84-4a3.65,3.65,0,0,0,1.63-6Zm-29-239a10.93,10.93,0,0,1,10.92,10.92v17.48H683.08V735.24A23.91,23.91,0,0,0,676,717.75ZM596.27,906.48V892.81H634.5v13.41c0,10.92-8.6,19.82-19.16,19.82h-1.11l-1-.08A19.26,19.26,0,0,1,596.27,906.48Zm167.87-2.3a7.28,7.28,0,0,0-3.17,9.58,24.83,24.83,0,0,1,2.48,10.88V926h-130a27.3,27.3,0,0,0,8.44-19.82v-171a17,17,0,0,1,32.46-7.45,17.42,17.42,0,0,1,1.55,7.45v14.55a3.65,3.65,0,0,0,3.64,3.65H797.29V881.93a7.37,7.37,0,0,0-2,1.73,8,8,0,0,1-5.06,2.93,7.63,7.63,0,0,1-4.31-.68,7.24,7.24,0,0,0-9.58,3.58,7.71,7.71,0,0,0-.29.75,24.3,24.3,0,0,1-11.8,13.93Zm38.76,73.17-6.75-3.64a3.61,3.61,0,0,0-3.31-.08l-7.93,3.83,1.28-18.34h.22a16.61,16.61,0,0,1,13.24,2.51,7.21,7.21,0,0,0,3.25,1.23Zm10.24-27.88-.33.11c-.42.14-.85.3-1.27.47a20.24,20.24,0,0,0-7.5,5.33h0l-.19.21h-.06a23.87,23.87,0,0,0-9.29-3.83,23.49,23.49,0,0,0-9.7.25,26.78,26.78,0,0,0-6.51-10.82,26.46,26.46,0,0,0-9.34-6,30.54,30.54,0,0,0,1.25-4.71v-.09a31.08,31.08,0,0,0,.53-5.7,31.73,31.73,0,0,0-3.2-14,31.65,31.65,0,0,0,15.32-18.06,14.76,14.76,0,0,0,8.31,1.24,15.5,15.5,0,0,0,9.73-5.56,16.22,16.22,0,0,0,7,4,16.65,16.65,0,0,0,9.66-.29,27.74,27.74,0,0,0,15.26,17.53,25.39,25.39,0,0,0-.65,15.23,25.77,25.77,0,0,0,1.88,4.88,31.69,31.69,0,0,0-3.9,3.23h0a2.37,2.37,0,0,0-.27.28,29.83,29.83,0,0,0-3.61,4.33,31.29,31.29,0,0,0-4.76,11.08,21,21,0,0,0-8.36.9Zm25.44,10.81a3.66,3.66,0,0,0-2.3,2l-2.68,5.89-11.68-12.28a7.23,7.23,0,0,0,6.74-5.73,23.72,23.72,0,0,1,3.63-8.51c.15-.23.31-.44.48-.66l15.54,16.45Z" transform="translate(-87.79 -116.92)" fill="url(#an)"/><path d="M800.38,941.79a20.54,20.54,0,1,1,20.54-20.54A20.54,20.54,0,0,1,800.38,941.79Zm0-33.79a13.25,13.25,0,1,0,13.26,13.25A13.25,13.25,0,0,0,800.38,908Z" transform="translate(-87.79 -116.92)" fill="url(#ao)"/><path d="M785.08,793.22a3.7,3.7,0,0,0-2.27-1.63l-4.21-1,1.07-4.5a3.64,3.64,0,0,0-.45-2.75,3.6,3.6,0,0,0-2.25-1.63L689.61,761a3.64,3.64,0,0,0-4.38,2.71h0l-21,89-12,4.06a3.63,3.63,0,0,0-1.52,5.9l8.84,9.76-2.46,10.44a3.65,3.65,0,0,0,2.7,4.38l4.21,1-1.06,4.5a3.64,3.64,0,0,0,.45,2.75,3.56,3.56,0,0,0,2.25,1.63L753,917.83a3.39,3.39,0,0,0,.84.1,3.63,3.63,0,0,0,3.53-2.8l4.11-17.36,1.62.37a3.23,3.23,0,0,0,.82.1,3.67,3.67,0,0,0,2.49-1,17.64,17.64,0,0,0,4.5-19.07,3.71,3.71,0,0,0-2.57-2.28l-1.6-.38L785.55,796A3.68,3.68,0,0,0,785.08,793.22ZM661.56,863.83l-1.76-2,2.41-.81Zm8.42-3.94,62.73,15a3.64,3.64,0,0,0,1.69-7.09l-46.61-11.12a3.62,3.62,0,0,0,1.38-.67,3.39,3.39,0,0,0,1-1.22,2.09,2.09,0,0,0,.5,0,3.59,3.59,0,0,0,2.25-.77l2.86-2.24,1,2.63a3.63,3.63,0,0,0,3.39,2.33,3.47,3.47,0,0,0,1.31-.25,3.63,3.63,0,0,0,2.1-4.68v0l-.8-2.07a3.88,3.88,0,0,0,.56.23l2,.59-.4,1.77a3.64,3.64,0,0,0,2.76,4.34,3.57,3.57,0,0,0,.8.09,3.64,3.64,0,0,0,3.55-2.85l.27-1.2.72.22a3.56,3.56,0,0,0,1.07.16h.1l-1.12,1.15a3.64,3.64,0,1,0,5,5.29l.16-.17,6-6.08,6-6.08a10.1,10.1,0,0,1,.16,6.08,10.24,10.24,0,0,1-4.59,5.84,3.64,3.64,0,1,0,3.7,6.28,17.87,17.87,0,0,0,5.71-5.44,3.5,3.5,0,0,0,2,1.39l9.78,2.54a3.11,3.11,0,0,0,.91.11,3.64,3.64,0,0,0,1.4-7h.16a3.64,3.64,0,0,0,.91-7.17l-9.72-2.52a3.68,3.68,0,0,0-2.86.44,18.33,18.33,0,0,0-2.12-6.09,3.63,3.63,0,0,0-5-1.32h0a3.57,3.57,0,0,0-1.21,1.14A3.65,3.65,0,0,0,725,842l-1.75,1.78-.78-2.49a3.66,3.66,0,0,0-7,2.17l1,3.35A3.64,3.64,0,0,0,715,846l-1.26-.39.52-2.36a3.63,3.63,0,0,0-6.36-3.1,3.76,3.76,0,0,0-.76-2,3.66,3.66,0,0,0-5.12-.62L698.87,840l-1.21-3.15a3.63,3.63,0,0,0-3.57-2.32,3.59,3.59,0,0,0-.41-2.44,3.64,3.64,0,0,0-4.93-1.43l-.07,0a16.83,16.83,0,0,0-7.78,9.68c-2.29,7.73,2.07,13.83,3,15a2.85,2.85,0,0,0,.51.53l-12.92-3.08L691.32,769l80.26,19-1.06,4.5-18.8,79.49L744,870.08a3.64,3.64,0,0,0-1.69,7.08L750,879l-1.93,8.17-80.37-18.53Zm18.1-17.41a9.18,9.18,0,0,1,2.7-4.17,3.51,3.51,0,0,0,.24,1.2l2,5.22-4.61,3.61h0A9.06,9.06,0,0,1,688.08,842.48Zm29.45,7.26.19-.2a3.08,3.08,0,0,1-.06.61Zm-51.3,26.06,80.36,18.54L745.25,900l-76-18L665,881Zm84.87,34.1-80.26-19,.22-1,76,18a3.39,3.39,0,0,0,.84.1,3.63,3.63,0,0,0,3.55-2.8l2.19-9.27.66.15Zm13.18-22.59a10.13,10.13,0,0,1-1.65,3.26l-3-.69h-.08l-4.14-1,1.93-8.11,7.24,1.72a10.31,10.31,0,0,1-.29,4.78Zm-4.66-13.46-.66-.17,18-76,.66.16Z" transform="translate(-87.79 -116.92)" fill="url(#ap)"/><path d="M765.92,794a3.63,3.63,0,0,1-4.24,2.92h0l-35.74-6.62-2.8-.51-1.64-.31-14.33,19a3.66,3.66,0,0,1-2.91,1.45,3.23,3.23,0,0,1-.82-.1,3.62,3.62,0,0,1-2.76-2.86l-3.24-17-3.51.9a3.64,3.64,0,0,1-1.82-7l7.26-1.88a3.73,3.73,0,0,1,2.86.46,3.67,3.67,0,0,1,1.63,2.39l2.43,12.76,10.79-14.29a3.63,3.63,0,0,1,3.57-1.4l42.4,7.85A3.64,3.64,0,0,1,765.92,794Z" transform="translate(-87.79 -116.92)" fill="url(#aq)"/><path d="M738.86,800.48l-6,4.85,3.06,7.31a3.63,3.63,0,0,1-2,4.75h0a3.38,3.38,0,0,1-1.4.29,3.61,3.61,0,0,1-3.36-2.24l-2.23-5.34-4.29,3.48A3.64,3.64,0,1,1,718,808l.07-.06,6-4.83-3.5-8.38a3.62,3.62,0,0,1,1.94-4.73l.06,0a3.41,3.41,0,0,1,.62-.19l2.8.51a3.68,3.68,0,0,1,1.34,1.63l2.68,6.41,4.31-3.5a3.64,3.64,0,0,1,4.66,5.6l-.07.05Z" transform="translate(-87.79 -116.92)" fill="url(#ar)"/><path d="M707.54,820.94a3.18,3.18,0,0,1-.92-.11l-19-4.92a3.64,3.64,0,0,1,1.83-7l19,4.92a3.64,3.64,0,0,1-.91,7.16Z" transform="translate(-87.79 -116.92)" fill="url(#as)"/><path d="M704.43,830.48a3.5,3.5,0,0,1-.91-.12l-19-4.91a3.64,3.64,0,1,1,1.05-7.2,4.06,4.06,0,0,1,.78.2l19,4.91a3.64,3.64,0,0,1-.91,7.17Z" transform="translate(-87.79 -116.92)" fill="url(#at)"/><path d="M753,830.48a3.5,3.5,0,0,1-.91-.12l-19-4.91a3.64,3.64,0,1,1,1-7.21,3.78,3.78,0,0,1,.8.21l19,4.91a3.64,3.64,0,0,1-.92,7.17Z" transform="translate(-87.79 -116.92)" fill="url(#au)"/><path d="M749.91,840a3.18,3.18,0,0,1-.92-.11l-19-4.92a3.64,3.64,0,1,1,1-7.2,4.06,4.06,0,0,1,.78.2l19,4.92a3.64,3.64,0,0,1-.91,7.16Z" transform="translate(-87.79 -116.92)" fill="url(#av)"/><path d="M691.3,368.1l-21.12-22.35c.63-.54,1.28-1,2-1.52a5.46,5.46,0,0,0,1.77-6.91,19.85,19.85,0,0,1-1-15.83,5.46,5.46,0,0,0-2.86-6.83,22.23,22.23,0,0,1-12.35-14.18,5.45,5.45,0,0,0-2.69-3.28,5.3,5.3,0,0,0-4.18-.33,11,11,0,0,1-11.27-2.48,5.47,5.47,0,0,0-2-1.24V161.71h40.58a1.81,1.81,0,0,0,1.82-1.8V138.76a16.4,16.4,0,0,0-16.38-16.38H492.41a22.55,22.55,0,0,0-21.16,22.92V297.48H427.54a1.84,1.84,0,0,0-1.82,1.82v17.32a24.73,24.73,0,0,0,21.85,24.86l1.29.1h150.4c-.17.64-.37,1.28-.59,1.91a5.42,5.42,0,0,0,3.2,6.83,20.76,20.76,0,0,1,12.61,13.38,5.57,5.57,0,0,0,1.37,2.27L614,393.41a1.83,1.83,0,0,0,1.79,1.95,1.84,1.84,0,0,0,.8-.18L629.27,389l11.3,6.12a1.83,1.83,0,0,0,2.48-.75,1.91,1.91,0,0,0,.21-.85v-24.7a15.13,15.13,0,0,1,5.27-3.63h0l19.73,20.72a1.79,1.79,0,0,0,1.32.57h.3a1.79,1.79,0,0,0,1.35-1l4.57-10,14.66-4.29a1.82,1.82,0,0,0,1.22-2.28,1.85,1.85,0,0,0-.41-.72ZM663.59,126a12.76,12.76,0,0,1,12.74,12.74v19.31H516.19V145.34a22.77,22.77,0,0,0-2.07-9.78,23.26,23.26,0,0,0-8.37-9.54ZM429.36,316.59v-15.5h41.89v15.24c0,11.92-9.42,21.63-21,21.64h-1.2a9.42,9.42,0,0,1-1.1-.09A21.08,21.08,0,0,1,429.36,316.59ZM600,338H463a25.45,25.45,0,0,0,11.92-21.64v-171a19.21,19.21,0,0,1,1.47-7.74,18.84,18.84,0,0,1,36.18,7.74v14.55a1.81,1.81,0,0,0,1.82,1.82H633.94V293.22a5.4,5.4,0,0,0-2.42,1.71,9.85,9.85,0,0,1-6.21,3.58,9.42,9.42,0,0,1-5.33-.83,5.41,5.41,0,0,0-4.37-.05,5.53,5.53,0,0,0-3,3.3,26.06,26.06,0,0,1-12.68,15,5.44,5.44,0,0,0-2.37,7.18,26.65,26.65,0,0,1,2.65,11.67A24.2,24.2,0,0,1,600,338Zm39.66,52.51-9.43-5.1a1.86,1.86,0,0,0-1.66,0l-10.75,5.19,1.6-23a5.2,5.2,0,0,0,1.52-.14,18.63,18.63,0,0,1,7.51-.18,18.4,18.4,0,0,1,7.17,3,5.51,5.51,0,0,0,3.16,1,3.7,3.7,0,0,0,.88-.08Zm8.76-29.12c-.42.13-.83.28-1.24.45a18.86,18.86,0,0,0-6.94,5,.86.86,0,0,0-.13.14h0a1.83,1.83,0,0,1-2.42.23,22.18,22.18,0,0,0-8.58-3.54,22.06,22.06,0,0,0-8.94.23,1.8,1.8,0,0,1-2.14-1.22,24.45,24.45,0,0,0-14.81-15.71,1.75,1.75,0,0,1-1-2.21,29.85,29.85,0,0,0,1.21-4.57V340a28.56,28.56,0,0,0,.48-5.22,30.25,30.25,0,0,0-3-13.25,1.8,1.8,0,0,1,.78-2.39,29.77,29.77,0,0,0,14.44-17,1.84,1.84,0,0,1,1-1.1,1.79,1.79,0,0,1,1.4,0,12.83,12.83,0,0,0,7.37,1.13,13.37,13.37,0,0,0,8.51-4.88,1.92,1.92,0,0,1,1.35-.71h.1a1.83,1.83,0,0,1,1.29.53,14.61,14.61,0,0,0,15,3.3,1.69,1.69,0,0,1,1.34.11,1.83,1.83,0,0,1,.88,1.07A25.79,25.79,0,0,0,668.67,318a1.81,1.81,0,0,1,.92,2.28A23.42,23.42,0,0,0,670.77,339a1.78,1.78,0,0,1-.62,2.27,29.83,29.83,0,0,0-3.72,3.1,29,29,0,0,0-8.09,14.78,1.79,1.79,0,0,1-2,1.4,18.68,18.68,0,0,0-7.54.77,1.34,1.34,0,0,0-.4.06ZM674,372.1a1.83,1.83,0,0,0-1.14,1l-3.79,8.38-16.46-17.3a16.54,16.54,0,0,1,3.3,0,5.44,5.44,0,0,0,5.89-4.27,25.6,25.6,0,0,1,3.91-9.16,28.62,28.62,0,0,1,1.87-2.4l19,20.13Z" transform="translate(-87.79 -116.92)" fill="#fff"/><path d="M635.3,350.06A18.72,18.72,0,1,1,654,331.34h0A18.74,18.74,0,0,1,635.3,350.06Zm0-33.79a15.08,15.08,0,1,0,15.08,15.08h0a15.1,15.1,0,0,0-15.08-15.07Z" transform="translate(-87.79 -116.92)" fill="#fff"/><path d="M560.75,253.57l-8.2-10.26,1-.72a2.91,2.91,0,0,0,1.13-1.94,2.88,2.88,0,0,0-.6-2.17l-4-5.24a2.87,2.87,0,0,0-1.93-1.13,2.91,2.91,0,0,0-2.17.56l-5.24,4a2.94,2.94,0,0,0-.57,4.1l4,5.24a2.94,2.94,0,0,0,4.1.56l1.38-1,8.26,10.33a1.82,1.82,0,0,0,3-2.13,1.34,1.34,0,0,0-.11-.14Zm-14.11-10.35-3.1-4.1,4.1-3.1,3.1,4.09Z" transform="translate(-87.79 -116.92)" fill="#fff"/><path d="M528.9,255.14a2.88,2.88,0,0,1-2.34-1.16l-4-5.24a2.94,2.94,0,0,1,.57-4.1l5.24-4a2.93,2.93,0,0,1,4.1.57l4,5.24a2.93,2.93,0,0,1-.56,4.1h0l-5.24,4A2.9,2.9,0,0,1,528.9,255.14Zm-3-8,3.1,4.1,4.1-3.1L530,244Z" transform="translate(-87.79 -116.92)" fill="#fff"/><path d="M526.32,236.72a2.93,2.93,0,0,1-2.34-1.16l-4-5.24a2.91,2.91,0,0,1,.56-4.09h0l5.23-4a2.91,2.91,0,0,1,2.17-.56,3,3,0,0,1,1.94,1.13l4,5.24a2.93,2.93,0,0,1-.57,4.1h0l-5.24,4A3,3,0,0,1,526.32,236.72Zm-3-8,3.11,4.1,4.1-3.1-3.11-4.1Zm8.87,2Z" transform="translate(-87.79 -116.92)" fill="#fff"/><path d="M514.6,200.48a1.81,1.81,0,0,1-1.44-.71l-5.28-6.87a1.82,1.82,0,0,1,2.78-2.35,1.13,1.13,0,0,1,.1.13l5.32,6.8a1.81,1.81,0,0,1-.32,2.54h0A1.82,1.82,0,0,1,514.6,200.48Z" transform="translate(-87.79 -116.92)" fill="#fff"/><path d="M503.33,212.4a1.79,1.79,0,0,1-1.15-.42l-7-5.81a1.82,1.82,0,0,1,2.31-2.81l7,5.81a1.82,1.82,0,0,1,.26,2.56A1.79,1.79,0,0,1,503.33,212.4Z" transform="translate(-87.79 -116.92)" fill="#fff"/><path d="M496.3,226.48a1.5,1.5,0,0,1-.63-.11l-8.1-3a1.82,1.82,0,1,1,1.26-3.42l8.1,3a1.82,1.82,0,0,1-.63,3.52Z" transform="translate(-87.79 -116.92)" fill="#fff"/><path d="M493.83,243.72h-8.62a1.82,1.82,0,1,1,0-3.64h8.62a1.82,1.82,0,1,1,0,3.64Z" transform="translate(-87.79 -116.92)" fill="#fff"/><path d="M487.15,263.26a1.82,1.82,0,0,1-.76-3.48h0l8.27-3.69a1.82,1.82,0,1,1,1.57,3.29l-.08,0-8.27,3.7A1.7,1.7,0,0,1,487.15,263.26Z" transform="translate(-87.79 -116.92)" fill="#fff"/><path d="M495.42,279.8a1.78,1.78,0,0,1-1.48-.76,1.82,1.82,0,0,1,.41-2.54l6.87-4.93a1.84,1.84,0,1,1,2.12,3l-6.86,4.91A1.74,1.74,0,0,1,495.42,279.8Z" transform="translate(-87.79 -116.92)" fill="#fff"/><path d="M507.21,294.58a1.82,1.82,0,0,1-1.83-1.81,1.84,1.84,0,0,1,.52-1.28l6.16-6.33a1.82,1.82,0,0,1,2.61,2.54h0L508.51,294A1.74,1.74,0,0,1,507.21,294.58Z" transform="translate(-87.79 -116.92)" fill="#fff"/><path d="M522.87,304.48a1.71,1.71,0,0,1-.91-.25,1.81,1.81,0,0,1-.66-2.48h0l4.6-7.92a1.82,1.82,0,1,1,3.15,1.83h0l-4.61,7.92A1.79,1.79,0,0,1,522.87,304.48Z" transform="translate(-87.79 -116.92)" fill="#fff"/><path d="M541.18,310.25a1.85,1.85,0,0,1-1.82-1.88,2,2,0,0,1,0-.34l1.93-8.8a1.82,1.82,0,0,1,3.56.79h0l-1.94,8.8A1.81,1.81,0,0,1,541.18,310.25Z" transform="translate(-87.79 -116.92)" fill="#fff"/><path d="M568.53,198.78a8.74,8.74,0,0,0-6.71-3.14h-.07a8.7,8.7,0,0,0,.12,17.4h0a8.7,8.7,0,0,0,6.61-14.26Zm-1.72,6.55a5.11,5.11,0,0,1-1.74,2.89,5,5,0,0,1-3.17,1.18,5.16,5.16,0,0,1-3.94-1.83,5.05,5.05,0,0,1,3.82-8.28h0a5.07,5.07,0,0,1,5.09,5,5.23,5.23,0,0,1-.09,1Zm1.72-6.55a8.74,8.74,0,0,0-6.71-3.14h-.07a8.7,8.7,0,0,0,.12,17.4h0a8.7,8.7,0,0,0,6.61-14.26Zm-1.72,6.55a5.11,5.11,0,0,1-1.74,2.89,5,5,0,0,1-3.17,1.18,5.16,5.16,0,0,1-3.94-1.83,5.05,5.05,0,0,1,3.82-8.28h0a5.07,5.07,0,0,1,5.09,5,5.23,5.23,0,0,1-.09,1Zm1.72-6.55a8.74,8.74,0,0,0-6.71-3.14h-.07a8.7,8.7,0,0,0,.12,17.4h0a8.7,8.7,0,0,0,6.61-14.26Zm-1.72,6.55a5.11,5.11,0,0,1-1.74,2.89,5,5,0,0,1-3.17,1.18,5.16,5.16,0,0,1-3.94-1.83,5.05,5.05,0,0,1,3.82-8.28h0a5.07,5.07,0,0,1,5.09,5,5.23,5.23,0,0,1-.09,1Z" transform="translate(-87.79 -116.92)" fill="#fff"/><path d="M561.89,219.62a15.28,15.28,0,0,1-5-29.73,1.82,1.82,0,0,1,1.19,3.45,11.63,11.63,0,0,0,3.8,22.64H562a11.63,11.63,0,0,0,5.16-22,1.81,1.81,0,0,1-.8-2.45,1.83,1.83,0,0,1,2.45-.8h0a15.28,15.28,0,0,1-6.79,28.9Z" transform="translate(-87.79 -116.92)" fill="#fff"/><path d="M606,276.92l-5-6.1a1.81,1.81,0,0,0-2.44-.35L594.91,273l-4.38-6.27a46.1,46.1,0,0,0,6.12-15.62,47.59,47.59,0,0,0-.39-20.23,1.82,1.82,0,0,0-3.54.85,44,44,0,0,1,.36,18.69,42.52,42.52,0,0,1-4.8,13l-7.57-10.93,1-.73a2.93,2.93,0,0,0,.57-4.1l-4-5.24a2.92,2.92,0,0,0-4.09-.56h0l-5.23,4a2.92,2.92,0,0,0-.59,4.08l0,0,4,5.24a2.92,2.92,0,0,0,4.1.57l1.37-1,8,11.47a1.81,1.81,0,0,0,.75.62,1.7,1.7,0,0,0,.32,1l5.1,7.3-2.08,1.55-11.31-14.38a1.85,1.85,0,0,0-1.3-.69l-25.5-1.94.14-2.09a2.93,2.93,0,0,0-2.72-3.12L542.7,254a2.94,2.94,0,0,0-3.12,2.72l-.46,6.56a2.93,2.93,0,0,0,2.72,3.12l6.55.45h.21a2.93,2.93,0,0,0,2.92-2.72l.06-.84,24.68,1.88L587,278.86l-3.77,2.81-10.34-12.93a1.82,1.82,0,1,0-2.95,2.14l.11.13,10.26,12.84-5.78,4.31-10-12.3,1.18-.89a2.93,2.93,0,0,0,.57-4.1l-4-5.24a2.93,2.93,0,0,0-4.1-.57l-5.24,4a2.93,2.93,0,0,0-.56,4.1l4,5.24a2.89,2.89,0,0,0,1.93,1.13h.41a2.86,2.86,0,0,0,1.76-.6l1.16-.87,10,12.28-2.58,1.84-5.8-7.3a1.8,1.8,0,0,0-1.89-.63,42.57,42.57,0,0,1-10.83,1.46h-.26a43.8,43.8,0,0,1-17.7-83.94l-.27,2.94a4,4,0,0,0,3.61,4.34l5.44.5a21.49,21.49,0,0,0,.74,2.64l-4.25,3.71a3.7,3.7,0,0,0-.36,5.22l4.19,4.8a4,4,0,0,0,5.64.46l.07-.07,3.64-3.17a20.71,20.71,0,0,0,2.34,1.21l-.36,5a3.85,3.85,0,0,0,3.57,4.1l6.6.47h.26a3.67,3.67,0,0,0,3.62-3.44l.36-5.18c.54-.15,1.07-.33,1.6-.53l2.85,3.61a4.28,4.28,0,0,0,6,.7l4.78-3.78a3.74,3.74,0,0,0,.61-5.25l-3.48-4.4a19.19,19.19,0,0,0,1.23-2.49l2.32.21a44.05,44.05,0,0,1,5.47,8,1.81,1.81,0,0,0,1.61,1,1.68,1.68,0,0,0,.85-.21,1.82,1.82,0,0,0,.76-2.46h0a49,49,0,0,0-4-6.28,4.23,4.23,0,0,0,2.79-3.57l.49-5.43a4.46,4.46,0,0,0-4-4.85l-5.65-.52a17.76,17.76,0,0,0-.74-2l4.66-4.07a4,4,0,0,0,.45-5.64l0-.06-3.9-4.47a4.16,4.16,0,0,0-5.85-.4l-4.93,4.3c-.36-.19-.73-.37-1.1-.53l.46-6.65a4,4,0,0,0-3.66-4.31h-.09l-5.87-.41a4.19,4.19,0,0,0-4.47,3.87h0l-.46,6.49-.35.1-4-5a4.33,4.33,0,0,0-6.06-.7l-4.3,3.4a4.32,4.32,0,0,0-.71,6.07l3.67,4.63a17.55,17.55,0,0,0-1.11,1.86l-6-.54a4.15,4.15,0,0,0-4.24,2.6,47.44,47.44,0,0,0,17.43,91.74A46,46,0,0,0,561,288l5,6.35-2.47,2a1.82,1.82,0,0,0-.31,2.51l5.27,7a1.85,1.85,0,0,0,1.21.72H570a1.75,1.75,0,0,0,1.12-.38l6.53-5.07,2.72,3.42a.26.26,0,0,0,0,.09l.14.17,3.7,4.67a1.79,1.79,0,0,0,1.22.67h.21a1.79,1.79,0,0,0,1.13-.4l18.29-14.39a1.81,1.81,0,0,0,.3-2.55l0-.05-3.61-4.29a2.09,2.09,0,0,0-.14-.17L598.74,285l7-5.44a1.82,1.82,0,0,0,.32-2.55l0,0ZM577.17,250.6l-.18.14-2.19,1.65-3.1-4.1,4.1-3.1,3.1,4.1Zm-29.3,12.55-5.12-.35.35-5.13,5.13.35Zm12.91,11-2,1.47-3.1-4.1,4.1-3.1,3.1,4.1Zm-24.31-75a.5.5,0,0,1,.18-.35.53.53,0,0,1,.38-.12l7.2.66a1.82,1.82,0,0,0,1.83-1.07,17,17,0,0,1,2.08-3.47,1.83,1.83,0,0,0,0-2.24l-4.51-5.71a.68.68,0,0,1,.11-1l4.3-3.41a.67.67,0,0,1,.94.11l4.75,6a1.81,1.81,0,0,0,2.06.58,17.57,17.57,0,0,1,2.45-.71,1.82,1.82,0,0,0,1.44-1.65l.55-7.81a.57.57,0,0,1,.59-.51l5.87.42a.4.4,0,0,1,.37.43h0l-.56,8a1.82,1.82,0,0,0,1.19,1.84,16.85,16.85,0,0,1,2.94,1.4,1.81,1.81,0,0,0,2.13-.19l5.89-5.13a.54.54,0,0,1,.37-.13.59.59,0,0,1,.35.18l3.89,4.46a.4.4,0,0,1,0,.57h0l-5.69,5a1.83,1.83,0,0,0-.49,2.18,17,17,0,0,1,1.41,3.77,1.81,1.81,0,0,0,1.6,1.38l6.9.63a.9.9,0,0,1,.55.29.83.83,0,0,1,.19.6l-.5,5.43a.55.55,0,0,1-.59.52h0l-1.76-.16-1-.09-3.82-.35a1.81,1.81,0,0,0-1.89,1.24,17.07,17.07,0,0,1-2,4.12,1.83,1.83,0,0,0,.08,2.14l4.28,5.4a.1.1,0,0,1,0,.13l-4.78,3.79a.65.65,0,0,1-.9-.11l-3.75-4.72a1.81,1.81,0,0,0-2.18-.53,17.49,17.49,0,0,1-3.52,1.16,1.83,1.83,0,0,0-1.44,1.65l-.47,6.52-6.61-.47a.17.17,0,0,1-.13-.07.15.15,0,0,1-.05-.14l.44-6.31a1.82,1.82,0,0,0-1.19-1.84,16.33,16.33,0,0,1-4-2.07,1.87,1.87,0,0,0-1-.33,1.8,1.8,0,0,0-1.19.45L545,223.58a.41.41,0,0,1-.58,0h0l-4.18-4.8a.07.07,0,0,1,0-.09l5.22-4.54a1.82,1.82,0,0,0,.48-2.09,17.15,17.15,0,0,1-1.22-4.39,1.82,1.82,0,0,0-1.64-1.57l-6.83-.63a.34.34,0,0,1-.32-.37h0Zm49.61,106.76-1.53-1.93L600,292.12l1.34,1.6Zm11.54-16.53-15.33,11.75-1.67-2.1,15.2-11.79Zm-27.17,12.94-3.1-4.14,2.45-2h0l5.46-4.07,8.68-6.47,6.68-5,4.81-3.59h.07l3.7-2.54,2.75,3.36Z" transform="translate(-87.79 -116.92)" fill="#fff"/><path d="M953.65,608.81a18.72,18.72,0,1,1,18.71-18.73h0A18.74,18.74,0,0,1,953.65,608.81Zm0-33.79a15.08,15.08,0,1,0,15.07,15.09v0A15.09,15.09,0,0,0,953.65,575Z" transform="translate(-87.79 -116.92)" fill="#fff"/><path d="M1009.64,626.85l-21.12-22.37c.63-.54,1.28-1,2-1.52a5.46,5.46,0,0,0,1.77-6.91,19.85,19.85,0,0,1-1-15.83,5.46,5.46,0,0,0-2.86-6.83,22.17,22.17,0,0,1-12.35-14.13,5.5,5.5,0,0,0-2.7-3.28,5.3,5.3,0,0,0-4.18-.33,11,11,0,0,1-6.56.22,10.67,10.67,0,0,1-4.71-2.7,5.63,5.63,0,0,0-2-1.25V420.48h40.58a1.81,1.81,0,0,0,1.82-1.8v-21.2A16.39,16.39,0,0,0,982,381.1H811.08a2.16,2.16,0,0,0-.36,0A22.58,22.58,0,0,0,789.55,404V556.2H745.88a1.84,1.84,0,0,0-1.82,1.82v17.32a24.73,24.73,0,0,0,21.86,24.88c.42,0,.85.08,1.28.1s.92,0,1.38,0h149c-.17.64-.37,1.28-.59,1.91a5.42,5.42,0,0,0,3.2,6.83,20.78,20.78,0,0,1,12.63,13.42,5.35,5.35,0,0,0,1.38,2.28l-1.91,27.43a1.83,1.83,0,0,0,1.79,1.95,1.84,1.84,0,0,0,.8-.18l12.74-6.15,11.29,6.11a1.83,1.83,0,0,0,2.48-.75,1.91,1.91,0,0,0,.21-.85V627.59a15.22,15.22,0,0,1,5.27-3.63h0l19.73,20.73a1.83,1.83,0,0,0,1.32.56h.3a1.81,1.81,0,0,0,1.36-1l4.57-10L1008.8,630a1.79,1.79,0,0,0,1.24-1.27A1.83,1.83,0,0,0,1009.64,626.85Zm-27.7-242.08a12.75,12.75,0,0,1,12.73,12.71v19.31H834.53v-12.7a22.77,22.77,0,0,0-2.07-9.78,23.3,23.3,0,0,0-8.36-9.54ZM767.4,596.68l-1.1-.08a21.07,21.07,0,0,1-18.59-21.26V559.85h41.88v15.23c0,11.92-9.42,21.63-21,21.64C768.21,596.71,767.8,596.71,767.4,596.68Zm150.92,0h-137A25.45,25.45,0,0,0,793.24,575V404a19.39,19.39,0,0,1,1.48-7.74A18.84,18.84,0,0,1,830.9,404v14.55a1.8,1.8,0,0,0,1.8,1.82H952.28V552a5.4,5.4,0,0,0-2.42,1.71,9.74,9.74,0,0,1-6.21,3.58,9.42,9.42,0,0,1-5.33-.83,5.41,5.41,0,0,0-4.37,0,5.53,5.53,0,0,0-3,3.3,26.06,26.06,0,0,1-12.68,15,5.44,5.44,0,0,0-2.37,7.18,26.65,26.65,0,0,1,2.65,11.67,24.2,24.2,0,0,1-.23,3.19ZM958,649.22l-9.43-5.1a1.86,1.86,0,0,0-1.66,0l-10.75,5.19,1.6-23a5.19,5.19,0,0,0,1.52-.13A18.51,18.51,0,0,1,954,629a5.46,5.46,0,0,0,3.15,1,3.7,3.7,0,0,0,.88-.08Zm8.76-29.12c-.42.13-.83.28-1.24.45a19,19,0,0,0-7,5l-.09.09a1.83,1.83,0,0,1-2.43.25,22,22,0,0,0-8.58-3.55,22.06,22.06,0,0,0-8.94.23,1.8,1.8,0,0,1-2.14-1.22,24.41,24.41,0,0,0-14.81-15.7,1.77,1.77,0,0,1-1-2.22,29.85,29.85,0,0,0,1.21-4.57.6.6,0,0,0,0-.19,29.37,29.37,0,0,0,.49-5.21,30.43,30.43,0,0,0-3-13.25,1.8,1.8,0,0,1,.78-2.39,29.77,29.77,0,0,0,14.44-17,1.82,1.82,0,0,1,1-1.09,1.71,1.71,0,0,1,1.4,0,12.91,12.91,0,0,0,7.37,1.12,13.37,13.37,0,0,0,8.51-4.88,1.92,1.92,0,0,1,1.35-.71h.1a1.83,1.83,0,0,1,1.29.53,14.61,14.61,0,0,0,15,3.3,1.69,1.69,0,0,1,1.34.11,1.83,1.83,0,0,1,.88,1.07A25.87,25.87,0,0,0,987,576.72a1.84,1.84,0,0,1,.93,2.28,23.4,23.4,0,0,0,1.17,18.72,1.76,1.76,0,0,1-.62,2.26,29.83,29.83,0,0,0-3.72,3.1,29,29,0,0,0-8.09,14.78,1.79,1.79,0,0,1-2,1.4,18.92,18.92,0,0,0-7.55.77,1.58,1.58,0,0,0-.37.11Zm25.61,10.74a1.83,1.83,0,0,0-1.14,1l-3.8,8.34L971,622.89a16.54,16.54,0,0,1,3.3,0,5.44,5.44,0,0,0,5.89-4.27,25.57,25.57,0,0,1,3.94-9.14,28.62,28.62,0,0,1,1.87-2.4l19,20.13Z" transform="translate(-87.79 -116.92)" fill="#fff"/><path d="M931.17,498.36h-3.09v-5.75a4.54,4.54,0,0,0-3-4.27,56.28,56.28,0,0,0-5.16-14.9,58.78,58.78,0,0,0-20.75-22.56,5,5,0,0,0-3.3-4.6l-7.39-2.67a7.43,7.43,0,0,0-7.32-6.11H864.93a7.43,7.43,0,0,0-7.32,6.11l-6.91,2.5a5.58,5.58,0,0,0-3.66,5.07,46.24,46.24,0,0,0-19.21,16.15,45.71,45.71,0,0,0-7.53,21.06,4.78,4.78,0,0,0-3.08,4.46v5.53a6.25,6.25,0,0,0-5.81,6.23v17.6a6.93,6.93,0,0,0,6.05,6.72h.19l13.92.55a44.28,44.28,0,0,0,2.86,8.55l-10.19,9.85a6,6,0,0,0-.27,8.48l.11.12L834,566.73a6.7,6.7,0,0,0,4.78,2.07,6.63,6.63,0,0,0,4.84-1.91l9-8.68a43.69,43.69,0,0,0,8,3.64l-.24,12.8a6.33,6.33,0,0,0,6.2,6.46h0l14.8.28h.12a5.94,5.94,0,0,0,5.92-5.83l.26-13.22A44.36,44.36,0,0,0,894,559.9l7.89,9a7.32,7.32,0,0,0,10.34.68h0l10.25-9a6.1,6.1,0,0,0,.55-8.61h0l-9.31-10.6a44.28,44.28,0,0,0,3.57-8.35l13.44.54H931a8,8,0,0,0,7.17-6.74,1.31,1.31,0,0,0,0-.28V505.39a7,7,0,0,0-7-7Zm-6.72-5.75v5.75H913.89v-5.2a1.46,1.46,0,0,1,1.46-1.46h8.19a.91.91,0,0,1,.91.91Zm-93.59-23.25a42.52,42.52,0,0,1,16.93-14.5l2.59,9.59a1.83,1.83,0,0,0,1.76,1.35,1.59,1.59,0,0,0,.48-.07,1.82,1.82,0,0,0,1.28-2.23L850.77,452v-.18a1.94,1.94,0,0,1,1.22-2.27l5.55-2V472.4a1.82,1.82,0,1,0,3.64,0V444.93a3.81,3.81,0,0,1,3.8-3.79h16.23a3.8,3.8,0,0,1,3.8,3.72V472.4a1.82,1.82,0,1,0,3.64,0V447.53l6,2.18a1.36,1.36,0,0,1,.87,1.58v.09l-3.31,12.1a1.82,1.82,0,0,0,1.28,2.23,1.59,1.59,0,0,0,.48.07,1.81,1.81,0,0,0,1.75-1.35l2.64-9.75a55,55,0,0,1,18.33,20.41,52.77,52.77,0,0,1,4.63,13h-6a5.12,5.12,0,0,0-5.1,5.1v5.2h-26v-5.51a4.81,4.81,0,0,0-4.79-4.79H863.92a5.16,5.16,0,0,0-5.15,5.16v5.14H835.08v-5.31a5,5,0,0,0-5-5h-6A42,42,0,0,1,830.86,469.36Zm49.74,23.49v5.51H862.43v-5.14a1.52,1.52,0,0,1,1.51-1.52h15.51A1.17,1.17,0,0,1,880.6,492.85Zm-59.73,0A1.17,1.17,0,0,1,822,491.7h8a1.37,1.37,0,0,1,1.37,1.37h0v5.28H820.83Zm-5.79,11.76a2.61,2.61,0,0,1,2.61-2.61h113.5a3.39,3.39,0,0,1,3.39,3.39h0v10.52H815.08Zm91.14,14.94a19.78,19.78,0,0,1-.25,2.66,31.28,31.28,0,0,1-62.19-2.66Zm28.36,6.78a4.37,4.37,0,0,1-3.78,3.53l-14.74-.59a1.81,1.81,0,0,0-1.83,1.34,40.31,40.31,0,0,1-4.25,10,1.81,1.81,0,0,0,.2,2.14l10.17,11.57a2.47,2.47,0,0,1-.22,3.48l-10.26,9a3.68,3.68,0,0,1-5.2-.34l-8.82-10a1.82,1.82,0,0,0-2.21-.41,40.72,40.72,0,0,1-8.19,3.17,1.83,1.83,0,0,0-1.35,1.72l-.28,14.57a2.27,2.27,0,0,1-2.29,2.25h0l-14.81-.27a2.66,2.66,0,0,1-1.89-.83,2.63,2.63,0,0,1-.75-1.92l.26-14.15a1.85,1.85,0,0,0-1.29-1.78,40.19,40.19,0,0,1-9.67-4.4,1.83,1.83,0,0,0-2.23.23l-10,9.65a3.15,3.15,0,0,1-4.47-.07h0L826.73,554a2.38,2.38,0,0,1,.06-3.37l11.13-10.76a1.81,1.81,0,0,0,.37-2.11,40.67,40.67,0,0,1-3.42-10.25,1.8,1.8,0,0,0-1.71-1.48l-15.24-.6a3.5,3.5,0,0,1-1.88-1,3.43,3.43,0,0,1-1-2.24v-2.6h25a34.92,34.92,0,0,0,69.44,3.17c.15-1,.25-2.11.31-3.17h24.7Z" transform="translate(-87.79 -116.92)" fill="#fff"/><path d="M800.38,940a18.72,18.72,0,1,1,18.72-18.72h0A18.72,18.72,0,0,1,800.38,940Zm0-33.79a15.08,15.08,0,1,0,15.08,15.08h0A15.1,15.1,0,0,0,800.38,906.17Z" transform="translate(-87.79 -116.92)" fill="#fff"/><path d="M856.37,958l-21.12-22.35c.63-.53,1.29-1,2-1.52a5.45,5.45,0,0,0,1.77-6.9,19.85,19.85,0,0,1-1-15.83,5.48,5.48,0,0,0-2.86-6.84,22.21,22.21,0,0,1-12.32-14.15,5.44,5.44,0,0,0-2.69-3.27,5.3,5.3,0,0,0-4.18-.33,11,11,0,0,1-11.27-2.48,5.29,5.29,0,0,0-2-1.25V751.62h40.58a1.81,1.81,0,0,0,1.82-1.82V728.67a16.4,16.4,0,0,0-16.38-16.38H657.49a22.58,22.58,0,0,0-21.17,22.92V887.33h-43.7a1.82,1.82,0,0,0-1.82,1.8v17.35a24.71,24.71,0,0,0,21.85,24.88c.43,0,.85.08,1.28.1s.94,0,1.41,0h149c-.17.64-.37,1.28-.59,1.91a5.44,5.44,0,0,0,3.19,6.84,20.75,20.75,0,0,1,12.62,13.38,5.57,5.57,0,0,0,1.37,2.27L779,983.29a1.83,1.83,0,0,0,.8,1.64,1.79,1.79,0,0,0,1,.31,1.82,1.82,0,0,0,.79-.18l12.74-6.15,11.3,6.11a1.82,1.82,0,0,0,2.47-.73,1.84,1.84,0,0,0,.22-.87V958.7a15.29,15.29,0,0,1,5.27-3.64h0l19.72,20.72a1.76,1.76,0,0,0,1.31.57H835a1.79,1.79,0,0,0,1.35-1l4.57-10,14.65-4.29a1.82,1.82,0,0,0,.81-3Zm-27.7-242.07a12.76,12.76,0,0,1,12.74,12.74V748H681.26V735.24a22.77,22.77,0,0,0-2.06-9.78,23.23,23.23,0,0,0-8.37-9.53ZM614.13,927.84a4.46,4.46,0,0,1-1.09-.09,21.09,21.09,0,0,1-18.6-21.26V891h41.88v15.23c0,11.93-9.41,21.63-21,21.64Zm150.93,0h-137A25.44,25.44,0,0,0,640,906.2v-171a19.34,19.34,0,0,1,1.48-7.73,18.84,18.84,0,0,1,36.18,7.73v14.56a1.83,1.83,0,0,0,1.82,1.82H799v131.5a5.71,5.71,0,0,0-2.42,1.71,9.71,9.71,0,0,1-6.2,3.58,9.25,9.25,0,0,1-5.33-.83,5.37,5.37,0,0,0-4.37,0,5.48,5.48,0,0,0-3,3.29,26.06,26.06,0,0,1-12.68,15,5.44,5.44,0,0,0-2.37,7.18,26.79,26.79,0,0,1,2.65,11.67,24.2,24.2,0,0,1-.23,3.19Zm39.66,52.55-9.44-5.11a1.84,1.84,0,0,0-1.65,0l-10.75,5.2,1.59-23a5.26,5.26,0,0,0,1.53-.14,18.48,18.48,0,0,1,14.68,2.77,5.48,5.48,0,0,0,3.15,1,3.78,3.78,0,0,0,.89-.08Zm9.08-29.23-.38.13h0c-.4.13-.78.27-1.17.43a18.65,18.65,0,0,0-7,5l-.09.09a1.82,1.82,0,0,1-2.42.25,22.18,22.18,0,0,0-8.58-3.54,21.71,21.71,0,0,0-3.94-.36,22.76,22.76,0,0,0-5,.58,1.79,1.79,0,0,1-2.14-1.22,24.43,24.43,0,0,0-14.81-15.7,1.77,1.77,0,0,1-1-2.22,28.78,28.78,0,0,0,1.22-4.57v-.18a28.56,28.56,0,0,0,.48-5.22,30.21,30.21,0,0,0-3-13.24,1.81,1.81,0,0,1,.78-2.39,29.82,29.82,0,0,0,14.45-17,1.81,1.81,0,0,1,1-1.1,1.69,1.69,0,0,1,1.39,0,12.86,12.86,0,0,0,7.38,1.13,13.43,13.43,0,0,0,8.51-4.89,1.88,1.88,0,0,1,1.35-.7,1.84,1.84,0,0,1,1.39.52,14.59,14.59,0,0,0,15,3.31,1.69,1.69,0,0,1,1.34.11,1.74,1.74,0,0,1,.88,1.07,25.78,25.78,0,0,0,14.32,16.44,1.81,1.81,0,0,1,.92,2.28,23.52,23.52,0,0,0,1.17,18.72,1.77,1.77,0,0,1-.61,2.27,28.74,28.74,0,0,0-3.71,3.08h0A29.06,29.06,0,0,0,823.39,949a1.77,1.77,0,0,1-2,1.4,19,19,0,0,0-7.53.77ZM839.09,962a1.84,1.84,0,0,0-1.15,1l-3.8,8.34L817.69,954a16.54,16.54,0,0,1,3.3,0,5.46,5.46,0,0,0,5.89-4.28,25.6,25.6,0,0,1,3.91-9.16,24.12,24.12,0,0,1,1.87-2.4l19,20.13Z" transform="translate(-87.79 -116.92)" fill="#fff"/><path d="M783.54,794.18a1.83,1.83,0,0,0-1.13-.81l-6-1.42,1.48-6.27a1.86,1.86,0,0,0-.22-1.38,1.83,1.83,0,0,0-1.13-.81l-87.36-20.66a1.82,1.82,0,0,0-2.19,1.35l-21.27,89.93-12.94,4.39a1.8,1.8,0,0,0-1.18,1.26,1.83,1.83,0,0,0,.41,1.68l9.5,10.48-2.69,11.37a1.82,1.82,0,0,0,1.35,2.19l6,1.41-1.48,6.28a1.82,1.82,0,0,0,1.35,2.19L753.39,916a1.48,1.48,0,0,0,.42,0,1.84,1.84,0,0,0,1.78-1.4l4.51-19.12,3.39.78a1.84,1.84,0,0,0,.41.05,1.8,1.8,0,0,0,1.24-.49,15.73,15.73,0,0,0,4-17.06,1.83,1.83,0,0,0-1.29-1.14l-3.36-.8,19.23-81.29A1.83,1.83,0,0,0,783.54,794.18ZM668.63,857.7l64.51,15.39a1.81,1.81,0,0,0,2.19-1.33h0a1.83,1.83,0,0,0-1.35-2.2l-64.51-15.4,20.67-87.36L774,786.61l-1.47,6.23h0v.21L753.3,874.1l-9.54-2.28a1.82,1.82,0,0,0-.84,3.54l9.54,2.28-2.77,11.7L665.77,870Zm-12,3.35,8.15-2.77h0l-2.2,9.33Zm6.2,21.3,2.07-8.76,83.93,19.35-2.19,9.24-77.83-18.41Zm89.66,29.71-83.81-19.83,1.07-4.5,77.82,18.41a1.48,1.48,0,0,0,.42,0,1.8,1.8,0,0,0,1.77-1.4l2.61-11,4.22,1ZM766.08,881a12.42,12.42,0,0,1,0,6.84,12,12,0,0,1-2.72,4.76l-10.14-2.34L756,878.54l6,1.42ZM761,876l-4.21-1,18.81-79.5,4.21,1Z" transform="translate(-87.79 -116.92)" fill="#fff"/><path d="M704.26,808.12a1.84,1.84,0,0,1-1.79-1.48l-3.61-18.93-5.38,1.39a1.82,1.82,0,0,1-.91-3.53h0l7.26-1.87a1.85,1.85,0,0,1,1.43.23,1.82,1.82,0,0,1,.81,1.19l3.21,16.8,13.21-17.55a1.85,1.85,0,0,1,1.79-.7l42.39,7.84a1.83,1.83,0,0,1-.66,3.59l-41.29-7.64-15,19.93A1.8,1.8,0,0,1,704.26,808.12Z" transform="translate(-87.79 -116.92)" fill="#fff"/><path d="M737.71,799.05l-7,5.7,3.58,8.57a1.8,1.8,0,0,1-1,2.37h0a1.69,1.69,0,0,1-.7.15,1.82,1.82,0,0,1-1.68-1.12l-3.17-7.59-6.18,5a1.75,1.75,0,0,1-1.14.41,1.82,1.82,0,0,1-1.15-3.24l7-5.69-4-9.63a1.82,1.82,0,0,1,3.36-1.41l3.61,8.65,6.2-5a1.82,1.82,0,1,1,2.29,2.83Z" transform="translate(-87.79 -116.92)" fill="#fff"/><path d="M707.54,819.12a1.76,1.76,0,0,1-.46-.06l-19-4.91a1.82,1.82,0,1,1,.91-3.53h0l19,4.92a1.82,1.82,0,0,1-.46,3.58Z" transform="translate(-87.79 -116.92)" fill="#fff"/><path d="M704.43,828.64a1.76,1.76,0,0,1-.46-.06l-19-4.92a1.82,1.82,0,0,1,.91-3.52l19,4.91a1.83,1.83,0,0,1-.46,3.59Z" transform="translate(-87.79 -116.92)" fill="#fff"/><path d="M753,828.64a1.74,1.74,0,0,1-.45-.06l-19-4.92a1.82,1.82,0,0,1,.92-3.52l19,4.91a1.83,1.83,0,0,1-.46,3.59Z" transform="translate(-87.79 -116.92)" fill="#fff"/><path d="M749.9,838.15a1.74,1.74,0,0,1-.45-.06l-19-4.91a1.82,1.82,0,0,1,.92-3.53l19,4.92a1.82,1.82,0,0,1-.46,3.58Z" transform="translate(-87.79 -116.92)" fill="#fff"/><path d="M749.52,855.17a1.74,1.74,0,0,1-.45-.06l-9.72-2.52a1.82,1.82,0,1,1,.74-3.56l.17,0,9.72,2.52a1.82,1.82,0,0,1-.46,3.58Z" transform="translate(-87.79 -116.92)" fill="#fff"/><path d="M748,862.18a1.76,1.76,0,0,1-.46-.06l-9.77-2.54a1.82,1.82,0,1,1,.74-3.56l.17,0,9.78,2.53a1.83,1.83,0,0,1-.46,3.59Z" transform="translate(-87.79 -116.92)" fill="#fff"/><path d="M686.94,854.94a1.84,1.84,0,0,1-1.44-.7c-.49-.63-4.72-6.32-2.65-13.34a15,15,0,0,1,6.94-8.61,1.82,1.82,0,0,1,1.79,3.17h0a11.3,11.3,0,0,0-5.24,6.47c-1.56,5.27,1.66,9.59,2,10.07a1.81,1.81,0,0,1-1.43,2.94Z" transform="translate(-87.79 -116.92)" fill="#fff"/><path d="M705.55,841.83l-6,4.67,2.3,6a1.78,1.78,0,0,1-1.66,2.48,1.79,1.79,0,0,1-1.69-1.16l-1.91-4.94-4.79,3.76a1.78,1.78,0,0,1-1.13.39,1.82,1.82,0,0,1-1.12-3.25l5.67-4.44-2.5-6.48a1.82,1.82,0,0,1,3.4-1.31l2.1,5.44,5.08-4a1.82,1.82,0,1,1,2.42,2.72l-.18.14Z" transform="translate(-87.79 -116.92)" fill="#fff"/><path d="M715.83,850a1.82,1.82,0,0,1-1.74,1.28,1.59,1.59,0,0,1-.53-.08l-2.61-.8-.7,3.13a1.82,1.82,0,0,1-1.77,1.42,1.34,1.34,0,0,1-.4,0,1.82,1.82,0,0,1-1.38-2.18l.76-3.4-3.56-1.09a1.82,1.82,0,1,1,.94-3.51l.12,0,3.3,1,.83-3.73a1.82,1.82,0,0,1,3.57.72s0,.06,0,.08l-.89,4,2.88.88A1.82,1.82,0,0,1,715.83,850Z" transform="translate(-87.79 -116.92)" fill="#fff"/><path d="M729,845.89,723,852l-.05.06-6,6a1.82,1.82,0,1,1-2.59-2.56l5.25-5.31-2.26-7.23a1.82,1.82,0,1,1,3.48-1.08l1.68,5.37,3.88-3.93a1.82,1.82,0,0,1,2.59,2.56Z" transform="translate(-87.79 -116.92)" fill="#fff"/><path d="M727.68,864.07a1.82,1.82,0,0,1-.92-3.39,12.1,12.1,0,0,0,5.41-6.9,12.27,12.27,0,0,0-1.16-9.37,1.82,1.82,0,1,1,3.15-1.83,15.53,15.53,0,0,1-5.54,21.24h0A1.78,1.78,0,0,1,727.68,864.07Z" transform="translate(-87.79 -116.92)" fill="#fff"/><path d="M358.84,622.15,337.72,599.8c.63-.54,1.28-1,2-1.52a5.47,5.47,0,0,0,1.78-6.91,19.8,19.8,0,0,1-1-15.83,5.46,5.46,0,0,0-2.86-6.83,22.17,22.17,0,0,1-12.31-14.15,5.45,5.45,0,0,0-2.69-3.28,5.32,5.32,0,0,0-4.19-.33,11,11,0,0,1-11.31-2.47,5.63,5.63,0,0,0-2-1.25V415.76h40.59a1.81,1.81,0,0,0,1.82-1.82h0V392.81a16.41,16.41,0,0,0-16.41-16.33H160a22.58,22.58,0,0,0-21.17,22.92V551.48H95.08a1.82,1.82,0,0,0-1.82,1.82h0v17.32a24.72,24.72,0,0,0,21.82,24.86c.42,0,.85.08,1.28.1s.93,0,1.39,0h149c-.17.64-.37,1.28-.59,1.91a5.42,5.42,0,0,0,3.19,6.83,20.81,20.81,0,0,1,12.73,13.46,5.57,5.57,0,0,0,1.37,2.27l-2,27.43a1.82,1.82,0,0,0,.8,1.63,1.7,1.7,0,0,0,1,.32,1.82,1.82,0,0,0,.79-.18l12.74-6.15,11.3,6.11a1.83,1.83,0,0,0,2.48-.75,1.91,1.91,0,0,0,.21-.85V622.89a15.09,15.09,0,0,1,5.26-3.63h0L335.79,640a1.83,1.83,0,0,0,1.32.56h.3a1.81,1.81,0,0,0,1.36-1l4.57-10,14.74-4.4a1.82,1.82,0,0,0,.81-3Zm-27.7-242.08a12.76,12.76,0,0,1,12.74,12.74v19.31H183.73V399.39a22.77,22.77,0,0,0-2.06-9.78,23.26,23.26,0,0,0-8.37-9.54ZM117.8,592h-1.2a4.42,4.42,0,0,1-1.1-.09,21.07,21.07,0,0,1-18.59-21.25v-15.5h41.88v15.2c0,11.92-9.4,21.62-21,21.64Zm149.73,0h-137a25.44,25.44,0,0,0,11.91-21.64v-171a19.39,19.39,0,0,1,1.48-7.74,18.84,18.84,0,0,1,36.16,7.75v14.55a1.8,1.8,0,0,0,1.8,1.82H301.47V547.27a5.39,5.39,0,0,0-2.39,1.71,9.82,9.82,0,0,1-6.2,3.58,9.45,9.45,0,0,1-5.34-.83,5.37,5.37,0,0,0-4.37,0,5.53,5.53,0,0,0-3,3.3,26.4,26.4,0,0,1-4.93,8.77,25.92,25.92,0,0,1-7.76,6.2,5.44,5.44,0,0,0-2.36,7.18,26.79,26.79,0,0,1,2.65,11.67,24,24,0,0,1-.24,3.17Zm39.65,52.54-9.43-5.1a1.86,1.86,0,0,0-1.66,0l-10.75,5.19,1.6-23a5.26,5.26,0,0,0,1.53-.13,18.48,18.48,0,0,1,14.68,2.77,5.46,5.46,0,0,0,3.15,1,3.7,3.7,0,0,0,.88-.08Zm8.76-29.08q-.62.19-1.23.45a18.65,18.65,0,0,0-7,5l-.09.09a1.82,1.82,0,0,1-2.42.25,22.09,22.09,0,0,0-8.59-3.55,22.63,22.63,0,0,0-3.94-.35,22.18,22.18,0,0,0-5,.58,1.81,1.81,0,0,1-2.15-1.22A24.41,24.41,0,0,0,270.71,601a1.77,1.77,0,0,1-1-2.22,28.78,28.78,0,0,0,1.22-4.57.6.6,0,0,0,0-.19,29.36,29.36,0,0,0,.48-5.21,30.43,30.43,0,0,0-3-13.25,1.81,1.81,0,0,1,.78-2.39,29.66,29.66,0,0,0,14.44-17.05,1.9,1.9,0,0,1,1-1.1,1.71,1.71,0,0,1,1.4,0,12.91,12.91,0,0,0,7.37,1.12,13.39,13.39,0,0,0,8.52-4.88,1.9,1.9,0,0,1,1.34-.71h.11a1.94,1.94,0,0,1,1.29.53,14.61,14.61,0,0,0,15,3.3,1.69,1.69,0,0,1,1.34.11,1.74,1.74,0,0,1,.88,1.07A25.85,25.85,0,0,0,336.08,572a1.82,1.82,0,0,1,.93,2.28A23.52,23.52,0,0,0,338.18,593a1.78,1.78,0,0,1-.61,2.26,29.83,29.83,0,0,0-3.72,3.1,28.68,28.68,0,0,0-3.63,4.31,29.24,29.24,0,0,0-4.47,10.47,1.79,1.79,0,0,1-2,1.4,18.75,18.75,0,0,0-7.55.77Zm25.62,10.74a1.84,1.84,0,0,0-1.15,1l-3.8,8.34-16.46-17.3a16.64,16.64,0,0,1,3.31,0,5.44,5.44,0,0,0,5.89-4.27,25.25,25.25,0,0,1,3.91-9.16,26.56,26.56,0,0,1,1.86-2.4l19,20.13Z" transform="translate(-87.79 -116.92)" fill="#fff"/><path d="M302.85,604.11a18.72,18.72,0,1,1,18.71-18.73h0A18.74,18.74,0,0,1,302.85,604.11Zm0-33.79a15.08,15.08,0,1,0,15.07,15.09v0A15.11,15.11,0,0,0,302.85,570.32Z" transform="translate(-87.79 -116.92)" fill="#fff"/><path d="M296.63,488.81a168.71,168.71,0,0,0-57.41-13.1A20.81,20.81,0,0,1,245,465.9a21.07,21.07,0,0,1,5.45-3.7,5,5,0,0,0,2.84-3.82,5.07,5.07,0,0,0-1.65-4.53,56.57,56.57,0,0,0-37.54-14.5c-32.5,0-58.94,28.4-58.94,63.31S181.64,566,214.14,566c21.72,0,41.61-12.77,51.92-33.32a25.19,25.19,0,0,0-.58-23.8,69.62,69.62,0,0,0-6.54-9.53l-.5-.61a173.1,173.1,0,0,0,38-6.48,1.81,1.81,0,0,0,1.25-2.25,1.84,1.84,0,0,0-1.05-1.18Zm-34.31,21.86a21.39,21.39,0,0,1,2.8,10.59A21.77,21.77,0,0,1,262.8,531c-9.68,19.32-28.33,31.31-48.66,31.31-30.49,0-55.3-26.76-55.3-59.67S183.65,443,214.14,443a53,53,0,0,1,35.12,13.59,1.43,1.43,0,0,1,.47,1.27,1.32,1.32,0,0,1-.77,1,24.45,24.45,0,0,0-13.46,16.67h-1.09q-2.25-.06-4.5,0h-.3a169.82,169.82,0,0,0-23.3,1.76,13.09,13.09,0,0,0-2.93-3.06A13.36,13.36,0,0,0,191,472.28a56.35,56.35,0,0,0-5.35,2c-1.06.47-2.11,1-3.14,1.53l-.83.44c-.41.22-.81.45-1.21.69l-1,.58-1.06.67-.93.61a5.84,5.84,0,0,0-1.57,8.11,5.7,5.7,0,0,0,.94,1.08l1.48,1.28.8.66,1.28,1a74,74,0,0,0,9.75,6.43,11.09,11.09,0,0,0,4.83,1.42,10.29,10.29,0,0,0,4.39-.73,10.69,10.69,0,0,0,5.52-5.12A165.36,165.36,0,0,0,228,497.59h0c.72.1,1.43.19,2.15.27a164.45,164.45,0,0,0,19,1.13h4.75c.84.93,1.61,1.82,2.34,2.71A66.85,66.85,0,0,1,262.32,510.67Zm-56-21.09a22.53,22.53,0,0,0,1.13-8.78,167.27,167.27,0,0,1,20.37-1.63l-1.26,14.6a157.75,157.75,0,0,1-20.29-4.19ZM203.69,485a19.2,19.2,0,0,1-1.42,5v.09a2,2,0,0,0-.11.32,7.4,7.4,0,0,1-4,4.35,6.81,6.81,0,0,1-2.86.47,7.44,7.44,0,0,1-3.25-1,71,71,0,0,1-9.27-6.11c-.57-.45-1.14-.91-1.7-1.38l-1.25-1.06-.43-.38-.52-.46a1.63,1.63,0,0,1-.55-1.33,1.75,1.75,0,0,1,.72-1.26c.18-.13.37-.25.56-.37,1.21-.83,2.46-1.59,3.74-2.3l1-.52c1-.51,1.94-1,2.93-1.42a51.93,51.93,0,0,1,5-1.9,10.07,10.07,0,0,1,7.15.24,9.48,9.48,0,0,1,4.47,3.87h0a18.91,18.91,0,0,1-.26,5.15Zm50.92,10.29h-.07a163.29,163.29,0,0,1-23.91-1l-.45-.06,1.29-15.09c1.85,0,3.68,0,5.52.1h.08a166.19,166.19,0,0,1,53.18,10.89,168.71,168.71,0,0,1-35.69,5.16Z" transform="translate(-87.79 -116.92)" fill="#fff"/><path d="M215.65,526a23,23,0,0,1-22.91-21.07,1.82,1.82,0,0,1,3.63-.32,19.36,19.36,0,0,0,32.17,12.87,1.82,1.82,0,1,1,2.42,2.73h0A23,23,0,0,1,215.65,526Z" transform="translate(-87.79 -116.92)" fill="#fff"/><path d="M172.78,517.36a9.55,9.55,0,1,1,9.55-9.55h0A9.55,9.55,0,0,1,172.78,517.36Zm0-15.45a5.91,5.91,0,1,0,5.91,5.91h0A5.91,5.91,0,0,0,172.78,501.91Z" transform="translate(-87.79 -116.92)" fill="#fff"/><path d="M221,469.48a9.55,9.55,0,1,1,9.54-9.56h0A9.56,9.56,0,0,1,221,469.48ZM221,454a5.91,5.91,0,1,0,5.9,5.92h0a5.92,5.92,0,0,0-5.9-5.88Z" transform="translate(-87.79 -116.92)" fill="#fff"/><path d="M185.72,544.4a9.55,9.55,0,1,1,9.55-9.55h0A9.57,9.57,0,0,1,185.72,544.4Zm0-15.45a5.91,5.91,0,1,0,5.91,5.91h0a5.9,5.9,0,0,0-5.9-5.9Z" transform="translate(-87.79 -116.92)" fill="#fff"/><path d="M213.26,555.05a9.55,9.55,0,1,1,9.55-9.55h0A9.56,9.56,0,0,1,213.26,555.05Zm0-15.45a5.91,5.91,0,1,0,5.91,5.91h0a5.9,5.9,0,0,0-5.9-5.9Z" transform="translate(-87.79 -116.92)" fill="#fff"/><path d="M243.87,546a9.55,9.55,0,1,1,9.55-9.55h0A9.55,9.55,0,0,1,243.87,546Zm0-15.45a5.91,5.91,0,1,0,5.91,5.91h0a5.91,5.91,0,0,0-5.91-5.9Z" transform="translate(-87.79 -116.92)" fill="#fff"/><path d="M243.87,541.68a5.21,5.21,0,1,1,5.21-5.21h0A5.21,5.21,0,0,1,243.87,541.68Zm0-6.77a1.56,1.56,0,1,0,1.56,1.56h0A1.56,1.56,0,0,0,243.87,534.91Z" transform="translate(-87.79 -116.92)" fill="#fff"/><path d="M236.15,514.29a5.21,5.21,0,1,1,5.2-5.22h0A5.2,5.2,0,0,1,236.15,514.29Zm0-6.76a1.56,1.56,0,1,0,1.56,1.56h0A1.57,1.57,0,0,0,236.15,507.53Z" transform="translate(-87.79 -116.92)" fill="#fff"/><path d="M504.45,947.8l-21.13-22.32c.63-.53,1.29-1,2-1.52a5.46,5.46,0,0,0,1.77-6.91,19.85,19.85,0,0,1-1-15.83,5.47,5.47,0,0,0-2.86-6.83,22.21,22.21,0,0,1-12.32-14.15,5.45,5.45,0,0,0-2.69-3.28,5.3,5.3,0,0,0-4.18-.33,11,11,0,0,1-11.27-2.48,5.61,5.61,0,0,0-2-1.24V741.41h40.58a1.81,1.81,0,0,0,1.82-1.8V718.48a16.4,16.4,0,0,0-16.38-16.38H305.56A22.58,22.58,0,0,0,284.39,725V877.13h-43.7a1.84,1.84,0,0,0-1.82,1.82v17.32a24.73,24.73,0,0,0,21.85,24.88c.43,0,.85.08,1.28.1s.92,0,1.37,0h149c-.17.64-.37,1.28-.59,1.91A5.42,5.42,0,0,0,415,930a20.76,20.76,0,0,1,12.65,13.49,5.57,5.57,0,0,0,1.37,2.27l-1.9,27.44a1.82,1.82,0,0,0,2.6,1.77l12.74-6.15,11.3,6.11a1.83,1.83,0,0,0,2.48-.75,1.91,1.91,0,0,0,.21-.85V948.59A15,15,0,0,1,461.7,945h0l19.73,20.73a1.78,1.78,0,0,0,1.32.56h.3a1.79,1.79,0,0,0,1.35-1l4.57-10L503.62,951a1.95,1.95,0,0,0,.83-3.16ZM476.74,705.72a12.75,12.75,0,0,1,12.74,12.76h0v19.31H329.33V725a22.77,22.77,0,0,0-2.06-9.78,23.26,23.26,0,0,0-8.37-9.54ZM242.51,896.29v-15.5h41.88V896c0,11.92-9.41,21.63-21,21.64h-1.21a9.07,9.07,0,0,1-1.09-.09A21.08,21.08,0,0,1,242.51,896.29Zm170.62,21.38h-137a25.45,25.45,0,0,0,12-21.64V725a19.39,19.39,0,0,1,1.48-7.74A18.84,18.84,0,0,1,325.74,725v14.55a1.81,1.81,0,0,0,1.82,1.82H447.08V872.91a5.4,5.4,0,0,0-2.42,1.71,9.85,9.85,0,0,1-6.21,3.58,9.42,9.42,0,0,1-5.33-.83,5.41,5.41,0,0,0-4.37,0,5.53,5.53,0,0,0-3,3.3,26.06,26.06,0,0,1-12.68,15,5.44,5.44,0,0,0-2.37,7.18,26.79,26.79,0,0,1,2.65,11.67,24.46,24.46,0,0,1-.22,3.2Zm39.66,52.54-9.43-5.1a1.86,1.86,0,0,0-1.66,0L431,970.3l1.6-23a5.19,5.19,0,0,0,1.52-.13,18.49,18.49,0,0,1,14.68,2.77,5.51,5.51,0,0,0,3.16,1,3.7,3.7,0,0,0,.88-.08Zm8.76-29.12c-.42.13-.83.28-1.24.45a18.67,18.67,0,0,0-6.94,5,.86.86,0,0,0-.13.14h0a1.84,1.84,0,0,1-2.42.24,22,22,0,0,0-8.58-3.55,23.65,23.65,0,0,0-3.94-.35,22.76,22.76,0,0,0-5,.58,1.8,1.8,0,0,1-2.14-1.22,24.45,24.45,0,0,0-14.81-15.71,1.73,1.73,0,0,1-1-2.21,29.85,29.85,0,0,0,1.21-4.57v-.18a28.56,28.56,0,0,0,.48-5.22,30.25,30.25,0,0,0-3-13.25,1.81,1.81,0,0,1,.77-2.39,29.72,29.72,0,0,0,14.45-17,1.84,1.84,0,0,1,1-1.1,1.69,1.69,0,0,1,1.39,0,12.94,12.94,0,0,0,7.38,1.12,13.41,13.41,0,0,0,8.51-4.88,1.92,1.92,0,0,1,1.35-.71h.1a1.83,1.83,0,0,1,1.29.53,14.61,14.61,0,0,0,15,3.3,1.69,1.69,0,0,1,1.34.11,1.83,1.83,0,0,1,.88,1.07,25.79,25.79,0,0,0,14.32,16.45,1.81,1.81,0,0,1,.92,2.28,23.52,23.52,0,0,0,1.17,18.72,1.76,1.76,0,0,1-.61,2.26,29.83,29.83,0,0,0-3.72,3.1,29,29,0,0,0-8.09,14.78,1.79,1.79,0,0,1-2,1.4,18.75,18.75,0,0,0-7.94.81Zm25.61,10.74a1.84,1.84,0,0,0-1.15,1l-3.79,8.34-16.47-17.3a16.64,16.64,0,0,1,3.31,0A5.45,5.45,0,0,0,475,939.6a25.43,25.43,0,0,1,3.91-9.16,24.12,24.12,0,0,1,1.87-2.4l19,20.13Z" transform="translate(-87.79 -116.92)" fill="#fff"/><path d="M448.45,929.76A18.72,18.72,0,1,1,467.17,911h0A18.74,18.74,0,0,1,448.45,929.76Zm0-33.79a15.08,15.08,0,1,0,15.08,15.08h0A15.1,15.1,0,0,0,448.45,896Z" transform="translate(-87.79 -116.92)" fill="#fff"/><path d="M343.19,766.62l.09-.09c.53-.51,1-1.06,1.5-1.62h0a25.39,25.39,0,0,0,5-9.25,1.36,1.36,0,0,0,.1-.36,25.47,25.47,0,0,0,1-7v-.65a1.82,1.82,0,0,0-3.64,0v.65a22.06,22.06,0,0,1-.53,4.8H312.36a22.06,22.06,0,0,1-.53-4.8v-.65a1.82,1.82,0,0,0-3.64,0v.65a25.47,25.47,0,0,0,1,7,1.89,1.89,0,0,0,.1.36,25.11,25.11,0,0,0,4.8,9l.23.28c.72.88,3.61,4.29,11.32,9.43l.91.6-.1.08c-5.55,4.79-14.38,14.08-17.26,26.7a36.71,36.71,0,0,0-.94,7,43.19,43.19,0,0,0,.92,10.58h0a3,3,0,0,0,.07.32h0a44.06,44.06,0,0,0,2.91,8.75h0c.07.17.15.35.23.52h0A44.35,44.35,0,0,0,317,836.7h0l.3.41h0a44.79,44.79,0,0,0,8.94,8.83l-.73.52a71.36,71.36,0,0,0-10.72,9.75l-.08.09c-.29.33-.57.65-.83,1a.31.31,0,0,0-.09.11.16.16,0,0,0-.06.08h0a25.66,25.66,0,0,0-4.51,8.71,2.19,2.19,0,0,0-.1.34,25.91,25.91,0,0,0-1,7v.7a1.82,1.82,0,1,0,3.64,0v-.7a22.22,22.22,0,0,1,.53-4.81h34.35a22.22,22.22,0,0,1,.53,4.81v.7a1.82,1.82,0,0,0,3.64,0v-.7a25.91,25.91,0,0,0-1-7,1.81,1.81,0,0,0-.09-.31v-.11h0a25.73,25.73,0,0,0-4.52-8.72,2.75,2.75,0,0,0-.22-.26c-.24-.31-.49-.61-.76-.91l-.07-.08a71.36,71.36,0,0,0-10.72-9.75l-.73-.52a44.79,44.79,0,0,0,8.94-8.83h0l.27-.37h0a44.83,44.83,0,0,0,4.68-7.82h0c.09-.19.18-.38.26-.57a43.88,43.88,0,0,0,2.91-8.73h0a2.53,2.53,0,0,1,.07-.36h0a41.8,41.8,0,0,0,.93-8.2v-2.27c-.59-16.21-11.66-28.09-18.2-33.74l-.09-.08.9-.59A62.16,62.16,0,0,0,343.19,766.62Zm-29.69-9.9h32.07a21.12,21.12,0,0,1-3,5.08H316.44A21.29,21.29,0,0,1,313.5,756.72Zm0,108.53a21.91,21.91,0,0,1,2.73-4.83h26.63a21.88,21.88,0,0,1,2.72,4.83Zm26.15-8.47H319.43a66.07,66.07,0,0,1,8.31-7.27c.58-.43,1.18-.83,1.8-1.23.62.4,1.21.81,1.79,1.23a66.07,66.07,0,0,1,8.31,7.27Zm-10.1-12.88a41,41,0,0,1-7-6.15h14a41,41,0,0,1-7,6.15Zm9.94-9.79h-19.9a40.43,40.43,0,0,1-2.73-4.33h25.35a40.43,40.43,0,0,1-2.73,4.33Zm7.14-16.82H324.21a1.82,1.82,0,0,0,0,3.64h21.58a39.62,39.62,0,0,1-1.81,5.21h-28.9a39.62,39.62,0,0,1-1.81-5.21h5.36a1.82,1.82,0,0,0,0-3.64h-6.19a41.57,41.57,0,0,1-.54-4.45h35.25a41.55,41.55,0,0,1-.53,4.45Zm.59-8.41v.32H311.85v-.32a32.29,32.29,0,0,1,.56-5h34.23a32.3,32.3,0,0,1,.57,5Zm-4.56-16H337.8a1.82,1.82,0,1,0,0,3.64h6.61a34.38,34.38,0,0,1,1.36,3.8H313.31a34.38,34.38,0,0,1,1.36-3.8h16.57a1.82,1.82,0,1,0,0-3.64H316.41a50.94,50.94,0,0,1,3.13-5h20a46.84,46.84,0,0,1,3.11,5Zm-6-8.64H322.4a60.61,60.61,0,0,1,6.4-6.42c.24-.21.49-.41.74-.61l.73.61a60.61,60.61,0,0,1,6.4,6.42Zm-5.18-12.91c-.69.45-1.34.88-2,1.32-.61-.44-1.27-.88-2-1.32a59,59,0,0,1-7.62-5.84h19.17A58.09,58.09,0,0,1,331.48,771.28Z" transform="translate(-87.79 -116.92)" fill="#fff"/><path d="M422.76,858.18h-3.91a59,59,0,0,0,7.2-38,58.4,58.4,0,0,0-17.43-33.29l5.16-5.32a1.82,1.82,0,0,0,0-2.57l-3.08-3,6-6.21.89.87a1.78,1.78,0,0,0,1.27.51h0a1.79,1.79,0,0,0,1.28-.55l7.09-7.32a1.82,1.82,0,0,0,0-2.57l-13.54-13.11a1.87,1.87,0,0,0-1.29-.52,1.82,1.82,0,0,0-1.28.56L404,755a1.83,1.83,0,0,0,0,2.58l1.52,1.47-6,6.21-3-2.86a1.9,1.9,0,0,0-1.3-.51,1.87,1.87,0,0,0-1.28.55L366.25,791l-2.73-2.64a1.83,1.83,0,0,0-2.58,0l-6.51,6.73a1.86,1.86,0,0,0-.52,1.3,1.8,1.8,0,0,0,.56,1.27l25.67,24.87a1.81,1.81,0,0,0,1.26.52h0a1.78,1.78,0,0,0,1.28-.56l6.52-6.72a1.83,1.83,0,0,0,0-2.58L386,810.14l11.57-12a56.26,56.26,0,0,1,10.49,19,8.7,8.7,0,0,0,2.55,16.5,55,55,0,0,1-.37,6.29,12.57,12.57,0,0,0-1.18-.54,13.43,13.43,0,0,0-4.25-.88,11.94,11.94,0,0,0-1.89.06H371.08a8.87,8.87,0,0,0-8.85,8.85v.87a1.83,1.83,0,0,0,1.82,1.82h27.24a14.52,14.52,0,0,0-.12,1.86v6.2H362.72a10.23,10.23,0,0,0-10.21,10.21v3.79a1.83,1.83,0,0,0,1.83,1.82h77.22a1.83,1.83,0,0,0,1.82-1.82v-3.37A10.65,10.65,0,0,0,422.76,858.18Zm-10.33-106.7,10.92,10.58-4.56,4.7-.86-.83h0l-8.54-8.27h0l-1.47-1.43Zm-4.26,10.06,5.89,5.7-6,6.24-5.89-5.7h0ZM381.4,818.7l-23-22.33,4-4.11,2.73,2.64,17.13,16.58,3.17,3.08Zm2-11.07-14.53-14.08,26.46-27.31,2.94,2.85h0l8.51,8.24,3.07,3-5.23,5.4Zm16.74-12,5.94-6.1a55.76,55.76,0,0,1,16.36,31.23,55,55,0,0,1-5,32.35V852a13.71,13.71,0,0,0-3.83-9.53,59.66,59.66,0,0,0,.66-9.06,8.72,8.72,0,0,0-2.48-17.08h-.16a59.81,59.81,0,0,0-11.46-20.7ZM406.67,825a5.11,5.11,0,0,1,4-5,4.71,4.71,0,0,1,1.06-.11,5.07,5.07,0,0,1,.44,10.12h-.44a5.07,5.07,0,0,1-5-5Zm-5.34,17.59a9.63,9.63,0,0,1,6.4.19,9.76,9.76,0,0,1,6,9.17v6.21h-19V852a9.83,9.83,0,0,1,6.63-9.36Zm-35.41,3.88a5.23,5.23,0,0,1,5.12-4.26h24.12a13.35,13.35,0,0,0-2.91,4.26Zm63.82,23.88H356.16v-2a6.58,6.58,0,0,1,6.56-6.57h60a7,7,0,0,1,7,7Z" transform="translate(-87.79 -116.92)" fill="#fff"/></svg>