<svg xmlns="http://www.w3.org/2000/svg" xmlns:xlink="http://www.w3.org/1999/xlink" width="678.72" height="700.58" viewBox="0 0 678.72 700.58"><defs><linearGradient id="a" x1="960.64" y1="704.93" x2="1041.93" y2="704.93" gradientUnits="userSpaceOnUse"><stop offset="0" stop-color="blue"/><stop offset="0.25" stop-color="#f0f"/><stop offset="0.53" stop-color="#ff5100"/><stop offset="0.78" stop-color="#26ff00"/><stop offset="1" stop-color="#ff0"/></linearGradient><linearGradient id="b" x1="960.64" y1="1295.07" x2="1041.93" y2="1295.07" xlink:href="#a"/><linearGradient id="c" x1="675.96" y1="803.93" x2="755.75" y2="803.93" xlink:href="#a"/><linearGradient id="d" x1="1244.25" y1="803.93" x2="1324.03" y2="803.93" xlink:href="#a"/><linearGradient id="e" x1="675.96" y1="995.07" x2="755.75" y2="995.07" xlink:href="#a"/><linearGradient id="f" x1="1244.25" y1="995.07" x2="1324.03" y2="995.07" xlink:href="#a"/><linearGradient id="g" x1="675.96" y1="1186.22" x2="755.75" y2="1186.22" xlink:href="#a"/><linearGradient id="h" x1="1244.25" y1="1186.22" x2="1324.03" y2="1186.22" xlink:href="#a"/><linearGradient id="i" x1="660.64" y1="1000" x2="1339.36" y2="1000" xlink:href="#a"/><linearGradient id="j" x1="946.07" y1="998.4" x2="1050.82" y2="998.4" xlink:href="#a"/><linearGradient id="k" x1="665.64" y1="1000" x2="1334.36" y2="1000" gradientUnits="userSpaceOnUse"><stop offset="0" stop-color="#13c0ff"/><stop offset="0.18" stop-color="#31cdd3"/><stop offset="0.58" stop-color="#70e678"/><stop offset="0.87" stop-color="#97f73f"/><stop offset="1" stop-color="#a6fd29"/></linearGradient><linearGradient id="l" x1="951.07" y1="998.4" x2="1045.82" y2="998.4" xlink:href="#k"/><linearGradient id="m" x1="974.64" y1="704.93" x2="1027.93" y2="704.93" xlink:href="#k"/><linearGradient id="n" x1="974.64" y1="1295.07" x2="1027.93" y2="1295.07" xlink:href="#k"/><linearGradient id="o" x1="1257.5" y1="803.93" x2="1310.79" y2="803.93" xlink:href="#k"/><linearGradient id="p" x1="689.21" y1="803.93" x2="742.5" y2="803.93" xlink:href="#k"/><linearGradient id="q" x1="1257.5" y1="995.23" x2="1310.79" y2="995.23" xlink:href="#k"/><linearGradient id="r" x1="689.21" y1="995.23" x2="742.5" y2="995.23" xlink:href="#k"/><linearGradient id="s" x1="1257.5" y1="1186.53" x2="1310.79" y2="1186.53" xlink:href="#k"/><linearGradient id="t" x1="689.21" y1="1186.53" x2="742.5" y2="1186.53" xlink:href="#k"/></defs><path d="M1001.28,664.29a40.64,40.64,0,1,0,40.65,40.64A40.68,40.68,0,0,0,1001.28,664.29Zm0,61.28a20.64,20.64,0,1,1,20.65-20.64A20.66,20.66,0,0,1,1001.28,725.57Z" transform="translate(-660.64 -649.71)" fill="url(#a)"/><path d="M1001.28,1254.43a40.65,40.65,0,1,0,40.65,40.64A40.68,40.68,0,0,0,1001.28,1254.43Zm0,61.29a20.65,20.65,0,1,1,20.65-20.65A20.67,20.67,0,0,1,1001.28,1315.72Z" transform="translate(-660.64 -649.71)" fill="url(#b)"/><path d="M715.86,764a39.89,39.89,0,1,0,39.89,39.89A39.94,39.94,0,0,0,715.86,764Zm0,59.78a19.89,19.89,0,1,1,19.89-19.89A19.92,19.92,0,0,1,715.86,823.82Z" transform="translate(-660.64 -649.71)" fill="url(#c)"/><path d="M1284.14,764A39.89,39.89,0,1,0,1324,803.93,39.93,39.93,0,0,0,1284.14,764Zm0,59.78A19.89,19.89,0,1,1,1304,803.93,19.91,19.91,0,0,1,1284.14,823.82Z" transform="translate(-660.64 -649.71)" fill="url(#d)"/><path d="M715.86,955.18a39.9,39.9,0,1,0,39.89,39.89A39.94,39.94,0,0,0,715.86,955.18Zm0,59.79a19.9,19.9,0,1,1,19.89-19.9A19.93,19.93,0,0,1,715.86,1015Z" transform="translate(-660.64 -649.71)" fill="url(#e)"/><path d="M1284.14,955.18A39.9,39.9,0,1,0,1324,995.07,39.94,39.94,0,0,0,1284.14,955.18Zm0,59.79a19.9,19.9,0,1,1,19.89-19.9A19.92,19.92,0,0,1,1284.14,1015Z" transform="translate(-660.64 -649.71)" fill="url(#f)"/><path d="M715.86,1146.32a39.9,39.9,0,1,0,39.89,39.9A39.95,39.95,0,0,0,715.86,1146.32Zm0,59.79a19.9,19.9,0,1,1,19.89-19.89A19.92,19.92,0,0,1,715.86,1206.11Z" transform="translate(-660.64 -649.71)" fill="url(#g)"/><path d="M1284.14,1146.32a39.9,39.9,0,1,0,39.89,39.9A39.94,39.94,0,0,0,1284.14,1146.32Zm0,59.79a19.9,19.9,0,1,1,19.89-19.89A19.91,19.91,0,0,1,1284.14,1206.11Z" transform="translate(-660.64 -649.71)" fill="url(#h)"/><path d="M1339.36,995.23a55.32,55.32,0,0,0-45.22-54.31V858.23a55.22,55.22,0,1,0-60.81-75.9l-177.21-83.91a55.22,55.22,0,0,0-109.66,0l-179.8,84a55.21,55.21,0,1,0-60.8,75.91v82.69a55.22,55.22,0,0,0,0,108.62v82.69A55.21,55.21,0,1,0,765,1211.62l181.41,89.85a55.22,55.22,0,0,0,109.69,0l179.38-88.82a55.21,55.21,0,1,0,58.63-80.42v-82.69A55.32,55.32,0,0,0,1339.36,995.23Zm-55.22,226.51a35.21,35.21,0,1,1,35.22-35.2A35.23,35.23,0,0,1,1284.14,1221.74Zm0-453a35.22,35.22,0,1,1-35.21,35.22A35.26,35.26,0,0,1,1284.14,768.71Zm35.22,226.52A35.22,35.22,0,1,1,1284.14,960,35.26,35.26,0,0,1,1319.36,995.23ZM1244.14,842a55.18,55.18,0,0,0,30,16.28v82.69a54.83,54.83,0,0,0-24.18,11l-64-68.42Zm-242.86,488.34a35.22,35.22,0,1,1,35.22-35.22A35.26,35.26,0,0,1,1001.28,1330.29ZM763.35,967.1l69.74-72.74,51.49,37.47a135.07,135.07,0,0,0-2,133.24l-51.85,35.79L761,1027a55.13,55.13,0,0,0,2.38-59.94Zm237.93-297.39a35.22,35.22,0,1,1-35.21,35.22A35.26,35.26,0,0,1,1001.28,669.71ZM886,1000.23a115.31,115.31,0,1,1,115.3,115.31A115.44,115.44,0,0,1,886,1000.23Zm220.69-84.78a135.25,135.25,0,0,0-95.39-50.16V759.23a54.88,54.88,0,0,0,22.12-9.42l122.3,130.66ZM991.28,759.23V865.29A135.2,135.2,0,0,0,896,915.38l-48.9-35.59L970.7,750.87A54.61,54.61,0,0,0,991.28,759.23Zm-97.83,322.63a135.2,135.2,0,0,0,97.83,53.31v105.59a54.71,54.71,0,0,0-20.53,8.32L844.61,1115.57Zm117.83,158.9V1135.17a135.19,135.19,0,0,0,97.9-53.4l48.78,33-125.08,135.08A55,55,0,0,0,1011.28,1240.76ZM1120.06,1065a135.1,135.1,0,0,0-2-133.08l51.45-36.71L1236.7,967a55.13,55.13,0,0,0,2.39,60.11l-67.38,72.77Zm-65.59-345.23L1229,802.38c0,.51,0,1,0,1.55a54.69,54.69,0,0,0,4.26,21.25l-61.06,43.57L1047.31,735.4A54.62,54.62,0,0,0,1054.47,719.76ZM771,802.35l177-82.65A55,55,0,0,0,956.33,737l-125.59,131L768,822.22a54.84,54.84,0,0,0,3.12-18.29C771.07,803.4,771.06,802.87,771,802.35Zm45.74,80.14L750.14,952a55,55,0,0,0-24.28-11.05V858.23a55.21,55.21,0,0,0,32.06-18.58ZM715.86,1221.74a35.21,35.21,0,1,1,35.21-35.2A35.24,35.24,0,0,1,715.86,1221.74Zm0-453a35.22,35.22,0,1,1-35.22,35.22A35.26,35.26,0,0,1,715.86,768.71Zm0,191.3a35.22,35.22,0,1,1-35.22,35.22A35.26,35.26,0,0,1,715.86,960Zm42.22,191a55.22,55.22,0,0,0-32.22-18.77v-82.69a54.65,54.65,0,0,0,20.8-8.52l67.4,71.34Zm190.08,129-177.38-87.85a54.95,54.95,0,0,0-2.76-23.69L828,1127.07,956.37,1263A54.94,54.94,0,0,0,948.16,1280Zm281.19-86.6L1054.41,1280a54.72,54.72,0,0,0-7.47-16l127.78-138,58.38,39.44a54.81,54.81,0,0,0-4.17,21A55.5,55.5,0,0,0,1229.35,1193.39Zm-40.88-82.18,64.94-70.14a54.86,54.86,0,0,0,20.73,8.47v82.69a55.07,55.07,0,0,0-30.17,16.48Z" transform="translate(-660.64 -649.71)" fill="url(#i)"/><path d="M1043.77,991.11a22.48,22.48,0,0,0-3.24-2.49V944.51a22,22,0,0,0-22-22H981.8a22,22,0,0,0-22,22v13a10,10,0,0,0,20,.16V944.51a2,2,0,0,1,.59-1.41,2,2,0,0,1,1.41-.59h36.73a2,2,0,0,1,2,2v40.72H968.07a22,22,0,0,0-22,22v45.06a22,22,0,0,0,22,22h60.75a22,22,0,0,0,22-22v-45.06A21.91,21.91,0,0,0,1043.77,991.11Zm-45.27,23,0,.05-.08-.07h.11Zm-32.43,38.13v-45.06a2,2,0,0,1,2-2h12.42a20,20,0,0,0,8,26.3v22.76H968.07A2,2,0,0,1,966.07,1052.29Zm64.75,0a2,2,0,0,1-2,2h-14.09a30.6,30.6,0,0,0-6.28-20.15v-2.61a20,20,0,0,0,7.95-26.3h12.42a2,2,0,0,1,2,2Z" transform="translate(-660.64 -649.71)" fill="url(#j)"/><path d="M1334.36,995.23a50.29,50.29,0,0,0-45.22-50V853.89a50.21,50.21,0,1,0-53-64.7l-184.75-87.48a50.21,50.21,0,0,0-100.21,0L763.85,789.15a50.22,50.22,0,1,0-53,64.74v91.37a50.22,50.22,0,0,0,0,99.94v91.37a50.21,50.21,0,1,0,51.76,68.26l188.56,93.4a50.2,50.2,0,0,0,100.21,0l186.43-92.3a50.22,50.22,0,1,0,51.32-69.36V1045.2A50.29,50.29,0,0,0,1334.36,995.23Zm-50.22-231.52a40.22,40.22,0,1,1-40.21,40.22A40.26,40.26,0,0,1,1284.14,763.71Zm-38.52,263.69-73.16,79-59-39.89a130.09,130.09,0,0,0-2.09-136l58.81-41.94L1243,966.44a50.12,50.12,0,0,0,2.6,61Zm7.15,7a49.89,49.89,0,0,0,26.37,10.8v91.37a50.19,50.19,0,0,0-34.3,18.74l-64-43.23ZM757,966.48l75.51-78.73,58.74,42.75a130.07,130.07,0,0,0-2.08,136.07h0L830,1107.42l-75.62-80.05a50.1,50.1,0,0,0,2.6-60.89Zm364.59,33.75a120.31,120.31,0,1,1-120.31-120.31A120.45,120.45,0,0,1,1121.59,1000.23ZM1006.28,870V754.89a49.93,49.93,0,0,0,27.64-11.84l129.34,138.17-57.59,41.09A130.26,130.26,0,0,0,1006.28,870Zm-10,0a130.19,130.19,0,0,0-99.35,52.25l-57.44-41.8L970.11,744.26a49.86,49.86,0,0,0,26.17,10.63ZM894.61,1075a130.25,130.25,0,0,0,101.67,55.46V1245.1a49.86,49.86,0,0,0-26.14,10.62L837,1114.76Zm111.67,55.46A130.34,130.34,0,0,0,1108,1075l57.59,38.89-132.13,142.71a49.88,49.88,0,0,0-27.17-11.45Zm172.08-247.71,66.56-47.49a50.11,50.11,0,0,0,34.22,18.65v91.37a50.08,50.08,0,0,0-29.55,13.56Zm55.79-83.42c-.15,1.52-.22,3.06-.22,4.62a50,50,0,0,0,5.54,22.92l-68,48.51L1040.84,735.81a49.88,49.88,0,0,0,10.08-23.26Zm-232.87-134.6a40.22,40.22,0,1,1-40.21,40.22A40.26,40.26,0,0,1,1001.28,664.71ZM766.07,803.93c0-1.58-.07-3.14-.22-4.68l185.79-86.73a50.08,50.08,0,0,0,11.29,24.78L831.33,874.54,761.88,824A49.72,49.72,0,0,0,766.07,803.93Zm58.27,77.88-73.89,77.06a50,50,0,0,0-29.59-13.61V853.89a50.24,50.24,0,0,0,36.08-21.13Zm-148.7-77.88a40.22,40.22,0,1,1,40.22,40.21A40.26,40.26,0,0,1,675.64,803.93Zm0,191.3a40.22,40.22,0,1,1,40.22,40.22A40.26,40.26,0,0,1,675.64,995.23Zm40.22,231.51a40.21,40.21,0,1,1,40.21-40.2A40.25,40.25,0,0,1,715.86,1226.74Zm5-90.17V1045.2a49.88,49.88,0,0,0,26.4-10.83l74.43,78.8L757,1157.8A50.26,50.26,0,0,0,720.86,1136.57ZM765.34,1195a50.16,50.16,0,0,0-3.41-28.48l66.71-46L963,1262.69a49.88,49.88,0,0,0-11.28,24.62Zm235.94,140.25a40.22,40.22,0,1,1,40.22-40.22A40.27,40.27,0,0,1,1001.28,1335.29Zm232.65-148.75a50,50,0,0,0,.94,9.69l-184,91.08a49.83,49.83,0,0,0-10.44-23.6L1174,1119.51l65.45,44.21A49.82,49.82,0,0,0,1233.93,1186.54Zm90.43,0a40.22,40.22,0,1,1-40.22-40.22A40.25,40.25,0,0,1,1324.36,1186.54Zm-40.22-151.09a40.22,40.22,0,1,1,40.22-40.22A40.27,40.27,0,0,1,1284.14,1035.45Z" transform="translate(-660.64 -649.71)" fill="url(#k)"/><path d="M1035.53,991.62V944.51a17,17,0,0,0-17-17H981.8a17,17,0,0,0-17,17v12.06a5,5,0,0,0,10,0V944.51a7,7,0,0,1,7-7h36.73a7,7,0,0,1,7,7v45.72H968.07a17,17,0,0,0-17,17v45.06a17,17,0,0,0,17,17h60.75a17,17,0,0,0,17-17v-45.06A17,17,0,0,0,1035.53,991.62Zm-37.08,17.49a5.05,5.05,0,1,1-5.06,5A5.06,5.06,0,0,1,998.45,1009.11Zm-30.38,50.18a7,7,0,0,1-7-7v-45.06a7,7,0,0,1,7-7h24.71a15,15,0,0,0,.67,28.12v27.06a4.94,4.94,0,0,0,1.86,3.88Zm67.75-7a7,7,0,0,1-7,7h-27.23a4.94,4.94,0,0,0,1.86-3.88v-1.24h2.69a5,5,0,0,0,1.14-9.86,5.06,5.06,0,0,0,.41-2,5,5,0,0,0-4.24-4.93v-9a15,15,0,0,0,.67-28.12h24.7a7,7,0,0,1,7,7Z" transform="translate(-660.64 -649.71)" fill="url(#l)"/><path d="M1001.29,731.57a26.64,26.64,0,1,1,26.64-26.64A26.68,26.68,0,0,1,1001.29,731.57Zm0-43.28a16.64,16.64,0,1,0,16.64,16.64A16.66,16.66,0,0,0,1001.29,688.29Z" transform="translate(-660.64 -649.71)" fill="url(#m)"/><path d="M1001.29,1321.71a26.64,26.64,0,1,1,26.64-26.64A26.68,26.68,0,0,1,1001.29,1321.71Zm0-43.28a16.64,16.64,0,1,0,16.64,16.64A16.66,16.66,0,0,0,1001.29,1278.43Z" transform="translate(-660.64 -649.71)" fill="url(#n)"/><path d="M1284.14,830.57a26.64,26.64,0,1,1,26.65-26.64A26.67,26.67,0,0,1,1284.14,830.57Zm0-43.28a16.64,16.64,0,1,0,16.65,16.64A16.66,16.66,0,0,0,1284.14,787.29Z" transform="translate(-660.64 -649.71)" fill="url(#o)"/><path d="M715.86,830.57a26.64,26.64,0,1,1,26.64-26.64A26.68,26.68,0,0,1,715.86,830.57Zm0-43.28a16.64,16.64,0,1,0,16.64,16.64A16.66,16.66,0,0,0,715.86,787.29Z" transform="translate(-660.64 -649.71)" fill="url(#p)"/><path d="M1284.14,1021.87a26.64,26.64,0,1,1,26.65-26.64A26.67,26.67,0,0,1,1284.14,1021.87Zm0-43.28a16.64,16.64,0,1,0,16.65,16.64A16.66,16.66,0,0,0,1284.14,978.59Z" transform="translate(-660.64 -649.71)" fill="url(#q)"/><path d="M715.86,1021.87a26.64,26.64,0,1,1,26.64-26.64A26.68,26.68,0,0,1,715.86,1021.87Zm0-43.28a16.64,16.64,0,1,0,16.64,16.64A16.66,16.66,0,0,0,715.86,978.59Z" transform="translate(-660.64 -649.71)" fill="url(#r)"/><path d="M1284.14,1213.18a26.65,26.65,0,1,1,26.65-26.65A26.68,26.68,0,0,1,1284.14,1213.18Zm0-43.29a16.65,16.65,0,1,0,16.65,16.64A16.67,16.67,0,0,0,1284.14,1169.89Z" transform="translate(-660.64 -649.71)" fill="url(#s)"/><path d="M715.86,1213.18a26.65,26.65,0,1,1,26.64-26.65A26.69,26.69,0,0,1,715.86,1213.18Zm0-43.29a16.65,16.65,0,1,0,16.64,16.64A16.67,16.67,0,0,0,715.86,1169.89Z" transform="translate(-660.64 -649.71)" fill="url(#t)"/><path d="M1001.29,752.64A47.72,47.72,0,1,1,1049,704.93,47.77,47.77,0,0,1,1001.29,752.64Zm0-90.43A42.72,42.72,0,1,0,1044,704.93,42.77,42.77,0,0,0,1001.29,662.21Z" transform="translate(-660.64 -649.71)" fill="#fff"/><path d="M1001.29,729.07a24.14,24.14,0,1,1,24.14-24.14A24.17,24.17,0,0,1,1001.29,729.07Zm0-43.28a19.14,19.14,0,1,0,19.14,19.14A19.16,19.16,0,0,0,1001.29,685.79Z" transform="translate(-660.64 -649.71)" fill="#fff"/><path d="M1001.29,1342.79a47.72,47.72,0,1,1,47.71-47.72A47.78,47.78,0,0,1,1001.29,1342.79Zm0-90.43a42.72,42.72,0,1,0,42.71,42.71A42.76,42.76,0,0,0,1001.29,1252.36Z" transform="translate(-660.64 -649.71)" fill="#fff"/><path d="M1001.29,1319.21a24.14,24.14,0,1,1,24.14-24.14A24.17,24.17,0,0,1,1001.29,1319.21Zm0-43.28a19.14,19.14,0,1,0,19.14,19.14A19.17,19.17,0,0,0,1001.29,1275.93Z" transform="translate(-660.64 -649.71)" fill="#fff"/><path d="M1284.14,851.64a47.72,47.72,0,1,1,47.72-47.71A47.76,47.76,0,0,1,1284.14,851.64Zm0-90.43a42.72,42.72,0,1,0,42.72,42.72A42.77,42.77,0,0,0,1284.14,761.21Z" transform="translate(-660.64 -649.71)" fill="#fff"/><path d="M1284.14,828.07a24.14,24.14,0,1,1,24.15-24.14A24.17,24.17,0,0,1,1284.14,828.07Zm0-43.28a19.14,19.14,0,1,0,19.15,19.14A19.16,19.16,0,0,0,1284.14,784.79Z" transform="translate(-660.64 -649.71)" fill="#fff"/><path d="M715.86,851.64a47.72,47.72,0,1,1,47.71-47.71A47.77,47.77,0,0,1,715.86,851.64Zm0-90.43a42.72,42.72,0,1,0,42.71,42.72A42.77,42.77,0,0,0,715.86,761.21Z" transform="translate(-660.64 -649.71)" fill="#fff"/><path d="M715.86,828.07A24.14,24.14,0,1,1,740,803.93,24.17,24.17,0,0,1,715.86,828.07Zm0-43.28A19.14,19.14,0,1,0,735,803.93,19.16,19.16,0,0,0,715.86,784.79Z" transform="translate(-660.64 -649.71)" fill="#fff"/><path d="M1284.14,1043a47.72,47.72,0,1,1,47.72-47.72A47.77,47.77,0,0,1,1284.14,1043Zm0-90.43a42.72,42.72,0,1,0,42.72,42.71A42.76,42.76,0,0,0,1284.14,952.52Z" transform="translate(-660.64 -649.71)" fill="#fff"/><path d="M1284.14,1019.37a24.14,24.14,0,1,1,24.15-24.14A24.17,24.17,0,0,1,1284.14,1019.37Zm0-43.28a19.14,19.14,0,1,0,19.15,19.14A19.17,19.17,0,0,0,1284.14,976.09Z" transform="translate(-660.64 -649.71)" fill="#fff"/><path d="M715.86,1043a47.72,47.72,0,1,1,47.71-47.72A47.78,47.78,0,0,1,715.86,1043Zm0-90.43a42.72,42.72,0,1,0,42.71,42.71A42.76,42.76,0,0,0,715.86,952.52Z" transform="translate(-660.64 -649.71)" fill="#fff"/><path d="M715.86,1019.37A24.14,24.14,0,1,1,740,995.23,24.17,24.17,0,0,1,715.86,1019.37Zm0-43.28A19.14,19.14,0,1,0,735,995.23,19.17,19.17,0,0,0,715.86,976.09Z" transform="translate(-660.64 -649.71)" fill="#fff"/><path d="M1284.14,1234.25a47.72,47.72,0,1,1,47.72-47.72A47.77,47.77,0,0,1,1284.14,1234.25Zm0-90.43a42.72,42.72,0,1,0,42.72,42.71A42.76,42.76,0,0,0,1284.14,1143.82Z" transform="translate(-660.64 -649.71)" fill="#fff"/><path d="M1284.14,1210.68a24.15,24.15,0,1,1,24.15-24.15A24.17,24.17,0,0,1,1284.14,1210.68Zm0-43.29a19.15,19.15,0,1,0,19.15,19.14A19.17,19.17,0,0,0,1284.14,1167.39Z" transform="translate(-660.64 -649.71)" fill="#fff"/><path d="M715.86,1234.25a47.72,47.72,0,1,1,47.71-47.72A47.78,47.78,0,0,1,715.86,1234.25Zm0-90.43a42.72,42.72,0,1,0,42.71,42.71A42.76,42.76,0,0,0,715.86,1143.82Z" transform="translate(-660.64 -649.71)" fill="#fff"/><path d="M715.86,1210.68A24.15,24.15,0,1,1,740,1186.53,24.17,24.17,0,0,1,715.86,1210.68Zm0-43.29A19.15,19.15,0,1,0,735,1186.53,19.17,19.17,0,0,0,715.86,1167.39Z" transform="translate(-660.64 -649.71)" fill="#fff"/><path d="M760.42,798.77a2.5,2.5,0,0,1-1.06-4.76L955,702.66a2.5,2.5,0,1,1,2.12,4.53L761.48,798.54A2.47,2.47,0,0,1,760.42,798.77Z" transform="translate(-660.64 -649.71)" fill="#fff"/><path d="M1239.57,798.85a2.56,2.56,0,0,1-1.07-.24l-193.07-91.42a2.5,2.5,0,1,1,2.14-4.52l193.07,91.42a2.5,2.5,0,0,1-1.07,4.76Z" transform="translate(-660.64 -649.71)" fill="#fff"/><path d="M1284.14,952.52a2.5,2.5,0,0,1-2.5-2.5V849.14a2.5,2.5,0,0,1,5,0V950A2.5,2.5,0,0,1,1284.14,952.52Z" transform="translate(-660.64 -649.71)" fill="#fff"/><path d="M1284.14,1143.82a2.5,2.5,0,0,1-2.5-2.5V1040.45a2.5,2.5,0,0,1,5,0v100.87A2.5,2.5,0,0,1,1284.14,1143.82Z" transform="translate(-660.64 -649.71)" fill="#fff"/><path d="M715.86,952.52a2.5,2.5,0,0,1-2.5-2.5V849.14a2.5,2.5,0,0,1,5,0V950A2.5,2.5,0,0,1,715.86,952.52Z" transform="translate(-660.64 -649.71)" fill="#fff"/><path d="M715.86,1143.82a2.5,2.5,0,0,1-2.5-2.5V1040.45a2.5,2.5,0,0,1,5,0v100.87A2.5,2.5,0,0,1,715.86,1143.82Z" transform="translate(-660.64 -649.71)" fill="#fff"/><path d="M956.07,1297.57a2.47,2.47,0,0,1-1.11-.26L758.55,1200a2.5,2.5,0,0,1,2.22-4.48l196.41,97.27a2.5,2.5,0,0,1-1.11,4.74Z" transform="translate(-660.64 -649.71)" fill="#fff"/><path d="M1046.5,1297.57a2.5,2.5,0,0,1-1.11-4.74l194.17-96.13a2.5,2.5,0,1,1,2.22,4.48l-194.17,96.13A2.47,2.47,0,0,1,1046.5,1297.57Z" transform="translate(-660.64 -649.71)" fill="#fff"/><path d="M1001.29,1128a127.81,127.81,0,1,1,127.8-127.81C1129.09,1070.7,1071.76,1128,1001.29,1128Zm0-250.61a122.81,122.81,0,1,0,122.8,122.8A122.94,122.94,0,0,0,1001.29,877.43Z" transform="translate(-660.64 -649.71)" fill="#fff"/><path d="M1001.29,877.43a2.5,2.5,0,0,1-2.5-2.5V750.14a2.5,2.5,0,1,1,5,0V874.93A2.5,2.5,0,0,1,1001.29,877.43Z" transform="translate(-660.64 -649.71)" fill="#fff"/><path d="M1001.29,1252.36a2.5,2.5,0,0,1-2.5-2.5V1125.54a2.5,2.5,0,0,1,5,0v124.32A2.5,2.5,0,0,1,1001.29,1252.36Z" transform="translate(-660.64 -649.71)" fill="#fff"/><path d="M1246.06,1164.67a2.49,2.49,0,0,1-1.4-.42l-139.38-94.16a2.5,2.5,0,0,1,2.8-4.14l139.38,94.15a2.5,2.5,0,0,1-1.4,4.57Z" transform="translate(-660.64 -649.71)" fill="#fff"/><path d="M1033.74,1266.1a2.49,2.49,0,0,1-1.84-4.19l218.68-236.17a2.5,2.5,0,1,1,3.67,3.39L1035.57,1265.3A2.49,2.49,0,0,1,1033.74,1266.1Z" transform="translate(-660.64 -649.71)" fill="#fff"/><path d="M755.56,1167.39a2.5,2.5,0,0,1-1.42-4.56L894.47,1066a2.5,2.5,0,0,1,2.84,4.12L757,1167A2.48,2.48,0,0,1,755.56,1167.39Z" transform="translate(-660.64 -649.71)" fill="#fff"/><path d="M969.8,1265.14a2.47,2.47,0,0,1-1.82-.79l-222.21-235.2a2.5,2.5,0,1,1,3.63-3.43l222.22,235.2a2.5,2.5,0,0,1-1.82,4.22Z" transform="translate(-660.64 -649.71)" fill="#fff"/><path d="M898,931.75a2.44,2.44,0,0,1-1.47-.48L754.09,827.59a2.5,2.5,0,0,1,2.94-4L899.49,927.23a2.5,2.5,0,0,1-1.47,4.52Z" transform="translate(-660.64 -649.71)" fill="#fff"/><path d="M750.43,968.61a2.5,2.5,0,0,1-1.8-4.23L968,735.63a2.5,2.5,0,1,1,3.6,3.46L752.24,967.84A2.51,2.51,0,0,1,750.43,968.61Z" transform="translate(-660.64 -649.71)" fill="#fff"/><path d="M1249.57,968.61a2.52,2.52,0,0,1-1.83-.79L1032.32,737.68a2.5,2.5,0,1,1,3.65-3.42L1251.39,964.4a2.51,2.51,0,0,1-.12,3.54A2.47,2.47,0,0,1,1249.57,968.61Z" transform="translate(-660.64 -649.71)" fill="#fff"/><path d="M1104.55,931.75a2.46,2.46,0,0,1-2-1,2.49,2.49,0,0,1,.58-3.48l141.51-101a2.5,2.5,0,1,1,2.9,4.07L1106,931.29A2.49,2.49,0,0,1,1104.55,931.75Z" transform="translate(-660.64 -649.71)" fill="#fff"/><path d="M1028.82,1066.79H968.07a14.52,14.52,0,0,1-14.5-14.5v-45.06a14.52,14.52,0,0,1,14.5-14.5h60.75a14.52,14.52,0,0,1,14.5,14.5v45.06A14.52,14.52,0,0,1,1028.82,1066.79Zm-60.75-69.06a9.51,9.51,0,0,0-9.5,9.5v45.06a9.52,9.52,0,0,0,9.5,9.5h60.75a9.52,9.52,0,0,0,9.5-9.5v-45.06a9.51,9.51,0,0,0-9.5-9.5Z" transform="translate(-660.64 -649.71)" fill="#fff"/><path d="M1030.54,997.57a2.5,2.5,0,0,1-2.5-2.5V944.5a9.52,9.52,0,0,0-9.5-9.5H981.8a9.51,9.51,0,0,0-9.5,9.5V956a2.5,2.5,0,0,1-5,0V944.5A14.51,14.51,0,0,1,981.8,930h36.74a14.52,14.52,0,0,1,14.5,14.5v50.57A2.5,2.5,0,0,1,1030.54,997.57Z" transform="translate(-660.64 -649.71)" fill="#fff"/><path d="M998.45,1026.71a12.55,12.55,0,1,1,12.55-12.55A12.57,12.57,0,0,1,998.45,1026.71Zm0-20.1a7.55,7.55,0,1,0,7.55,7.55A7.56,7.56,0,0,0,998.45,1006.61Z" transform="translate(-660.64 -649.71)" fill="#fff"/><path d="M998.45,1057.91a2.5,2.5,0,0,1-2.5-2.5v-31.2a2.5,2.5,0,0,1,5,0v31.2A2.5,2.5,0,0,1,998.45,1057.91Z" transform="translate(-660.64 -649.71)" fill="#fff"/><path d="M1002.69,1044.82h-4.24a2.5,2.5,0,0,1,0-5h4.24a2.5,2.5,0,0,1,0,5Z" transform="translate(-660.64 -649.71)" fill="#fff"/><path d="M1006.14,1051.67h-7.69a2.5,2.5,0,0,1,0-5h7.69a2.5,2.5,0,0,1,0,5Z" transform="translate(-660.64 -649.71)" fill="#fff"/></svg>