<svg xmlns="http://www.w3.org/2000/svg" xmlns:xlink="http://www.w3.org/1999/xlink" width="906.03" height="839.69" viewBox="0 0 906.03 839.69"><defs><linearGradient id="a" x1="664.1" y1="837.4" x2="834.83" y2="837.4" gradientUnits="userSpaceOnUse"><stop offset="0" stop-color="blue"/><stop offset="0.25" stop-color="#f0f"/><stop offset="0.53" stop-color="#ff5100"/><stop offset="0.78" stop-color="#26ff00"/><stop offset="1" stop-color="#ff0"/></linearGradient><linearGradient id="b" x1="684.67" y1="1219.45" x2="830.41" y2="1219.45" xlink:href="#a"/><linearGradient id="c" x1="1093.22" y1="837.4" x2="1263.95" y2="837.4" xlink:href="#a"/><linearGradient id="d" x1="1097.65" y1="1219.46" x2="1243.38" y2="1219.46" xlink:href="#a"/><linearGradient id="e" x1="870.36" y1="1005.85" x2="1057.69" y2="1005.85" xlink:href="#a"/><linearGradient id="f" x1="1108.63" y1="1149.12" x2="1120.35" y2="1149.12" xlink:href="#a"/><linearGradient id="g" x1="511.01" y1="979.13" x2="1417.04" y2="979.13" xlink:href="#a"/><linearGradient id="h" x1="669.1" y1="837.4" x2="829.83" y2="837.4" gradientUnits="userSpaceOnUse"><stop offset="0" stop-color="#13c0ff"/><stop offset="0.18" stop-color="#31cdd3"/><stop offset="0.58" stop-color="#70e678"/><stop offset="0.87" stop-color="#97f73f"/><stop offset="1" stop-color="#a6fd29"/></linearGradient><linearGradient id="i" x1="689.67" y1="1219.45" x2="825.41" y2="1219.45" xlink:href="#h"/><linearGradient id="j" x1="1098.22" y1="837.4" x2="1258.95" y2="837.4" xlink:href="#h"/><linearGradient id="k" x1="1102.64" y1="1219.45" x2="1238.38" y2="1219.45" xlink:href="#h"/><linearGradient id="l" x1="516.02" y1="979.13" x2="1412.03" y2="979.13" xlink:href="#h"/><linearGradient id="m" x1="875.36" y1="1005.85" x2="1052.69" y2="1005.85" xlink:href="#h"/><linearGradient id="n" x1="648.44" y1="1011.9" x2="861.75" y2="1011.9" xlink:href="#h"/><linearGradient id="o" x1="1067.46" y1="1011.9" x2="1280.13" y2="1011.9" xlink:href="#h"/></defs><path d="M826.09,834.75c-20,2.53-37.26,9.14-51.45,19.65-9.91,7.34-16.67,15.4-22.64,22.52-9,10.79-17.59,21-33,23.88a43.29,43.29,0,0,1-7.89.73c-13.65,0-28.22-6.38-43.42-19a10,10,0,1,1,12.79-15.37c13.37,11.12,25.09,15.84,34.83,14,8-1.5,12.82-6.88,21.35-17.07,1.33-1.58,2.72-3.24,4.21-5-9.11-4.82-18.18-9.78-27.09-14.8-15.95-9-24.47-14.21-28.73-25.52-3.43-9.13-4.11-22.65,4.27-33.24,10-12.59,25.4-12.4,28.39-12.23a10,10,0,0,1-1.11,20c-.31,0-7.61-.37-11.6,4.68-4.22,5.33-1.55,12.93-1.23,13.78,1.58,4.18,4.91,6.73,19.83,15.13,10.45,5.89,21.15,11.7,31.87,17.31,2.25-2,4.66-3.93,7.26-5.86,17-12.58,37.44-20.45,60.83-23.42a10,10,0,1,1,2.52,19.84Z" transform="translate(-511.01 -559.29)" fill="url(#a)"/><path d="M828.18,1170.45a10,10,0,0,1-14.06,1.49,29.64,29.64,0,0,0-10.78-5.63c-9.45-2.59-18.08.66-23.25,2.6-7.43,2.79-19.05,10.38-33.58,23.68l37.4,40.33c.17.19.33.38.49.58,8.68,10.92,9,20.53,8.45,25.29-2.39,20-25.5,34.77-54,34.78H737.8a10,10,0,0,1,.13-20h.13c21.15.28,34.07-10,34.93-17.14.16-1.32.07-4.92-4-10.2l-36.73-39.61a444.39,444.39,0,0,0-29.66,34.63,10,10,0,0,1-15.8-12.26,441.72,441.72,0,0,1,38.12-43.31l.05-.05,1.12-1.1,0,0c17.74-17.31,34.24-29.52,47-34.31,6.45-2.43,19.87-7.48,35.58-3.17,1.2.33,2.38.71,3.55,1.13a.07.07,0,0,0,.06,0c1,.37,2,.77,3,1.21a50.32,50.32,0,0,1,11.46,7A10,10,0,0,1,828.18,1170.45Z" transform="translate(-511.01 -559.29)" fill="url(#b)"/><path d="M1260.35,882.5c-15.2,12.65-29.77,19-43.42,19a43.38,43.38,0,0,1-7.89-.73c-15.39-2.89-23.94-13.09-33-23.88-3.52-4.2-7.32-8.73-11.88-13.25l-.49-.48a98.61,98.61,0,0,0-10.27-8.79c-14.19-10.51-31.5-17.12-51.45-19.65a10,10,0,1,1,2.52-19.84c23.39,3,43.86,10.84,60.83,23.42,2.61,1.93,5,3.89,7.27,5.86,10.72-5.61,21.41-11.42,31.86-17.31,14.92-8.4,18.26-11,19.83-15.13.32-.85,3-8.45-1.23-13.78-4-5.05-11.28-4.7-11.6-4.68a10,10,0,1,1-1.11-20c3-.17,18.42-.36,28.39,12.23,8.38,10.58,7.7,24.11,4.27,33.24-4.26,11.31-12.78,16.53-28.73,25.52-8.9,5-18,10-27.09,14.79q2.22,2.58,4.21,5c8.54,10.19,13.36,15.57,21.35,17.07,9.74,1.83,21.46-2.89,34.83-14a10,10,0,0,1,12.79,15.37Z" transform="translate(-511.01 -559.29)" fill="url(#c)"/><path d="M1239.51,1243a10,10,0,0,1-14-1.77,442.24,442.24,0,0,0-29.66-34.63l-36.73,39.61c-4.1,5.28-4.18,8.88-4,10.2.86,7.18,13.79,17.44,34.93,17.14h.14a10,10,0,0,1,.13,20h-1.09c-28.47,0-51.58-14.83-54-34.78-.57-4.76-.23-14.37,8.44-25.29.16-.2.32-.39.5-.58l37.39-40.32c-14.53-13.3-26.15-20.89-33.58-23.69-5.16-1.94-13.8-5.2-23.25-2.6a29.64,29.64,0,0,0-10.78,5.63,10,10,0,0,1-12.57-15.55,52.17,52.17,0,0,1,7.26-4.93h0a47.74,47.74,0,0,1,10.79-4.44l.93-.24h0c15.3-3.85,28.3,1,34.62,3.42,12.73,4.79,29.23,17,47,34.31l0,0,1.12,1.1.05.05a440.41,440.41,0,0,1,38.12,43.31A10,10,0,0,1,1239.51,1243Z" transform="translate(-511.01 -559.29)" fill="url(#d)"/><path d="M955.94,1099.7a16.13,16.13,0,0,1-16.12-15.78l-.27-12.09-1.92-.78-7.93,8.32a16.79,16.79,0,0,1-23.7.56l-14-13.34a15.72,15.72,0,0,1-.52-22.2l9.76-10.25c-.31-.78-.62-1.56-.9-2.35H887a16.61,16.61,0,0,1-16.59-16.57V997.1A17.07,17.07,0,0,1,887.43,980h15.21c.1-.23.21-.45.32-.68l-10.18-10.67a17.58,17.58,0,0,1,.59-24.85l12-11.49a17.58,17.58,0,0,1,24.82.58l6.44,6.76-.21-9.7a17.19,17.19,0,0,1,16.82-17.56l17.84-.38a16.72,16.72,0,0,1,17.11,16.38l.31,14.21,9.59-10.06a17.09,17.09,0,0,1,24.13-.57l13,12.41a16.76,16.76,0,0,1,.56,23.66l-10.76,11.28c.1.19.19.38.28.58h14.31a18,18,0,0,1,18,18v16.55a17.24,17.24,0,0,1-17.22,17.25h-12.73c-.3.82-.61,1.64-1,2.45l9.7,10.17a15.82,15.82,0,0,1-.53,22.35l-13.39,12.77a17.47,17.47,0,0,1-24.71-.58l-6.49-6.82.24,11.31a15.57,15.57,0,0,1-15.23,15.92l-20.08.43Zm-20.48-50.87a9.9,9.9,0,0,1,4.95,1.32,47.3,47.3,0,0,0,11.51,4.69,10,10,0,0,1,7.48,9.46l.33,15.31,11.79-.25-.33-15.34a10,10,0,0,1,7-9.77,47.56,47.56,0,0,0,9.43-4.1,10,10,0,0,1,12.19,1.78l10.76,11.29,8.53-8.14L1007.6,1043a10,10,0,0,1-1.56-11.65,47.74,47.74,0,0,0,4.5-11.9,10,10,0,0,1,9.73-7.75h17.42V999.89h-19a10,10,0,0,1-9.45-6.75,47.42,47.42,0,0,0-4.84-10,10,10,0,0,1,1.2-12.28l13.57-14.23-8.53-8.13-14.33,15a10,10,0,0,1-11.57,2.1,48.12,48.12,0,0,0-8.46-3.11,10,10,0,0,1-7.45-9.45l-.46-21-11.79.26.45,20.93a10,10,0,0,1-7.06,9.78,47.3,47.3,0,0,0-6.55,2.56,10,10,0,0,1-11.58-2.1l-14.33-15-8.54,8.13,13.58,14.23a10,10,0,0,1,1.2,12.27,47.14,47.14,0,0,0-4.86,10.12,10,10,0,0,1-9.45,6.77h-19v11.79h17.42a10,10,0,0,1,9.74,7.74,47.42,47.42,0,0,0,4.48,11.82,10,10,0,0,1-1.56,11.65l-11.53,12.09,8.54,8.14,10.76-11.29A10,10,0,0,1,935.46,1048.83Zm86.56,9.29h0Zm-58-21.42a30.8,30.8,0,1,1,3.08-.15C966.09,1036.65,965.06,1036.7,964,1036.7ZM964,995a11.46,11.46,0,0,0-1.17.06,11,11,0,0,0-9.65,9.67,10.87,10.87,0,0,0,11.94,11.94h0a10.94,10.94,0,0,0,9.67-9.65A10.88,10.88,0,0,0,964,995Z" transform="translate(-511.01 -559.29)" fill="url(#e)"/><path d="M1119.42,1147a47.74,47.74,0,0,0-10.79,4.44c3.94-1.5,7.83-3,11.72-4.68Z" transform="translate(-511.01 -559.29)" fill="url(#f)"/><path d="M1374.82,997c10.82-15,26.8-44.71,20.11-83.16-7.2-41.3-36-64.4-49.25-73,.18-17.47-3.29-45.59-23-72-27.23-36.55-66.69-44.66-86.56-46.34,1.51-17.81.26-51.61-25.14-78.14a98.26,98.26,0,0,0-63.57-29.8c-11-14.28-50.62-59-111.4-55.06-32.59,2.1-56.86,17.18-71.41,29.39l-.62.52-.57-.48c-14.55-12.21-38.84-27.33-71.47-29.43-60.77-3.92-100.37,40.78-111.41,55.06A98.21,98.21,0,0,0,717,644.39c-25.4,26.53-26.66,60.32-25.15,78.14-19.87,1.68-59.34,9.79-86.56,46.34-19.66,26.39-23.13,54.51-22.94,72-13.24,8.61-42.06,31.71-49.26,73-6.7,38.45,9.3,68.18,20.11,83.16-26,18-43.24,52.19-42.17,86.14,1.19,37.57,24.37,71.91,60.19,90.72-6.45,9.57-11.15,23.8-9.4,44.76,2.86,34.29,30.91,65.57,73.51,82.26a226.89,226.89,0,0,0,16.29,23.48c13.38,16.9,27.22,34.38,46.77,42.28a63.16,63.16,0,0,0,23.81,4.48c19.86,0,38.46-8.22,50.09-14.75,15.79,23.77,47.41,38.59,90.53,42.11q5.91.48,11.6.48c39.5,0,71-16.47,89.58-29.26,18.52,12.79,50.06,29.26,89.57,29.26q5.7,0,11.6-.48c43.13-3.52,74.75-18.34,90.54-42.11,11.63,6.53,30.22,14.75,50.08,14.75a63.12,63.12,0,0,0,23.81-4.48c19.55-7.9,33.39-25.38,46.78-42.28a226.79,226.79,0,0,0,16.28-23.48c42.6-16.69,70.65-48,73.51-82.26,1.75-21-3-35.18-9.4-44.76,35.83-18.81,59-53.15,60.19-90.72C1418.07,1049.21,1400.84,1015,1374.82,997ZM954,1352.31c-17.55,12.4-49.6,29.53-89.55,26.26-23.87-2-65.91-9.77-79.33-40.21-3.69-8.36-5-17.89-3.83-28.33a10,10,0,1,0-19.88-2.18,76.65,76.65,0,0,0,2.41,30.37c-12.76,7.43-37,18.38-57.94,9.9-14.64-5.92-26.27-20.61-38.58-36.16a204.46,204.46,0,0,1-16.5-24.2,10.08,10.08,0,0,0-5.2-4.36c-37.11-13.62-61.57-39.07-63.85-66.42-1.51-18.2,2.61-31.16,12.25-38.52l.12-.09c13.6-10.26,32.54-4.75,34.66-4.08a10,10,0,0,0,6-19.09c-4.72-1.48-27.75-7.71-47.91,4-33.06-14.65-54.8-44.28-55.83-76.7-1-30.29,16.81-61.88,41.36-73.6l.21-.1.3-.14c5-2.34,13.91-6.42,24.12-3.82,13.39,3.39,20.44,16.17,22.29,20a10,10,0,1,0,18-8.66c-3.57-7.45-14.19-25.36-35.39-30.74-12.42-3.15-23.3-.59-30.73,2.19-8.32-10.87-24.25-36.83-18.4-70.38,6.91-39.66,38.33-58.74,44.56-62.16a10,10,0,0,0,5.17-9.39c-.86-13.67.44-40.28,18.8-64.92,30-40.23,79.47-38.75,81.57-38.67,48.3,1.91,74.59,39.36,77.43,43.62A10,10,0,1,0,797,774.68c-3.26-4.88-32.09-46-85.06-51.88-1.51-13.55-1.65-42.46,19.52-64.58,22.45-23.45,59.6-30.73,84.58-16.57,9.76,5.53,18,14.46,23.7,25.81a10,10,0,1,0,17.84-9c-7.53-14.88-18.48-26.7-31.67-34.18a74.83,74.83,0,0,0-20.48-7.84,140.92,140.92,0,0,1,15.78-14.17c21.73-16.67,45.11-24.32,69.49-22.75,30.26,1.94,52.1,17.47,63.69,28.12l-.15,100c-13.46-19.19-32-31.14-51.71-31.22-13.41-.06-27.57,6.07-39.83,17.21a10,10,0,1,0,13.45,14.8c11.54-10.49,21.42-12,26.31-12,20.77.08,45.7,24.53,51.7,65.34l0,20.17h0v7.81l-.08,54.9h0A163,163,0,0,0,858,883c2.24-2.18,4-3.8,5.28-4.86A10,10,0,0,0,853.85,861,435.12,435.12,0,0,0,652.64,990.44a37.62,37.62,0,0,0,1.23,50.62,458.6,458.6,0,0,0,158.31,107.09.07.07,0,0,0,.06,0c1,.37,2,.77,3,1.21q19,7.53,38.64,13.41a9.76,9.76,0,0,0,2.86.42,10,10,0,0,0,6.55-17.56c-5.78-5-24.55-22.51-39.79-50.67a166.34,166.34,0,0,0,24.09,30.48A163.44,163.44,0,0,0,954,1173.39ZM812.76,1116.39c3.29,5.23,6.65,10,10,14.44a438.94,438.94,0,0,1-154.44-103.64,17.29,17.29,0,0,1-.61-23.55,415.3,415.3,0,0,1,154.7-110.26c-3.13,4.19-6.3,8.77-9.43,13.72-20.31,32.17-30.67,67.23-30.78,104.19C782,1048.55,792.33,1083.91,812.76,1116.39ZM822.34,1009c0-78.11,63.55-141.67,141.67-141.68h0c78.12,0,141.68,63.56,141.68,141.68S1042.15,1150.7,964,1150.7,822.34,1087.14,822.34,1009Zm324.72,2.28c-.11-37-10.47-72-30.79-104.19-3.13-5-6.3-9.53-9.42-13.72a415.12,415.12,0,0,1,153.46,108.87,19.28,19.28,0,0,1-.51,26.11,438.77,438.77,0,0,1-153.3,102.47c3.3-4.39,6.65-9.21,9.94-14.44C1136.87,1083.91,1147.17,1048.55,1147.06,1011.29ZM1397,1082.53c-1,32.42-22.76,62-55.83,76.7-20.16-11.74-43.18-5.51-47.91-4a10,10,0,0,0,6,19.09c2.12-.67,21.06-6.18,34.66,4.08l.12.09c9.65,7.36,13.77,20.32,12.25,38.52-2.28,27.35-26.74,52.8-63.85,66.42a10.06,10.06,0,0,0-5.19,4.36,207.73,207.73,0,0,1-16.5,24.2c-12.32,15.55-24,30.24-38.59,36.16-21,8.48-45.18-2.47-57.93-9.9a76.84,76.84,0,0,0,2.4-30.37,10,10,0,0,0-19.88,2.18c1.15,10.44-.14,20-3.82,28.33-13.43,30.44-55.47,38.26-79.34,40.21-3.37.27-6.69.41-9.94.41-35.3,0-63.53-15.31-79.6-26.66v-69.87c.9-27.07,16.81-50.15,38.77-56.15,17.06-4.66,32.67,2.63,38.58,6a10,10,0,0,0,9.86-17.4c-8.08-4.58-29.48-14.49-53.71-7.87a67.83,67.83,0,0,0-33.5,21.75v-55.37a165.07,165.07,0,0,0,141.19-98.91c-15.69,40.19-42.22,65-49.3,71.17a10,10,0,0,0,6.54,17.56,9.76,9.76,0,0,0,2.86-.42q16.9-5.05,33.3-11.33h0a47.74,47.74,0,0,1,10.79-4.44l.93-.24h0a458.67,458.67,0,0,0,153.77-104.48,39.38,39.38,0,0,0,1.13-53.31,435.33,435.33,0,0,0-199.93-128,10,10,0,0,0-9.44,17.14,154.53,154.53,0,0,1,13.34,13.23,163.41,163.41,0,0,0-105.2-46.74l.08-55.16h0c0-.19,0-.38,0-.57a51.21,51.21,0,0,1,0-6.32c1.19-18.7,12.28-34.53,27.93-38.86,15.39-4.26,29.61,5.06,32.3,7A10,10,0,0,0,1046,734.39c-5.6-4-25.7-16.45-49.21-9.95a53.63,53.63,0,0,0-22.53,12.85l.19-130.36c11.77-10.62,33.32-25.54,62.94-27.44,40.09-2.58,69.94,21.11,85.2,36.93a75.06,75.06,0,0,0-20.4,7.83c-13.2,7.48-24.15,19.3-31.68,34.18a10,10,0,1,0,17.84,9c5.75-11.35,13.94-20.28,23.7-25.81,25-14.16,62.13-6.88,84.58,16.57,21.17,22.12,21,51,19.52,64.58-53,5.92-81.8,47-85.06,51.88a10,10,0,0,0,16.65,11.09c2.84-4.26,29.14-41.71,77.43-43.62,2.11-.08,51.6-1.56,81.57,38.67,18.36,24.64,19.66,51.25,18.8,64.92a10,10,0,0,0,5.17,9.39c6.23,3.42,37.66,22.5,44.56,62.16,5.85,33.55-10.08,59.51-18.4,70.38-7.43-2.78-18.31-5.34-30.73-2.19-21.2,5.38-31.81,23.29-35.39,30.74a10,10,0,0,0,18,8.66c1.84-3.84,8.89-16.62,22.28-20,10.26-2.61,19.27,1.53,24.21,3.86l.21.1.21.1C1380.19,1020.65,1398,1052.24,1397,1082.53Z" transform="translate(-511.01 -559.29)" fill="url(#g)"/><path d="M825.46,829.79c-20.81,2.64-38.91,9.57-53.79,20.59a103.73,103.73,0,0,0-10.94,9.37c-4.86,4.78-8.86,9.55-12.56,14-8.82,10.52-16.44,19.61-30.08,22.17a37.44,37.44,0,0,1-7,.64c-12.47,0-26-6-40.24-17.86a5,5,0,1,1,6.4-7.69c14.56,12.13,27.67,17.2,38.94,15.08,10.12-1.9,16-9,24.27-18.76,2.58-3.08,5.29-6.32,8.35-9.63C737.89,851.92,727,846,716.25,840c-15.33-8.64-22.86-13.22-26.51-22.92-1-2.71-5.64-16.82,3.51-28.37,8.44-10.66,21.63-10.49,24.19-10.35a5,5,0,1,1-.55,10c-1,0-10.31-.36-15.8,6.57-5.81,7.34-2.67,16.82-2,18.65,2.22,5.89,6.69,9.07,22.06,17.73,11.49,6.48,23.28,12.86,35.07,19a110.34,110.34,0,0,1,9.48-7.88c16.28-12.05,36-19.61,58.49-22.47a5,5,0,1,1,1.26,9.92Z" transform="translate(-511.01 -559.29)" fill="url(#h)"/><path d="M824.3,1167.31a5,5,0,0,1-7,.74,34.43,34.43,0,0,0-12.59-6.56c-11-3-20.61.59-26.34,2.74-8.45,3.18-22,12.17-38.85,28.14l40.76,44,.25.29c7.54,9.5,7.87,17.6,7.39,21.59-2,17.15-23.5,30.36-49,30.37h-1a5,5,0,0,1,.13-10h.92c22.55,0,37.79-11.1,39-21.56.29-2.42,0-7.45-5.18-14l-40.43-43.61a431.15,431.15,0,0,0-33.72,38.8,5,5,0,1,1-7.9-6.13,436.63,436.63,0,0,1,38.37-43.53c17.36-17,33.43-29,45.72-33.64,6.42-2.41,18.36-6.91,32.5-3a44.48,44.48,0,0,1,16.24,8.43A5,5,0,0,1,824.3,1167.31Z" transform="translate(-511.01 -559.29)" fill="url(#i)"/><path d="M1257.15,878.66c-14.27,11.88-27.77,17.86-40.24,17.86a37.26,37.26,0,0,1-6.94-.64c-13.64-2.56-21.26-11.65-30.09-22.17-3.64-4.34-7.56-9-12.32-13.72l-.26-.25a100.94,100.94,0,0,0-10.91-9.36c-14.89-11-33-18-53.8-20.59a5,5,0,1,1,1.26-9.92c22.53,2.86,42.21,10.42,58.49,22.47a112.21,112.21,0,0,1,9.48,7.88c11.8-6.13,23.59-12.5,35.07-19,15.37-8.66,19.84-11.84,22.06-17.73.69-1.83,3.82-11.32-2-18.65-5.49-6.93-14.76-6.63-15.79-6.57a5,5,0,1,1-.56-10c2.55-.14,15.75-.31,24.19,10.35,9.15,11.55,4.53,25.66,3.51,28.37-3.65,9.7-11.18,14.28-26.51,22.92-10.69,6-21.64,12-32.61,17.71,3.06,3.31,5.78,6.55,8.36,9.63,8.21,9.79,14.14,16.86,24.26,18.76,11.27,2.12,24.38-2.95,39-15.08a5,5,0,0,1,6.39,7.69Z" transform="translate(-511.01 -559.29)" fill="url(#j)"/><path d="M1236.45,1239.06a5,5,0,0,1-7-.89,429.57,429.57,0,0,0-33.72-38.8L1155.28,1243c-5.18,6.58-5.47,11.61-5.18,14,1.25,10.46,16.49,21.56,39,21.56h1a5,5,0,0,1,.07,10h-1c-25.54,0-47-13.22-49-30.37-.48-4-.15-12.09,7.4-21.59.07-.1.16-.19.24-.29l40.76-44c-16.85-16-30.4-25-38.85-28.14-5.73-2.15-15.31-5.76-26.33-2.74a34.47,34.47,0,0,0-12.6,6.56,5,5,0,1,1-6.29-7.77,44.48,44.48,0,0,1,16.24-8.43c14.15-3.89,26.09.61,32.5,3,12.29,4.62,28.36,16.59,45.72,33.64a435.37,435.37,0,0,1,38.37,43.53A5,5,0,0,1,1236.45,1239.06Z" transform="translate(-511.01 -559.29)" fill="url(#k)"/><path d="M1398.35,1030.42c-8-13.76-18.75-25-30.78-32.1,9.86-12.29,29.54-42.79,22.43-83.6-7.34-42.13-38.28-64.4-49.39-71.15.58-16.42-2-45-21.89-71.72-28.44-38.17-72.06-43.85-88.08-44.61,2-14.66,3.61-51.36-23.22-79.39a94.21,94.21,0,0,0-48.63-26.62,89,89,0,0,0-13.88-1.75c-8.08-11-47.11-58.92-108.53-55-34.3,2.21-59,19.46-72.35,31.57C950.69,584,926,566.73,891.67,564.52c-61.42-3.95-100.44,44-108.52,55a89.12,89.12,0,0,0-13.89,1.75,94.14,94.14,0,0,0-48.62,26.62c-26.83,28-25.21,64.72-23.23,79.39-16,.76-59.64,6.44-88.08,44.61-19.89,26.71-22.46,55.3-21.89,71.72-11.11,6.75-42.05,29-49.39,71.15-7.11,40.8,12.57,71.31,22.43,83.6-12,7.15-22.81,18.35-30.78,32.1A100.15,100.15,0,0,0,516.06,1083c1.19,37.59,25.6,71.83,62.89,89.1-7.57,8.54-14.07,22.76-12.12,46.12,2.73,32.79,30.24,62.8,71.94,78.63a220.22,220.22,0,0,0,16.8,24.42c13,16.4,26.4,33.35,44.72,40.76a58.43,58.43,0,0,0,22,4.12c21.28,0,41.24-10.14,51.73-16.55,13.89,24.81,45.28,40.32,89.24,43.92,45.6,3.73,81.7-16.17,100.77-29.91,17.47,12.6,49.27,30.37,89.58,30.37q5.49,0,11.18-.46c44-3.6,75.35-19.11,89.24-43.92,10.47,6.41,30.45,16.55,51.73,16.55a58.43,58.43,0,0,0,22-4.12c18.32-7.41,31.74-24.36,44.73-40.76a220.14,220.14,0,0,0,16.79-24.42c41.7-15.83,69.21-45.84,71.94-78.62,1.94-23.36-4.54-37.58-12.12-46.12,37.28-17.27,61.7-51.52,62.89-89.11A100.15,100.15,0,0,0,1398.35,1030.42ZM964,862.33c81.71,0,148.17,65.8,148.17,146.68S1045.74,1155.69,964,1155.7h0c-81.7,0-148.17-65.8-148.17-146.69S882.32,862.33,964,862.33Zm-5,492.55c-17.62,12.89-51.81,32.2-95,28.67-43-3.51-72.61-18.76-83.41-43l-.09-.21-.06-.13c-4-9.15-5.39-19.49-4.16-30.76a5,5,0,1,0-9.94-1.1,70.57,70.57,0,0,0,3.43,32c-12.12,7.6-40.72,22.45-65.8,12.31-15.87-6.41-28.46-22.31-40.63-37.68a212.1,212.1,0,0,1-16.91-24.79,5,5,0,0,0-2.59-2.18c-39-14.31-64.67-41.4-67.11-70.71-1.67-20,3.11-34.44,14.2-42.9l.06,0c15.27-11.61,35.37-6.14,39.25-4.92a5,5,0,0,0,3-9.55c-4.52-1.41-27.19-7.56-46,4.88h0c-36.19-15-60.13-47-61.24-82.17-1-32.24,18.08-65.94,44.43-78.37l.13-.06c5.12-2.41,15.59-7.29,27.65-4.23,15.49,3.93,23.48,18.36,25.56,22.7a5,5,0,0,0,9-4.33c-3.28-6.82-13-23.2-32.12-28.06-13-3.31-24.37.47-31.07,3.36-7.61-9.11-28.54-38.36-21.76-77.26,7.3-41.91,40.5-62.07,47.09-65.68a5,5,0,0,0,2.58-4.7c-.9-14.35.47-42.3,19.78-68.22,31.53-42.32,83.58-40.75,85.77-40.67,50.78,2,78.42,41.36,81.4,45.84a5,5,0,0,0,8.33-5.55c-3.2-4.79-32.14-46-85.32-50.05-1.84-11.79-4.63-46.56,20.33-72.64,24-25,63.78-32.7,90.66-17.46,10.61,6,19.5,15.67,25.69,27.9a5,5,0,1,0,8.92-4.51c-7.08-14-17.35-25.09-29.68-32.09a71.83,71.83,0,0,0-27.84-8.75,146.31,146.31,0,0,1,22.57-21.57c22.72-17.43,47.23-25.43,72.85-23.78,32.89,2.12,56.24,19.46,68,30.59V725.82c-12.45-26.67-33.7-44.33-56.51-44.42h-.14c-12.13,0-25,5.65-36.31,15.91a5,5,0,1,0,6.73,7.4c12.79-11.63,24.06-13.29,29.68-13.31,22.8.09,50,25.91,56.55,69.05v92C874.12,855,805.85,924.27,805.85,1009S874.12,1163,959,1165.62Zm443-272.2c-1.11,35.16-25.06,67.15-61.26,82.17-18.79-12.44-41.47-6.29-46-4.88a5,5,0,0,0,3,9.55c3.87-1.22,24-6.68,39.22,4.91l.08.06c11.09,8.46,15.87,22.9,14.2,42.9-2.44,29.31-28.15,56.4-67.1,70.71a4.94,4.94,0,0,0-2.6,2.18,211.07,211.07,0,0,1-16.9,24.78c-12.18,15.38-24.77,31.28-40.64,37.69-25.08,10.14-53.67-4.71-65.79-12.31a70.71,70.71,0,0,0,3.42-32,5,5,0,1,0-9.94,1.1c1.24,11.27-.16,21.61-4.16,30.76l-.06.13-.09.21c-10.8,24.2-40.42,39.45-83.41,43q-5.28.43-10.36.43c-38.24,0-68.39-17.25-84.59-29.1v-72.32c.86-29.37,18.32-54.49,42.46-61.08,18.84-5.15,35.9,2.79,42.36,6.45a5,5,0,1,0,4.92-8.7c-7.53-4.27-27.48-13.53-49.92-7.4-16.89,4.62-31,16.77-39.82,33v-79.18c84.91-2.63,153.17-71.87,153.17-156.61S1053.94,855,969,852.41V786c0-22.38,13-41.88,31.7-47.06,17.14-4.74,32.3,4.71,36.54,7.72a5,5,0,1,0,5.79-8.15c-5.15-3.66-23.6-15.12-45-9.21-12,3.33-22.13,11.32-29,22V605.08c11.76-11.13,35.11-28.46,68-30.58,25.62-1.65,50.13,6.35,72.85,23.78a146,146,0,0,1,22.58,21.57,71.88,71.88,0,0,0-27.85,8.75c-12.33,7-22.59,18.09-29.68,32.09a5,5,0,1,0,8.92,4.51c6.2-12.23,15.08-21.88,25.69-27.9,26.88-15.23,66.7-7.57,90.66,17.46,24.94,26.06,22.17,60.82,20.34,72.63-53.18,4.05-82.13,45.27-85.32,50.06a5,5,0,1,0,8.32,5.55c3-4.48,30.62-43.84,81.4-45.84,2.2-.09,54.24-1.65,85.77,40.67,19.31,25.92,20.68,53.87,19.78,68.22a5,5,0,0,0,2.59,4.7c6.58,3.61,39.78,23.77,47.08,65.68,6.78,38.92-14.16,68.17-21.75,77.27-6.69-2.9-18.05-6.68-31.08-3.37-19.15,4.86-28.84,21.24-32.11,28.06a5,5,0,1,0,9,4.33c2.08-4.34,10.07-18.77,25.56-22.7,12.08-3.06,22.58,1.84,27.68,4.24l.1,0C1383.91,1016.74,1403,1050.44,1402,1082.68Z" transform="translate(-511.01 -559.29)" fill="url(#l)"/><path d="M955.94,1094.7a11.13,11.13,0,0,1-11.12-10.89l-.34-15.53a61.1,61.1,0,0,1-8-3.26l-10.39,10.89a11.77,11.77,0,0,1-16.63.4l-14-13.34a10.7,10.7,0,0,1-.36-15.13l12.06-12.65a61.88,61.88,0,0,1-3.22-8.4H887a11.61,11.61,0,0,1-11.59-11.58V997.1A12.07,12.07,0,0,1,887.43,985l18.48,0a60.27,60.27,0,0,1,3.12-6.54L896.4,965.2a12.56,12.56,0,0,1,.42-17.78l12-11.5a12.58,12.58,0,0,1,17.75.43l13.6,14.25c.56-.23,1.12-.46,1.69-.67l-.44-20.09a12.19,12.19,0,0,1,11.92-12.45l17.85-.39a11.82,11.82,0,0,1,12,11.5l.44,20.57c1.4.46,2.79,1,4.15,1.53L1001.76,936a12.08,12.08,0,0,1,17.06-.4l13,12.41a11.74,11.74,0,0,1,.4,16.59L1019,978.45a60.52,60.52,0,0,1,3.08,6.45h17.58a13,13,0,0,1,13,13v16.55a12.24,12.24,0,0,1-12.23,12.25h-16.33a62.8,62.8,0,0,1-3.25,8.5l12,12.57a10.82,10.82,0,0,1-.36,15.28l-13.39,12.78a12.48,12.48,0,0,1-17.64-.42L991.59,1065c-1.74.85-3.52,1.63-5.33,2.31l.35,16.12a10.57,10.57,0,0,1-10.34,10.81l-20.08.44Zm-20.48-40.87a5,5,0,0,1,2.48.66,52,52,0,0,0,12.72,5.19,5,5,0,0,1,3.74,4.73l.41,19.18a1.14,1.14,0,0,0,1.16,1.11l20.08-.44a.54.54,0,0,0,.41-.18.55.55,0,0,0,.15-.41l-.42-19.76a5,5,0,0,1,3.51-4.88,53.3,53.3,0,0,0,10.42-4.54,5,5,0,0,1,6.1.89l12.5,13.12a2.49,2.49,0,0,0,3.5.08l13.39-12.77a.82.82,0,0,0,0-1.14l-14.42-15.13a5,5,0,0,1-.78-5.83,52.62,52.62,0,0,0,5-13.14,5,5,0,0,1,4.87-3.88h20.18a2.31,2.31,0,0,0,1.58-.66,2.27,2.27,0,0,0,.65-1.58V997.89a3,3,0,0,0-3-3h-21a5,5,0,0,1-4.72-3.38,52.34,52.34,0,0,0-5.35-11.1,5,5,0,0,1,.6-6.14L1025,957.69a1.73,1.73,0,0,0-.06-2.46l-13-12.41a2.08,2.08,0,0,0-2.92.07L992.64,960a5,5,0,0,1-5.78,1.06,51.71,51.71,0,0,0-9.36-3.44,5,5,0,0,1-3.73-4.73l-.52-24.21a1.73,1.73,0,0,0-1.79-1.72l-17.85.39a2.19,2.19,0,0,0-2.14,2.24l.52,23.74a5,5,0,0,1-3.53,4.89,51.55,51.55,0,0,0-7.26,2.84,5,5,0,0,1-5.79-1.05l-16-16.8a2.57,2.57,0,0,0-3.62-.09l-12,11.5a2.57,2.57,0,0,0-.09,3.64l15.25,16a5,5,0,0,1,.6,6.14,52.31,52.31,0,0,0-5.37,11.18,5,5,0,0,1-4.73,3.39l-21.94,0a2.08,2.08,0,0,0-2.08,2.08v18.12a1.6,1.6,0,0,0,1.59,1.59h0l20.83,0h0a5,5,0,0,1,4.87,3.87,52.16,52.16,0,0,0,5,13.06,5,5,0,0,1-.78,5.83l-14.49,15.2a.7.7,0,0,0,0,1l14,13.33a1.76,1.76,0,0,0,2.49-.06l13-13.63A5,5,0,0,1,935.46,1053.83ZM964,1031.7a25.73,25.73,0,1,1,2.59-.12h0C965.77,1031.66,964.9,1031.7,964,1031.7ZM964,990a14.83,14.83,0,0,0-1.63.08,15.86,15.86,0,0,0,3.28,31.55h0a15.86,15.86,0,0,0,9.59-27A15.83,15.83,0,0,0,964,990Z" transform="translate(-511.01 -559.29)" fill="url(#m)"/><path d="M856.74,1158.21a5.1,5.1,0,0,1-1.43-.21,454.12,454.12,0,0,1-197.84-120.41,32.59,32.59,0,0,1-1.08-43.85A430.16,430.16,0,0,1,855.3,865.8a5,5,0,0,1,4.72,8.57c-10.46,9-62.63,58.21-62.87,137-.25,79.4,52.33,129,62.87,138.09a5,5,0,0,1-3.28,8.78ZM838.2,882a420.18,420.18,0,0,0-174.3,118.38,22.25,22.25,0,0,0,.77,30.31A444,444,0,0,0,838.35,1142,208.68,208.68,0,0,1,817,1113.73c-19.92-31.67-30-66.13-29.85-102.42.11-36,10.2-70.18,30-101.54A207.82,207.82,0,0,1,838.2,882Z" transform="translate(-511.01 -559.29)" fill="url(#n)"/><path d="M1072.46,1158.21a5,5,0,0,1-3.27-8.78c10.54-9.13,63.11-58.69,62.87-138.09-.24-78.75-52.42-127.92-62.87-137a5,5,0,0,1,4.72-8.57,430.2,430.2,0,0,1,197.63,126.5,34.35,34.35,0,0,1-1,46.51A454.25,454.25,0,0,1,1073.89,1158,5,5,0,0,1,1072.46,1158.21ZM1091,882a209.53,209.53,0,0,1,21,27.81c19.8,31.36,29.9,65.53,30,101.54.11,36.29-9.93,70.75-29.85,102.42a207.83,207.83,0,0,1-21.36,28.27,443.92,443.92,0,0,0,172.54-110.16,24.32,24.32,0,0,0,.67-32.91,420.11,420.11,0,0,0-173-117Z" transform="translate(-511.01 -559.29)" fill="url(#o)"/><path d="M703.32,734.66a2.51,2.51,0,0,1-2.44-2c-1.11-5-9.89-50.25,21.56-83.11a91.67,91.67,0,0,1,47.33-25.9c18.87-3.9,37.49-1.38,52.45,7.1,11.9,6.75,21.82,17.48,28.68,31a2.5,2.5,0,1,1-4.46,2.26c-6.42-12.68-15.64-22.69-26.69-29-27.83-15.78-69-7.91-93.69,17.9-29.67,31-21.34,73.82-20.3,78.59a2.5,2.5,0,0,1-2.44,3Z" transform="translate(-511.01 -559.29)" fill="#fff"/><path d="M568.35,1002.29a2.53,2.53,0,0,1-1.82-.79c-3.54-3.77-34.4-38.21-26-86.35,7.47-42.88,40-64.68,49.49-70.2-.76-15.78,1.28-44.68,21.34-71.6,33.86-45.45,89.72-43.78,92.08-43.69,54.5,2.16,84.14,44.37,87.35,49.18a2.5,2.5,0,1,1-4.17,2.77c-3.05-4.59-31.36-44.89-83.38-47-2.25-.09-55.57-1.68-87.87,41.68-19.79,26.56-21.2,55.17-20.28,69.87a2.49,2.49,0,0,1-1.29,2.34C587,852.27,552.94,873,545.44,916c-8,45.74,21.36,78.48,24.74,82.06a2.51,2.51,0,0,1-1.83,4.22Z" transform="translate(-511.01 -559.29)" fill="#fff"/><path d="M588,1173a2.39,2.39,0,0,1-.9-.17c-40.38-15.66-67.27-51-68.5-89.92-1.11-35.05,19.84-71.76,48.73-85.39,5.4-2.55,18.06-8.53,32.83-4.78,18.13,4.6,27.35,20.22,30.47,26.72a2.5,2.5,0,0,1-4.5,2.16c-2.2-4.57-10.66-19.84-27.2-24-13-3.31-24.13,1.93-29.47,4.45-27.19,12.83-46.91,47.53-45.86,80.71,1.17,37,26.8,70.48,65.31,85.42A2.5,2.5,0,0,1,588,1173Z" transform="translate(-511.01 -559.29)" fill="#fff"/><path d="M722.32,1363.66a55.92,55.92,0,0,1-21.09-4c-17.71-7.16-30.92-23.85-43.7-40a218.2,218.2,0,0,1-17-24.89c-41.25-15.41-68.49-44.78-71.16-76.81-2.35-28.31,8-42.54,17.13-49.49,18.22-13.91,41.6-7.58,46.1-6.17a2.5,2.5,0,1,1-1.5,4.77c-4.09-1.28-25.3-7-41.57,5.37-11.81,9-16.92,24.19-15.17,45.1,2.52,30.29,28.86,58.2,68.73,72.84a2.49,2.49,0,0,1,1.3,1.09,214.27,214.27,0,0,0,17.11,25.09c12.37,15.63,25.17,31.79,41.65,38.45,29,11.71,62-8.32,71.49-14.74a2.5,2.5,0,1,1,2.81,4.13C769.65,1349.73,746.8,1363.66,722.32,1363.66Z" transform="translate(-511.01 -559.29)" fill="#fff"/><path d="M711.14,894c-11.87,0-24.83-5.79-38.64-17.28a2.5,2.5,0,0,1,3.2-3.84c15.16,12.62,29,17.87,41,15.61,11-2.06,17.5-9.81,25.72-19.62,6.42-7.65,13.69-16.32,24.78-24.54,15.93-11.79,35.22-19.2,57.32-22a2.5,2.5,0,1,1,.62,5c-21.24,2.69-39.73,9.78-55,21.06-10.62,7.87-17.69,16.3-23.93,23.73-8.51,10.16-15.87,18.93-28.63,21.32A34.87,34.87,0,0,1,711.14,894Z" transform="translate(-511.01 -559.29)" fill="#fff"/><path d="M757.1,858.81a2.46,2.46,0,0,1-1.14-.28c-12.93-6.67-25.88-13.65-38.49-20.76-14.78-8.33-22-12.73-25.39-21.62-.93-2.49-5.18-15.44,3.13-25.94,7.68-9.69,19.75-9.54,22.09-9.4a2.49,2.49,0,0,1,2.36,2.63A2.52,2.52,0,0,1,717,785.8c-1.18-.07-11.63-.41-17.9,7.51-6.64,8.39-3.14,19-2.37,21.08,2.62,7,8.12,10.55,23.17,19,12.55,7.07,25.45,14,38.32,20.66a2.5,2.5,0,0,1-1.15,4.73Z" transform="translate(-511.01 -559.29)" fill="#fff"/><path d="M694.67,1237.61a2.43,2.43,0,0,1-1.53-.53,2.5,2.5,0,0,1-.45-3.5c30.53-39.33,62.33-68.59,83-76.37,6.15-2.31,17.6-6.62,31-3a42.09,42.09,0,0,1,15.33,8,2.5,2.5,0,0,1-3.14,3.89,37.09,37.09,0,0,0-13.51-7c-11.8-3.24-22.26.7-27.88,2.81-19.55,7.36-51.27,36.7-80.81,74.75A2.48,2.48,0,0,1,694.67,1237.61Z" transform="translate(-511.01 -559.29)" fill="#fff"/><path d="M738.92,1286.07h-1a2.5,2.5,0,0,1,0-5h0c24.42.34,41.08-12.08,42.47-23.75.34-2.82,0-8.63-5.76-16l-44-47.47a2.5,2.5,0,0,1,3.67-3.41L778.41,1238l.12.15c7,8.78,7.3,16.13,6.87,19.73C783.73,1271.85,765.93,1286.07,738.92,1286.07Z" transform="translate(-511.01 -559.29)" fill="#fff"/><path d="M1142.26,626.89a2.51,2.51,0,0,1-2.08-1.1c-1.59-2.37-39.71-57.87-103.32-53.79-35.14,2.27-59.62,21.49-71.08,32.75a2.52,2.52,0,0,1-3.51,0c-11.46-11.26-35.93-30.48-71.08-32.75-63.6-4.09-101.73,51.43-103.32,53.79a2.5,2.5,0,0,1-4.15-2.79c1.66-2.46,41.38-60.27,107.79-56,35.06,2.26,59.92,20.6,72.52,32.48,12.6-11.88,37.46-30.22,72.51-32.48,66.43-4.28,106.14,53.53,107.79,56a2.49,2.49,0,0,1-2.07,3.89Z" transform="translate(-511.01 -559.29)" fill="#fff"/><path d="M1224.73,734.66a2.46,2.46,0,0,1-.53-.06,2.5,2.5,0,0,1-1.91-3c1-4.77,9.37-47.59-20.29-78.59-24.72-25.81-65.87-33.68-93.7-17.9-11,6.26-20.27,16.27-26.69,29a2.5,2.5,0,0,1-4.46-2.26c6.86-13.56,16.78-24.29,28.68-31,15-8.48,33.59-11,52.45-7.1a91.63,91.63,0,0,1,47.33,25.9c31.45,32.86,22.67,78.07,21.56,83.11A2.5,2.5,0,0,1,1224.73,734.66Z" transform="translate(-511.01 -559.29)" fill="#fff"/><path d="M1359.7,1002.29a2.5,2.5,0,0,1-1.82-4.22c3.37-3.58,32.7-36.32,24.73-82.06-7.49-43-41.58-63.74-48.34-67.46a2.49,2.49,0,0,1-1.29-2.34c.92-14.7-.49-43.31-20.28-69.87-32.3-43.36-85.61-41.77-87.87-41.68-52,2.06-80.33,42.36-83.38,47a2.5,2.5,0,1,1-4.16-2.77c3.2-4.81,32.85-47,87.34-49.18,2.37-.09,58.22-1.76,92.08,43.69,20.06,26.93,22.11,55.82,21.34,71.6,9.49,5.52,42,27.32,49.49,70.2,8.38,48.14-22.48,82.58-26,86.35A2.51,2.51,0,0,1,1359.7,1002.29Z" transform="translate(-511.01 -559.29)" fill="#fff"/><path d="M1340.09,1173a2.5,2.5,0,0,1-.91-4.83c38.51-14.94,64.15-48.47,65.31-85.42,1-33.18-18.66-67.88-45.86-80.71-5.34-2.52-16.44-7.76-29.46-4.45-16.55,4.19-25,19.46-27.2,24a2.5,2.5,0,0,1-4.51-2.16c3.12-6.5,12.34-22.12,30.48-26.72,14.76-3.75,27.42,2.23,32.82,4.78,28.89,13.63,49.84,50.34,48.73,85.39-1.23,39-28.12,74.26-68.5,89.92A2.39,2.39,0,0,1,1340.09,1173Z" transform="translate(-511.01 -559.29)" fill="#fff"/><path d="M1205.73,1363.66c-24.48,0-47.33-13.93-55.08-19.2a2.5,2.5,0,0,1,2.81-4.13c9.45,6.41,42.53,26.45,71.49,14.74,16.48-6.66,29.28-22.82,41.66-38.45a214.19,214.19,0,0,0,17.1-25.09,2.49,2.49,0,0,1,1.3-1.09c39.87-14.64,66.21-42.55,68.74-72.84,1.74-20.91-3.37-36.08-15.18-45.1-16.27-12.41-37.48-6.65-41.57-5.37a2.5,2.5,0,0,1-1.5-4.77c4.51-1.41,27.88-7.74,46.1,6.17,9.12,7,19.49,21.18,17.13,49.49-2.67,32-29.9,61.4-71.15,76.81a220.4,220.4,0,0,1-17,24.89c-12.79,16.14-26,32.83-43.71,40A55.88,55.88,0,0,1,1205.73,1363.66Z" transform="translate(-511.01 -559.29)" fill="#fff"/><path d="M1053.61,1391.48c-40.78,0-72.73-18.53-89.58-31-16.86,12.44-48.82,31-89.59,31q-5.38,0-11-.45c-46-3.76-77.87-20.67-89.75-47.63-4.59-10.4-6.21-22.08-4.81-34.73a2.5,2.5,0,0,1,5,.54c-1.3,11.77.19,22.59,4.41,32.18,11.11,25.19,41.51,41,85.59,44.65,45.64,3.74,81.4-17.6,98.65-30.64a2.48,2.48,0,0,1,3,0c15.9,12,47.51,31.07,88.09,31.08,3.46,0,7-.14,10.56-.44,44.08-3.6,74.48-19.46,85.59-44.65,4.22-9.59,5.71-20.41,4.42-32.18a2.5,2.5,0,0,1,5-.54c1.39,12.65-.23,24.34-4.82,34.73-11.88,27-43.76,43.87-89.75,47.63C1060.87,1391.33,1057.2,1391.48,1053.61,1391.48Z" transform="translate(-511.01 -559.29)" fill="#fff"/><path d="M1216.91,894a34.87,34.87,0,0,1-6.48-.6c-12.76-2.39-20.12-11.16-28.63-21.31-6.24-7.44-13.31-15.87-23.93-23.74-15.23-11.28-33.72-18.37-55-21.06a2.5,2.5,0,1,1,.63-5c22.1,2.8,41.38,10.21,57.31,22,11.1,8.22,18.37,16.89,24.78,24.54,8.22,9.81,14.72,17.56,25.72,19.62,12,2.26,25.84-3,41-15.61a2.5,2.5,0,1,1,3.19,3.84C1241.74,888.23,1228.78,894,1216.91,894Z" transform="translate(-511.01 -559.29)" fill="#fff"/><path d="M1171,858.81a2.51,2.51,0,0,1-1.15-4.73c12.88-6.64,25.78-13.59,38.32-20.66,15.05-8.48,20.55-12.07,23.17-19,.77-2,4.27-12.69-2.37-21.08-6.27-7.92-16.72-7.58-17.89-7.51a2.52,2.52,0,0,1-2.64-2.36,2.49,2.49,0,0,1,2.36-2.63c2.34-.14,14.42-.29,22.09,9.4,8.31,10.49,4.07,23.45,3.13,25.94-3.35,8.89-10.6,13.29-25.39,21.62-12.6,7.11-25.55,14.09-38.49,20.76A2.43,2.43,0,0,1,1171,858.81Z" transform="translate(-511.01 -559.29)" fill="#fff"/><path d="M1233.38,1237.61a2.48,2.48,0,0,1-2-1c-29.54-38.05-61.26-67.39-80.81-74.75-5.62-2.11-16.08-6.05-27.87-2.81a37,37,0,0,0-13.51,7,2.5,2.5,0,0,1-3.15-3.89,42.09,42.09,0,0,1,15.33-8c13.36-3.67,24.81.64,31,3,20.67,7.78,52.47,37,83,76.37a2.5,2.5,0,0,1-2,4Z" transform="translate(-511.01 -559.29)" fill="#fff"/><path d="M1189.13,1286.07c-27,0-44.81-14.22-46.48-28.17-.43-3.6-.11-11,6.87-19.73l.13-.15,44.08-47.55a2.5,2.5,0,0,1,3.67,3.41l-44,47.47c-5.8,7.33-6.1,13.14-5.76,16,1.38,11.52,17.61,23.76,41.54,23.76h.93a2.53,2.53,0,0,1,2.53,2.47,2.49,2.49,0,0,1-2.46,2.53Z" transform="translate(-511.01 -559.29)" fill="#fff"/><path d="M964,859.83h0a2.49,2.49,0,0,1-2.49-2.5l.38-258.41a2.5,2.5,0,0,1,2.5-2.5h0a2.52,2.52,0,0,1,2.5,2.51l-.38,258.4A2.51,2.51,0,0,1,964,859.83Z" transform="translate(-511.01 -559.29)" fill="#fff"/><path d="M964,1359.89a2.5,2.5,0,0,1-2.5-2.5V1160.7a2.5,2.5,0,0,1,5,0v196.69A2.5,2.5,0,0,1,964,1359.89Z" transform="translate(-511.01 -559.29)" fill="#fff"/><path d="M964.17,763.5a2.51,2.51,0,0,1-2.48-2.15c-2.91-20.62-10.89-39.37-22.47-52.79-10.89-12.63-23.93-19.61-36.73-19.66-6,0-18,1.76-31.37,14a2.5,2.5,0,1,1-3.37-3.7c14.58-13.25,27.91-15.26,34.64-15.26h.12c14.27.05,28.65,7.65,40.5,21.39,12.19,14.14,20.59,33.8,23.64,55.36a2.5,2.5,0,0,1-2.13,2.83A2.11,2.11,0,0,1,964.17,763.5Z" transform="translate(-511.01 -559.29)" fill="#fff"/><path d="M964.12,792a2.5,2.5,0,0,1-2.49-2.36c-1.5-27.2,14.1-51.56,37.11-57.92,20.32-5.62,38,5.34,42.87,8.83a2.5,2.5,0,1,1-2.9,4.08c-4.46-3.17-20.44-13.12-38.64-8.09-20.76,5.74-34.82,28-33.45,52.82a2.5,2.5,0,0,1-2.35,2.64Z" transform="translate(-511.01 -559.29)" fill="#fff"/><path d="M964,1284.91H964a2.5,2.5,0,0,1-2.42-2.58c1-32.63,20.69-60.63,48-68.08,21.54-5.89,40.77,3,48,7.15a2.5,2.5,0,1,1-2.46,4.35c-6.73-3.81-24.5-12.08-44.25-6.68-25.19,6.88-43.4,33-44.3,63.41A2.5,2.5,0,0,1,964,1284.91Z" transform="translate(-511.01 -559.29)" fill="#fff"/><path d="M964,1163.2c-86.76,0-157.34-69.17-157.34-154.19S877.26,854.83,964,854.83,1121.37,924,1121.37,1009,1050.79,1163.2,964,1163.2Zm0-303.37c-84,0-152.34,66.92-152.34,149.18S880,1158.2,964,1158.2s152.35-66.93,152.35-149.19S1048,859.83,964,859.83Z" transform="translate(-511.01 -559.29)" fill="#fff"/><path d="M955.94,1092.2a8.64,8.64,0,0,1-8.62-8.45l-.38-17.32a59.6,59.6,0,0,1-11-4.48l-11.67,12.24a9.29,9.29,0,0,1-13.1.31l-14-13.33a8.22,8.22,0,0,1-.27-11.61l13.25-13.9a59.54,59.54,0,0,1-4.33-11.38l-18.87,0h0a9.1,9.1,0,0,1-9.09-9.08V997.1a9.58,9.58,0,0,1,9.58-9.59l20.18,0a59.41,59.41,0,0,1,4.5-9.42l-13.91-14.6a10.06,10.06,0,0,1,.33-14.24l12.06-11.5a10.08,10.08,0,0,1,14.22.34l14.78,15.5q2.39-1.05,4.85-1.89L944,929.79a9.7,9.7,0,0,1,9.48-9.9l17.85-.39a9.28,9.28,0,0,1,9.45,9l.48,22.36a63,63,0,0,1,7.22,2.66l15.12-15.85a9.58,9.58,0,0,1,13.53-.32l13,12.4a9.25,9.25,0,0,1,.31,13.07l-14.49,15.2a60.11,60.11,0,0,1,4.47,9.33h19.28a10.5,10.5,0,0,1,10.5,10.49v16.55a9.75,9.75,0,0,1-9.73,9.75h-18.22a60.47,60.47,0,0,1-4.36,11.47l13.18,13.83a8.32,8.32,0,0,1-.27,11.74l-13.4,12.78a10,10,0,0,1-14.1-.34L992.11,1062a60.06,60.06,0,0,1-8.39,3.64l.39,17.92a8.08,8.08,0,0,1-7.9,8.25l-20.08.44Zm-20.48-35.87a2.53,2.53,0,0,1,1.24.33A54.73,54.73,0,0,0,950,1062.1a2.51,2.51,0,0,1,1.87,2.36l.42,19.19a3.59,3.59,0,0,0,1.11,2.54,3.74,3.74,0,0,0,2.6,1l20.07-.44a3.08,3.08,0,0,0,2.16-1,3,3,0,0,0,.85-2.19l-.43-19.77a2.51,2.51,0,0,1,1.76-2.44,54.87,54.87,0,0,0,10.92-4.75,2.51,2.51,0,0,1,3,.45l12.5,13.11a5,5,0,0,0,7,.17l13.39-12.77a3.32,3.32,0,0,0,.12-4.68L1013,1037.82a2.5,2.5,0,0,1-.39-2.92,55,55,0,0,0,5.21-13.77,2.5,2.5,0,0,1,2.43-1.94h20.18a4.79,4.79,0,0,0,3.35-1.39,4.74,4.74,0,0,0,1.38-3.35V997.89a5.48,5.48,0,0,0-5.5-5.5h-21a2.51,2.51,0,0,1-2.36-1.69,54.67,54.67,0,0,0-5.6-11.63,2.5,2.5,0,0,1,.3-3.07l15.82-16.59a4.25,4.25,0,0,0-.14-6l-13-12.4a4.58,4.58,0,0,0-6.46.15l-16.36,17.15a2.5,2.5,0,0,1-2.89.53,54.82,54.82,0,0,0-9.8-3.61,2.51,2.51,0,0,1-1.87-2.36l-.52-24.22a4.26,4.26,0,0,0-4.25-4.16h-.1l-17.84.39a4.68,4.68,0,0,0-4.59,4.79l.52,23.74a2.51,2.51,0,0,1-1.77,2.45,54.57,54.57,0,0,0-7.61,3,2.51,2.51,0,0,1-2.89-.53l-16-16.8a5.07,5.07,0,0,0-7.15-.17L902,952.85a5.08,5.08,0,0,0-.17,7.17l15.25,16a2.5,2.5,0,0,1,.3,3.07,55,55,0,0,0-5.63,11.72,2.49,2.49,0,0,1-2.36,1.69l-21.94,0a4.58,4.58,0,0,0-4.58,4.58v18.12a4.1,4.1,0,0,0,4.09,4.09h0l20.83,0h0a2.49,2.49,0,0,1,2.43,1.94,55.42,55.42,0,0,0,5.19,13.68,2.5,2.5,0,0,1-.39,2.92L900.53,1053a3.22,3.22,0,0,0,.11,4.54l14,13.33a4.27,4.27,0,0,0,6-.14l13-13.63A2.48,2.48,0,0,1,935.46,1056.33Zm28.59-27.13a23.25,23.25,0,1,1,2.34-.11h0C965.6,1029.16,964.82,1029.2,964.05,1029.2Zm0-41.71c-.62,0-1.25,0-1.88.09a18.36,18.36,0,0,0,3.78,36.53h0a18.36,18.36,0,0,0-1.9-36.62Z" transform="translate(-511.01 -559.29)" fill="#fff"/><path d="M856.74,1155.71a2.53,2.53,0,0,1-.71-.1,451.72,451.72,0,0,1-196.76-119.75,30.07,30.07,0,0,1-1-40.47A427.82,427.82,0,0,1,856,868.19a2.5,2.5,0,0,1,2.36,4.29c-10.6,9.18-63.49,59-63.73,138.85-.25,80.49,53,130.74,63.73,140a2.5,2.5,0,0,1-1.64,4.39ZM847,876.29a422.85,422.85,0,0,0-185,122.4,25,25,0,0,0,.84,33.7,446.67,446.67,0,0,0,184.21,115.19,204.12,204.12,0,0,1-28-35.18c-19.66-31.26-29.57-65.27-29.46-101.09.1-35.53,10.07-69.24,29.62-100.2A204.08,204.08,0,0,1,847,876.29Z" transform="translate(-511.01 -559.29)" fill="#fff"/><path d="M1072.46,1155.71a2.5,2.5,0,0,1-1.64-4.39c10.69-9.25,64-59.5,63.74-140-.25-79.83-53.14-129.67-63.74-138.85a2.5,2.5,0,0,1,2.36-4.29A427.69,427.69,0,0,1,1269.67,994a31.84,31.84,0,0,1-.9,43.1,451.75,451.75,0,0,1-195.59,118.55A2.55,2.55,0,0,1,1072.46,1155.71Zm9.74-279.42a203.59,203.59,0,0,1,27.73,34.82c19.55,31,29.52,64.67,29.63,100.2.11,35.82-9.8,69.83-29.47,101.09a204.14,204.14,0,0,1-28,35.18,446.51,446.51,0,0,0,183-114,26.82,26.82,0,0,0,.75-36.31,422.84,422.84,0,0,0-183.73-121Z" transform="translate(-511.01 -559.29)" fill="#fff"/></svg>