<svg xmlns="http://www.w3.org/2000/svg" xmlns:xlink="http://www.w3.org/1999/xlink" width="830.71" height="794.26" viewBox="0 0 830.71 794.26"><defs><linearGradient id="a" x1="1358.86" y1="818.37" x2="1380.29" y2="818.37" gradientUnits="userSpaceOnUse"><stop offset="0" stop-color="blue"/><stop offset="0.25" stop-color="#f0f"/><stop offset="0.53" stop-color="#ff5100"/><stop offset="0.78" stop-color="#26ff00"/><stop offset="1" stop-color="#ff0"/></linearGradient><linearGradient id="b" x1="1232.6" y1="703.92" x2="1380.29" y2="703.92" xlink:href="#a"/><linearGradient id="c" x1="619.83" y1="914.97" x2="641.26" y2="914.97" xlink:href="#a"/><linearGradient id="d" x1="619.83" y1="1029.41" x2="767.52" y2="1029.41" xlink:href="#a"/><linearGradient id="e" x1="584.65" y1="1000" x2="1415.35" y2="1000" xlink:href="#a"/><linearGradient id="f" x1="663.62" y1="894.29" x2="795.95" y2="894.29" xlink:href="#a"/><linearGradient id="g" x1="799.4" y1="894.29" x2="931.72" y2="894.29" xlink:href="#a"/><linearGradient id="h" x1="935.17" y1="894.29" x2="1067.5" y2="894.29" xlink:href="#a"/><linearGradient id="i" x1="1070.95" y1="894.29" x2="1203.27" y2="894.29" xlink:href="#a"/><linearGradient id="j" x1="1206.72" y1="894.29" x2="1339.05" y2="894.29" xlink:href="#a"/><linearGradient id="k" x1="590" y1="1000" x2="1410" y2="1000" gradientUnits="userSpaceOnUse"><stop offset="0" stop-color="#13c0ff"/><stop offset="0.18" stop-color="#31cdd3"/><stop offset="0.58" stop-color="#70e678"/><stop offset="0.87" stop-color="#97f73f"/><stop offset="1" stop-color="#a6fd29"/></linearGradient><linearGradient id="l" x1="1364.21" y1="818.37" x2="1374.93" y2="818.37" xlink:href="#k"/><linearGradient id="m" x1="1237.96" y1="703.92" x2="1374.93" y2="703.92" xlink:href="#k"/><linearGradient id="n" x1="625.19" y1="914.97" x2="635.9" y2="914.97" xlink:href="#k"/><linearGradient id="o" x1="625.19" y1="1029.41" x2="762.16" y2="1029.41" xlink:href="#k"/><linearGradient id="p" x1="733.63" y1="1205.58" x2="924.29" y2="1205.58" xlink:href="#k"/><linearGradient id="q" x1="668.62" y1="894.29" x2="790.94" y2="894.29" xlink:href="#k"/><linearGradient id="r" x1="804.4" y1="894.29" x2="926.72" y2="894.29" xlink:href="#k"/><linearGradient id="s" x1="940.17" y1="894.29" x2="1062.5" y2="894.29" xlink:href="#k"/><linearGradient id="t" x1="1075.95" y1="894.29" x2="1198.27" y2="894.29" xlink:href="#k"/><linearGradient id="u" x1="1211.72" y1="894.29" x2="1334.05" y2="894.29" xlink:href="#k"/></defs><path d="M1369.57,855.84a10.7,10.7,0,0,1-10.71-10.71V791.61a10.72,10.72,0,1,1,21.43,0v53.52A10.71,10.71,0,0,1,1369.57,855.84Z" transform="translate(-584.65 -602.87)" fill="url(#a)"/><path d="M1369.57,773.85a10.7,10.7,0,0,1-10.71-10.71v-85a22.78,22.78,0,0,0-22.75-22.75h-92.8a10.72,10.72,0,0,1,0-21.43h92.8a44.23,44.23,0,0,1,44.18,44.18v85A10.71,10.71,0,0,1,1369.57,773.85Z" transform="translate(-584.65 -602.87)" fill="url(#b)"/><path d="M630.54,952.44a10.71,10.71,0,0,1-10.71-10.71V888.21a10.72,10.72,0,1,1,21.43,0v53.52A10.71,10.71,0,0,1,630.54,952.44Z" transform="translate(-584.65 -602.87)" fill="url(#c)"/><path d="M756.8,1099.34H664a44.21,44.21,0,0,1-44.17-44.17v-85a10.72,10.72,0,1,1,21.43,0v85A22.76,22.76,0,0,0,664,1077.91h92.8a10.72,10.72,0,1,1,0,21.43Z" transform="translate(-584.65 -602.87)" fill="url(#d)"/><path d="M1368,602.87H632a47.39,47.39,0,0,0-47.34,47.35v493.07A47.4,47.4,0,0,0,632,1190.64h66.53v195.77a10.71,10.71,0,0,0,18.16,7.71L927,1190.64H1368a47.4,47.4,0,0,0,47.34-47.35V650.22A47.39,47.39,0,0,0,1368,602.87ZM606.08,650.22A25.94,25.94,0,0,1,632,624.3h736a25.94,25.94,0,0,1,25.91,25.92v438.41a25.94,25.94,0,0,1-25.91,25.92H922.61a10.73,10.73,0,0,0-7.46,3L720,1306.48V1125.27a10.71,10.71,0,0,0-10.71-10.72H632a25.94,25.94,0,0,1-25.91-25.92Zm25.91,519a26,26,0,0,1-25.91-25.92v-15.06c.46.3.93.6,1.41.89s.93.56,1.41.83c0,0,0,0,.06,0,.82.46,1.67.9,2.53,1.32l.8.37c.43.21.86.4,1.3.58s.95.4,1.43.58.75.29,1.13.42l.67.23,1.15.38.67.2c.41.13.83.24,1.24.34l1.43.37c.64.14,1.29.28,1.93.4l1.55.26.16,0c.54.09,1.08.15,1.61.21a.78.78,0,0,0,.22,0c.39,0,.8.09,1.21.12l.37,0,.84.05,1.14.06,1.65,0h66.53v33.23Zm761.93-25.92a26,26,0,0,1-25.91,25.92H922.61a10.69,10.69,0,0,0-7.46,3L720,1361.14V1336.3L927,1136H1368l1.65,0,1.14-.06.84-.05.37,0c.41,0,.82-.08,1.21-.12a.78.78,0,0,0,.22,0c.53-.06,1.07-.12,1.61-.21l.16,0,1.55-.26c.64-.12,1.29-.26,1.93-.4l1.43-.37c.41-.1.83-.21,1.24-.34l.67-.2,1.15-.38.67-.23c.38-.13.75-.27,1.13-.42s1-.38,1.43-.58.87-.37,1.3-.58l.8-.37c.86-.42,1.71-.86,2.53-1.32,0,0,0,0,.06,0,.48-.27,1-.54,1.41-.83s1-.59,1.41-.89Z" transform="translate(-584.65 -602.87)" fill="url(#e)"/><path d="M764.49,957.7a9.92,9.92,0,0,1-5.87-1.91l-28.84-20.94L701,955.79a10,10,0,0,1-15.39-11.18l11-33.89-28.84-21a10,10,0,0,1,5.88-18.09h35.64l11-33.89a10,10,0,0,1,19,0l11,33.89h35.63a10,10,0,0,1,5.88,18.09l-28.83,21,11,33.89a10,10,0,0,1-9.51,13.09Zm-60.09-66,9.81,7.13A10,10,0,0,1,717.84,910l-3.74,11.53,9.81-7.12a10,10,0,0,1,11.75,0l9.81,7.12L741.72,910a10,10,0,0,1,3.64-11.18l9.81-7.13H743a10,10,0,0,1-9.51-6.91l-3.75-11.53L726,884.77a10,10,0,0,1-9.51,6.91Z" transform="translate(-584.65 -602.87)" fill="url(#f)"/><path d="M900.27,957.7a10,10,0,0,1-5.88-1.91l-28.83-20.94-28.83,20.94a10,10,0,0,1-15.39-11.18l11-33.89-28.83-21a10,10,0,0,1,5.88-18.09H845l11-33.89a10,10,0,0,1,19,0l11,33.89h35.64a10,10,0,0,1,5.88,18.09l-28.83,21,11,33.89a10,10,0,0,1-9.51,13.09Zm-34.71-45.21a10,10,0,0,1,5.88,1.91l9.81,7.12L877.5,910a10,10,0,0,1,3.63-11.18l9.81-7.13H878.82a10,10,0,0,1-9.51-6.91l-3.75-11.53-3.75,11.53a10,10,0,0,1-9.51,6.91H840.17l9.81,7.13A10,10,0,0,1,853.62,910l-3.75,11.53,9.81-7.12A10,10,0,0,1,865.56,912.49Z" transform="translate(-584.65 -602.87)" fill="url(#g)"/><path d="M966.62,957.7a10,10,0,0,1-9.51-13.09l11-33.89-28.84-21a10,10,0,0,1,5.88-18.09h35.64l11-33.89a10,10,0,0,1,19,0l11,33.89h35.64a10,10,0,0,1,5.87,18.09l-28.83,21,11,33.89a10,10,0,0,1-15.38,11.18l-28.84-20.94L972.5,955.79A9.93,9.93,0,0,1,966.62,957.7Zm9.33-66,9.81,7.13A10,10,0,0,1,989.39,910l-3.74,11.53,9.81-7.12a10,10,0,0,1,11.75,0l9.81,7.12L1013.27,910a10,10,0,0,1,3.64-11.18l9.81-7.13h-12.13a10,10,0,0,1-9.51-6.91l-3.75-11.53-3.74,11.53a10,10,0,0,1-9.51,6.91Z" transform="translate(-584.65 -602.87)" fill="url(#h)"/><path d="M1171.82,957.7a10,10,0,0,1-5.88-1.91l-28.83-20.94-28.83,20.94a10,10,0,0,1-15.39-11.18l11-33.89-28.83-21a10,10,0,0,1,5.88-18.09h35.64l11-33.89a10,10,0,0,1,19,0l11,33.89h35.64a10,10,0,0,1,5.88,18.09l-28.83,21,11,33.89a10,10,0,0,1-9.51,13.09Zm-60.1-66,9.82,7.13a10,10,0,0,1,3.63,11.18l-3.75,11.53,9.81-7.12a10,10,0,0,1,11.76,0l9.81,7.12L1149.05,910a10,10,0,0,1,3.63-11.18l9.81-7.13h-12.12a10,10,0,0,1-9.51-6.91l-3.75-11.53-3.75,11.53a10,10,0,0,1-9.51,6.91Z" transform="translate(-584.65 -602.87)" fill="url(#i)"/><path d="M1307.59,957.7a9.92,9.92,0,0,1-5.87-1.91l-28.84-20.94-28.83,20.94a10,10,0,0,1-15.39-11.18l11-33.89-28.83-21a10,10,0,0,1,5.87-18.09h35.64l11-33.89a10,10,0,0,1,19,0l11,33.89H1329a10,10,0,0,1,5.88,18.09l-28.83,21,11,33.89a10,10,0,0,1-9.51,13.09Zm-60.09-66,9.81,7.13a10,10,0,0,1,3.63,11.18l-3.74,11.53,9.81-7.12a10,10,0,0,1,11.75,0l9.81,7.12L1284.83,910a10,10,0,0,1,3.63-11.18l9.81-7.13h-12.13a10,10,0,0,1-9.51-6.91l-3.75-11.53-3.74,11.53a10,10,0,0,1-9.51,6.91Z" transform="translate(-584.65 -602.87)" fill="url(#j)"/><path d="M1368,608.23H632a42,42,0,0,0-42,42v493.07a42,42,0,0,0,42,42h71.89v201.13a5.35,5.35,0,0,0,3.27,4.94,5.42,5.42,0,0,0,2.09.42,5.29,5.29,0,0,0,3.72-1.51l211.81-205H1368a42,42,0,0,0,42-42V650.22A42,42,0,0,0,1368,608.23Zm-767.29,42A31.3,31.3,0,0,1,632,618.94h736a31.3,31.3,0,0,1,31.27,31.28v438.41a31.31,31.31,0,0,1-31.27,31.28H922.61a5.35,5.35,0,0,0-3.73,1.5L714.59,1319.13V1125.27a5.36,5.36,0,0,0-5.35-5.36H632a31.31,31.31,0,0,1-31.27-31.28ZM632,1174.56a31.3,31.3,0,0,1-31.27-31.27v-26.67c.23.27.48.53.73.79s.46.48.68.72l.9.89c.44.41.88.81,1.33,1.2a42.3,42.3,0,0,0,5.94,4.35l.74.44c.2.12.41.24.63.35a8.06,8.06,0,0,0,.71.39c1,.55,2.11,1.07,3.2,1.53.34.15.67.29,1,.42.78.31,1.57.6,2.37.85.24.09.5.17.75.24s.71.21,1.08.31.65.18,1,.27c.59.15,1.17.28,1.76.4l.83.16c.49.09,1,.17,1.48.24.27,0,.54.08.81.11.62.09,1.24.15,1.87.2.39,0,.76.06,1.15.08q1.16.06,2.31.06h71.89v43.94Zm767.29-31.27a31.3,31.3,0,0,1-31.27,31.27H922.61a5.39,5.39,0,0,0-3.73,1.5L714.59,1373.77V1334l210.18-203.41H1368q1.15,0,2.31-.06c.39,0,.76,0,1.15-.08.63,0,1.25-.11,1.87-.2.27,0,.54-.06.81-.11.49-.07,1-.15,1.48-.24l.83-.16c.59-.12,1.17-.25,1.76-.4.33-.09.66-.17,1-.27s.72-.19,1.08-.31.51-.15.75-.24c.8-.25,1.59-.54,2.37-.85.35-.13.68-.27,1-.42,1.09-.46,2.17-1,3.2-1.53a8.06,8.06,0,0,0,.71-.39c.22-.11.43-.23.63-.35l.74-.44a42.3,42.3,0,0,0,5.94-4.35c.45-.39.89-.79,1.33-1.2l.9-.89c.22-.24.46-.47.68-.72s.5-.52.73-.79Z" transform="translate(-584.65 -602.87)" fill="url(#k)"/><path d="M1369.57,850.49a5.36,5.36,0,0,1-5.36-5.36V791.61a5.36,5.36,0,0,1,10.72,0v53.52A5.36,5.36,0,0,1,1369.57,850.49Z" transform="translate(-584.65 -602.87)" fill="url(#l)"/><path d="M1369.57,768.5a5.36,5.36,0,0,1-5.36-5.36v-85a28.12,28.12,0,0,0-28.1-28.1h-92.8a5.36,5.36,0,0,1,0-10.72h92.8a38.86,38.86,0,0,1,38.82,38.82v85A5.36,5.36,0,0,1,1369.57,768.5Z" transform="translate(-584.65 -602.87)" fill="url(#m)"/><path d="M630.54,947.09a5.35,5.35,0,0,1-5.35-5.36V888.21a5.36,5.36,0,1,1,10.71,0v53.52A5.36,5.36,0,0,1,630.54,947.09Z" transform="translate(-584.65 -602.87)" fill="url(#n)"/><path d="M756.8,1094H664a38.86,38.86,0,0,1-38.81-38.82v-85a5.36,5.36,0,1,1,10.71,0v85a28.13,28.13,0,0,0,28.1,28.1h92.8a5.36,5.36,0,1,1,0,10.72Z" transform="translate(-584.65 -602.87)" fill="url(#o)"/><path d="M733.63,1297.83h0l190.66-184.53Z" transform="translate(-584.65 -602.87)" fill="url(#p)"/><path d="M764.49,952.7a5,5,0,0,1-2.94-1l-31.77-23.08L698,951.75a5,5,0,0,1-7.69-5.59l12.13-37.35-31.77-23.08a5,5,0,0,1,2.94-9.05h39.27L725,839.33a5,5,0,0,1,9.51,0l12.13,37.35h39.27a5,5,0,0,1,2.94,9.05l-31.77,23.08,12.14,37.35a5,5,0,0,1-4.76,6.54Zm-34.71-35.21a5,5,0,0,1,2.94,1L755,934.61l-8.5-26.17a5,5,0,0,1,1.82-5.59l22.26-16.17H743a5,5,0,0,1-4.75-3.45l-8.51-26.17-8.5,26.17a5,5,0,0,1-4.75,3.45H689l22.26,16.17a5,5,0,0,1,1.82,5.59l-8.51,26.17,22.26-16.17A5,5,0,0,1,729.78,917.49Z" transform="translate(-584.65 -602.87)" fill="url(#q)"/><path d="M900.27,952.7a5,5,0,0,1-2.94-1l-31.77-23.08-31.77,23.08a5,5,0,0,1-7.7-5.59l12.14-37.35-31.77-23.08a5,5,0,0,1,2.94-9.05h39.27l12.13-37.35a5,5,0,0,1,9.51,0l12.14,37.35h39.27a5,5,0,0,1,2.94,9.05l-31.77,23.08L905,946.16a5,5,0,0,1-4.75,6.54Zm-34.71-35.21a5,5,0,0,1,2.94,1l22.26,16.17-8.51-26.17a5,5,0,0,1,1.82-5.59l22.26-16.17H878.82a5,5,0,0,1-4.76-3.45l-8.5-26.17-8.5,26.17a5,5,0,0,1-4.76,3.45H824.79l22.26,16.17a5,5,0,0,1,1.81,5.59l-8.5,26.17,22.26-16.17A5,5,0,0,1,865.56,917.49Z" transform="translate(-584.65 -602.87)" fill="url(#r)"/><path d="M1036,952.7a5,5,0,0,1-2.94-1l-31.77-23.08-31.77,23.08a5,5,0,0,1-7.69-5.59L974,908.81l-31.77-23.08a5,5,0,0,1,2.94-9.05h39.27l12.14-37.35a5,5,0,0,1,9.51,0l12.13,37.35h39.28a5,5,0,0,1,2.93,9.05l-31.77,23.08,12.14,37.35a5,5,0,0,1-4.76,6.54Zm-75.48-66,22.26,16.17a5,5,0,0,1,1.82,5.59l-8.5,26.17,22.26-16.17a5,5,0,0,1,5.87,0l22.26,16.17-8.5-26.17a5,5,0,0,1,1.82-5.59l22.26-16.17h-27.52a5,5,0,0,1-4.75-3.45l-8.51-26.17-8.5,26.17a5,5,0,0,1-4.75,3.45Z" transform="translate(-584.65 -602.87)" fill="url(#s)"/><path d="M1171.82,952.7a5,5,0,0,1-2.94-1l-31.77-23.08-31.77,23.08a5,5,0,0,1-7.7-5.59l12.14-37.35L1078,885.73a5,5,0,0,1,2.94-9.05h39.27l12.13-37.35a5,5,0,0,1,9.51,0L1154,876.68h39.27a5,5,0,0,1,2.94,9.05l-31.77,23.08,12.13,37.35a5,5,0,0,1-4.75,6.54Zm-75.48-66,22.26,16.17a5,5,0,0,1,1.81,5.59l-8.5,26.17,22.26-16.17a5,5,0,0,1,5.88,0l22.26,16.17-8.5-26.17a5,5,0,0,1,1.81-5.59l22.26-16.17h-27.51a5,5,0,0,1-4.76-3.45l-8.5-26.17-8.5,26.17a5,5,0,0,1-4.76,3.45Z" transform="translate(-584.65 -602.87)" fill="url(#t)"/><path d="M1307.59,952.7a5,5,0,0,1-2.94-1l-31.77-23.08-31.77,23.08a5,5,0,0,1-7.69-5.59l12.13-37.35-31.76-23.08a5,5,0,0,1,2.93-9.05H1256l12.14-37.35a5,5,0,0,1,9.51,0l12.14,37.35H1329a5,5,0,0,1,2.94,9.05l-31.77,23.08,12.14,37.35a5,5,0,0,1-4.76,6.54Zm-75.48-66,22.26,16.17a5,5,0,0,1,1.82,5.59l-8.5,26.17L1270,918.44a5,5,0,0,1,5.87,0l22.26,16.17-8.5-26.17a5,5,0,0,1,1.82-5.59l22.26-16.17h-27.52a5,5,0,0,1-4.75-3.45l-8.51-26.17-8.5,26.17a5,5,0,0,1-4.75,3.45Z" transform="translate(-584.65 -602.87)" fill="url(#u)"/><path d="M709.23,1334.26a2.38,2.38,0,0,1-1-.2,2.5,2.5,0,0,1-1.53-2.3v-204H632a39.17,39.17,0,0,1-39.13-39.13V650.22A39.18,39.18,0,0,1,632,611.08h736a39.18,39.18,0,0,1,39.13,39.14v438.41a39.17,39.17,0,0,1-39.13,39.13H923.62L711,1333.56A2.48,2.48,0,0,1,709.23,1334.26ZM632,616.08a34.18,34.18,0,0,0-34.13,34.14v438.41A34.17,34.17,0,0,0,632,1122.76h77.24a2.49,2.49,0,0,1,2.5,2.5v200.6l209.14-202.39a2.46,2.46,0,0,1,1.74-.71H1368a34.17,34.17,0,0,0,34.13-34.13V650.22A34.18,34.18,0,0,0,1368,616.08Z" transform="translate(-584.65 -602.87)" fill="#fff"/><path d="M1369.57,847.63a2.5,2.5,0,0,1-2.5-2.5V791.61a2.5,2.5,0,1,1,5,0v53.52A2.5,2.5,0,0,1,1369.57,847.63Z" transform="translate(-584.65 -602.87)" fill="#fff"/><path d="M1369.57,765.64a2.5,2.5,0,0,1-2.5-2.5v-85a31,31,0,0,0-31-31h-92.8a2.5,2.5,0,0,1,0-5h92.8a36,36,0,0,1,36,36v85A2.5,2.5,0,0,1,1369.57,765.64Z" transform="translate(-584.65 -602.87)" fill="#fff"/><path d="M630.54,944.23a2.5,2.5,0,0,1-2.5-2.5V888.21a2.5,2.5,0,0,1,5,0v53.52A2.5,2.5,0,0,1,630.54,944.23Z" transform="translate(-584.65 -602.87)" fill="#fff"/><path d="M756.8,1091.13H664a36,36,0,0,1-36-36v-85a2.5,2.5,0,0,1,5,0v85a31,31,0,0,0,31,31h92.8a2.5,2.5,0,0,1,0,5Z" transform="translate(-584.65 -602.87)" fill="#fff"/><path d="M709.23,1388.92a2.55,2.55,0,0,1-1-.2,2.5,2.5,0,0,1-1.53-2.3v-54.66a2.51,2.51,0,0,1,.77-1.8l213.37-206.49a2.46,2.46,0,0,1,1.74-.71H1368a34.17,34.17,0,0,0,34.13-34.13,2.5,2.5,0,0,1,5,0v54.65a39.18,39.18,0,0,1-39.13,39.14H923.62L711,1388.21A2.49,2.49,0,0,1,709.23,1388.92Zm2.5-56.1v47.7l209.14-202.4a2.49,2.49,0,0,1,1.74-.7H1368a34.18,34.18,0,0,0,34.13-34.14v-35.52a39.15,39.15,0,0,1-34.13,20H923.62Z" transform="translate(-584.65 -602.87)" fill="#fff"/><path d="M709.23,1182.42H632a39.18,39.18,0,0,1-39.13-39.14v-54.65a2.5,2.5,0,0,1,5,0A34.17,34.17,0,0,0,632,1122.76h77.24a2.49,2.49,0,0,1,2.5,2.5v54.66A2.49,2.49,0,0,1,709.23,1182.42Zm-111.37-74.66v35.52A34.18,34.18,0,0,0,632,1177.42h74.74v-49.66H632A39.15,39.15,0,0,1,597.86,1107.76Z" transform="translate(-584.65 -602.87)" fill="#fff"/><path d="M764.49,950.2a2.57,2.57,0,0,1-1.47-.47l-33.24-24.15-33.24,24.15a2.5,2.5,0,0,1-3.84-2.8l12.69-39.08L672.15,883.7a2.5,2.5,0,0,1,1.47-4.52h41.09l12.7-39.07a2.5,2.5,0,0,1,4.75,0l12.7,39.07h41.08a2.5,2.5,0,0,1,1.47,4.52l-33.24,24.15,12.7,39.08a2.5,2.5,0,0,1-.91,2.8A2.54,2.54,0,0,1,764.49,950.2ZM729.78,920a2.47,2.47,0,0,1,1.47.47l28.49,20.7-10.88-33.49a2.48,2.48,0,0,1,.91-2.79l28.48-20.7H743a2.51,2.51,0,0,1-2.38-1.73L729.78,849,718.9,882.45a2.49,2.49,0,0,1-2.37,1.73H681.32l28.48,20.7a2.49,2.49,0,0,1,.91,2.79l-10.88,33.49,28.48-20.7A2.5,2.5,0,0,1,729.78,920Z" transform="translate(-584.65 -602.87)" fill="#fff"/><path d="M900.27,950.2a2.54,2.54,0,0,1-1.47-.47l-33.24-24.15-33.24,24.15a2.5,2.5,0,0,1-3.85-2.8l12.7-39.08L807.93,883.7a2.5,2.5,0,0,1,1.47-4.52h41.08l12.7-39.07a2.5,2.5,0,0,1,4.76,0l12.69,39.07h41.09a2.5,2.5,0,0,1,1.47,4.52L890,907.85l12.7,39.08a2.53,2.53,0,0,1-.91,2.8A2.57,2.57,0,0,1,900.27,950.2ZM865.56,920a2.5,2.5,0,0,1,1.47.47l28.48,20.7-10.88-33.49a2.49,2.49,0,0,1,.91-2.79L914,884.18H878.82a2.49,2.49,0,0,1-2.38-1.73L865.56,849l-10.88,33.48a2.51,2.51,0,0,1-2.38,1.73H817.09l28.49,20.7a2.49,2.49,0,0,1,.9,2.79L835.6,941.16l28.49-20.7A2.47,2.47,0,0,1,865.56,920Z" transform="translate(-584.65 -602.87)" fill="#fff"/><path d="M1036,950.2a2.57,2.57,0,0,1-1.47-.47l-33.24-24.15-33.24,24.15a2.5,2.5,0,0,1-3.84-2.8l12.69-39.08L943.7,883.7a2.5,2.5,0,0,1,1.47-4.52h41.09L999,840.11a2.5,2.5,0,0,1,4.75,0l12.7,39.07h41.09a2.5,2.5,0,0,1,1.46,4.52l-33.24,24.15,12.7,39.08a2.51,2.51,0,0,1-.91,2.8A2.54,2.54,0,0,1,1036,950.2Zm-83.17-66,28.48,20.7a2.49,2.49,0,0,1,.91,2.79l-10.88,33.49,28.48-20.7a2.52,2.52,0,0,1,2.94,0l28.49,20.7-10.88-33.49a2.48,2.48,0,0,1,.91-2.79l28.48-20.7h-35.21a2.51,2.51,0,0,1-2.38-1.73L1001.33,849l-10.88,33.48a2.49,2.49,0,0,1-2.37,1.73Z" transform="translate(-584.65 -602.87)" fill="#fff"/><path d="M1171.82,950.2a2.54,2.54,0,0,1-1.47-.47l-33.24-24.15-33.24,24.15a2.5,2.5,0,0,1-3.85-2.8l12.7-39.08-33.24-24.15a2.5,2.5,0,0,1,1.47-4.52H1122l12.69-39.07a2.5,2.5,0,0,1,4.76,0l12.69,39.07h41.09a2.5,2.5,0,0,1,1.47,4.52l-33.24,24.15,12.7,39.08a2.53,2.53,0,0,1-.91,2.8A2.57,2.57,0,0,1,1171.82,950.2Zm-83.18-66,28.49,20.7a2.51,2.51,0,0,1,.91,2.79l-10.89,33.49,28.49-20.7a2.52,2.52,0,0,1,2.94,0l28.48,20.7-10.88-33.49a2.49,2.49,0,0,1,.91-2.79l28.49-20.7h-35.21a2.49,2.49,0,0,1-2.38-1.73L1137.11,849l-10.88,33.48a2.51,2.51,0,0,1-2.38,1.73Z" transform="translate(-584.65 -602.87)" fill="#fff"/><path d="M1307.59,950.2a2.57,2.57,0,0,1-1.47-.47l-33.24-24.15-33.24,24.15a2.5,2.5,0,0,1-3.84-2.8l12.69-39.08-33.24-24.15a2.5,2.5,0,0,1,1.47-4.52h41.09l12.7-39.07a2.5,2.5,0,0,1,4.75,0l12.7,39.07H1329a2.5,2.5,0,0,1,1.47,4.52l-33.24,24.15,12.7,39.08a2.5,2.5,0,0,1-.91,2.8A2.54,2.54,0,0,1,1307.59,950.2Zm-83.17-66,28.48,20.7a2.49,2.49,0,0,1,.91,2.79l-10.88,33.49,28.49-20.7a2.51,2.51,0,0,1,2.93,0l28.49,20.7L1292,907.67a2.48,2.48,0,0,1,.91-2.79l28.48-20.7h-35.21a2.51,2.51,0,0,1-2.38-1.73L1272.88,849,1262,882.45a2.49,2.49,0,0,1-2.37,1.73Z" transform="translate(-584.65 -602.87)" fill="#fff"/></svg>