<svg xmlns="http://www.w3.org/2000/svg" xmlns:xlink="http://www.w3.org/1999/xlink" width="1323.91" height="1293.97" viewBox="0 0 1323.91 1293.97"><defs><linearGradient id="a" x1="2198.64" y1="1687.67" x2="2609.74" y2="1687.67" gradientUnits="userSpaceOnUse"><stop offset="0" stop-color="blue"/><stop offset="0.25" stop-color="#f0f"/><stop offset="0.53" stop-color="#ff5100"/><stop offset="0.78" stop-color="#26ff00"/><stop offset="1" stop-color="#ff0"/></linearGradient><linearGradient id="b" x1="2353.33" y1="1603.35" x2="2455.4" y2="1603.35" xlink:href="#a"/><linearGradient id="c" x1="2330.4" y1="1538.83" x2="2378.93" y2="1538.83" xlink:href="#a"/><linearGradient id="d" x1="1489.62" y1="2317.69" x2="2528.62" y2="2317.69" xlink:href="#a"/><linearGradient id="e" x1="1382.17" y1="2334.07" x2="2630.26" y2="2334.07" xlink:href="#a"/><linearGradient id="f" x1="1608.81" y1="2063.2" x2="1667.74" y2="2063.2" xlink:href="#a"/><linearGradient id="g" x1="1544.03" y1="2063.2" x2="1602.97" y2="2063.2" xlink:href="#a"/><linearGradient id="h" x1="1538.84" y1="2225.43" x2="1670.02" y2="2225.43" xlink:href="#a"/><linearGradient id="i" x1="1306.34" y1="2181.67" x2="1900.76" y2="2181.67" xlink:href="#a"/><linearGradient id="j" x1="223.61" y1="788.49" x2="282.78" y2="788.49" xlink:href="#a"/><linearGradient id="k" x1="312.64" y1="788.49" x2="370.53" y2="788.49" xlink:href="#a"/><linearGradient id="l" x1="1311.34" y1="2012.73" x2="2625.26" y2="2012.73" gradientUnits="userSpaceOnUse"><stop offset="0" stop-color="#13c0ff"/><stop offset="0.18" stop-color="#31cdd3"/><stop offset="0.58" stop-color="#70e678"/><stop offset="0.87" stop-color="#97f73f"/><stop offset="1" stop-color="#a6fd29"/></linearGradient><linearGradient id="m" x1="1494.62" y1="2334.06" x2="2523.62" y2="2334.06" xlink:href="#l"/><linearGradient id="n" x1="1613.81" y1="2063.2" x2="1662.74" y2="2063.2" xlink:href="#l"/><linearGradient id="o" x1="1549.03" y1="2063.2" x2="1597.97" y2="2063.2" xlink:href="#l"/><linearGradient id="p" x1="231.21" y1="788.49" x2="275.17" y2="788.49" xlink:href="#l"/><linearGradient id="q" x1="319.6" y1="788.49" x2="363.56" y2="788.49" xlink:href="#l"/><linearGradient id="r" x1="1543.84" y1="2225.43" x2="1665.02" y2="2225.43" xlink:href="#l"/><linearGradient id="s" x1="1041.81" y1="182.92" x2="1067.95" y2="182.92" xlink:href="#l"/><linearGradient id="t" x1="1122.34" y1="182.92" x2="1146.65" y2="182.92" xlink:href="#l"/><linearGradient id="u" x1="2358.33" y1="1603.35" x2="2450.4" y2="1603.35" xlink:href="#l"/><linearGradient id="v" x1="2383.58" y1="1564.26" x2="2425.15" y2="1564.26" xlink:href="#l"/><linearGradient id="w" x1="2335.4" y1="1526.62" x2="2373.92" y2="1526.62" xlink:href="#l"/></defs><path d="M2609.44,1605.63a13.75,13.75,0,0,0-6.25-8.68l.55-.67a7.15,7.15,0,0,0,.53-.7,13.6,13.6,0,0,0,2.11-10.31,13.19,13.19,0,0,0-5.73-8.44,12.41,12.41,0,0,0-2.41-1.22,13.74,13.74,0,0,0-5.38-10.94,23.63,23.63,0,0,1-23.32-6.33,14.42,14.42,0,0,0-17.35,10.61,10.74,10.74,0,0,0-.22,1.13c-.59,4.34-1,8.75-1.37,13.13v0a14,14,0,0,0-5.29-.37,13.78,13.78,0,0,0-8.34,23.26,7.36,7.36,0,0,0,.63.62l6.17,5.56a31,31,0,0,0,1.36,5.51c.32.94.69,1.87,1.1,2.77a88.48,88.48,0,0,1-42,32.58q-1.56-2.4-3.33-4.66a10,10,0,0,0-12.19-2.87,63.87,63.87,0,0,1-25.44,6.28,62.88,62.88,0,0,1-11.22-.61,122.76,122.76,0,0,0,66.17-69.2,33.77,33.77,0,0,0,18.1-9.07,29.8,29.8,0,0,0,9.37-22.31c-.41-10.44-7-20.08-16.7-25.34.19-1.94.32-3.9.39-5.85,0-.11,0-.22,0-.33v-.06a168.07,168.07,0,0,0-4.53-45.17c-6.69-28-19.9-51.59-39.26-70-41-39.08-76.77-41.26-99.57-36.2-23.62,5.25-40.39,19.36-50.75,31.1-13,4.44-39.16,16.67-55.16,46.55-17.62,32.91-10.29,64.9-7.23,74.94.51,2.81,1.11,5.63,1.76,8.39l.24,1c-9.59,6-15.38,16.82-13.72,27.51,1.16,7.47,5.89,14.21,13,18.5a30.77,30.77,0,0,0,15.92,4.45,123.07,123.07,0,0,0,66.55,71.09,62.21,62.21,0,0,1-11.56.67,63.83,63.83,0,0,1-25.43-6.28,10,10,0,0,0-12.19,2.87q-1.77,2.26-3.33,4.66a88.35,88.35,0,0,1-42-32.58c.41-.9.78-1.83,1.1-2.77a31.91,31.91,0,0,0,1.36-5.51l6.17-5.56a7.36,7.36,0,0,0,.63-.62,13.84,13.84,0,0,0-13.63-22.89s0,0,0,0c-.31-4.38-.77-8.79-1.36-13.13-.06-.38-.13-.76-.22-1.13a14.43,14.43,0,0,0-17.36-10.61,23.61,23.61,0,0,1-23.32,6.33,13.8,13.8,0,0,0-5.38,10.94,12.86,12.86,0,0,0-2.4,1.21,13.17,13.17,0,0,0-5.73,8.45,13.54,13.54,0,0,0,2.11,10.31c.16.24.34.48.52.7l.55.67a13.51,13.51,0,0,0-3.92,19.6,14.56,14.56,0,0,0,10.24,6l.23,0,7.59.68a24,24,0,0,0,4.42,4.94,24.34,24.34,0,0,0,5.72,3.61,100.89,100.89,0,0,0,63.74,52.94,10,10,0,0,0,5.36,8.29,197.49,197.49,0,0,0,25.39,11c4.35,1.54,8.78,2.93,13.26,4.16-1.1,5.57-2.24,12.65-3.34,22.24-1.52,13.15-2,23.91-2.67,40.18l-.29,6.56c-.76,17.41-1.15,35.1-1.17,52.59a10,10,0,0,0,3.54,7.64l12.85,136.7a10,10,0,0,0,4.15,7.2l-4,2.43c-.21.11-.41.23-.61.36l-4.86,2.94-.13.07-.59.36-5.24,3.16-3.48,2.1-8.94,3.19a15.89,15.89,0,0,0-10.34,12.51l185.75,1.18a15.9,15.9,0,0,0-10.49-13.69l-8.94-3.19-3.3-2-.17-.11c-.09-.05-.18-.11-.27-.15l-5-3-.59-.36h0l-4.89-3-.67-.4-4.42-2.67-.39-.21a10,10,0,0,0,3.57-7l9.79-134.74a10,10,0,0,0,6.59-9.39c0-17.49-.42-35.18-1.18-52.59l-.28-6.62c-.61-14.55-1.1-26-2.67-40.08-1-8.58-2-15.58-3.33-22.28,4.47-1.23,8.9-2.62,13.25-4.16a196.75,196.75,0,0,0,25.38-11,10,10,0,0,0,5.36-8.29,100.88,100.88,0,0,0,63.75-52.94,24.54,24.54,0,0,0,5.72-3.61,24,24,0,0,0,4.42-4.94l7.59-.68.23,0a14.56,14.56,0,0,0,10.24-6A13.74,13.74,0,0,0,2609.44,1605.63Zm-365.09,5.68a11.78,11.78,0,0,1-1.82,3.36c-.15.19-.29.38-.42.58a9.78,9.78,0,0,0-3.46-1.38,4.37,4.37,0,0,1-2-.94,4.44,4.44,0,0,1-1.33-2,5.89,5.89,0,0,1-.89-6.64,8.07,8.07,0,0,0,1-.64,10,10,0,0,0,2.22-2.24c.23,0,.47,0,.7,0a10,10,0,0,0,5.05,7.63,11.18,11.18,0,0,0,1.36.63A13.34,13.34,0,0,1,2244.35,1611.31ZM2290.63,1509c-2.42-11.13-4.51-32.43,7.15-54.22,14.13-26.38,38.91-35.57,46.16-37.76a9.93,9.93,0,0,0,4.78-3.16c8.16-9.74,22-22.28,41.68-26.64,26.24-5.83,53.64,4.65,81.43,31.15,32,30.51,37.21,71.8,37.66,92.12a155.66,155.66,0,0,1-134.83-51.29,10,10,0,0,0-17.09,3.92c-1.75,6.15-9.12,27.12-30.89,38.81a61.6,61.6,0,0,1-16.42,6l-1.15.23A65.06,65.06,0,0,1,2290.63,1509Zm16,57.28a9.94,9.94,0,0,0-2.86-4.67,11.25,11.25,0,0,0,2.17-4.86,85.25,85.25,0,0,1,5.35-17.81,83.65,83.65,0,0,1,6.41-12.22,81,81,0,0,0,18.4-7.17,83.35,83.35,0,0,0,34.57-35.76,176,176,0,0,0,55,35.15,9.87,9.87,0,0,0-.61,8,10,10,0,0,0,8.15,6.59,16.9,16.9,0,0,0-9.29,15.09,17.21,17.21,0,0,0,.18,2.5,10,10,0,0,0-11.86,3c-.13.17-3.37,4.18-8.4,4a10.93,10.93,0,0,1-7.58-3.76,10,10,0,1,0-15.39,12.77,30.92,30.92,0,0,0,22.4,11h.86c14,0,22.33-9.76,23.89-11.75a9.89,9.89,0,0,0,2-4.8A16.9,16.9,0,1,0,2444,1532a17.37,17.37,0,0,1,2.53.21,18.29,18.29,0,0,1,10.07,5.27,10,10,0,0,0,17.14-6.79c5.36.53,10.52.79,15.44.84a83.41,83.41,0,0,1,4.76,9.32,85.41,85.41,0,0,1,5.86,19.69,11.12,11.12,0,0,0,3.11,6.06,9.93,9.93,0,0,0-1.44,2.85c-13.87,43.93-55.37,73.36-100.91,71.59C2356.41,1639.35,2318.68,1609.31,2306.67,1566.31Zm87.86,96.67v-4.6c0,.17,0,.34,0,.51v1.85c1.73.15,3.48.25,5.23.32,1.57.07,3.13.1,4.69.1,3.15,0,6.28-.13,9.39-.37V1663a17.14,17.14,0,0,1-8,2.86c-.34,0-.68.05-1,.05a17.85,17.85,0,0,1-2.21,0h-.06c-.37,0-.73-.07-1.09-.13s-.86-.15-1.28-.25-.74-.19-1.1-.31a6.26,6.26,0,0,1-.61-.21l-.44-.16a9.55,9.55,0,0,1-1-.4h0a16.85,16.85,0,0,1-1.75-.91h0c-.27-.15-.52-.31-.76-.47h0Zm-16.88,345.6h-26.76a4,4,0,0,0,.44-.17,8.84,8.84,0,0,0,1.12-.54,9.8,9.8,0,0,0,2.45-1.95h0a9.14,9.14,0,0,0,2.6-.9h0l.07,0,.78.42q.91.48,1.92.9a26.65,26.65,0,0,0,9.35,2.11H2372a28.19,28.19,0,0,0,5.63-.81Zm38-24a12.23,12.23,0,0,0-3.5,8.54v15.25h-14.47v-15.25a12.22,12.22,0,0,0-3.51-8.54v-2.36a10,10,0,0,0,5.8-8.22l4.89-56.47,7.91,57a10,10,0,0,0,2.89,5.74Zm3.63-108.66c.62-.24,1.23-.51,1.84-.79a38,38,0,0,0,11.5-8.21,10,10,0,1,0-14.44-13.83,17.92,17.92,0,0,1-10.59,5.38l-.49.06a9.9,9.9,0,0,0-3.48,1,10.06,10.06,0,0,0-4.35-1.08H2399a15.05,15.05,0,0,1-5.15-1.08,15.28,15.28,0,0,1-5.74-4.11,10,10,0,1,0-15.06,13.15,35.3,35.3,0,0,0,13.31,9.5c.64.26,1.28.5,1.93.71l-7.51,86.49h-15.6L2354,1844c1.33.3,2.66.58,4,.85a208.18,208.18,0,0,0,46.21,4.06c1.65,0,3.29.06,4.94.06a207.71,207.71,0,0,0,41.26-4.12l1.21-.25-8.61,118.6h-11.64Zm20.87,132.45a23.61,23.61,0,0,1-2.38,0h-5.62v-.81a28,28,0,0,0,5.62.81h2.38a26.65,26.65,0,0,0,9.35-2.11,26.06,26.06,0,0,0,2.7-1.32,9.66,9.66,0,0,0,2.69.93,9.83,9.83,0,0,0,2.45,2,8.84,8.84,0,0,0,1.12.54Zm37.65-323.23a177.79,177.79,0,0,1-20.66,5.92,10,10,0,0,0-7.53,12.2,210.21,210.21,0,0,1,5.06,29.39c1.49,13.36,2,24.55,2.56,38.71l.28,6.65c.64,14.65,1,29.51,1.13,44.27-4.07,1.11-8.15,2.08-12.18,2.9a188.31,188.31,0,0,1-42,3.66H2404a187.42,187.42,0,0,1-42-3.67c-4-.81-8.09-1.78-12.16-2.89.11-14.76.48-29.62,1.12-44.27l.29-6.57c.67-15.85,1.12-26.31,2.56-38.75,1.74-15.12,3.53-23.36,5.06-29.43a10,10,0,0,0-7.54-12.2,178.2,178.2,0,0,1-20.65-5.92,174.84,174.84,0,0,1-16.2-6.64,49.42,49.42,0,0,1,2.46-7.08c.25-.57.51-1.13.78-1.69h0v0l.25-.52c.37-.74.75-1.47,1.16-2.19a83.19,83.19,0,0,0,46.58,2.86,9,9,0,0,0,1.23-.26,49.94,49.94,0,0,1,7.72-.73v0c0,.24.07.47.11.7l0,.12a5.66,5.66,0,0,0,.15.59c0,.11.06.22.09.33s.12.38.19.56a9.45,9.45,0,0,0,.58,1.25l.18.31q.14.24.3.48l.21.3a4.46,4.46,0,0,0,.33.43l.32.37.34.36.32.32.82.78a3.45,3.45,0,0,0,.28.26c.34.31.7.63,1.09,1l1,.84h0c.9.7,1.91,1.42,3,2.14h0l.67.42.71.42.72.41.75.4c.25.14.51.27.77.4.46.23.93.45,1.41.67l.81.35,1.53.6.15,0c.41.15.83.3,1.25.43.61.2,1.24.38,1.88.55h0q.73.19,1.5.36l1.16.23,1.18.2c.8.12,1.62.22,2.46.29l1.22.08,1.18,0h1.07l1.3,0h.39c.41,0,.81-.05,1.21-.09l.5,0,.37,0c.41,0,.8-.1,1.2-.16l1-.15.52-.1.12,0,.2,0,.09,0q.49-.09,1-.21l.95-.23c.62-.16,1.22-.33,1.82-.52l.74-.24.65-.23.71-.26,1-.39,1-.41,1.15-.54.7-.35a39.34,39.34,0,0,0,3.7-2.12l.33-.21.32-.22.36-.24.67-.47c.91-.65,1.71-1.28,2.39-1.85.16-.13.31-.25.45-.38.72-.62,1.29-1.16,1.71-1.57l.35-.36c.2-.21.38-.44.56-.67l0,0a.18.18,0,0,0,0-.07l.26-.37a4.94,4.94,0,0,0,.27-.42c.06-.1.12-.2.17-.3a8.15,8.15,0,0,0,.5-1l.15-.38a.14.14,0,0,0,0-.06,5.05,5.05,0,0,0,.18-.55,6.25,6.25,0,0,0,.16-.62c0-.16.07-.32.1-.49s0-.07,0-.1,0-.08,0-.12,0,0,0-.07l0-.21a49.2,49.2,0,0,1,7.94.77l.09,0,.65.13a83.21,83.21,0,0,0,46.85-2.8q.6,1.07,1.14,2.16c.09.2.19.39.28.58.27.56.53,1.12.78,1.69a49.42,49.42,0,0,1,2.46,7.08A174.84,174.84,0,0,1,2477.77,1685.18Zm95.26-74.3a4.44,4.44,0,0,1-1.33,2,4.37,4.37,0,0,1-2,.94,9.78,9.78,0,0,0-3.46,1.38c-.13-.2-.27-.39-.42-.58a11.78,11.78,0,0,1-1.82-3.36,13.34,13.34,0,0,1-.45-1.73,11.79,11.79,0,0,0,1.35-.63,10,10,0,0,0,5.06-7.63c.23,0,.46,0,.7,0a9.82,9.82,0,0,0,2.22,2.24,8.77,8.77,0,0,0,1,.64,5.87,5.87,0,0,1-.88,6.64Z" transform="translate(-1306.34 -1365.74)" fill="url(#a)"/><path d="M2404.06,1621.59c-.94,0-1.88,0-2.84-.06a70.81,70.81,0,0,1-44.64-18.48,10,10,0,1,1,13.49-14.76,51.53,51.53,0,0,0,32,13.25c19.43.79,32.88-10.31,36.54-13.73a10,10,0,1,1,13.65,14.62C2445.93,1608.31,2428.94,1621.59,2404.06,1621.59Z" transform="translate(-1306.34 -1365.74)" fill="url(#b)"/><path d="M2378.76,1548.65a17.54,17.54,0,1,1-32.86-8.54,10,10,0,0,1-13.22-14.71,38.51,38.51,0,0,1,20.22-12.83,37.94,37.94,0,0,1,18.52.12,10,10,0,0,1-3.92,19.58A17.54,17.54,0,0,1,2378.76,1548.65Z" transform="translate(-1306.34 -1365.74)" fill="url(#c)"/><path d="M1726.8,2474h-196a41.26,41.26,0,0,0-41.21,41.22V2617a10,10,0,0,0,10,10H1726.8a10,10,0,0,0,10-10V2484A10,10,0,0,0,1726.8,2474Zm-10,132.93H1509.62v-91.71a21.24,21.24,0,0,1,21.21-21.22h186Zm273-230.34H1782.09a32.61,32.61,0,0,0-32.56,32.58V2617a10,10,0,0,0,10,10h230.32a10,10,0,0,0,10-10V2386.63A10,10,0,0,0,1989.85,2376.63Zm-10,230.34H1769.53V2409.21a12.58,12.58,0,0,1,12.56-12.58h197.76Zm504.44-565.82h-170.9a34.62,34.62,0,0,0-34.59,34.58v333.82a6.37,6.37,0,1,1-12.73,0V2255.12a10,10,0,0,0-10-10H2050.94a38.39,38.39,0,0,0-38.35,38.35V2617a10,10,0,0,0,10,10h233.48a10,10,0,0,0,10-10V2471.29a6.37,6.37,0,1,1,12.73,0V2617a10,10,0,0,0,10,10h229.82a10,10,0,0,0,10-10V2085.46A44.37,44.37,0,0,0,2484.29,2041.15ZM2508.62,2607H2298.8V2471.29a26.37,26.37,0,1,0-52.73,0V2607H2032.59v-323.5a18.37,18.37,0,0,1,18.35-18.35h195.13v144.43a26.37,26.37,0,1,0,52.73,0V2075.73a14.6,14.6,0,0,1,14.59-14.58h170.9a24.35,24.35,0,0,1,24.33,24.31Zm-24.33-565.82h-170.9a34.62,34.62,0,0,0-34.59,34.58v333.82a6.37,6.37,0,1,1-12.73,0V2255.12a10,10,0,0,0-10-10H2050.94a38.39,38.39,0,0,0-38.35,38.35V2617a10,10,0,0,0,10,10h233.48a10,10,0,0,0,10-10V2471.29a6.37,6.37,0,1,1,12.73,0V2617a10,10,0,0,0,10,10h229.82a10,10,0,0,0,10-10V2085.46A44.37,44.37,0,0,0,2484.29,2041.15ZM2508.62,2607H2298.8V2471.29a26.37,26.37,0,1,0-52.73,0V2607H2032.59v-323.5a18.37,18.37,0,0,1,18.35-18.35h195.13v144.43a26.37,26.37,0,1,0,52.73,0V2075.73a14.6,14.6,0,0,1,14.59-14.58h170.9a24.35,24.35,0,0,1,24.33,24.31Zm-518.77-230.34H1782.09a32.61,32.61,0,0,0-32.56,32.58V2617a10,10,0,0,0,10,10h230.32a10,10,0,0,0,10-10V2386.63A10,10,0,0,0,1989.85,2376.63Zm-10,230.34H1769.53V2409.21a12.58,12.58,0,0,1,12.56-12.58h197.76ZM1726.8,2474h-196a41.26,41.26,0,0,0-41.21,41.22V2617a10,10,0,0,0,10,10H1726.8a10,10,0,0,0,10-10V2484A10,10,0,0,0,1726.8,2474Zm-10,132.93H1509.62v-91.71a21.24,21.24,0,0,1,21.21-21.22h186Zm10-132.93h-196a41.26,41.26,0,0,0-41.21,41.22V2617a10,10,0,0,0,10,10H1726.8a10,10,0,0,0,10-10V2484A10,10,0,0,0,1726.8,2474Zm-10,132.93H1509.62v-91.71a21.24,21.24,0,0,1,21.21-21.22h186Zm273-230.34H1782.09a32.61,32.61,0,0,0-32.56,32.58V2617a10,10,0,0,0,10,10h230.32a10,10,0,0,0,10-10V2386.63A10,10,0,0,0,1989.85,2376.63Zm-10,230.34H1769.53V2409.21a12.58,12.58,0,0,1,12.56-12.58h197.76Zm504.44-565.82h-170.9a34.62,34.62,0,0,0-34.59,34.58v333.82a6.37,6.37,0,1,1-12.73,0V2255.12a10,10,0,0,0-10-10H2050.94a38.39,38.39,0,0,0-38.35,38.35V2617a10,10,0,0,0,10,10h233.48a10,10,0,0,0,10-10V2471.29a6.37,6.37,0,1,1,12.73,0V2617a10,10,0,0,0,10,10h229.82a10,10,0,0,0,10-10V2085.46A44.37,44.37,0,0,0,2484.29,2041.15ZM2508.62,2607H2298.8V2471.29a26.37,26.37,0,1,0-52.73,0V2607H2032.59v-323.5a18.37,18.37,0,0,1,18.35-18.35h195.13v144.43a26.37,26.37,0,1,0,52.73,0V2075.73a14.6,14.6,0,0,1,14.59-14.58h170.9a24.35,24.35,0,0,1,24.33,24.31Zm-24.33-565.82h-170.9a34.62,34.62,0,0,0-34.59,34.58v333.82a6.37,6.37,0,1,1-12.73,0V2255.12a10,10,0,0,0-10-10H2050.94a38.39,38.39,0,0,0-38.35,38.35V2617a10,10,0,0,0,10,10h233.48a10,10,0,0,0,10-10V2471.29a6.37,6.37,0,1,1,12.73,0V2617a10,10,0,0,0,10,10h229.82a10,10,0,0,0,10-10V2085.46A44.37,44.37,0,0,0,2484.29,2041.15ZM2508.62,2607H2298.8V2471.29a26.37,26.37,0,1,0-52.73,0V2607H2032.59v-323.5a18.37,18.37,0,0,1,18.35-18.35h195.13v144.43a26.37,26.37,0,1,0,52.73,0V2075.73a14.6,14.6,0,0,1,14.59-14.58h170.9a24.35,24.35,0,0,1,24.33,24.31Zm-518.77-230.34H1782.09a32.61,32.61,0,0,0-32.56,32.58V2617a10,10,0,0,0,10,10h230.32a10,10,0,0,0,10-10V2386.63A10,10,0,0,0,1989.85,2376.63Zm-10,230.34H1769.53V2409.21a12.58,12.58,0,0,1,12.56-12.58h197.76ZM1726.8,2474h-196a41.26,41.26,0,0,0-41.21,41.22V2617a10,10,0,0,0,10,10H1726.8a10,10,0,0,0,10-10V2484A10,10,0,0,0,1726.8,2474Zm-10,132.93H1509.62v-91.71a21.24,21.24,0,0,1,21.21-21.22h186Zm767.49-565.82h-170.9a34.62,34.62,0,0,0-34.59,34.58v333.82a6.37,6.37,0,1,1-12.73,0V2255.12a10,10,0,0,0-10-10H2050.94a38.39,38.39,0,0,0-38.35,38.35V2617a10,10,0,0,0,10,10h233.48a10,10,0,0,0,10-10V2471.29a6.37,6.37,0,1,1,12.73,0V2617a10,10,0,0,0,10,10h229.82a10,10,0,0,0,10-10V2085.46A44.37,44.37,0,0,0,2484.29,2041.15ZM2508.62,2607H2298.8V2471.29a26.37,26.37,0,1,0-52.73,0V2607H2032.59v-323.5a18.37,18.37,0,0,1,18.35-18.35h195.13v144.43a26.37,26.37,0,1,0,52.73,0V2075.73a14.6,14.6,0,0,1,14.59-14.58h170.9a24.35,24.35,0,0,1,24.33,24.31Zm-157.29-598.56a4,4,0,0,1-.44.17h26.76v-.17Zm86.41,0a23.61,23.61,0,0,0,2.38,0Zm-447.89,368.22H1782.09a32.61,32.61,0,0,0-32.56,32.58V2617a10,10,0,0,0,10,10h230.32a10,10,0,0,0,10-10V2386.63A10,10,0,0,0,1989.85,2376.63Zm-10,230.34H1769.53V2409.21a12.58,12.58,0,0,1,12.56-12.58h197.76ZM1726.8,2474h-196a41.26,41.26,0,0,0-41.21,41.22V2617a10,10,0,0,0,10,10H1726.8a10,10,0,0,0,10-10V2484A10,10,0,0,0,1726.8,2474Zm-10,132.93H1509.62v-91.71a21.24,21.24,0,0,1,21.21-21.22h186Zm10-132.93h-196a41.26,41.26,0,0,0-41.21,41.22V2617a10,10,0,0,0,10,10H1726.8a10,10,0,0,0,10-10V2484A10,10,0,0,0,1726.8,2474Zm-10,132.93H1509.62v-91.71a21.24,21.24,0,0,1,21.21-21.22h186Zm273-230.34H1782.09a32.61,32.61,0,0,0-32.56,32.58V2617a10,10,0,0,0,10,10h230.32a10,10,0,0,0,10-10V2386.63A10,10,0,0,0,1989.85,2376.63Zm-10,230.34H1769.53V2409.21a12.58,12.58,0,0,1,12.56-12.58h197.76Zm504.44-565.82h-170.9a34.62,34.62,0,0,0-34.59,34.58v333.82a6.37,6.37,0,1,1-12.73,0V2255.12a10,10,0,0,0-10-10H2050.94a38.39,38.39,0,0,0-38.35,38.35V2617a10,10,0,0,0,10,10h233.48a10,10,0,0,0,10-10V2471.29a6.37,6.37,0,1,1,12.73,0V2617a10,10,0,0,0,10,10h229.82a10,10,0,0,0,10-10V2085.46A44.37,44.37,0,0,0,2484.29,2041.15ZM2508.62,2607H2298.8V2471.29a26.37,26.37,0,1,0-52.73,0V2607H2032.59v-323.5a18.37,18.37,0,0,1,18.35-18.35h195.13v144.43a26.37,26.37,0,1,0,52.73,0V2075.73a14.6,14.6,0,0,1,14.59-14.58h170.9a24.35,24.35,0,0,1,24.33,24.31Zm-24.33-565.82h-170.9a34.62,34.62,0,0,0-34.59,34.58v333.82a6.37,6.37,0,1,1-12.73,0V2255.12a10,10,0,0,0-10-10H2050.94a38.39,38.39,0,0,0-38.35,38.35V2617a10,10,0,0,0,10,10h233.48a10,10,0,0,0,10-10V2471.29a6.37,6.37,0,1,1,12.73,0V2617a10,10,0,0,0,10,10h229.82a10,10,0,0,0,10-10V2085.46A44.37,44.37,0,0,0,2484.29,2041.15ZM2508.62,2607H2298.8V2471.29a26.37,26.37,0,1,0-52.73,0V2607H2032.59v-323.5a18.37,18.37,0,0,1,18.35-18.35h195.13v144.43a26.37,26.37,0,1,0,52.73,0V2075.73a14.6,14.6,0,0,1,14.59-14.58h170.9a24.35,24.35,0,0,1,24.33,24.31Zm-518.77-230.34H1782.09a32.61,32.61,0,0,0-32.56,32.58V2617a10,10,0,0,0,10,10h230.32a10,10,0,0,0,10-10V2386.63A10,10,0,0,0,1989.85,2376.63Zm-10,230.34H1769.53V2409.21a12.58,12.58,0,0,1,12.56-12.58h197.76ZM1726.8,2474h-196a41.26,41.26,0,0,0-41.21,41.22V2617a10,10,0,0,0,10,10H1726.8a10,10,0,0,0,10-10V2484A10,10,0,0,0,1726.8,2474Zm-10,132.93H1509.62v-91.71a21.24,21.24,0,0,1,21.21-21.22h186Zm10-132.93h-196a41.26,41.26,0,0,0-41.21,41.22V2617a10,10,0,0,0,10,10H1726.8a10,10,0,0,0,10-10V2484A10,10,0,0,0,1726.8,2474Zm-10,132.93H1509.62v-91.71a21.24,21.24,0,0,1,21.21-21.22h186Zm273-230.34H1782.09a32.61,32.61,0,0,0-32.56,32.58V2617a10,10,0,0,0,10,10h230.32a10,10,0,0,0,10-10V2386.63A10,10,0,0,0,1989.85,2376.63Zm-10,230.34H1769.53V2409.21a12.58,12.58,0,0,1,12.56-12.58h197.76Zm504.44-565.82h-170.9a34.62,34.62,0,0,0-34.59,34.58v333.82a6.37,6.37,0,1,1-12.73,0V2255.12a10,10,0,0,0-10-10H2050.94a38.39,38.39,0,0,0-38.35,38.35V2617a10,10,0,0,0,10,10h233.48a10,10,0,0,0,10-10V2471.29a6.37,6.37,0,1,1,12.73,0V2617a10,10,0,0,0,10,10h229.82a10,10,0,0,0,10-10V2085.46A44.37,44.37,0,0,0,2484.29,2041.15ZM2508.62,2607H2298.8V2471.29a26.37,26.37,0,1,0-52.73,0V2607H2032.59v-323.5a18.37,18.37,0,0,1,18.35-18.35h195.13v144.43a26.37,26.37,0,1,0,52.73,0V2075.73a14.6,14.6,0,0,1,14.59-14.58h170.9a24.35,24.35,0,0,1,24.33,24.31Zm-24.33-565.82h-170.9a34.62,34.62,0,0,0-34.59,34.58v333.82a6.37,6.37,0,1,1-12.73,0V2255.12a10,10,0,0,0-10-10H2050.94a38.39,38.39,0,0,0-38.35,38.35V2617a10,10,0,0,0,10,10h233.48a10,10,0,0,0,10-10V2471.29a6.37,6.37,0,1,1,12.73,0V2617a10,10,0,0,0,10,10h229.82a10,10,0,0,0,10-10V2085.46A44.37,44.37,0,0,0,2484.29,2041.15ZM2508.62,2607H2298.8V2471.29a26.37,26.37,0,1,0-52.73,0V2607H2032.59v-323.5a18.37,18.37,0,0,1,18.35-18.35h195.13v144.43a26.37,26.37,0,1,0,52.73,0V2075.73a14.6,14.6,0,0,1,14.59-14.58h170.9a24.35,24.35,0,0,1,24.33,24.31Zm-518.77-230.34H1782.09a32.61,32.61,0,0,0-32.56,32.58V2617a10,10,0,0,0,10,10h230.32a10,10,0,0,0,10-10V2386.63A10,10,0,0,0,1989.85,2376.63Zm-10,230.34H1769.53V2409.21a12.58,12.58,0,0,1,12.56-12.58h197.76ZM1726.8,2474h-196a41.26,41.26,0,0,0-41.21,41.22V2617a10,10,0,0,0,10,10H1726.8a10,10,0,0,0,10-10V2484A10,10,0,0,0,1726.8,2474Zm-10,132.93H1509.62v-91.71a21.24,21.24,0,0,1,21.21-21.22h186Z" transform="translate(-1306.34 -1365.74)" fill="url(#d)"/><path d="M2603.9,2607h-42.55V2085.46a77.16,77.16,0,0,0-63.52-75.85l-185.75-1.18a67.39,67.39,0,0,0-66,67.3v136.65H2050.94a71.17,71.17,0,0,0-71.09,71.09v60.43H1782.09a65.38,65.38,0,0,0-60.4,40.52l-.08-.09q.09,37.08.19,74.17H1483.48a73.82,73.82,0,0,0-26.6,56.76V2607h-48.34a26.37,26.37,0,1,0,0,52.74H2603.9a26.37,26.37,0,0,0,0-52.74Zm0,32.74H1408.54a6.37,6.37,0,1,1,0-12.74h58.34a10,10,0,0,0,10-10V2515.26a54,54,0,0,1,49.57-53.77q2.17-.18,4.38-.18h196a10,10,0,0,0,10-10v-42.1a45.34,45.34,0,0,1,45.29-45.31h207.76a10,10,0,0,0,10-10v-70.43a51.15,51.15,0,0,1,51.09-51.09h205.13a10,10,0,0,0,10-10V2075.73a47.38,47.38,0,0,1,47.32-47.32h170.9a57.11,57.11,0,0,1,57.06,57V2617a10,10,0,0,0,10,10h52.55a6.37,6.37,0,0,1,0,12.74Z" transform="translate(-1306.34 -1365.74)" fill="url(#e)"/><path d="M1638.28,2092.67a29.47,29.47,0,1,1,29.46-29.47A29.5,29.5,0,0,1,1638.28,2092.67Zm0-38.93a9.47,9.47,0,1,0,9.46,9.46A9.47,9.47,0,0,0,1638.28,2053.74Z" transform="translate(-1306.34 -1365.74)" fill="url(#f)"/><path d="M1573.5,2092.67A29.47,29.47,0,1,1,1603,2063.2,29.5,29.5,0,0,1,1573.5,2092.67Zm0-38.93a9.47,9.47,0,1,0,9.47,9.46A9.47,9.47,0,0,0,1573.5,2053.74Z" transform="translate(-1306.34 -1365.74)" fill="url(#g)"/><path d="M1649.85,2265.41h-33a10,10,0,0,1,0-20h33l.17,0v-39.93l-.17,0H1559l-.17,0v39.93l.17,0h34a10,10,0,0,1,0,20h-34a20,20,0,0,1-20.17-19.77v-40.43a20,20,0,0,1,20.17-19.77h90.84a20,20,0,0,1,20.17,19.77v40.43A20,20,0,0,1,1649.85,2265.41Z" transform="translate(-1306.34 -1365.74)" fill="url(#h)"/><path d="M1899.52,2282.93c-3.74-16.89-15.56-31.23-31.92-39.46a43.68,43.68,0,0,0-49.85-59.08l-55.27-30.48a47.23,47.23,0,0,0-43.8-29.18h-3v-11.6a119.31,119.31,0,0,0-29.17-90.76c-19.29-21.9-45.51-35.54-72.89-38.16v-13.54a33.68,33.68,0,1,0-20,0v13.58c-22.34,2.23-43.88,11.7-61.76,27.3a10,10,0,1,0,13.15,15.07c16.71-14.58,37.18-22.66,58-22.88h2.54c24.54.49,48.6,12.09,66,31.84a99.35,99.35,0,0,1,24.77,67.07H1510.91a98.77,98.77,0,0,1,17.41-57.38,10,10,0,0,0-16.47-11.34,118.82,118.82,0,0,0-20.36,79.25v11.54h-3a47.25,47.25,0,0,0-43.81,29.19l-55.27,30.47a43.67,43.67,0,0,0-49.84,59.08c-16.36,8.22-28.18,22.57-31.93,39.46a57.59,57.59,0,0,0,4.35,36.44,10,10,0,0,0,9.08,5.79,10,10,0,0,0,9.06-14.22c-2.08-4.46-5.22-13.48-3-23.68,2.64-11.89,11.71-21.94,24.22-27.22a44.05,44.05,0,0,0,28.68,10.7c1,0,2,0,2.94-.1,6.8,11.72,8,25.18,3,36.24-4.31,9.52-12.24,14.84-16.58,17.16a10,10,0,0,0,4.73,18.82,9.89,9.89,0,0,0,4.71-1.19,57.51,57.51,0,0,0,25.35-26.53c7.14-15.71,6.31-34.23-1.77-50.59a43.37,43.37,0,0,0,19-23.69,44,44,0,0,0,1.37-5.09l44.87-23a48.36,48.36,0,0,0,21.53,5.09h2.31v80a10,10,0,0,0,9.25,10v9a46,46,0,0,0,20.34,38.1v19.25H1505.9a29.75,29.75,0,0,0-29.72,29.72v40.77a16.83,16.83,0,0,0,7.3,13.87H1721.8q-.09-37.08-.19-74.17a29.61,29.61,0,0,0-22.37-10.19h-15.18v-19.25a45.94,45.94,0,0,0,20.34-38.09v-8.94h1.23a10,10,0,0,0,10-10v-80h2.3a48.36,48.36,0,0,0,21.53-5.09l44.87,23a46.13,46.13,0,0,0,1.37,5.09,43.37,43.37,0,0,0,19,23.69c-8.08,16.36-8.9,34.88-1.77,50.59a57.56,57.56,0,0,0,25.35,26.53,10,10,0,1,0,9.45-17.63c-4.34-2.32-12.27-7.64-16.59-17.16-5-11.06-3.82-24.52,3-36.24,1,.07,1.95.1,2.93.1a44.1,44.1,0,0,0,28.69-10.7c12.51,5.28,21.58,15.33,24.21,27.22,2.26,10.2-.88,19.22-3,23.68a10,10,0,0,0,4.85,13.28,9.88,9.88,0,0,0,4.21.94,10,10,0,0,0,9.07-5.79A57.52,57.52,0,0,0,1899.52,2282.93Zm-296-330.74a13.68,13.68,0,1,1,13.67-13.68A13.7,13.7,0,0,1,1603.57,1952.19ZM1403.32,2231h0a23.06,23.06,0,0,1-.88,3.53,23.54,23.54,0,0,1-11.88,13.68,23.88,23.88,0,0,1-4,1.57,22.44,22.44,0,0,1-2.29.55,23.73,23.73,0,0,1-22.45-8.11,1.68,1.68,0,0,0-.18-.21,23.86,23.86,0,0,1-2.83-4.39,23.66,23.66,0,0,1,28.61-33.06l0,0a23.66,23.66,0,0,1,16.18,21.89h0A21.42,21.42,0,0,1,1403.32,2231Zm18.31-17.12a45.07,45.07,0,0,0-2.58-6.36,43.72,43.72,0,0,0-8.68-11.87l31.57-17.42a45.66,45.66,0,0,0,8.89,20.68Zm69.86-16h-2.31a28.36,28.36,0,0,1-14.45-4h0c-.81-.48-1.6-1-2.36-1.56h0a27.35,27.35,0,0,1-3.45-3,26.07,26.07,0,0,1-7.51-19c0-.51,0-1,.09-1.52s.11-1.06.18-1.58a23.57,23.57,0,0,1,.5-2.53h0c.17-.71.38-1.41.61-2.09,0,0,0,0,0,0,3.6-10.39,13.89-17.75,25.67-17.75h3Zm29.25,118.94v-8.94h50.85v8.94a25.66,25.66,0,0,1-7.79,18.44,26,26,0,0,1-6.18,4.5l-.13.06c-.18.11-.36.19-.54.28l-.07,0a24.64,24.64,0,0,1-19.67.79h0a24.55,24.55,0,0,1-3.72-1.8h0A25.89,25.89,0,0,1,1520.74,2316.8Zm31.08,45.43v11.91h-10.74v-11.85c1.38.16,2.77.25,4.18.28h.9A46.24,46.24,0,0,0,1551.82,2362.23Zm22.57,79.26h-78.21v-37.63a9.73,9.73,0,0,1,9.72-9.72h64.57a3.93,3.93,0,0,1,3.92,3.93Zm36.35-43.42v43.24h-16.35v-43.24a24,24,0,0,0-22.57-23.89v-19.7a46,46,0,0,0,6-5,45.5,45.5,0,0,0,13.78-32.71v-8.94h22v8.93a45.5,45.5,0,0,0,13.78,32.72,46,46,0,0,0,6,5v19.7A24,24,0,0,0,1610.74,2398.07Zm88.5-3.93a9.72,9.72,0,0,1,9.71,9.72v37.63h-78.21v-43.42a3.94,3.94,0,0,1,3.93-3.93Zm-45.92-20v-11.91a46.24,46.24,0,0,0,5.66.35h.9c1.41,0,2.8-.12,4.18-.28v11.85Zm31.08-57.33a25.89,25.89,0,0,1-12.73,22.29h0a24.55,24.55,0,0,1-3.72,1.8h0a24.56,24.56,0,0,1-19.78-.86c-.2-.11-.4-.21-.61-.3a26.06,26.06,0,0,1-6.2-4.51,25.66,25.66,0,0,1-7.79-18.44v-8.94h50.85Zm11.23-28.95H1511.49v-165.2h184.14Zm42.59-98.58a26.32,26.32,0,0,1-3.49,3l0,0a24.8,24.8,0,0,1-2.3,1.53h0a28.32,28.32,0,0,1-14.47,4h-2.3v-53.13h3c11.79,0,22.07,7.36,25.66,17.75,0,0,0,0,0,0,.25.71.46,1.43.64,2.16h0a24.87,24.87,0,0,1,.48,2.46c.07.52.13,1,.17,1.59s.08,1,.09,1.52A26,26,0,0,1,1738.22,2189.28Zm49.85,18.24a44,44,0,0,0-2.59,6.36l-29.2-15a45.75,45.75,0,0,0,8.9-20.67l31.57,17.41A43.72,43.72,0,0,0,1788.07,2207.52Zm60.24,30.11a24.44,24.44,0,0,1-2.84,4.39,1.68,1.68,0,0,0-.18.21,23.62,23.62,0,0,1-24.75,7.56,24.12,24.12,0,0,1-4-1.57,23.52,23.52,0,0,1-11.87-13.68,23.88,23.88,0,0,1-.89-3.57,21.71,21.71,0,0,1-.32-4.47s0,0,0,0,0,0,0,0,0,0,0,0,0,0,0,0,0,0,0,0a23.67,23.67,0,0,1,16.17-21.81l.06,0a23.67,23.67,0,0,1,28.61,33.06Z" transform="translate(-1306.34 -1365.74)" fill="url(#i)"/><ellipse cx="253.19" cy="788.49" rx="29.58" ry="16.5" fill="url(#j)"/><ellipse cx="341.58" cy="788.49" rx="28.94" ry="16.15" fill="url(#k)"/><path d="M2603.9,2612h-47.55V2085.46a72.15,72.15,0,0,0-63.88-71.59,13.87,13.87,0,0,0,.39-2.35,2.71,2.71,0,0,0,0-.29v-.15a.17.17,0,0,0,0-.07,10.89,10.89,0,0,0-7.23-10.38l-9.4-3.37-3.92-2.36-5.4-3.26-.3-.18-10.13-6.11a5,5,0,0,0-3.77-.57v-6.63a5,5,0,0,0,4.54-4.62l10-138.11c1-.28,1.89-.57,2.83-.87a5,5,0,0,0,3.5-4.78c0-17.41-.41-35-1.17-52.38l-.28-6.62c-.61-14.45-1.1-25.87-2.64-39.74a235.47,235.47,0,0,0-4.25-26.45c5.9-1.48,11.76-3.24,17.47-5.25a192.12,192.12,0,0,0,24.73-10.75,5,5,0,0,0,2.66-5c-.1-.88-.23-1.74-.37-2.61h0a95.9,95.9,0,0,0,65.46-53.06,19.21,19.21,0,0,0,10.82-9.38l10.14-.91h.11a9.58,9.58,0,0,0,6.73-3.92,8.71,8.71,0,0,0,1.5-6.94,9.1,9.1,0,0,0-8.51-6.92h-1.64l5.48-6.66a3.07,3.07,0,0,0,.27-.36,8.53,8.53,0,0,0,1.32-6.49,8,8,0,0,0-9.32-6.35l.12-.23a8.82,8.82,0,0,0-14.41-9.93,4.68,4.68,0,0,0-.48.62c-.74,1.13-1.48,2.28-2.2,3.43,0-.52,0-1,0-1.56,0-.16,0-.31,0-.47a9.19,9.19,0,0,0-18.17-1.58,3.47,3.47,0,0,0-.11.56c-.58,4.24-1,8.55-1.34,12.82-.19,2.56-.32,5.13-.41,7.71l-2.68-1.68a9.22,9.22,0,0,0-6.6-1.78,8.82,8.82,0,0,0-6,3.4,9,9,0,0,0,.72,11.5c.1.11.2.21.31.31l7.57,6.81a26.51,26.51,0,0,0,3.51,11.08,93.46,93.46,0,0,1-49.92,38.28,62.65,62.65,0,0,0-5.11-7.63,5,5,0,0,0-6.1-1.43,68.44,68.44,0,0,1-45.57,5l-.23,0a63.66,63.66,0,0,0-12.09-1.16h-4.15v-.36a117.62,117.62,0,0,0,85.75-76,28.88,28.88,0,0,0,18.27-8,24.77,24.77,0,0,0,7.85-18.52c-.38-9.72-7.31-18.62-17.08-22.56q.12-.84.21-1.65c.29-2.4.48-4.85.56-7.27v-.08c.68-16.19-.38-71.91-42.23-111.82-39.4-37.57-73.43-39.73-95-34.94-23,5.11-39.2,19.19-49,30.54-10.11,3.29-37.6,14.68-53.62,44.59-16.89,31.54-9.62,62.2-6.78,71.39.51,2.83,1.1,5.65,1.77,8.42.37,1.56.77,3.12,1.19,4.68-9.82,4.42-16.12,14.39-14.6,24.22.93,6,4.8,11.46,10.62,15a25.84,25.84,0,0,0,16.84,3.48,116.92,116.92,0,0,0,38.78,55.94,115.61,115.61,0,0,0,47.15,22.58v.46h-4.15a64.14,64.14,0,0,0-12.05,1.15l-.16,0-.11,0a68.41,68.41,0,0,1-45.56-5,5,5,0,0,0-6.1,1.43,63.91,63.91,0,0,0-5.12,7.63,93.49,93.49,0,0,1-49.91-38.28,26.9,26.9,0,0,0,3.51-11.08l7.56-6.81c.11-.1.22-.2.32-.31a9,9,0,0,0,.72-11.5,8.82,8.82,0,0,0-6-3.4,9.22,9.22,0,0,0-6.6,1.78l-2.68,1.68q-.14-3.87-.41-7.71c-.31-4.27-.76-8.58-1.34-12.82a5,5,0,0,0-.11-.56,9.19,9.19,0,0,0-18.17,1.58,3.69,3.69,0,0,0,0,.47c0,.52,0,1,0,1.56-.72-1.15-1.46-2.3-2.2-3.43a7.31,7.31,0,0,0-.48-.62,8.82,8.82,0,0,0-14.42,9.93l.13.23a8,8,0,0,0-9.33,6.35,8.56,8.56,0,0,0,1.33,6.5c.08.12.17.23.26.35l5.49,6.66h-1.64a9.12,9.12,0,0,0-8.52,6.92,8.75,8.75,0,0,0,1.5,6.94,9.6,9.6,0,0,0,6.74,3.92h.11l10.14.91a19.21,19.21,0,0,0,10.82,9.38,95.85,95.85,0,0,0,65.46,53.06c-.14.87-.27,1.74-.37,2.62a5,5,0,0,0,2.65,5,192.25,192.25,0,0,0,24.74,10.75c5.71,2,11.56,3.77,17.46,5.25a251.31,251.31,0,0,0-4.24,26.43c-1.49,13-2,23.66-2.64,39.82l-.28,6.56c-.76,17.34-1.15,35-1.17,52.38a5,5,0,0,0,3.29,4.71l13.08,139.16a5,5,0,0,0,5,4.53h.94v6.61a5,5,0,0,0-3.78.57l-10.12,6.11-.3.18-5.4,3.26-3.92,2.36-9.41,3.37a10.88,10.88,0,0,0-7.22,10.38v.22c0,.1,0,.2,0,.29a14.2,14.2,0,0,0,.28,1.89h-3.79a62.39,62.39,0,0,0-62.32,62.32v141.65H2050.94a66.16,66.16,0,0,0-66.09,66.09v65.43H1782.09a60.38,60.38,0,0,0-59.07,48.23,24.76,24.76,0,0,0-23.78-18h-20.18v-27a40.94,40.94,0,0,0,20.34-35.33v-13.94h6.23a5,5,0,0,0,5-5v-85h7.3a43.46,43.46,0,0,0,21.49-5.73l49.42,25.33a38.74,38.74,0,0,0,21,29.18q.86.43,1.74.81c-9.57,16-11.2,34.9-4.07,50.63,6.15,13.54,17.15,21,23.16,24.19a5,5,0,0,0,4.73-8.82c-4.9-2.62-13.85-8.65-18.78-19.5-6.1-13.46-4.17-29.91,5-43.62a37.74,37.74,0,0,0,5.51.41,38.81,38.81,0,0,0,12.28-2,38.41,38.41,0,0,0,15.27-9.49c15.57,5.47,27,17.48,30.24,31.94,2.58,11.64-1,21.83-3.31,26.87a5,5,0,0,0,2.43,6.64,4.9,4.9,0,0,0,2.1.47,5,5,0,0,0,4.54-2.9c2.87-6.18,7.22-18.73,4-33.25-3.74-16.89-16.42-31-33.76-38.09q.43-.78.84-1.59a38.66,38.66,0,0,0-44.66-54.62l-58.6-32.3c-5.72-16.22-21.61-27.68-39.78-27.68h-8v-16.84a114.35,114.35,0,0,0-27.92-87.22c-19.51-22.14-46.4-35.46-74.14-36.81v-22.11a28.68,28.68,0,1,0-10,0v22.14c-22.85,1.23-45.17,10.47-63.47,26.43a5,5,0,1,0,6.57,7.53c17.7-15.43,39.44-23.94,61.5-24.11h.91l1.48,0c25.94.52,51.32,12.74,69.64,33.53a104.22,104.22,0,0,1,25.82,75.38H1506.09a103.75,103.75,0,0,1,18.11-65.21,5,5,0,0,0-8.23-5.67,113.81,113.81,0,0,0-19.48,76.1v16.85h-8c-18.17,0-34.07,11.46-39.78,27.67h0l-58.61,32.3a38.67,38.67,0,0,0-44.66,54.62q.4.81.84,1.59c-17.33,7.07-30,21.2-33.75,38.09-3.22,14.52,1.12,27.07,4,33.25a5,5,0,1,0,9.07-4.21c-2.35-5-5.89-15.23-3.31-26.87,3.2-14.46,14.66-26.47,30.24-31.94a38.9,38.9,0,0,0,27.54,11.5,37.74,37.74,0,0,0,5.51-.41c9.13,13.71,11.07,30.16,5,43.62-4.92,10.85-13.87,16.88-18.77,19.5a5,5,0,0,0,4.72,8.82c6-3.23,17-10.65,23.16-24.19,7.14-15.73,5.51-34.6-4.06-50.63.58-.25,1.16-.52,1.73-.81a38.71,38.71,0,0,0,21-29.19l49.41-25.32a43.41,43.41,0,0,0,21.49,5.73h7.31v85a5,5,0,0,0,5,5h4.25v13.93a41,41,0,0,0,20.34,35.34v27H1505.9a24.75,24.75,0,0,0-24.72,24.72v40.77a11.87,11.87,0,0,0,11.86,11.86h1.77a69,69,0,0,0-32.93,58.77V2612h-53.34a21.37,21.37,0,1,0,0,42.74H2603.9a21.37,21.37,0,0,0,0-42.74Zm-66.15-960.65a103.35,103.35,0,0,0,24.51-27.93,5,5,0,0,0-.34-5.65,16.56,16.56,0,0,1-3.51-10.22,5.06,5.06,0,0,0-1.08-3.11l.08,0a5,5,0,0,0,7.65-4.28c0-4.64.08-9.34.38-14,.11,1.9.27,3.79.46,5.67a9.86,9.86,0,0,1,10,7.71,5,5,0,0,0,5.55.23l-1.38,1.68a5,5,0,0,0-.67,5.28,5,5,0,0,0,2,2.18,5,5,0,0,0-3.52,3.39,9.25,9.25,0,0,1-7.11,6.44,5,5,0,0,0-3.63,2.92,85.95,85.95,0,0,1-59.63,49.53q-.48-1.47-1-2.91A102.88,102.88,0,0,0,2537.75,1651.32Zm-236.8,19.9a85.9,85.9,0,0,1-59.63-49.53,5,5,0,0,0-3.63-2.92,9.37,9.37,0,0,1-4.24-2,9.47,9.47,0,0,1-2.88-4.41,5,5,0,0,0-3.51-3.39,5,5,0,0,0,1.28-7.46l-1.37-1.68a8.87,8.87,0,0,1,11.49-3.53,5,5,0,0,0,4-4.41q.28-2.82.46-5.67c.29,4.65.42,9.35.38,14a5,5,0,0,0,7.65,4.28l.08,0a5,5,0,0,0-1.08,3.11,16.82,16.82,0,0,1-.9,5.41,16.64,16.64,0,0,1-2.61,4.81,5,5,0,0,0-.34,5.65,103.47,103.47,0,0,0,55.84,44.92Q2301.42,1669.75,2301,1671.22Zm-482.89,528.63h0a28.67,28.67,0,0,1,34.7,40,28.14,28.14,0,0,1-3.45,5.33l0,0a1.06,1.06,0,0,1-.16.21s0,0,0,0a28.76,28.76,0,0,1-27.63,9.71h0c-.61-.13-1.22-.28-1.83-.44a29.16,29.16,0,0,1-5.32-2,28.5,28.5,0,0,1-14.38-16.57,29.06,29.06,0,0,1-1.23-5.3,27.15,27.15,0,0,1-.25-3.48h0a28.69,28.69,0,0,1,19.61-27.48Zm-57.34-29.78,45,24.78a38.93,38.93,0,0,0-16.79,26.39l-40.59-20.81.7-.7A40.9,40.9,0,0,0,1760.72,2170.07Zm-50.09-30.34h8c14.11,0,26.42,9,30.55,21.61v0c.17.52.33,1.05.47,1.58a0,0,0,0,0,0,0,30.27,30.27,0,0,1,.7,3.46q.12.92.21,1.86c0,.6.08,1.19.1,1.79a31.06,31.06,0,0,1-8.92,22.68,33.48,33.48,0,0,1-4.54,3.88c-.59.43-1.2.83-1.82,1.21a33.39,33.39,0,0,1-17.52,5h-7.3Zm-107.06-182.54a18.68,18.68,0,1,1,18.67-18.68A18.7,18.7,0,0,1,1603.57,1957.19Zm-195.16,273.63a28.72,28.72,0,0,1-15.61,21.87,29.54,29.54,0,0,1-5.33,2h0c-.6.16-1.18.31-1.79.44h0a28.78,28.78,0,0,1-27.51-9.56l-.3-.38a28.86,28.86,0,0,1-6.53-18.16,28.82,28.82,0,0,1,1.49-9.1,28.62,28.62,0,0,1,36.25-18.13h0a28.7,28.7,0,0,1,19.6,27.49A25.46,25.46,0,0,1,1408.41,2230.82Zm9.83-9.58a38.91,38.91,0,0,0-16.8-26.39l45-24.78a40.93,40.93,0,0,0,11.74,29.66c.23.24.46.47.7.7Zm78.25-18.38h-7.31a33.42,33.42,0,0,1-17.52-5c-.62-.38-1.23-.78-1.82-1.21a32.11,32.11,0,0,1-4.54-3.88,31,31,0,0,1-8.91-22.68c0-.6,0-1.2.1-1.79s.12-1.25.21-1.86a30.27,30.27,0,0,1,.7-3.46,0,0,0,0,0,0,0c.14-.54.3-1.07.48-1.6h0c4.12-12.62,16.43-21.61,30.55-21.61h8Zm957.89-202.37a4.85,4.85,0,0,0,2.38.61,4.76,4.76,0,0,0,.84-.07,5,5,0,0,0,4.64,3.14,5.06,5.06,0,0,0,1.28-.17h0a4.82,4.82,0,0,0,1.93,2.18,5,5,0,0,0,5.66-.32l.39.23a4.92,4.92,0,0,0,.9.42l9.88,3.54a.89.89,0,0,1,.59.84h0a3.28,3.28,0,0,1-.81,1.84l-.11.11a2.63,2.63,0,0,1-.91.56,3,3,0,0,1-1,.17h-52.93v-15l.12.13a19,19,0,0,0,3.64,3.12,4.65,4.65,0,0,0,1.25.6,22.78,22.78,0,0,0,15.4-.72,21.42,21.42,0,0,0,5-3A5,5,0,0,0,2454.38,2000.49Zm-64.56-13c-.22-.17-.45-.32-.68-.47v-8.81h.85a5,5,0,0,0,5-4.57l8.67-100.09h.14l13.92,100.35a5,5,0,0,0,2.94,3.89V1987c-.23.14-.46.3-.68.46a7.21,7.21,0,0,0-2.82,5.71v20.25h-24.47v-20.25A7.22,7.22,0,0,0,2389.82,1987.45Zm40.81-9.28h12.1v14.65a12.58,12.58,0,0,1-6.91.24,10,10,0,0,1-1.17-1.08,9.18,9.18,0,0,1-1.24-1.74,9.12,9.12,0,0,0-2.79-3.11Zm-137.25-525.72c15-28.07,41.4-37.86,49.12-40.19a5,5,0,0,0,2.39-1.58c8.66-10.34,23.39-23.64,44.43-28.31,28-6.21,56.89,4.69,86,32.41,35.87,34.2,39.41,81.26,39.24,100.13a160.68,160.68,0,0,1-143.59-52.36,5,5,0,0,0-3.74-1.67,5.33,5.33,0,0,0-1.12.12,5,5,0,0,0-3.69,3.51c-1.88,6.63-9.84,29.24-33.33,41.86a66.64,66.64,0,0,1-17.91,6.52l-.9.19a70.34,70.34,0,0,1-23.65.49C2283.82,1503.15,2279.63,1478.12,2293.38,1452.45ZM2514,1525.08c0,.15,0,.3,0,.45-.21,1.76-.48,3.55-.81,5.3,0,0,0,0,0,.05-.78,3.85-1.6,7.77-2.46,11.66-.88-2.58-1.86-5.13-2.95-7.63q-2-4.47-4.33-8.75C2507.12,1525.89,2510.66,1525.52,2514,1525.08Zm-212.12-.9a99.24,99.24,0,0,0-4.33,8.93q-1.84,4.35-3.28,8.89c-.87-2.64-1.73-5.31-2.56-8l0-.1c-.88-2.87-1.68-5.81-2.38-8.73l-.3-1.29A80.09,80.09,0,0,0,2301.85,1524.18Zm0,43.47a5,5,0,0,0-6.42-3.39,16,16,0,0,1-13.48-1.39c-3.24-2-5.46-4.94-5.93-8-.7-4.48,2.19-10.06,7.67-13,.95,3,1.93,5.91,2.91,8.83q1,3.06,2.07,6.07a6.42,6.42,0,0,0,6.07,4.33l.49,0a6.42,6.42,0,0,0,5.83-5.24,89.84,89.84,0,0,1,13.56-33.51,76.54,76.54,0,0,0,19.16-7.18c20.58-11,30.76-28.74,35.38-39.87a171.1,171.1,0,0,0,67.28,42.3l.52.17a33,33,0,0,0-4.11,1.15,5,5,0,0,0,3.32,9.43,23,23,0,0,1,11.13-1,23.31,23.31,0,0,1,12.86,6.71,5,5,0,0,0,7.15-7,33.49,33.49,0,0,0-2.74-2.5,170.47,170.47,0,0,0,26.58,2.07h.82a88.56,88.56,0,0,1,6.55,12.31,90.48,90.48,0,0,1,6.2,20.84,6.13,6.13,0,0,0,5.86,5.14h.23a6.11,6.11,0,0,0,6-4.69c1.15-4.64,2.26-9.37,3.3-14,.57-2.56,1.13-5.12,1.66-7.68,5.22,2.73,8.79,7.61,9,12.83a14.8,14.8,0,0,1-4.83,11,19,19,0,0,1-14.57,5.25,5,5,0,0,0-5.1,3.48c-14.54,46.07-58.07,76.94-105.88,75.08C2354,1644.27,2314.45,1612.75,2301.85,1567.65Zm117,87.59v10.25a22.85,22.85,0,0,1-12.62,5.36c-.49,0-.95.06-1.4.07a23.1,23.1,0,0,1-2.63-.07l-.92-.1-.29,0c-.32,0-.63-.09-.93-.16H2400l-.58-.13a.07.07,0,0,1-.06,0,4.54,4.54,0,0,1-.53-.12,4.94,4.94,0,0,1-.55-.15q-.46-.12-.9-.27a4.27,4.27,0,0,1-.54-.18c-.33-.11-.66-.24-1-.37a1.19,1.19,0,0,1-.26-.11c-.32-.13-.64-.27-.94-.42a20.23,20.23,0,0,1-2.79-1.57,4.52,4.52,0,0,1-.51-.34,3.88,3.88,0,0,1-.33-.23c-.56-.39-1.06-.79-1.49-1.15h0v-10.29q5.17.68,10.43.88,2.26.09,4.5.09A112.66,112.66,0,0,0,2418.85,1655.24Zm-65.49,43a5,5,0,0,0-3.17-2.25,181.73,181.73,0,0,1-41.52-14.66c.18-1,.39-1.94.62-2.9,0-.1.05-.19.07-.29a55.66,55.66,0,0,1,2.94-8.67c.31-.71.63-1.41,1-2.11l.06-.12a54.34,54.34,0,0,1,3.67-6.36,78.4,78.4,0,0,0,47.8,4.09,5.08,5.08,0,0,0,.94-.2,53.75,53.75,0,0,1,9.64-.87h4.16v3.79a4.9,4.9,0,0,0,.83,2.76,3.58,3.58,0,0,0,.29.39c.06.06.11.13.16.19l.17.17.27.28a4.12,4.12,0,0,0,.37.35c.35.32.72.66,1.13,1l.41.35c.28.24.58.48.9.73l.48.37a33.26,33.26,0,0,0,2.94,2l1,.55a32.84,32.84,0,0,0,4.53,2.1l.66.24.87.29c.4.12.8.25,1.22.36s1,.27,1.55.38.78.17,1.18.24l.86.14c.33.06.67.1,1,.14l1,.11a34.79,34.79,0,0,0,4.2.08l.81,0a34.43,34.43,0,0,0,20.74-9.4h0l.22-.23c.12-.12.23-.24.34-.37a2.85,2.85,0,0,0,.25-.33c.08-.11.15-.23.22-.35a2,2,0,0,0,.15-.29.51.51,0,0,0,.07-.15l.11-.27a.7.7,0,0,0,.08-.2l.06-.2a1.21,1.21,0,0,0,0-.18,1.55,1.55,0,0,0,.05-.23,2.2,2.2,0,0,0,.06-.37,1.23,1.23,0,0,0,0-.19c0-.13,0-.27,0-.41v-3.79H2433a53.65,53.65,0,0,1,9.8.9l.18,0a3.29,3.29,0,0,0,.43.09,78.39,78.39,0,0,0,48-4.05,54.41,54.41,0,0,1,3.68,6.36,2.1,2.1,0,0,0,.13.26c.31.65.62,1.31.9,2a54.45,54.45,0,0,1,3,8.82.64.64,0,0,1,0,.07q.36,1.47.63,3A181.43,181.43,0,0,1,2458.2,1696a5,5,0,0,0-3.77,6.1,215.37,215.37,0,0,1,5.18,30.06c1.51,13.53,2,24.79,2.58,39l.29,6.64c.7,16,1.08,32.18,1.15,48.25l-2.46.71c-4.59,1.3-9.19,2.41-13.74,3.33a193.55,193.55,0,0,1-43.11,3.76h-.25a193.15,193.15,0,0,1-43.12-3.77c-5.35-1.07-10.78-2.43-16.19-4,.07-16.07.45-32.28,1.15-48.25l.28-6.57c.68-16,1.13-26.49,2.59-39.1,1.77-15.41,3.61-23.85,5.18-30.08A5,5,0,0,0,2353.36,1698.23Zm-5,139.23c3.55.93,7.1,1.75,10.61,2.46a204.1,204.1,0,0,0,45.22,4c1.65,0,3.29.06,4.94.06a203.14,203.14,0,0,0,40.28-4c2.54-.51,5.1-1.08,7.66-1.71l-9.43,130H2427l-13.27-95.63h0a32.09,32.09,0,0,0,5.26-1.9,32.79,32.79,0,0,0,10-7.13,5,5,0,1,0-7.22-6.91,23.1,23.1,0,0,1-7,5,22.57,22.57,0,0,1-7,2h-8.91a20,20,0,0,1-6.92-1.45,20.3,20.3,0,0,1-7.63-5.45,5,5,0,0,0-7.54,6.57,29.8,29.8,0,0,0,16.82,9.76l-8.26,95.23h-24.74Zm30.78,149.68a9.15,9.15,0,0,0-2.78,3.1,10.18,10.18,0,0,1-1.24,1.74,9.34,9.34,0,0,1-1.18,1.08,12.54,12.54,0,0,1-6.9-.24v-14.65h12.09Zm-52.25,23.75a.87.87,0,0,1,.58-.84l9.88-3.54a5,5,0,0,0,.91-.42l.38-.23a5,5,0,0,0,3.07,1.05,4.92,4.92,0,0,0,2.59-.73,4.82,4.82,0,0,0,1.93-2.18h0a5.06,5.06,0,0,0,1.28.17,5,5,0,0,0,4.64-3.14,4.76,4.76,0,0,0,.84.07,4.91,4.91,0,0,0,2.39-.61,5,5,0,0,0,1.85-1.74c.45.36.93.7,1.43,1h0c.58.37,1.19.74,1.84,1.07h0a17.62,17.62,0,0,0,1.69.82,22.41,22.41,0,0,0,15.4.72,5,5,0,0,0,1.25-.6,19.32,19.32,0,0,0,3.64-3.12l.12-.13v15h-52.93a3,3,0,0,1-1-.17,2.39,2.39,0,0,1-.91-.55l-.09-.09a3.27,3.27,0,0,1-.83-1.86Zm-627.65,378.25a14.73,14.73,0,0,1,14.71,14.72v40.77a1.85,1.85,0,0,1-1.08,1.68,1.65,1.65,0,0,1-.77.18h-84.71a1.52,1.52,0,0,1-.73-.18,1.63,1.63,0,0,1-.92-1.47v-46.77a9,9,0,0,1,8.93-8.93Zm-83.41,57.17H1589.3a11.84,11.84,0,0,0,.09-1.47v-46.77a19,19,0,0,0-18.92-18.93h-3.65v-27.36a41.24,41.24,0,0,0,19.77-35v-13.94h32v13.93a40.5,40.5,0,0,0,12.28,29.15,41.1,41.1,0,0,0,7.49,5.84v27.36h-3.65a19,19,0,0,0-18.93,18.93v46.77A11.84,11.84,0,0,0,1615.83,2446.31Zm32.49-67.17v-23a39.63,39.63,0,0,0,10.66,1.46h.8a39.57,39.57,0,0,0,9.28-1.29v22.86Zm41.08-62.34a30.93,30.93,0,0,1-16,27.06,27.15,27.15,0,0,1-2.82,1.37h0a29.62,29.62,0,0,1-24.62-.67c-.27-.13-.54-.26-.8-.41a31.09,31.09,0,0,1-16.6-27.35v-13.94h60.85Zm-182.91-199.14h194.14v175.2H1506.49Zm9.25,199.14v-13.94h60.85v13.94a31.08,31.08,0,0,1-16.64,27.37c-.21.11-.43.23-.65.33h0a29.58,29.58,0,0,1-24.7.72h0a27.15,27.15,0,0,1-2.82-1.37A30.93,30.93,0,0,1,1515.74,2316.8Zm41.08,39.32v23h-20.74v-22.86a39.57,39.57,0,0,0,9.28,1.29h.79A39.65,39.65,0,0,0,1556.82,2356.12ZM1493,2446.49a1.87,1.87,0,0,1-1.86-1.86v-40.77a14.73,14.73,0,0,1,14.72-14.72h64.57a8.94,8.94,0,0,1,8.92,8.93v46.77a1.62,1.62,0,0,1-.91,1.47,1.52,1.52,0,0,1-.73.18ZM2603.9,2644.71H1408.54a11.37,11.37,0,1,1,0-22.74h58.34a5,5,0,0,0,5-5V2515.26a59,59,0,0,1,54.31-58.77c1.53-.12,3.08-.18,4.64-.18h196a5,5,0,0,0,5-5v-42.1a50.36,50.36,0,0,1,50.29-50.31h207.76a5,5,0,0,0,5-5v-70.43a56.15,56.15,0,0,1,56.09-56.09h205.13a5,5,0,0,0,5-5V2075.73a52.38,52.38,0,0,1,52.32-52.32h170.9a62.12,62.12,0,0,1,62.06,62V2617a5,5,0,0,0,5,5h52.55a11.37,11.37,0,0,1,0,22.74Z" transform="translate(-1306.34 -1365.74)" fill="url(#l)"/><path d="M1726.8,2479h-196a36.25,36.25,0,0,0-36.21,36.22V2617a5,5,0,0,0,5,5H1726.8a5,5,0,0,0,5-5V2484A5,5,0,0,0,1726.8,2479Zm-5,132.93H1504.62v-96.71a26.24,26.24,0,0,1,26.21-26.22h191Zm268-230.34H1782.09a27.6,27.6,0,0,0-27.56,27.58V2617a5,5,0,0,0,5,5h230.32a5,5,0,0,0,5-5V2386.63A5,5,0,0,0,1989.85,2381.63Zm-5,230.34H1764.53V2409.21a17.59,17.59,0,0,1,17.56-17.58h202.76Zm499.44-565.82h-170.9a29.62,29.62,0,0,0-29.59,29.58v333.82a11.37,11.37,0,1,1-22.73,0V2255.12a5,5,0,0,0-5-5H2050.94a33.39,33.39,0,0,0-33.35,33.35V2617a5,5,0,0,0,5,5h233.48a5,5,0,0,0,5-5V2471.29a11.37,11.37,0,1,1,22.73,0V2617a5,5,0,0,0,5,5h229.82a5,5,0,0,0,5-5V2085.46A39.36,39.36,0,0,0,2484.29,2046.15ZM2513.62,2612H2293.8V2471.29a21.37,21.37,0,1,0-42.73,0V2612H2027.59v-328.5a23.37,23.37,0,0,1,23.35-23.35h200.13v149.43a21.37,21.37,0,1,0,42.73,0V2075.73a19.61,19.61,0,0,1,19.59-19.58h170.9a29.36,29.36,0,0,1,29.33,29.31Zm-29.33-565.82h-170.9a29.62,29.62,0,0,0-29.59,29.58v333.82a11.37,11.37,0,1,1-22.73,0V2255.12a5,5,0,0,0-5-5H2050.94a33.39,33.39,0,0,0-33.35,33.35V2617a5,5,0,0,0,5,5h233.48a5,5,0,0,0,5-5V2471.29a11.37,11.37,0,1,1,22.73,0V2617a5,5,0,0,0,5,5h229.82a5,5,0,0,0,5-5V2085.46A39.36,39.36,0,0,0,2484.29,2046.15ZM2513.62,2612H2293.8V2471.29a21.37,21.37,0,1,0-42.73,0V2612H2027.59v-328.5a23.37,23.37,0,0,1,23.35-23.35h200.13v149.43a21.37,21.37,0,1,0,42.73,0V2075.73a19.61,19.61,0,0,1,19.59-19.58h170.9a29.36,29.36,0,0,1,29.33,29.31Zm-523.77-230.34H1782.09a27.6,27.6,0,0,0-27.56,27.58V2617a5,5,0,0,0,5,5h230.32a5,5,0,0,0,5-5V2386.63A5,5,0,0,0,1989.85,2381.63Zm-5,230.34H1764.53V2409.21a17.59,17.59,0,0,1,17.56-17.58h202.76ZM1726.8,2479h-196a36.25,36.25,0,0,0-36.21,36.22V2617a5,5,0,0,0,5,5H1726.8a5,5,0,0,0,5-5V2484A5,5,0,0,0,1726.8,2479Zm-5,132.93H1504.62v-96.71a26.24,26.24,0,0,1,26.21-26.22h191Zm5-132.93h-196a36.25,36.25,0,0,0-36.21,36.22V2617a5,5,0,0,0,5,5H1726.8a5,5,0,0,0,5-5V2484A5,5,0,0,0,1726.8,2479Zm-5,132.93H1504.62v-96.71a26.24,26.24,0,0,1,26.21-26.22h191Zm268-230.34H1782.09a27.6,27.6,0,0,0-27.56,27.58V2617a5,5,0,0,0,5,5h230.32a5,5,0,0,0,5-5V2386.63A5,5,0,0,0,1989.85,2381.63Zm-5,230.34H1764.53V2409.21a17.59,17.59,0,0,1,17.56-17.58h202.76Zm499.44-565.82h-170.9a29.62,29.62,0,0,0-29.59,29.58v333.82a11.37,11.37,0,1,1-22.73,0V2255.12a5,5,0,0,0-5-5H2050.94a33.39,33.39,0,0,0-33.35,33.35V2617a5,5,0,0,0,5,5h233.48a5,5,0,0,0,5-5V2471.29a11.37,11.37,0,1,1,22.73,0V2617a5,5,0,0,0,5,5h229.82a5,5,0,0,0,5-5V2085.46A39.36,39.36,0,0,0,2484.29,2046.15ZM2513.62,2612H2293.8V2471.29a21.37,21.37,0,1,0-42.73,0V2612H2027.59v-328.5a23.37,23.37,0,0,1,23.35-23.35h200.13v149.43a21.37,21.37,0,1,0,42.73,0V2075.73a19.61,19.61,0,0,1,19.59-19.58h170.9a29.36,29.36,0,0,1,29.33,29.31Zm-29.33-565.82h-170.9a29.62,29.62,0,0,0-29.59,29.58v333.82a11.37,11.37,0,1,1-22.73,0V2255.12a5,5,0,0,0-5-5H2050.94a33.39,33.39,0,0,0-33.35,33.35V2617a5,5,0,0,0,5,5h233.48a5,5,0,0,0,5-5V2471.29a11.37,11.37,0,1,1,22.73,0V2617a5,5,0,0,0,5,5h229.82a5,5,0,0,0,5-5V2085.46A39.36,39.36,0,0,0,2484.29,2046.15ZM2513.62,2612H2293.8V2471.29a21.37,21.37,0,1,0-42.73,0V2612H2027.59v-328.5a23.37,23.37,0,0,1,23.35-23.35h200.13v149.43a21.37,21.37,0,1,0,42.73,0V2075.73a19.61,19.61,0,0,1,19.59-19.58h170.9a29.36,29.36,0,0,1,29.33,29.31Zm-523.77-230.34H1782.09a27.6,27.6,0,0,0-27.56,27.58V2617a5,5,0,0,0,5,5h230.32a5,5,0,0,0,5-5V2386.63A5,5,0,0,0,1989.85,2381.63Zm-5,230.34H1764.53V2409.21a17.59,17.59,0,0,1,17.56-17.58h202.76ZM1726.8,2479h-196a36.25,36.25,0,0,0-36.21,36.22V2617a5,5,0,0,0,5,5H1726.8a5,5,0,0,0,5-5V2484A5,5,0,0,0,1726.8,2479Zm-5,132.93H1504.62v-96.71a26.24,26.24,0,0,1,26.21-26.22h191Zm5-132.93h-196a36.25,36.25,0,0,0-36.21,36.22V2617a5,5,0,0,0,5,5H1726.8a5,5,0,0,0,5-5V2484A5,5,0,0,0,1726.8,2479Zm-5,132.93H1504.62v-96.71a26.24,26.24,0,0,1,26.21-26.22h191Zm268-230.34H1782.09a27.6,27.6,0,0,0-27.56,27.58V2617a5,5,0,0,0,5,5h230.32a5,5,0,0,0,5-5V2386.63A5,5,0,0,0,1989.85,2381.63Zm-5,230.34H1764.53V2409.21a17.59,17.59,0,0,1,17.56-17.58h202.76Zm499.44-565.82h-170.9a29.62,29.62,0,0,0-29.59,29.58v333.82a11.37,11.37,0,1,1-22.73,0V2255.12a5,5,0,0,0-5-5H2050.94a33.39,33.39,0,0,0-33.35,33.35V2617a5,5,0,0,0,5,5h233.48a5,5,0,0,0,5-5V2471.29a11.37,11.37,0,1,1,22.73,0V2617a5,5,0,0,0,5,5h229.82a5,5,0,0,0,5-5V2085.46A39.36,39.36,0,0,0,2484.29,2046.15ZM2513.62,2612H2293.8V2471.29a21.37,21.37,0,1,0-42.73,0V2612H2027.59v-328.5a23.37,23.37,0,0,1,23.35-23.35h200.13v149.43a21.37,21.37,0,1,0,42.73,0V2075.73a19.61,19.61,0,0,1,19.59-19.58h170.9a29.36,29.36,0,0,1,29.33,29.31Zm-29.33-565.82h-170.9a29.62,29.62,0,0,0-29.59,29.58v333.82a11.37,11.37,0,1,1-22.73,0V2255.12a5,5,0,0,0-5-5H2050.94a33.39,33.39,0,0,0-33.35,33.35V2617a5,5,0,0,0,5,5h233.48a5,5,0,0,0,5-5V2471.29a11.37,11.37,0,1,1,22.73,0V2617a5,5,0,0,0,5,5h229.82a5,5,0,0,0,5-5V2085.46A39.36,39.36,0,0,0,2484.29,2046.15ZM2513.62,2612H2293.8V2471.29a21.37,21.37,0,1,0-42.73,0V2612H2027.59v-328.5a23.37,23.37,0,0,1,23.35-23.35h200.13v149.43a21.37,21.37,0,1,0,42.73,0V2075.73a19.61,19.61,0,0,1,19.59-19.58h170.9a29.36,29.36,0,0,1,29.33,29.31Zm-523.77-230.34H1782.09a27.6,27.6,0,0,0-27.56,27.58V2617a5,5,0,0,0,5,5h230.32a5,5,0,0,0,5-5V2386.63A5,5,0,0,0,1989.85,2381.63Zm-5,230.34H1764.53V2409.21a17.59,17.59,0,0,1,17.56-17.58h202.76ZM1726.8,2479h-196a36.25,36.25,0,0,0-36.21,36.22V2617a5,5,0,0,0,5,5H1726.8a5,5,0,0,0,5-5V2484A5,5,0,0,0,1726.8,2479Zm-5,132.93H1504.62v-96.71a26.24,26.24,0,0,1,26.21-26.22h191Zm5-132.93h-196a36.25,36.25,0,0,0-36.21,36.22V2617a5,5,0,0,0,5,5H1726.8a5,5,0,0,0,5-5V2484A5,5,0,0,0,1726.8,2479Zm-5,132.93H1504.62v-96.71a26.24,26.24,0,0,1,26.21-26.22h191Zm268-230.34H1782.09a27.6,27.6,0,0,0-27.56,27.58V2617a5,5,0,0,0,5,5h230.32a5,5,0,0,0,5-5V2386.63A5,5,0,0,0,1989.85,2381.63Zm-5,230.34H1764.53V2409.21a17.59,17.59,0,0,1,17.56-17.58h202.76Zm499.44-565.82h-170.9a29.62,29.62,0,0,0-29.59,29.58v333.82a11.37,11.37,0,1,1-22.73,0V2255.12a5,5,0,0,0-5-5H2050.94a33.39,33.39,0,0,0-33.35,33.35V2617a5,5,0,0,0,5,5h233.48a5,5,0,0,0,5-5V2471.29a11.37,11.37,0,1,1,22.73,0V2617a5,5,0,0,0,5,5h229.82a5,5,0,0,0,5-5V2085.46A39.36,39.36,0,0,0,2484.29,2046.15ZM2513.62,2612H2293.8V2471.29a21.37,21.37,0,1,0-42.73,0V2612H2027.59v-328.5a23.37,23.37,0,0,1,23.35-23.35h200.13v149.43a21.37,21.37,0,1,0,42.73,0V2075.73a19.61,19.61,0,0,1,19.59-19.58h170.9a29.36,29.36,0,0,1,29.33,29.31Zm-29.33-565.82h-170.9a29.62,29.62,0,0,0-29.59,29.58v333.82a11.37,11.37,0,1,1-22.73,0V2255.12a5,5,0,0,0-5-5H2050.94a33.39,33.39,0,0,0-33.35,33.35V2617a5,5,0,0,0,5,5h233.48a5,5,0,0,0,5-5V2471.29a11.37,11.37,0,1,1,22.73,0V2617a5,5,0,0,0,5,5h229.82a5,5,0,0,0,5-5V2085.46A39.36,39.36,0,0,0,2484.29,2046.15ZM2513.62,2612H2293.8V2471.29a21.37,21.37,0,1,0-42.73,0V2612H2027.59v-328.5a23.37,23.37,0,0,1,23.35-23.35h200.13v149.43a21.37,21.37,0,1,0,42.73,0V2075.73a19.61,19.61,0,0,1,19.59-19.58h170.9a29.36,29.36,0,0,1,29.33,29.31Zm-523.77-230.34H1782.09a27.6,27.6,0,0,0-27.56,27.58V2617a5,5,0,0,0,5,5h230.32a5,5,0,0,0,5-5V2386.63A5,5,0,0,0,1989.85,2381.63Zm-5,230.34H1764.53V2409.21a17.59,17.59,0,0,1,17.56-17.58h202.76ZM1726.8,2479h-196a36.25,36.25,0,0,0-36.21,36.22V2617a5,5,0,0,0,5,5H1726.8a5,5,0,0,0,5-5V2484A5,5,0,0,0,1726.8,2479Zm-5,132.93H1504.62v-96.71a26.24,26.24,0,0,1,26.21-26.22h191Z" transform="translate(-1306.34 -1365.74)" fill="url(#m)"/><path d="M1638.28,2087.67a24.47,24.47,0,1,1,24.46-24.47A24.5,24.5,0,0,1,1638.28,2087.67Zm0-38.93a14.47,14.47,0,1,0,14.46,14.46A14.48,14.48,0,0,0,1638.28,2048.74Z" transform="translate(-1306.34 -1365.74)" fill="url(#n)"/><path d="M1573.5,2087.67A24.47,24.47,0,1,1,1598,2063.2,24.5,24.5,0,0,1,1573.5,2087.67Zm0-38.93A14.47,14.47,0,1,0,1588,2063.2,14.48,14.48,0,0,0,1573.5,2048.74Z" transform="translate(-1306.34 -1365.74)" fill="url(#o)"/><ellipse cx="253.19" cy="788.49" rx="21.98" ry="12.26" fill="url(#p)"/><ellipse cx="341.58" cy="788.49" rx="21.98" ry="12.26" fill="url(#q)"/><path d="M1649.85,2260.41h-33a5,5,0,0,1,0-10h33a5,5,0,0,0,5.17-4.77v-40.43a5,5,0,0,0-5.17-4.77H1559a5,5,0,0,0-5.17,4.77v40.43a5,5,0,0,0,5.17,4.77h34a5,5,0,0,1,0,10h-34a15,15,0,0,1-15.17-14.77v-40.43a15,15,0,0,1,15.17-14.77h90.84a15,15,0,0,1,15.17,14.77v40.43A15,15,0,0,1,1649.85,2260.41Z" transform="translate(-1306.34 -1365.74)" fill="url(#r)"/><circle cx="1054.88" cy="182.92" r="13.07" fill="url(#s)"/><circle cx="1134.5" cy="182.92" r="12.15" fill="url(#t)"/><path d="M2404.06,1616.59c-.87,0-1.75,0-2.63-.06a65.7,65.7,0,0,1-41.47-17.17,5,5,0,1,1,6.74-7.38,56.65,56.65,0,0,0,35.13,14.56c21.35.86,36.14-11.32,40.16-15.07a5,5,0,0,1,6.82,7.31C2443,1604.24,2427.17,1616.59,2404.06,1616.59Z" transform="translate(-1306.34 -1365.74)" fill="url(#u)"/><path d="M2404.15,1573.21h-.72a25.84,25.84,0,0,1-18.7-9.17,5,5,0,0,1,7.7-6.39,15.84,15.84,0,0,0,11.29,5.56h.41c7.2,0,11.59-5.35,12.07-6a5,5,0,1,1,7.89,6.15C2422.79,1565.05,2415.83,1573.21,2404.15,1573.21Z" transform="translate(-1306.34 -1365.74)" fill="url(#v)"/><path d="M2340.4,1536.75a4.94,4.94,0,0,1-3.17-1.14,5,5,0,0,1-.69-7,33.41,33.41,0,0,1,17.56-11.14,32.87,32.87,0,0,1,16.07.1,5,5,0,0,1-2.5,9.69,22.84,22.84,0,0,0-11.17-.09,23.36,23.36,0,0,0-12.24,7.8A5,5,0,0,1,2340.4,1536.75Z" transform="translate(-1306.34 -1365.74)" fill="url(#w)"/><path d="M2404.1,1678.44q-1.24,0-2.55-.12a30.41,30.41,0,0,1-18.8-8.89,2.52,2.52,0,0,1-.72-1.76v-18.15a2.5,2.5,0,0,1,5,0v17.08a25.66,25.66,0,0,0,15,6.74c9.72.85,16.86-4.53,19.36-6.76v-17.06a2.5,2.5,0,0,1,5,0v18.15a2.52,2.52,0,0,1-.74,1.77C2423.38,1671.65,2415.58,1678.43,2404.1,1678.44Z" transform="translate(-1306.34 -1365.74)" fill="#fff"/><path d="M2452.28,1975.67h-29.64a2.5,2.5,0,0,1-2.48-2.16L2405.94,1871h-4.6l-8.88,102.38a2.49,2.49,0,0,1-2.49,2.28h-33.88a2.49,2.49,0,0,1-2.48-2.27l-13.4-142.49a2.5,2.5,0,1,1,5-.46l13.18,140.22h29.31l8.88-102.37a2.49,2.49,0,0,1,2.49-2.29h9.07a2.5,2.5,0,0,1,2.48,2.16l14.22,102.5H2450l10.11-139.26a2.53,2.53,0,0,1,2.68-2.32,2.5,2.5,0,0,1,2.31,2.68l-10.28,141.58A2.51,2.51,0,0,1,2452.28,1975.67Z" transform="translate(-1306.34 -1365.74)" fill="#fff"/><path d="M2399.05,1871H2399a27.39,27.39,0,0,1-9.81-2,28,28,0,0,1-10.48-7.48,2.5,2.5,0,1,1,3.77-3.29,22.86,22.86,0,0,0,8.58,6.13,22.43,22.43,0,0,0,8,1.63,2.5,2.5,0,0,1,0,5Z" transform="translate(-1306.34 -1365.74)" fill="#fff"/><path d="M2408.12,1871a2.5,2.5,0,0,1-.26-5,25.53,25.53,0,0,0,15.7-7.72,2.5,2.5,0,0,1,3.61,3.46,30.48,30.48,0,0,1-18.78,9.23Z" transform="translate(-1306.34 -1365.74)" fill="#fff"/><path d="M2304.48,1679.53l-.43,0a93.46,93.46,0,0,1-69.11-53.68,17,17,0,0,1-6.35-3.36,16.76,16.76,0,0,1-4.62-6.34l-11.57-1a7.14,7.14,0,0,1-5-2.9,6.23,6.23,0,0,1-1.09-5,6.59,6.59,0,0,1,6.21-5h.11l6.64-.07-8.8-10.69-.13-.18a6,6,0,0,1-.94-4.58,5.63,5.63,0,0,1,2.43-3.63,5.81,5.81,0,0,1,7,.73l4.49,3.54-.78-1.54c-1.26-2.42-2.62-4.81-4.07-7.11a2,2,0,0,1-.11-.2,6.32,6.32,0,0,1,10.33-7.12,2.34,2.34,0,0,1,.24.31c2,3,4,6.21,5.81,9.37l.9,1.56c0-.39,0-.78,0-1.17.1-3.1.1-6.24,0-9.35a1.85,1.85,0,0,1,0-.23,6.88,6.88,0,0,1,5-6.31,7,7,0,0,1,8.24,5.19,1.57,1.57,0,0,1,.06.28c.57,4.19,1,8.45,1.32,12.67.29,4,.46,8,.51,12l6.5-4.06a6.7,6.7,0,0,1,4.88-1.36,6.35,6.35,0,0,1,4.29,2.42,6.53,6.53,0,0,1-.56,8.29l-.15.16-8.32,7.49a24.27,24.27,0,0,1-4,12.27,96,96,0,0,0,56,41.83,2.5,2.5,0,1,1-1.33,4.82,101,101,0,0,1-59.83-45.48,2.49,2.49,0,0,1,.17-2.82,19.06,19.06,0,0,0,4-11.76,2.5,2.5,0,0,1,.83-1.86l9-8.12a1.51,1.51,0,0,0,.17-1.81,1.29,1.29,0,0,0-.89-.46,1.64,1.64,0,0,0-1.26.37l-.26.19-10.43,6.51a2.49,2.49,0,0,1-3.82-2.14c0-5.34-.13-10.75-.52-16.09-.29-4.06-.72-8.16-1.26-12.18a2,2,0,0,0-2.15-1.47,1.88,1.88,0,0,0-1.24,1.67c.11,3.17.1,6.37,0,9.54s-.33,6.65-.66,9.94a2.5,2.5,0,0,1-4.71.9c-1.55-3-3.2-6-4.89-8.88s-3.62-6-5.53-8.94a1.32,1.32,0,0,0-2.11,1.52c1.49,2.38,2.9,4.85,4.2,7.35a104.82,104.82,0,0,1,4.94,11.09,2.5,2.5,0,0,1-3.89,2.84l-12.38-9.77-.19-.16a.84.84,0,0,0-1-.22.68.68,0,0,0-.23.41,1,1,0,0,0,.12.7l12,14.61a2.5,2.5,0,0,1-1.9,4.09l-11.8.13a1.7,1.7,0,0,0-1.56,1,1.3,1.3,0,0,0,.28,1,2.08,2.08,0,0,0,1.47.84l13.1,1.16a2.49,2.49,0,0,1,2.17,1.77,11.88,11.88,0,0,0,3.66,5.59,11.72,11.72,0,0,0,5.38,2.58,2.51,2.51,0,0,1,1.81,1.46,88.43,88.43,0,0,0,65.89,51.89,2.5,2.5,0,0,1-.43,5Z" transform="translate(-1306.34 -1365.74)" fill="#fff"/><path d="M2409.13,1841.44c-1.65,0-3.29,0-4.94-.06a201,201,0,0,1-44.73-3.92,196.38,196.38,0,0,1-20.47-5.3,2.5,2.5,0,0,1-1.74-2.39c0-17.38.41-35,1.16-52.27l.28-6.56c.69-16.11,1.15-26.76,2.63-39.64a235.76,235.76,0,0,1,4.75-28.57,191.89,191.89,0,0,1-19.62-5.76,189.93,189.93,0,0,1-24.41-10.61,2.48,2.48,0,0,1-1.33-2.51,61.6,61.6,0,0,1,12.66-30.74,2.48,2.48,0,0,1,3-.72,71.52,71.52,0,0,0,28.41,7,70.81,70.81,0,0,0,18.83-1.89h0l.11,0a61,61,0,0,1,11.6-1.11h9.15a2.5,2.5,0,0,1,2.5,2.5v7.73a25.6,25.6,0,0,0,14.95,6.72,27.42,27.42,0,0,0,4.44,0,25.59,25.59,0,0,0,14.93-6.72v-7.73a2.5,2.5,0,0,1,2.5-2.5H2433a61.24,61.24,0,0,1,11.62,1.11l.11,0a70.76,70.76,0,0,0,47.23-5.13,2.5,2.5,0,0,1,3.05.72,61.84,61.84,0,0,1,12.66,30.74,2.49,2.49,0,0,1-1.33,2.51,189.93,189.93,0,0,1-24.41,10.61,192.63,192.63,0,0,1-19.62,5.76,227.36,227.36,0,0,1,4.75,28.58c1.53,13.78,2,25.16,2.62,39.56l.29,6.63c.75,17.3,1.14,34.89,1.16,52.27a2.5,2.5,0,0,1-1.74,2.39,195.9,195.9,0,0,1-20.48,5.3A200.43,200.43,0,0,1,2409.13,1841.44Zm-4.94-5.06h.06a195.6,195.6,0,0,0,43.67-3.82c6-1.21,12.14-2.76,18.21-4.62,0-16.71-.43-33.6-1.16-50.22l-.28-6.64c-.61-14.3-1.08-25.61-2.6-39.22a217.13,217.13,0,0,0-5.24-30.39,2.52,2.52,0,0,1,.3-1.93,2.46,2.46,0,0,1,1.58-1.12,185.39,185.39,0,0,0,43.75-15.69,56.81,56.81,0,0,0-10.22-25,75.81,75.81,0,0,1-48.4,4.69,1.81,1.81,0,0,1-.31,0l-.17-.05a56.47,56.47,0,0,0-10.38-1h-6.65v6.29a2.48,2.48,0,0,1-.73,1.76,30,30,0,0,1-42.87,0,2.52,2.52,0,0,1-.72-1.76v-6.29h-6.65a57,57,0,0,0-10.27.94h0a2.43,2.43,0,0,1-.68.14,75.86,75.86,0,0,1-48.29-4.72,56.81,56.81,0,0,0-10.22,25,185.39,185.39,0,0,0,43.75,15.69,2.48,2.48,0,0,1,1.58,1.12,2.52,2.52,0,0,1,.3,1.93c-1.59,6.31-3.45,14.85-5.24,30.4-1.46,12.71-1.92,23.28-2.6,39.28l-.28,6.57c-.73,16.62-1.12,33.51-1.16,50.22,6.07,1.86,12.19,3.41,18.21,4.62a195.55,195.55,0,0,0,43.67,3.82Z" transform="translate(-1306.34 -1365.74)" fill="#fff"/><path d="M2503.89,1679.53a2.5,2.5,0,0,1-.42-5,88.43,88.43,0,0,0,65.89-51.89,2.51,2.51,0,0,1,1.81-1.46,11.76,11.76,0,0,0,5.38-2.58,11.88,11.88,0,0,0,3.65-5.59,2.51,2.51,0,0,1,2.17-1.77l13.17-1.17a2.05,2.05,0,0,0,1.41-.83,1.3,1.3,0,0,0,.28-1,1.71,1.71,0,0,0-1.57-1l-11.79-.13a2.5,2.5,0,0,1-1.9-4.09l12-14.61a1,1,0,0,0,.12-.7.68.68,0,0,0-.23-.41.85.85,0,0,0-1,.22l-.18.16-12.38,9.77a2.5,2.5,0,0,1-3.89-2.84,103.7,103.7,0,0,1,4.94-11.09c1.29-2.49,2.7-5,4.2-7.35a1.37,1.37,0,0,0-.38-1.63,1.39,1.39,0,0,0-1.73.11c-1.91,2.92-3.77,5.92-5.53,8.94s-3.35,5.9-4.89,8.88a2.5,2.5,0,0,1-4.71-.9c-.33-3.29-.55-6.64-.66-9.94s-.11-6.37,0-9.54a1.85,1.85,0,0,0-1.23-1.67,2,2,0,0,0-2.15,1.47c-.54,4-1,8.12-1.26,12.18-.39,5.34-.56,10.75-.52,16.09a2.5,2.5,0,0,1-3.82,2.14l-10.43-6.51a2.48,2.48,0,0,1-.26-.19,1.65,1.65,0,0,0-1.26-.37,1.27,1.27,0,0,0-.89.46,1.51,1.51,0,0,0,.17,1.81l9,8.12a2.5,2.5,0,0,1,.83,1.86,19.05,19.05,0,0,0,1,6.22,19.34,19.34,0,0,0,3,5.54,2.51,2.51,0,0,1,.17,2.82,101,101,0,0,1-59.83,45.48,2.5,2.5,0,1,1-1.33-4.82,96,96,0,0,0,56-41.83,24,24,0,0,1-2.76-5.56,24.44,24.44,0,0,1-1.28-6.71l-8.32-7.49-.16-.16a6.54,6.54,0,0,1-.55-8.29,6.33,6.33,0,0,1,4.29-2.42,6.7,6.7,0,0,1,4.88,1.36l6.49,4.06c.06-4,.23-8,.52-12,.31-4.22.75-8.48,1.32-12.67,0-.09,0-.18,0-.28a7,7,0,0,1,8.25-5.19,6.88,6.88,0,0,1,5,6.31,1.85,1.85,0,0,1,0,.23c-.11,3.11-.11,6.25,0,9.35,0,.39,0,.78,0,1.17l.9-1.56c1.85-3.16,3.8-6.32,5.81-9.37a2.34,2.34,0,0,1,.24-.31,6.32,6.32,0,0,1,10.33,7.12l-.11.2c-1.45,2.3-2.82,4.7-4.07,7.11l-.78,1.54,4.48-3.54a5.83,5.83,0,0,1,7-.73,5.63,5.63,0,0,1,2.43,3.63,6,6,0,0,1-.94,4.58l-.13.18-8.8,10.69,6.64.07h.11a6.6,6.6,0,0,1,6.21,5,6.23,6.23,0,0,1-1.09,5,7.16,7.16,0,0,1-5,2.9l-11.63,1a16.74,16.74,0,0,1-11,9.7,93.46,93.46,0,0,1-69.11,53.68A3.25,3.25,0,0,1,2503.89,1679.53Z" transform="translate(-1306.34 -1365.74)" fill="#fff"/><path d="M1705.62,2300.35H1501.48a2.49,2.49,0,0,1-2.5-2.5V2112.66a2.5,2.5,0,0,1,2.5-2.5h204.14a2.5,2.5,0,0,1,2.5,2.5v185.19A2.49,2.49,0,0,1,1705.62,2300.35Zm-201.64-5h199.14V2115.16H1504Z" transform="translate(-1306.34 -1365.74)" fill="#fff"/><path d="M1705.62,2115.16l-.26,0a2.48,2.48,0,0,1-2.22-2.75,106.86,106.86,0,0,0-26.06-81.76c-18.79-21.32-44.84-33.85-71.47-34.38-23.49-.46-46.78,8.32-65.59,24.72a2.5,2.5,0,0,1-3.28-3.77c19.74-17.22,44.26-26.43,69-26,28,.56,55.41,13.7,75.12,36.07a111.88,111.88,0,0,1,27.28,85.61A2.5,2.5,0,0,1,1705.62,2115.16Z" transform="translate(-1306.34 -1365.74)" fill="#fff"/><path d="M1501.48,2115.16a2.5,2.5,0,0,1-2.48-2.24,111.32,111.32,0,0,1,19-74.73,2.5,2.5,0,1,1,4.12,2.84A106.31,106.31,0,0,0,1504,2112.4a2.49,2.49,0,0,1-2.22,2.74Z" transform="translate(-1306.34 -1365.74)" fill="#fff"/><path d="M1603.56,1996.25a2.5,2.5,0,0,1-2.5-2.5v-31.56a2.5,2.5,0,0,1,5,0v31.56A2.5,2.5,0,0,1,1603.56,1996.25Z" transform="translate(-1306.34 -1365.74)" fill="#fff"/><path d="M1603.56,1964.69a26.18,26.18,0,1,1,26.18-26.18A26.21,26.21,0,0,1,1603.56,1964.69Zm0-47.36a21.18,21.18,0,1,0,21.18,21.18A21.2,21.2,0,0,0,1603.56,1917.33Z" transform="translate(-1306.34 -1365.74)" fill="#fff"/><path d="M1638.28,2085.17a22,22,0,1,1,22-22A22,22,0,0,1,1638.28,2085.17Zm0-38.93a17,17,0,1,0,17,17A17,17,0,0,0,1638.28,2046.24Z" transform="translate(-1306.34 -1365.74)" fill="#fff"/><path d="M1573.5,2085.17a22,22,0,1,1,22-22A22,22,0,0,1,1573.5,2085.17Zm0-38.93a17,17,0,1,0,17,17A17,17,0,0,0,1573.5,2046.24Z" transform="translate(-1306.34 -1365.74)" fill="#fff"/><ellipse cx="253.19" cy="788.49" rx="16.66" ry="9.29" fill="#fff"/><ellipse cx="341.58" cy="788.49" rx="16.66" ry="9.29" fill="#fff"/><path d="M1649.85,2257.91h-33a2.5,2.5,0,0,1,0-5h33a7.49,7.49,0,0,0,7.67-7.27v-40.43a7.49,7.49,0,0,0-7.67-7.27H1559a7.49,7.49,0,0,0-7.67,7.27v40.43a7.49,7.49,0,0,0,7.67,7.27h34a2.5,2.5,0,0,1,0,5h-34a12.48,12.48,0,0,1-12.67-12.27v-40.43a12.48,12.48,0,0,1,12.67-12.27h90.84a12.48,12.48,0,0,1,12.67,12.27v40.43A12.48,12.48,0,0,1,1649.85,2257.91Z" transform="translate(-1306.34 -1365.74)" fill="#fff"/><path d="M1717.93,2210.36h-12.31a2.5,2.5,0,0,1,0-5h12.31a36,36,0,0,0,25.67-10.85,33.49,33.49,0,0,0,9.62-24.5c0-.64,0-1.28-.11-1.92s-.13-1.34-.22-2c-2.31-16.45-17-28.86-34.22-28.86h-13.05a2.5,2.5,0,0,1,0-5h13.05c19.68,0,36.51,14.26,39.17,33.17.11.75.19,1.51.25,2.27s.11,1.46.13,2.19a38.46,38.46,0,0,1-11,28.13A41,41,0,0,1,1717.93,2210.36Z" transform="translate(-1306.34 -1365.74)" fill="#fff"/><path d="M1793.91,2231.94a2.43,2.43,0,0,1-1.14-.28l-54.86-28.12a2.5,2.5,0,0,1,2.28-4.44l54.86,28.11a2.5,2.5,0,0,1-1.14,4.73Z" transform="translate(-1306.34 -1365.74)" fill="#fff"/><path d="M1816.47,2197.6a2.47,2.47,0,0,1-1.2-.31L1753,2163a2.5,2.5,0,1,1,2.41-4.38l62.28,34.34a2.5,2.5,0,0,1-1.21,4.69Z" transform="translate(-1306.34 -1365.74)" fill="#fff"/><path d="M1827.09,2263.23a36.23,36.23,0,1,1,11.48-1.87A36.36,36.36,0,0,1,1827.09,2263.23Zm.07-67.38a31.27,31.27,0,0,0-27.92,17.26,31.17,31.17,0,1,0,57.46,4.07h0a31.26,31.26,0,0,0-29.54-21.33Z" transform="translate(-1306.34 -1365.74)" fill="#fff"/><path d="M1886.1,2317.65a2.46,2.46,0,0,1-1-.23,2.5,2.5,0,0,1-1.22-3.32c2.48-5.33,6.22-16.1,3.48-28.46-3.6-16.24-17-29.55-34.92-34.75a2.5,2.5,0,1,1,1.39-4.8c19.7,5.7,34.42,20.44,38.41,38.46,3.06,13.8-1.08,25.76-3.82,31.66A2.51,2.51,0,0,1,1886.1,2317.65Z" transform="translate(-1306.34 -1365.74)" fill="#fff"/><path d="M1833,2335.36a2.52,2.52,0,0,1-1.18-.3c-5.73-3.07-16.23-10.15-22.06-23-7.63-16.81-4.71-37.43,7.62-53.82a2.5,2.5,0,1,1,4,3c-11.23,14.93-13.94,33.61-7.07,48.76,5.23,11.53,14.69,17.9,19.87,20.67a2.5,2.5,0,0,1-1.18,4.71Z" transform="translate(-1306.34 -1365.74)" fill="#fff"/><path d="M1501.48,2210.36h-12.3a41,41,0,0,1-29.26-12.37,38.46,38.46,0,0,1-11-28.13q0-1.09.12-2.19c.07-.77.15-1.52.26-2.27,2.65-18.91,19.49-33.17,39.16-33.17h13a2.5,2.5,0,0,1,0,5h-13c-17.19,0-31.9,12.41-34.21,28.86-.1.66-.17,1.33-.23,2s-.09,1.29-.11,1.93a33.54,33.54,0,0,0,9.63,24.5,36,36,0,0,0,25.67,10.85h12.3a2.5,2.5,0,0,1,0,5Z" transform="translate(-1306.34 -1365.74)" fill="#fff"/><path d="M1413.2,2231.94a2.5,2.5,0,0,1-1.14-4.73l54.85-28.11a2.5,2.5,0,1,1,2.29,4.44l-54.86,28.12A2.49,2.49,0,0,1,1413.2,2231.94Z" transform="translate(-1306.34 -1365.74)" fill="#fff"/><path d="M1390.64,2197.6a2.5,2.5,0,0,1-1.21-4.69l62.28-34.34a2.5,2.5,0,0,1,2.41,4.38l-62.28,34.34A2.5,2.5,0,0,1,1390.64,2197.6Z" transform="translate(-1306.34 -1365.74)" fill="#fff"/><path d="M1380,2263.23a36.36,36.36,0,0,1-11.48-1.87,36.17,36.17,0,0,1-22.86-45.76h0a36.15,36.15,0,1,1,34.34,47.63Zm-.06-67.38a31.24,31.24,0,0,0-29.54,21.33h0a31.1,31.1,0,1,0,29.54-21.33ZM1348,2216.39h0Z" transform="translate(-1306.34 -1365.74)" fill="#fff"/><path d="M1321,2317.65a2.5,2.5,0,0,1-2.27-1.44c-2.74-5.9-6.88-17.86-3.83-31.66,4-18,18.71-32.76,38.42-38.46a2.5,2.5,0,0,1,1.39,4.8c-18,5.2-31.33,18.51-34.93,34.75-2.73,12.36,1,23.13,3.48,28.46a2.49,2.49,0,0,1-1.21,3.32A2.46,2.46,0,0,1,1321,2317.65Z" transform="translate(-1306.34 -1365.74)" fill="#fff"/><path d="M1374.08,2335.36a2.5,2.5,0,0,1-1.18-4.71c5.17-2.77,14.64-9.14,19.87-20.67,6.87-15.15,4.16-33.83-7.07-48.76a2.5,2.5,0,1,1,4-3c12.33,16.39,15.26,37,7.63,53.82-5.84,12.87-16.33,19.95-22.06,23A2.52,2.52,0,0,1,1374.08,2335.36Z" transform="translate(-1306.34 -1365.74)" fill="#fff"/><path d="M1659,2355.08a37.49,37.49,0,0,1-26.4-10.92,38,38,0,0,1-11.53-27.37v-18.94a2.5,2.5,0,0,1,5,0v19a33.06,33.06,0,0,0,10,23.79,32.28,32.28,0,0,0,23.54,9.48,33.25,33.25,0,0,0,32.28-33.27v-19a2.5,2.5,0,0,1,5,0v19c0,20.7-16.65,37.87-37.18,38.27Z" transform="translate(-1306.34 -1365.74)" fill="#fff"/><path d="M1643.32,2386.64a2.49,2.49,0,0,1-2.5-2.5v-35.33a2.5,2.5,0,0,1,5,0v35.33A2.5,2.5,0,0,1,1643.32,2386.64Z" transform="translate(-1306.34 -1365.74)" fill="#fff"/><path d="M1674.05,2386.64a2.5,2.5,0,0,1-2.5-2.5v-35.33a2.5,2.5,0,0,1,5,0v35.33A2.49,2.49,0,0,1,1674.05,2386.64Z" transform="translate(-1306.34 -1365.74)" fill="#fff"/><path d="M1712.09,2454h-84.71a9.15,9.15,0,0,1-9.14-9.14v-46.77a16.45,16.45,0,0,1,16.43-16.43h64.57a22.23,22.23,0,0,1,22.21,22.21v40.78A9.36,9.36,0,0,1,1712.09,2454Zm-77.42-67.34a11.45,11.45,0,0,0-11.43,11.43v46.77a4.14,4.14,0,0,0,4.14,4.14h84.71a4.36,4.36,0,0,0,4.36-4.35v-40.78a17.23,17.23,0,0,0-17.21-17.21Z" transform="translate(-1306.34 -1365.74)" fill="#fff"/><path d="M1546.15,2355.08h-.74c-20.52-.4-37.2-17.57-37.18-38.28v-18.94a2.5,2.5,0,0,1,5,0v19c0,18,14.46,32.92,32.27,33.27h.65a32.56,32.56,0,0,0,22.9-9.49,33.06,33.06,0,0,0,10-23.79v-19a2.5,2.5,0,0,1,5,0v19a38,38,0,0,1-11.53,27.36A37.51,37.51,0,0,1,1546.15,2355.08Z" transform="translate(-1306.34 -1365.74)" fill="#fff"/><path d="M1561.81,2386.64a2.5,2.5,0,0,1-2.5-2.5v-35.33a2.5,2.5,0,0,1,5,0v35.33A2.5,2.5,0,0,1,1561.81,2386.64Z" transform="translate(-1306.34 -1365.74)" fill="#fff"/><path d="M1531.08,2386.64a2.49,2.49,0,0,1-2.5-2.5v-35.33a2.5,2.5,0,0,1,5,0v35.33A2.5,2.5,0,0,1,1531.08,2386.64Z" transform="translate(-1306.34 -1365.74)" fill="#fff"/><path d="M1577.75,2454H1493a9.36,9.36,0,0,1-9.36-9.35v-40.78a22.23,22.23,0,0,1,22.21-22.21h64.57a16.45,16.45,0,0,1,16.43,16.43v46.77A9.15,9.15,0,0,1,1577.75,2454Zm-71.86-67.34a17.23,17.23,0,0,0-17.21,17.21v40.78A4.36,4.36,0,0,0,1493,2449h84.71a4.14,4.14,0,0,0,4.14-4.14v-46.77a11.45,11.45,0,0,0-11.43-11.43Z" transform="translate(-1306.34 -1365.74)" fill="#fff"/><path d="M2603.89,2652.21H1408.54a18.87,18.87,0,1,1,0-37.74h55.84v-99.21a66.52,66.52,0,0,1,66.45-66.45h193.46v-39.6a57.87,57.87,0,0,1,57.79-57.81h205.27v-67.94a63.65,63.65,0,0,1,63.58-63.58h202.63V2075.73a59.89,59.89,0,0,1,59.82-59.82h170.91a69.64,69.64,0,0,1,69.56,69.54v529h50a18.87,18.87,0,0,1,0,37.74Zm-1195.35-32.74a13.87,13.87,0,1,0,0,27.74H2603.89a13.87,13.87,0,1,0,0-27.74h-52.54a2.5,2.5,0,0,1-2.5-2.5V2085.45a64.62,64.62,0,0,0-64.56-64.54H2313.38a54.89,54.89,0,0,0-54.82,54.82v146.65a2.5,2.5,0,0,1-2.5,2.5H2050.93a58.65,58.65,0,0,0-58.58,58.58v70.44a2.5,2.5,0,0,1-2.5,2.5H1782.08a52.86,52.86,0,0,0-52.79,52.81v42.1a2.5,2.5,0,0,1-2.5,2.5h-196a61.51,61.51,0,0,0-61.45,61.45V2617a2.5,2.5,0,0,1-2.5,2.5Zm1110.07,0H2288.8a2.5,2.5,0,0,1-2.5-2.5V2471.29a13.87,13.87,0,0,0-27.74,0V2617a2.5,2.5,0,0,1-2.5,2.5H2022.58a2.5,2.5,0,0,1-2.5-2.5V2283.46a30.89,30.89,0,0,1,30.85-30.85h205.13a2.5,2.5,0,0,1,2.5,2.5v154.44a13.87,13.87,0,0,0,27.74,0V2075.73a27.11,27.11,0,0,1,27.08-27.08h170.91a36.85,36.85,0,0,1,36.82,36.8V2617A2.5,2.5,0,0,1,2518.61,2619.47Zm-227.31-5h224.81v-529a31.85,31.85,0,0,0-31.82-31.8H2313.38a22.1,22.1,0,0,0-22.08,22.08v333.82a18.87,18.87,0,1,1-37.74,0V2257.61H2050.93a25.88,25.88,0,0,0-25.85,25.85v331h228.48V2471.29a18.87,18.87,0,0,1,37.74,0Zm-301.45,5H1759.53a2.5,2.5,0,0,1-2.5-2.5V2409.21a25.09,25.09,0,0,1,25-25.08h207.77a2.5,2.5,0,0,1,2.5,2.5V2617A2.5,2.5,0,0,1,1989.85,2619.47Zm-227.82-5h225.32V2389.13H1782.08a20.09,20.09,0,0,0-20,20.08Zm-35.24,5H1499.61a2.5,2.5,0,0,1-2.5-2.5V2515.26a33.76,33.76,0,0,1,33.72-33.72h196a2.5,2.5,0,0,1,2.5,2.5V2617A2.5,2.5,0,0,1,1726.79,2619.47Zm-224.68-5h222.18V2486.54H1530.83a28.75,28.75,0,0,0-28.72,28.72Z" transform="translate(-1306.34 -1365.74)" fill="#fff"/><path d="M2447.72,1998.35a2.5,2.5,0,0,1-2.5-2.5v-22.53a2.5,2.5,0,0,1,5,0v22.53A2.5,2.5,0,0,1,2447.72,1998.35Z" transform="translate(-1306.34 -1365.74)" fill="#fff"/><path d="M2425.61,1993h0a2.51,2.51,0,0,1-2.5-2.51l0-17.21a2.5,2.5,0,0,1,2.5-2.5h0a2.5,2.5,0,0,1,2.5,2.51l0,17.21A2.5,2.5,0,0,1,2425.61,1993Z" transform="translate(-1306.34 -1365.74)" fill="#fff"/><path d="M2480,2021.08h-57.93a2.5,2.5,0,0,1-2.5-2.5v-25.42a4.71,4.71,0,0,1,1.84-3.72,7.15,7.15,0,0,1,2.08-1.09l.31-.09a6.44,6.44,0,0,1,7.37,3.18,11.74,11.74,0,0,0,3.5,3.91,15,15,0,0,0,9.89-.57,14.88,14.88,0,0,0,7.13-6.38,2.51,2.51,0,0,1,1.55-1.19,2.48,2.48,0,0,1,1.92.28l20,12,9.65,3.45a8.4,8.4,0,0,1,5.56,8v.13a1.77,1.77,0,0,1,0,.23,10.77,10.77,0,0,1-2.85,6.56l-.26.26A10.25,10.25,0,0,1,2480,2021.08Zm-55.43-5H2480a5.21,5.21,0,0,0,3.68-1.46l.15-.16a5.72,5.72,0,0,0,1.5-3.42v-.12a3.38,3.38,0,0,0-2.24-3.23l-9.88-3.53a2.35,2.35,0,0,1-.45-.22L2454.68,1993a19.84,19.84,0,0,1-8.13,6.38,20.19,20.19,0,0,1-13.68.63,2.37,2.37,0,0,1-.62-.3,16.35,16.35,0,0,1-3.16-2.71,16.58,16.58,0,0,1-2.25-3.15,1.5,1.5,0,0,0-1.68-.78l-.11,0a2,2,0,0,0-.44.22Zm63.26-5.13h0Z" transform="translate(-1306.34 -1365.74)" fill="#fff"/><path d="M2456.76,1998.6a2.56,2.56,0,0,1-1.19-.3,2.5,2.5,0,0,1-1-3.4l1.94-3.57a2.5,2.5,0,0,1,4.4,2.39l-1.95,3.58A2.51,2.51,0,0,1,2456.76,1998.6Z" transform="translate(-1306.34 -1365.74)" fill="#fff"/><path d="M2462.24,2001.67a2.39,2.39,0,0,1-1.23-.33,2.49,2.49,0,0,1-.94-3.4l1.91-3.37a2.5,2.5,0,1,1,4.35,2.47l-1.91,3.36A2.49,2.49,0,0,1,2462.24,2001.67Z" transform="translate(-1306.34 -1365.74)" fill="#fff"/><path d="M2468.06,2004.41a2.5,2.5,0,0,1-2.14-3.8l1.67-2.74a2.5,2.5,0,1,1,4.27,2.6l-1.67,2.74A2.5,2.5,0,0,1,2468.06,2004.41Z" transform="translate(-1306.34 -1365.74)" fill="#fff"/><path d="M2362,1998.6a2.5,2.5,0,0,1-2.5-2.5v-22.78a2.5,2.5,0,0,1,5,0v22.78A2.5,2.5,0,0,1,2362,1998.6Z" transform="translate(-1306.34 -1365.74)" fill="#fff"/><path d="M2384.15,1993a2.5,2.5,0,0,1-2.5-2.5l0-17.21a2.49,2.49,0,0,1,2.49-2.51h0a2.51,2.51,0,0,1,2.5,2.5l0,17.21a2.51,2.51,0,0,1-2.5,2.51Z" transform="translate(-1306.34 -1365.74)" fill="#fff"/><path d="M2387.64,2021.08h-57.93a10.28,10.28,0,0,1-7.2-2.91l-.25-.26a10.81,10.81,0,0,1-2.87-6.57V2011a8.41,8.41,0,0,1,5.57-8l9.64-3.45,20-12a2.5,2.5,0,0,1,3.47.91,14.76,14.76,0,0,0,17,6.95,11.08,11.08,0,0,0,1.92-1.7,11.54,11.54,0,0,0,1.58-2.21,6.46,6.46,0,0,1,7.39-3.18l.25.07a7.14,7.14,0,0,1,2.12,1.11,4.68,4.68,0,0,1,1.84,3.72v25.42A2.5,2.5,0,0,1,2387.64,2021.08Zm-63.26-10.16v.14a5.76,5.76,0,0,0,1.5,3.42l.15.15a5.24,5.24,0,0,0,3.67,1.45h55.43v-22.75a2.2,2.2,0,0,0-.46-.23,1.52,1.52,0,0,0-1.76.76,17,17,0,0,1-2.25,3.15,16.66,16.66,0,0,1-3.16,2.71,2.6,2.6,0,0,1-.63.3,20.25,20.25,0,0,1-13.68-.63,19.74,19.74,0,0,1-8.12-6.38L2337,2003.94a2.35,2.35,0,0,1-.45.22l-9.88,3.53a3.4,3.4,0,0,0-2.25,3.23Z" transform="translate(-1306.34 -1365.74)" fill="#fff"/><path d="M2353,1998.6a2.5,2.5,0,0,1-2.2-1.3l-2-3.58a2.5,2.5,0,0,1,4.39-2.39l2,3.57a2.51,2.51,0,0,1-1,3.4A2.56,2.56,0,0,1,2353,1998.6Z" transform="translate(-1306.34 -1365.74)" fill="#fff"/><path d="M2347.51,2001.67a2.47,2.47,0,0,1-2.17-1.27l-1.91-3.36a2.5,2.5,0,1,1,4.35-2.47l1.9,3.37a2.48,2.48,0,0,1-.93,3.4A2.43,2.43,0,0,1,2347.51,2001.67Z" transform="translate(-1306.34 -1365.74)" fill="#fff"/><path d="M2341.7,2004.41a2.51,2.51,0,0,1-2.14-1.2l-1.67-2.74a2.5,2.5,0,0,1,4.28-2.6l1.66,2.74a2.5,2.5,0,0,1-.83,3.44A2.58,2.58,0,0,1,2341.7,2004.41Z" transform="translate(-1306.34 -1365.74)" fill="#fff"/><path d="M2491.15,1524.09a168,168,0,0,1-122.91-53.35c-3.63,10.14-13.31,30.24-35.65,42.23a76.11,76.11,0,0,1-50.42,7.44,2.48,2.48,0,0,1-1.9-1.7c-2.69-8.52-10.15-38.72,6.49-69.8,16-29.8,43.62-40.71,52.85-43.61,9.47-11.15,25.37-25.22,48.08-30.26,21-4.66,54.16-2.5,92.76,34.31,41.12,39.21,42.13,94.06,41.46,109.94a2.51,2.51,0,0,1-2.08,2.36A168.66,168.66,0,0,1,2491.15,1524.09Zm-124-60.72a2.5,2.5,0,0,1,1.87.84A163.2,163.2,0,0,0,2517,1517.06c.44-17.55-2-67.85-40-104.09-29.71-28.33-59.39-39.45-88.23-33-21.72,4.83-36.9,18.52-45.8,29.16a2.51,2.51,0,0,1-1.2.79c-7.95,2.4-35.11,12.48-50.6,41.4-14.9,27.82-9.35,54.9-6.57,64.51a71.12,71.12,0,0,0,45.62-7.21c24.37-13.09,32.61-36.51,34.56-43.38a2.48,2.48,0,0,1,1.84-1.75A2.2,2.2,0,0,1,2367.18,1463.37Zm-26.13-55.9h0Z" transform="translate(-1306.34 -1365.74)" fill="#fff"/><path d="M2404.46,1653.65c-1.47,0-2.93,0-4.4-.08a112.68,112.68,0,0,1-66.13-24.68,114.55,114.55,0,0,1-38.61-56.82,23.41,23.41,0,0,1-17.26-2.78c-5.19-3.15-8.63-8-9.45-13.24-1.46-9.36,5.19-18.9,15.14-22.34-.65-2.24-1.24-4.5-1.78-6.75-.67-2.81-1.27-5.69-1.78-8.56a2.5,2.5,0,1,1,4.92-.88c.5,2.77,1.08,5.56,1.73,8.28.7,3,1.52,6,2.41,8.88a2.51,2.51,0,0,1-1.83,3.17c-9.58,2.18-14.91,10.78-13.87,17.43.58,3.75,3.23,7.39,7.1,9.73a18.53,18.53,0,0,0,15.58,1.62,2.49,2.49,0,0,1,3.21,1.69c12.89,46.15,53.4,78.4,100.81,80.25,48.9,1.92,93.48-29.68,108.36-76.82a2.5,2.5,0,0,1,2.55-1.74,21.61,21.61,0,0,0,16.48-6,17.3,17.3,0,0,0,5.58-12.86c-.3-7.82-6.93-15-15.77-17a2.49,2.49,0,0,1-1.9-2.9c.35-1.83.63-3.69.85-5.53.26-2.21.43-4.47.51-6.72a2.5,2.5,0,0,1,5,.17c-.08,2.38-.27,4.79-.54,7.14-.15,1.19-.31,2.4-.51,3.6,9.84,3.15,17,11.67,17.36,21a22.31,22.31,0,0,1-7.1,16.64,26.5,26.5,0,0,1-18.33,7.41C2497.15,1621.93,2453.25,1653.65,2404.46,1653.65Z" transform="translate(-1306.34 -1365.74)" fill="#fff"/><circle cx="1054.88" cy="182.92" r="8.94" fill="#fff"/><circle cx="1134.5" cy="182.92" r="8.94" fill="#fff"/><path d="M2404,1614.08c-.81,0-1.63,0-2.45,0-20.59-.83-34.75-11.82-39.89-16.52a2.5,2.5,0,1,1,3.37-3.69c4.73,4.32,17.78,14.46,36.72,15.22,22.33.9,37.76-11.82,42-15.75a2.5,2.5,0,1,1,3.41,3.66C2442.7,1601.06,2426.92,1614.08,2404,1614.08Z" transform="translate(-1306.34 -1365.74)" fill="#fff"/><path d="M2404.15,1570.71h-.65a23.25,23.25,0,0,1-16.84-8.27,2.5,2.5,0,1,1,3.84-3.19,18.49,18.49,0,0,0,13.14,6.46c8.65.24,14-6.19,14.53-6.93a2.5,2.5,0,0,1,3.95,3.08C2421,1563.35,2414.67,1570.71,2404.15,1570.71Z" transform="translate(-1306.34 -1365.74)" fill="#fff"/><path d="M2340.4,1534.25a2.48,2.48,0,0,1-1.58-.57,2.51,2.51,0,0,1-.35-3.52,31,31,0,0,1,16.23-10.31,30.43,30.43,0,0,1,14.84.1,2.5,2.5,0,1,1-1.24,4.84,25.5,25.5,0,0,0-12.4-.08,25.87,25.87,0,0,0-13.57,8.63A2.49,2.49,0,0,1,2340.4,1534.25Z" transform="translate(-1306.34 -1365.74)" fill="#fff"/><path d="M2463.73,1533a2.48,2.48,0,0,1-1.78-.75,25.89,25.89,0,0,0-14.27-7.43,25.58,25.58,0,0,0-12.34,1.16,2.5,2.5,0,1,1-1.66-4.71,30.39,30.39,0,0,1,14.78-1.39,30.9,30.9,0,0,1,17.06,8.87,2.51,2.51,0,0,1-1.79,4.25Z" transform="translate(-1306.34 -1365.74)" fill="#fff"/><path d="M2510.81,1562.38h-.14a3.64,3.64,0,0,1-3.49-3,92.26,92.26,0,0,0-14.59-36.36,2.5,2.5,0,1,1,4.14-2.81,97.39,97.39,0,0,1,14.18,32.4c.63-2.68,1.25-5.37,1.85-8,1-4.4,1.92-8.84,2.79-13.19a2.5,2.5,0,0,1,4.91,1c-.88,4.38-1.83,8.85-2.82,13.29-1,4.65-2.14,9.36-3.29,14A3.62,3.62,0,0,1,2510.81,1562.38Z" transform="translate(-1306.34 -1365.74)" fill="#fff"/><path d="M2294.73,1558.62A3.88,3.88,0,0,1,2291,1556c-.69-2-1.37-4-2.06-6-1.52-4.53-3-9.16-4.48-13.77a2.5,2.5,0,1,1,4.76-1.5c1.45,4.57,3,9.17,4.46,13.68l.78,2.3a96.62,96.62,0,0,1,5.34-16.56,97.61,97.61,0,0,1,9.75-17.64,2.5,2.5,0,1,1,4.1,2.86,92.54,92.54,0,0,0-15.07,36.12,3.87,3.87,0,0,1-3.56,3.19Z" transform="translate(-1306.34 -1365.74)" fill="#fff"/></svg>