<svg xmlns="http://www.w3.org/2000/svg" xmlns:xlink="http://www.w3.org/1999/xlink" width="821.12" height="969.07" viewBox="0 0 821.12 969.07"><defs><linearGradient id="a" x1="865.79" y1="731.55" x2="1252.03" y2="731.55" gradientUnits="userSpaceOnUse"><stop offset="0" stop-color="blue"/><stop offset="0.25" stop-color="#f0f"/><stop offset="0.53" stop-color="#ff5100"/><stop offset="0.78" stop-color="#26ff00"/><stop offset="1" stop-color="#ff0"/></linearGradient><linearGradient id="b" x1="700.59" y1="1193.3" x2="1349.23" y2="1193.3" xlink:href="#a"/><linearGradient id="c" x1="528.11" y1="1296.8" x2="742.99" y2="1296.8" xlink:href="#a"/><linearGradient id="d" x1="1026.32" y1="850.8" x2="1093.82" y2="850.8" xlink:href="#a"/><linearGradient id="e" x1="870.79" y1="731.54" x2="1247.03" y2="731.54" gradientUnits="userSpaceOnUse"><stop offset="0" stop-color="#13c0ff"/><stop offset="0.18" stop-color="#31cdd3"/><stop offset="0.58" stop-color="#70e678"/><stop offset="0.87" stop-color="#97f73f"/><stop offset="1" stop-color="#a6fd29"/></linearGradient><linearGradient id="f" x1="705.59" y1="1193.3" x2="1344.22" y2="1193.3" xlink:href="#e"/><linearGradient id="g" x1="533.11" y1="1296.8" x2="737.99" y2="1296.8" xlink:href="#e"/><linearGradient id="h" x1="1031.46" y1="849.84" x2="1087.39" y2="849.84" xlink:href="#e"/></defs><path d="M1251.88,854.87A197.35,197.35,0,0,0,1113.72,701a122.56,122.56,0,1,0-107.32-.64A197.35,197.35,0,0,0,866,854.87a10.5,10.5,0,0,0-.16,1.77V973.4a10,10,0,0,0,6.55,9.39l31.92,11.76a10,10,0,1,0,6.91-18.77l-25.38-9.35V857.55C901.15,774.83,975.27,713,1059,713h1.74c84,.86,156,61.56,171.31,144.5v99.54l-24.89,16.35a10,10,0,0,0,11,16.72l29.4-19.32a10,10,0,0,0,4.51-8.36V856.64A10.49,10.49,0,0,0,1251.88,854.87ZM1060.64,693.05a102.56,102.56,0,1,1,.17,0Z" transform="translate(-528.11 -467.93)" fill="url(#a)"/><path d="M1347.12,1080a567.91,567.91,0,0,1-63.2,139.24,49.9,49.9,0,0,1-15.3,15.38L1106.49,1338a49.43,49.43,0,0,1-26.62,7.76h-236a29.14,29.14,0,0,0-5.37.49A98.55,98.55,0,0,0,793.24,1368a10,10,0,1,1-13-15.22,118.6,118.6,0,0,1,54.48-26.18,49,49,0,0,1,9.15-.85h236a29.46,29.46,0,0,0,15.87-4.63l162.13-103.36a29.6,29.6,0,0,0,9.11-9.16,547.76,547.76,0,0,0,61-134.33,29.47,29.47,0,0,0-6.32-28.23,28.77,28.77,0,0,0-26.65-9.32l-1.38.27c-16.84,3.46-27.36,14.15-33.21,22.51a29.69,29.69,0,0,0-4.64,10.77,126.07,126.07,0,0,1-23.47,50.42,124.72,124.72,0,0,1-29.81,27.55,49.28,49.28,0,0,1-19.71,7.61L1141,1162.3a63.74,63.74,0,0,1-12.79,29.9,62.24,62.24,0,0,1-49,23.6H957a10,10,0,0,1,0-20h122.24a42.12,42.12,0,0,0,33.18-15.86,42.89,42.89,0,0,0,9.2-26.32,37.09,37.09,0,0,0-.36-4.95,39.21,39.21,0,0,0-5.49-15.14c-7.41-12.12-21.17-19.65-35.89-19.65H997.16a62.51,62.51,0,0,1-22.82-4.3l-33-12.93a42.51,42.51,0,0,0-15.52-2.93H832.11a42.35,42.35,0,0,0-18.57,4.26,384.31,384.31,0,0,0-96,66.9,10,10,0,1,1-13.8-14.48,404.18,404.18,0,0,1,101-70.38,62.53,62.53,0,0,1,27.37-6.3h93.68A62.3,62.3,0,0,1,948.6,1078l33,12.92a42.32,42.32,0,0,0,15.53,2.93h82.71c21.64,0,41.93,11.19,53,29.21a59.42,59.42,0,0,1,7.59,19.07l39.3-6.1a29.42,29.42,0,0,0,11.75-4.55,104.67,104.67,0,0,0,25-23.13,106,106,0,0,0,19.72-42.38,49.42,49.42,0,0,1,7.8-18c7.93-11.33,22.28-25.84,45.56-30.63l1.89-.37a48.65,48.65,0,0,1,45.1,15.7A49.34,49.34,0,0,1,1347.12,1080Z" transform="translate(-528.11 -467.93)" fill="url(#b)"/><path d="M679.24,1437a10,10,0,0,1-5.11-18.6L720.22,1391,625.4,1179.63,542,1215a10,10,0,1,1-7.81-18.41l92.4-39.2a10,10,0,0,1,13,5.11L742.12,1391a10,10,0,0,1-4,12.69l-53.76,31.92A10,10,0,0,1,679.24,1437Z" transform="translate(-528.11 -467.93)" fill="url(#c)"/><path d="M1031.46,937.29l14.15-163.61-19.29-23.47a37,37,0,0,1,67.5,0L1071,773l19.29,164.25-30.86,36Z" transform="translate(-528.11 -467.93)" fill="url(#d)"/><path d="M1247,855.76a192.21,192.21,0,0,0-149.27-153.67,117.56,117.56,0,1,0-75.28-.46A192.34,192.34,0,0,0,870.87,855.75a5.35,5.35,0,0,0-.08.89V973.4a5,5,0,0,0,3.27,4.69L906,989.85a5,5,0,0,0,3.46-9.38l-28.65-10.55V857.09C896.63,770.43,971.3,708,1058.88,708h1.84c86.61.85,160.68,63.51,176.31,149V959.78l-27.14,17.84a5,5,0,1,0,5.49,8.36l29.4-19.32a5,5,0,0,0,2.25-4.18V856.64A4.3,4.3,0,0,0,1247,855.76ZM1060.69,698.05a107.55,107.55,0,1,1,.08,0Z" transform="translate(-528.11 -467.93)" fill="url(#e)"/><path d="M1342.33,1078.54a562.12,562.12,0,0,1-62.65,138,44.77,44.77,0,0,1-13.75,13.82L1103.8,1333.74a44.41,44.41,0,0,1-23.93,7h-236a34,34,0,0,0-6.31.58A103.4,103.4,0,0,0,790,1364.17a5,5,0,1,1-6.49-7.61,113.34,113.34,0,0,1,52.19-25.08,44,44,0,0,1,8.2-.76h236a34.45,34.45,0,0,0,18.55-5.41L1260.56,1222a34.73,34.73,0,0,0,10.66-10.72,552.51,552.51,0,0,0,61.53-135.55,34.43,34.43,0,0,0-7.38-33,33.69,33.69,0,0,0-31.26-10.91c-.5.09-1,.18-1.51.29-18.45,3.8-29.92,15.44-36.29,24.54a34.4,34.4,0,0,0-5.43,12.58,121,121,0,0,1-22.54,48.41,119.65,119.65,0,0,1-28.61,26.44,44.3,44.3,0,0,1-17.73,6.85l-45.56,7.07a58.43,58.43,0,0,1-12.18,31.19,57.23,57.23,0,0,1-45,21.66H957a5,5,0,0,1,0-10h122.24a47.12,47.12,0,0,0,37.13-17.8,47.87,47.87,0,0,0,10.25-29.36,43,43,0,0,0-.41-5.67,44.24,44.24,0,0,0-6.17-17c-8.32-13.59-23.71-22-40.16-22H997.16a57.31,57.31,0,0,1-21-4l-33-12.92a47.31,47.31,0,0,0-17.35-3.28H832.11a47.46,47.46,0,0,0-20.77,4.77,389.76,389.76,0,0,0-97.3,67.77,5,5,0,1,1-6.9-7.24,399.46,399.46,0,0,1,99.8-69.51,57.46,57.46,0,0,1,25.17-5.79h93.68a57.35,57.35,0,0,1,21,4l33,12.93a47.46,47.46,0,0,0,17.35,3.27h82.71c19.91,0,38.57,10.28,48.69,26.82a54,54,0,0,1,7.54,20.89c.06.42.11.85.15,1.27l44.22-6.86a34.4,34.4,0,0,0,13.75-5.31,109.69,109.69,0,0,0,26.23-24.24,111,111,0,0,0,20.65-44.39,44.51,44.51,0,0,1,7-16.2c7.41-10.58,20.8-24.13,42.46-28.6l1.77-.33a43.65,43.65,0,0,1,40.49,14.1A44.38,44.38,0,0,1,1342.33,1078.54Z" transform="translate(-528.11 -467.93)" fill="url(#f)"/><path d="M679.24,1432a5,5,0,0,1-2.56-9.3l49.93-29.64L628,1173.12l-87.89,37.28a5,5,0,1,1-3.91-9.2l92.4-39.2a5,5,0,0,1,6.51,2.56L737.55,1393a5,5,0,0,1-2,6.34l-53.76,31.92A4.93,4.93,0,0,1,679.24,1432Z" transform="translate(-528.11 -467.93)" fill="url(#g)"/><path d="M1050.11,771.43l-18.65-22.18c.93-1.39,9.84-14.32,26.36-15.11,18.5-.88,29,14.31,29.57,15.11l-20.89,22.18,18.32,164.89-25,29.25L1036,937.93Z" transform="translate(-528.11 -467.93)" fill="url(#h)"/><path d="M1060.72,705.55a115.06,115.06,0,1,1,115.06-115.06A115.19,115.19,0,0,1,1060.72,705.55Zm0-225.12a110.06,110.06,0,1,0,110.06,110.06A110.18,110.18,0,0,0,1060.72,480.43Z" transform="translate(-528.11 -467.93)" fill="#fff"/><path d="M907.71,987.66a2.6,2.6,0,0,1-.86-.15l-31.92-11.76a2.51,2.51,0,0,1-1.64-2.35V856.64a3.13,3.13,0,0,1,0-.44,188.54,188.54,0,0,1,371.16,0,2.18,2.18,0,0,1,0,.44V962.48a2.5,2.5,0,0,1-1.12,2.09L1214,983.89a2.5,2.5,0,1,1-2.75-4.18l28.27-18.58V856.87C1223.77,770,1148.6,706.4,1060.69,705.55c-89.61-.85-166.32,62.76-182.4,151.32V971.66l30.29,11.16a2.5,2.5,0,0,1-.87,4.84Z" transform="translate(-528.11 -467.93)" fill="#fff"/><path d="M1079.23,1208.3H957a2.5,2.5,0,0,1,0-5h122.24a49.65,49.65,0,0,0,39.1-18.76c8.35-10.76,12.12-24.21,10.35-36.91a46.81,46.81,0,0,0-6.52-18c-8.77-14.33-25-23.23-42.29-23.23H997.16a54.74,54.74,0,0,1-20.08-3.79l-33-12.92a49.88,49.88,0,0,0-18.26-3.45H832.11a50.06,50.06,0,0,0-21.87,5,392,392,0,0,0-97.92,68.21,2.5,2.5,0,1,1-3.45-3.62A397.44,397.44,0,0,1,808,1086.75a55,55,0,0,1,24.07-5.53h93.68a55,55,0,0,1,20.08,3.79l33,12.93a50,50,0,0,0,18.26,3.44h82.71c19,0,36.88,9.82,46.56,25.62a51.89,51.89,0,0,1,7.2,19.94c2,14-2.17,28.85-11.35,40.66A54.68,54.68,0,0,1,1079.23,1208.3Z" transform="translate(-528.11 -467.93)" fill="#fff"/><path d="M786.75,1362.86a2.5,2.5,0,0,1-1.62-4.4,111,111,0,0,1,51-24.52,40.7,40.7,0,0,1,7.73-.72h236a37,37,0,0,0,19.9-5.8l162.13-103.36a37.22,37.22,0,0,0,11.43-11.5,554.27,554.27,0,0,0,61.81-136.17,36.9,36.9,0,0,0-7.9-35.37,36.2,36.2,0,0,0-33.57-11.71l-1.57.3c-19.26,4-31.21,16.09-37.84,25.56a37.07,37.07,0,0,0-5.83,13.48,118.5,118.5,0,0,1-22.06,47.41,117.28,117.28,0,0,1-28,25.89,41.9,41.9,0,0,1-16.73,6.46l-49.63,7.7a2.5,2.5,0,1,1-.76-4.94l49.63-7.7a36.77,36.77,0,0,0,14.73-5.7,112.07,112.07,0,0,0,26.83-24.78,113.81,113.81,0,0,0,21.13-45.4,41.86,41.86,0,0,1,6.61-15.29c7.16-10.22,20.06-23.29,40.93-27.59l1.7-.32a41.17,41.17,0,0,1,38.18,13.3,41.85,41.85,0,0,1,9,40.14,560.31,560.31,0,0,1-62.36,137.4,42.42,42.42,0,0,1-13,13l-162.13,103.35a42,42,0,0,1-22.59,6.59h-236a35.8,35.8,0,0,0-6.79.63,106.12,106.12,0,0,0-48.74,23.41A2.43,2.43,0,0,1,786.75,1362.86Z" transform="translate(-528.11 -467.93)" fill="#fff"/><path d="M679.24,1429.5a2.5,2.5,0,0,1-1.28-4.65l51.84-30.78L629.23,1169.86l-90.14,38.24a2.5,2.5,0,1,1-2-4.6l92.4-39.2a2.49,2.49,0,0,1,3.25,1.28l102.48,228.48a2.5,2.5,0,0,1-1,3.17l-53.76,31.92A2.46,2.46,0,0,1,679.24,1429.5Z" transform="translate(-528.11 -467.93)" fill="#fff"/><path d="M1056.67,770l-15.77-20.91a28.83,28.83,0,0,1,16.43-8,29.36,29.36,0,0,1,21.46,6.16l-17.73,22.86q8.52,83.45,17,166.88l-18.34,18.9-16.66-18.2Q1049.88,853.86,1056.67,770Z" transform="translate(-528.11 -467.93)" fill="#fff"/></svg>