<svg xmlns="http://www.w3.org/2000/svg" xmlns:xlink="http://www.w3.org/1999/xlink" width="1520.4" height="834.64" viewBox="0 0 1520.4 834.64"><defs><linearGradient id="a" x1="279.93" y1="1019.06" x2="1800.33" y2="1019.06" gradientUnits="userSpaceOnUse"><stop offset="0" stop-color="blue"/><stop offset="0.25" stop-color="#f0f"/><stop offset="0.53" stop-color="#ff5100"/><stop offset="0.78" stop-color="#26ff00"/><stop offset="1" stop-color="#ff0"/></linearGradient><linearGradient id="b" x1="1113.71" y1="1096.07" x2="1649.29" y2="1096.07" xlink:href="#a"/><linearGradient id="c" x1="599.43" y1="938.11" x2="708.14" y2="938.11" xlink:href="#a"/><linearGradient id="d" x1="461.21" y1="938.11" x2="569.93" y2="938.11" xlink:href="#a"/><linearGradient id="e" x1="323" y1="938.11" x2="431.71" y2="938.11" xlink:href="#a"/><linearGradient id="f" x1="599.43" y1="1111.68" x2="708.14" y2="1111.68" xlink:href="#a"/><linearGradient id="g" x1="461.21" y1="1111.68" x2="569.93" y2="1111.68" xlink:href="#a"/><linearGradient id="h" x1="323" y1="1111.68" x2="431.71" y2="1111.68" xlink:href="#a"/><linearGradient id="i" x1="757.43" y1="814.5" x2="947.14" y2="814.5" xlink:href="#a"/><linearGradient id="j" x1="837.93" y1="784.29" x2="899.71" y2="784.29" xlink:href="#a"/><linearGradient id="k" x1="302.02" y1="62.11" x2="826.99" y2="62.11" xlink:href="#a"/><linearGradient id="v" x1="284.93" y1="1019.23" x2="1795.35" y2="1019.23" gradientUnits="userSpaceOnUse"><stop offset="0" stop-color="#13c0ff"/><stop offset="0.18" stop-color="#31cdd3"/><stop offset="0.58" stop-color="#70e678"/><stop offset="0.87" stop-color="#97f73f"/><stop offset="1" stop-color="#a6fd29"/></linearGradient><linearGradient id="w" x1="1118.71" y1="1096.07" x2="1644.29" y2="1096.07" xlink:href="#v"/><linearGradient id="x" x1="604.43" y1="938.11" x2="703.14" y2="938.11" xlink:href="#v"/><linearGradient id="y" x1="466.21" y1="938.11" x2="564.93" y2="938.11" xlink:href="#v"/><linearGradient id="z" x1="328" y1="938.11" x2="426.71" y2="938.11" xlink:href="#v"/><linearGradient id="aa" x1="604.43" y1="1111.68" x2="703.14" y2="1111.68" xlink:href="#v"/><linearGradient id="ab" x1="466.21" y1="1111.68" x2="564.93" y2="1111.68" xlink:href="#v"/><linearGradient id="ac" x1="328" y1="1111.68" x2="426.71" y2="1111.68" xlink:href="#v"/><linearGradient id="ad" x1="991" y1="938.11" x2="1089.71" y2="938.11" xlink:href="#v"/><linearGradient id="ae" x1="991" y1="1111.68" x2="1089.71" y2="1111.68" xlink:href="#v"/><linearGradient id="af" x1="775.43" y1="1167.43" x2="814.57" y2="1167.43" xlink:href="#v"/><linearGradient id="ag" x1="762.43" y1="814.5" x2="942.14" y2="814.5" xlink:href="#v"/><linearGradient id="ah" x1="842.93" y1="784.29" x2="894.71" y2="784.29" xlink:href="#v"/><linearGradient id="ai" x1="303.87" y1="62.48" x2="825.1" y2="62.48" xlink:href="#v"/></defs><path d="M1790.5,1356.78,1676,1285.21a28.42,28.42,0,0,0,1-7.37V914.3a28.83,28.83,0,0,0-28.8-28.8H1414.64V808.36H1005.79V702.47l-158.52-59.7L690.71,702.5V808.36H279.93v473.21h808.32a25.85,25.85,0,0,0,.77,3.84L980.13,1357a20.88,20.88,0,0,0,11.47,38.32h787.84a20.88,20.88,0,0,0,11.06-38.58ZM1648.13,905.5a8.81,8.81,0,0,1,8.8,8.8v363.54a8.81,8.81,0,0,1-8.8,8.8H1116.8a8.81,8.81,0,0,1-8.8-8.8V914.3a8.81,8.81,0,0,1,8.8-8.8ZM795,1192a24.57,24.57,0,1,0-22.57-34.28v-36.44a74.83,74.83,0,0,1,13.94-41.39,73.35,73.35,0,0,1,24.51-21.29l3.33-1.8,1.31-3.55a34.4,34.4,0,0,1,64.82,0l1.28,3.45,3.22,1.8a74.65,74.65,0,0,1,23.08,19.85c12.41,16.18,15.05,33.8,15.51,43v140.19h-151v-84.43A24.61,24.61,0,0,0,795,1192Zm-4.57-24.57A4.57,4.57,0,1,1,795,1172,4.58,4.58,0,0,1,790.43,1167.43ZM986,866.21V1010h102v29.79H986v143.78h102v78H943.43V1120.68a96.58,96.58,0,0,0-19.63-54.48,94.3,94.3,0,0,0-26.12-23.35,54.35,54.35,0,0,0-99.46-.07,93.48,93.48,0,0,0-28,25.33,94.89,94.89,0,0,0-17.77,52.76v140.7H299.93V828.36H710.71V716.28l136.6-52.13,138.48,52.16V828.36h408.85V885.5h-19.5V866.21H1266.43V885.5h-29.5V866.21H1128.21V885.5H1116.8a28.75,28.75,0,0,0-22.09,10.34V866.21Zm88.71,20V990H1006V886.21Zm0,173.58v103.78H1006V1059.79Zm705.57,314.93c-.18.64-.49.64-.84.64H991.6c-.35,0-.65,0-.84-.63a.72.72,0,0,1,.36-1l109.55-72.06a28.66,28.66,0,0,0,16.13,5h531.33a28.64,28.64,0,0,0,16.29-5.06l115.48,72.16A.71.71,0,0,1,1780.28,1374.72Z" transform="translate(-279.93 -560.72)" fill="url(#a)"/><path d="M1622.25,1276.43h-481.5c-14.91,0-27-11.65-27-26V941.68c0-14.32,12.13-26,27-26h481.5c14.91,0,27,11.65,27,26v308.78C1649.29,1264.78,1637.16,1276.43,1622.25,1276.43Zm-481.5-340.72c-3.88,0-7,2.68-7,6v308.78c0,3.29,3.16,6,7,6h481.5c3.88,0,7-2.68,7-6V941.68c0-3.29-3.16-6-7-6Z" transform="translate(-279.93 -560.72)" fill="url(#b)"/><path d="M708.14,1010H599.43V866.21H708.14Zm-88.71-20h68.71V886.21H619.43Z" transform="translate(-279.93 -560.72)" fill="url(#c)"/><path d="M569.93,1010H461.21V866.21H569.93Zm-88.72-20h68.72V886.21H481.21Z" transform="translate(-279.93 -560.72)" fill="url(#d)"/><path d="M431.71,1010H323V866.21H431.71ZM343,990h68.71V886.21H343Z" transform="translate(-279.93 -560.72)" fill="url(#e)"/><path d="M708.14,1183.57H599.43V1039.79H708.14Zm-88.71-20h68.71V1059.79H619.43Z" transform="translate(-279.93 -560.72)" fill="url(#f)"/><path d="M569.93,1183.57H461.21V1039.79H569.93Zm-88.72-20h68.72V1059.79H481.21Z" transform="translate(-279.93 -560.72)" fill="url(#g)"/><path d="M431.71,1183.57H323V1039.79H431.71Zm-88.71-20h68.71V1059.79H343Z" transform="translate(-279.93 -560.72)" fill="url(#h)"/><path d="M852.29,909.36a94.86,94.86,0,1,1,94.85-94.86A95,95,0,0,1,852.29,909.36Zm0-169.72a74.86,74.86,0,1,0,74.85,74.86A74.94,74.94,0,0,0,852.29,739.64Z" transform="translate(-279.93 -560.72)" fill="url(#i)"/><path d="M889.71,824.5H837.93V754.07a10,10,0,0,1,20,0V804.5h31.78a10,10,0,0,1,0,20Z" transform="translate(-279.93 -560.72)" fill="url(#j)"/><polygon points="309.4 124.22 302.02 105.63 568.05 0 826.99 105.66 819.43 124.18 567.95 21.56 309.4 124.22" fill="url(#k)"/><path d="M1622.25,1276.43h-481.5c-14.91,0-27-11.65-27-26V941.68c0-14.32,12.13-26,27-26h481.5c14.91,0,27,11.65,27,26v308.78C1649.29,1264.78,1637.16,1276.43,1622.25,1276.43Zm-481.5-340.72c-3.88,0-7,2.68-7,6v308.78c0,3.29,3.16,6,7,6h481.5c3.88,0,7-2.68,7-6V941.68c0-3.29-3.16-6-7-6Z" transform="translate(-279.93 -560.72)" fill="url(#b)"/><path d="M708.14,1010H599.43V866.21H708.14Zm-88.71-20h68.71V886.21H619.43Z" transform="translate(-279.93 -560.72)" fill="url(#c)"/><path d="M569.93,1010H461.21V866.21H569.93Zm-88.72-20h68.72V886.21H481.21Z" transform="translate(-279.93 -560.72)" fill="url(#d)"/><path d="M431.71,1010H323V866.21H431.71ZM343,990h68.71V886.21H343Z" transform="translate(-279.93 -560.72)" fill="url(#e)"/><path d="M708.14,1183.57H599.43V1039.79H708.14Zm-88.71-20h68.71V1059.79H619.43Z" transform="translate(-279.93 -560.72)" fill="url(#f)"/><path d="M569.93,1183.57H461.21V1039.79H569.93Zm-88.72-20h68.72V1059.79H481.21Z" transform="translate(-279.93 -560.72)" fill="url(#g)"/><path d="M431.71,1183.57H323V1039.79H431.71Zm-88.71-20h68.71V1059.79H343Z" transform="translate(-279.93 -560.72)" fill="url(#h)"/><path d="M852.29,909.36a94.86,94.86,0,1,1,94.85-94.86A95,95,0,0,1,852.29,909.36Zm0-169.72a74.86,74.86,0,1,0,74.85,74.86A74.94,74.94,0,0,0,852.29,739.64Z" transform="translate(-279.93 -560.72)" fill="url(#i)"/><path d="M889.71,824.5H837.93V754.07a10,10,0,0,1,20,0V804.5h31.78a10,10,0,0,1,0,20Z" transform="translate(-279.93 -560.72)" fill="url(#j)"/><polygon points="309.4 124.22 302.02 105.63 568.05 0 826.99 105.66 819.43 124.18 567.95 21.56 309.4 124.22" fill="url(#k)"/><path d="M1787.85,1361,1670,1287.34a23.69,23.69,0,0,0,2-9.5V914.3a23.83,23.83,0,0,0-23.8-23.8H1409.64V813.36H1000.79V705.93L847.28,648.11,695.71,706V813.36H284.93v463.21H1093v1.27a23.46,23.46,0,0,0,2,9.6l-112.15,73.78a15.88,15.88,0,0,0,8.72,29.14h787.84a15.88,15.88,0,0,0,8.41-29.34ZM1648.13,900.5a13.81,13.81,0,0,1,13.8,13.8v363.54a13.81,13.81,0,0,1-13.8,13.8H1116.8a13.81,13.81,0,0,1-13.8-13.8V914.3a13.81,13.81,0,0,1,13.8-13.8Zm-504.92-10v-9.29h78.72v9.29Zm138.22,0v-9.29h78.71v9.29Zm-353,376.07h-161V1121.21a80,80,0,0,1,14.9-44.27,78.45,78.45,0,0,1,26.18-22.75l1.67-.9.65-1.77a39.41,39.41,0,0,1,74.2,0l.64,1.72,1.61.9a79.66,79.66,0,0,1,24.61,21.18,81.67,81.67,0,0,1,16.54,45.93ZM1093,914.3v352.27H938.43V1120.91a91.47,91.47,0,0,0-18.6-51.67,89.34,89.34,0,0,0-26.1-22.92,49.37,49.37,0,0,0-91.57,0,88.57,88.57,0,0,0-27.91,24.78,90,90,0,0,0-16.81,50v145.56H294.93V823.36H705.71V712.83l141.59-54,143.49,54V823.36h408.85V890.5h-29.5V871.21h-98.71V890.5h-39.5V871.21h-98.72V890.5H1116.8A23.83,23.83,0,0,0,1093,914.3Zm692.08,461.8a5.69,5.69,0,0,1-5.64,4.26H991.6a5.87,5.87,0,0,1-3.23-10.78l112.55-74a23.67,23.67,0,0,0,15.88,6.1h531.33a23.68,23.68,0,0,0,16-6.17l118.46,74A5.69,5.69,0,0,1,1785.08,1376.1Z" transform="translate(-279.93 -560.72)" fill="url(#v)"/><path d="M1622.25,1271.43h-481.5c-12.15,0-22-9.41-22-21V941.68c0-11.56,9.89-21,22-21h481.5c12.15,0,22,9.41,22,21v308.78C1644.29,1262,1634.4,1271.43,1622.25,1271.43Zm-481.5-340.72c-6.64,0-12,4.92-12,11v308.78c0,6,5.4,11,12,11h481.5c6.64,0,12-4.92,12-11V941.68c0-6-5.4-11-12-11Z" transform="translate(-279.93 -560.72)" fill="url(#w)"/><path d="M703.14,1005H604.43V871.21h98.71Zm-88.71-10h78.71V881.21H614.43Z" transform="translate(-279.93 -560.72)" fill="url(#x)"/><path d="M564.93,1005H466.21V871.21h98.72Zm-88.72-10h78.72V881.21H476.21Z" transform="translate(-279.93 -560.72)" fill="url(#y)"/><path d="M426.71,1005H328V871.21h98.71ZM338,995h78.71V881.21H338Z" transform="translate(-279.93 -560.72)" fill="url(#z)"/><path d="M703.14,1178.57H604.43V1044.79h98.71Zm-88.71-10h78.71V1054.79H614.43Z" transform="translate(-279.93 -560.72)" fill="url(#aa)"/><path d="M564.93,1178.57H466.21V1044.79h98.72Zm-88.72-10h78.72V1054.79H476.21Z" transform="translate(-279.93 -560.72)" fill="url(#ab)"/><path d="M426.71,1178.57H328V1044.79h98.71Zm-88.71-10h78.71V1054.79H338Z" transform="translate(-279.93 -560.72)" fill="url(#ac)"/><path d="M1089.71,1005H991V871.21h98.71ZM1001,995h78.71V881.21H1001Z" transform="translate(-279.93 -560.72)" fill="url(#ad)"/><path d="M1089.71,1178.57H991V1044.79h98.71Zm-88.71-10h78.71V1054.79H1001Z" transform="translate(-279.93 -560.72)" fill="url(#ae)"/><path d="M795,1187a19.57,19.57,0,1,1,19.57-19.57A19.59,19.59,0,0,1,795,1187Zm0-29.14a9.57,9.57,0,1,0,9.57,9.57A9.58,9.58,0,0,0,795,1157.86Z" transform="translate(-279.93 -560.72)" fill="url(#af)"/><path d="M852.29,904.36a89.86,89.86,0,1,1,89.85-89.86A90,90,0,0,1,852.29,904.36Zm0-169.72a79.86,79.86,0,1,0,79.85,79.86A80,80,0,0,0,852.29,734.64Z" transform="translate(-279.93 -560.72)" fill="url(#ag)"/><path d="M889.71,819.5H842.93V754.07a5,5,0,0,1,10,0V809.5h36.78a5,5,0,0,1,0,10Z" transform="translate(-279.93 -560.72)" fill="url(#ah)"/><polygon points="307.56 119.57 303.87 110.28 568.02 5.39 825.1 110.29 821.32 119.55 567.97 16.17 307.56 119.57" fill="url(#ai)"/><path d="M1100.5,1274.07H287.43V815.86H698.21V707.67l149.07-56.88.89.33,150.12,56.54v108.2h408.85V898H1116.8a16.32,16.32,0,0,0-16.3,16.3Zm-808.07-5H1095.5V914.3a21.32,21.32,0,0,1,21.3-21.3h285.34V820.86H993.29V711.12l-146-55-144.09,55V820.86H292.43Z" transform="translate(-279.93 -560.72)" fill="#fff"/><path d="M1648.13,1299.14H1116.8a21.32,21.32,0,0,1-21.3-21.3V914.3a21.32,21.32,0,0,1,21.3-21.3h531.33a21.32,21.32,0,0,1,21.3,21.3v363.54A21.32,21.32,0,0,1,1648.13,1299.14ZM1116.8,898a16.32,16.32,0,0,0-16.3,16.3v363.54a16.32,16.32,0,0,0,16.3,16.3h531.33a16.32,16.32,0,0,0,16.3-16.3V914.3a16.32,16.32,0,0,0-16.3-16.3Z" transform="translate(-279.93 -560.72)" fill="#fff"/><path d="M1622.25,1268.93h-481.5c-10.77,0-19.54-8.29-19.54-18.47V941.68c0-10.18,8.77-18.47,19.54-18.47h481.5c10.77,0,19.54,8.29,19.54,18.47v308.78C1641.79,1260.64,1633,1268.93,1622.25,1268.93Zm-481.5-340.72c-8,0-14.54,6-14.54,13.47v308.78c0,7.42,6.53,13.47,14.54,13.47h481.5c8,0,14.54-6,14.54-13.47V941.68c0-7.42-6.53-13.47-14.54-13.47Z" transform="translate(-279.93 -560.72)" fill="#fff"/><path d="M1779.44,1387.86H991.6a13.38,13.38,0,0,1-7.35-24.55L1100.33,1287l2.75,4.18L987,1367.49a8.37,8.37,0,0,0,4.6,15.37h787.84a8.38,8.38,0,0,0,4.44-15.48l-122-76.22,2.65-4.24,122,76.22a13.38,13.38,0,0,1-7.08,24.72Z" transform="translate(-279.93 -560.72)" fill="#fff"/><path d="M700.64,1002.5H606.93V873.71h93.71Zm-88.71-5h83.71V878.71H611.93Z" transform="translate(-279.93 -560.72)" fill="#fff"/><path d="M562.43,1002.5H468.71V873.71h93.72Zm-88.72-5h83.72V878.71H473.71Z" transform="translate(-279.93 -560.72)" fill="#fff"/><path d="M424.21,1002.5H330.5V873.71h93.71Zm-88.71-5h83.71V878.71H335.5Z" transform="translate(-279.93 -560.72)" fill="#fff"/><path d="M700.64,1176.07H606.93V1047.29h93.71Zm-88.71-5h83.71V1052.29H611.93Z" transform="translate(-279.93 -560.72)" fill="#fff"/><path d="M562.43,1176.07H468.71V1047.29h93.72Zm-88.72-5h83.72V1052.29H473.71Z" transform="translate(-279.93 -560.72)" fill="#fff"/><path d="M424.21,1176.07H330.5V1047.29h93.71Zm-88.71-5h83.71V1052.29H335.5Z" transform="translate(-279.93 -560.72)" fill="#fff"/><path d="M1367.64,898h-93.71V873.71h93.71Zm-88.71-5h83.71V878.71h-83.71Z" transform="translate(-279.93 -560.72)" fill="#fff"/><path d="M1229.43,898h-93.72V873.71h93.72Zm-88.72-5h83.72V878.71h-83.72Z" transform="translate(-279.93 -560.72)" fill="#fff"/><path d="M1087.21,1002.5H993.5V873.71h93.71Zm-88.71-5h83.71V878.71H998.5Z" transform="translate(-279.93 -560.72)" fill="#fff"/><path d="M1087.21,1176.07H993.5V1047.29h93.71Zm-88.71-5h83.71V1052.29H998.5Z" transform="translate(-279.93 -560.72)" fill="#fff"/><path d="M935.93,1271.57h-5V1121.2a84.14,84.14,0,0,0-17.06-47.39A82.17,82.17,0,0,0,888.5,1052l-.81-.45-.32-.86a41.9,41.9,0,0,0-78.88,0l-.33.89-.83.45a80.92,80.92,0,0,0-27,23.48,82.5,82.5,0,0,0-15.38,45.74v150.36h-5V1121.14a87.56,87.56,0,0,1,16.33-48.61,86.13,86.13,0,0,1,27.88-24.5,46.89,46.89,0,0,1,87.59,0,87.21,87.21,0,0,1,26.11,22.71A89.19,89.19,0,0,1,935.93,1121v150.54Z" transform="translate(-279.93 -560.72)" fill="#fff"/><path d="M795,1184.5a17.07,17.07,0,1,1,17.07-17.07A17.09,17.09,0,0,1,795,1184.5Zm0-29.14a12.07,12.07,0,1,0,12.07,12.07A12.08,12.08,0,0,0,795,1155.36Z" transform="translate(-279.93 -560.72)" fill="#fff"/><path d="M852.29,901.86a87.36,87.36,0,1,1,87.35-87.36A87.46,87.46,0,0,1,852.29,901.86Zm0-169.72a82.36,82.36,0,1,0,82.35,82.36A82.45,82.45,0,0,0,852.29,732.14Z" transform="translate(-279.93 -560.72)" fill="#fff"/><path d="M889.71,817H845.43V754.07a2.5,2.5,0,0,1,5,0V812h39.28a2.5,2.5,0,0,1,0,5Z" transform="translate(-279.93 -560.72)" fill="#fff"/><polygon points="306.63 117.25 304.79 112.6 568.01 8.09 568.94 8.46 824.16 112.61 822.27 117.24 567.99 13.47 306.63 117.25" fill="#fff"/></svg>