<svg xmlns="http://www.w3.org/2000/svg" xmlns:xlink="http://www.w3.org/1999/xlink" width="983.96" height="906.88" viewBox="0 0 983.96 906.88"><defs><linearGradient id="a" x1="522.11" y1="970.4" x2="791.62" y2="970.4" gradientUnits="userSpaceOnUse"><stop offset="0" stop-color="blue"/><stop offset="0.25" stop-color="#f0f"/><stop offset="0.53" stop-color="#ff5100"/><stop offset="0.78" stop-color="#26ff00"/><stop offset="1" stop-color="#ff0"/></linearGradient><linearGradient id="b" x1="1250.84" y1="1194.88" x2="1330.93" y2="1194.88" xlink:href="#a"/><linearGradient id="c" x1="508" y1="1000" x2="1491.96" y2="1000" xlink:href="#a"/><linearGradient id="d" x1="557.06" y1="727.31" x2="1013.47" y2="727.31" xlink:href="#a"/><linearGradient id="e" x1="512.98" y1="1000" x2="1486.97" y2="1000" gradientUnits="userSpaceOnUse"><stop offset="0" stop-color="#13c0ff"/><stop offset="0.18" stop-color="#31cdd3"/><stop offset="0.58" stop-color="#70e678"/><stop offset="0.87" stop-color="#97f73f"/><stop offset="1" stop-color="#a6fd29"/></linearGradient><linearGradient id="f" x1="527.11" y1="970.4" x2="786.62" y2="970.4" xlink:href="#e"/><linearGradient id="g" x1="1255.84" y1="1194.88" x2="1325.93" y2="1194.88" xlink:href="#e"/><linearGradient id="h" x1="562.06" y1="727.31" x2="1008.47" y2="727.31" xlink:href="#e"/></defs><path d="M692.54,1084.8a53.15,53.15,0,0,1-19.27-3.57,55.48,55.48,0,0,1-27.13-23,19.47,19.47,0,0,1-2.61-12.82A132,132,0,0,1,661,996.5,96.16,96.16,0,0,1,638.39,988a98.31,98.31,0,0,1-34.86-31.32c-1.91.14-3.83.21-5.74.21-24.75,0-48.21-11.76-62.28-31.58-13.13-18.49-14.31-38.28-13-51.62h0a19.54,19.54,0,0,1,30.09-14.46,119,119,0,0,0,37.14,16.11,121,121,0,0,0,62.15-1.63,19.48,19.48,0,0,1,21.67,7.77c5.17,7.65,16.72,21.34,36,27.14a65.94,65.94,0,0,0,33.15,1.07,19.62,19.62,0,0,1,17.32,4.6,45.83,45.83,0,0,0,17.54,9.87,19.54,19.54,0,0,1,9.73,31A401.73,401.73,0,0,0,722.83,1070a19.45,19.45,0,0,1-12.2,11.91A58,58,0,0,1,692.54,1084.8Zm-29.18-36.71a35.33,35.33,0,0,0,17.12,14.49,34.93,34.93,0,0,0,23.62.38,421.38,421.38,0,0,1,67.19-119.87,65.71,65.71,0,0,1-24.49-13.87,85.76,85.76,0,0,1-43-1.5c-25-7.5-39.83-24.87-46.59-34.78a141.08,141.08,0,0,1-72.18,1.79,138.82,138.82,0,0,1-42.69-18.37c-.87,9.92.14,24.2,9.46,37.32,11.15,15.71,30.46,24.52,50.4,23a19.58,19.58,0,0,1,17.69,8.48,78.3,78.3,0,0,0,27.85,25.14,77,77,0,0,0,18.39,6.89,19.54,19.54,0,0,1,12.22,29.19,111.83,111.83,0,0,0-15,41.72ZM532.48,874.63h0Z" transform="translate(-508 -546.56)" fill="url(#a)"/><path d="M1290.89,1234.92a40,40,0,1,1,40-40A40.09,40.09,0,0,1,1290.89,1234.92Zm0-60.09a20,20,0,1,0,20,20.05A20.07,20.07,0,0,0,1290.89,1174.83Z" transform="translate(-508 -546.56)" fill="url(#b)"/><path d="M1484.24,1163.48a10,10,0,0,0-7.94-2.37c-19.62,2.7-38.49-8.46-44.87-26.56-5.73-16.25.12-35.2,14.24-46.08a10,10,0,0,0,1-15l-36.78-36.78a10,10,0,0,0-15,.94,39.5,39.5,0,0,1-26.37,15.26c-8.68,1.08-17.13-1-23.21-5.75-10.24-8-14.19-23.1-9.82-37.61a10,10,0,0,0-8.47-12.82l-26.8-3c-2.09-25.46-8.61-49.32-16-69.22L1387,821.42l43.8-43.94.37-.36.06-.06,40.57-40.7a9.72,9.72,0,0,0,1.34-1.67c31-48.4,22.92-112.5-18.72-149.1a110.36,110.36,0,0,0-64.28-27,117.88,117.88,0,0,0-69.64,15.9,9.9,9.9,0,0,0-1.9,1.44q-23.1,22.29-46.29,44.75l-.37.36q-22.26,21.54-44.51,43.18l-.6.59q-50,48.58-99.59,97.14a303.79,303.79,0,0,0-56.38-18.59h0a85.45,85.45,0,0,0-6.6-47A86.36,86.36,0,0,0,1031.71,659a85.37,85.37,0,0,0-22.42-34.46,86.35,86.35,0,0,0-45.51-21.88,75.8,75.8,0,0,0-84-31.79C870.48,563,853,551.39,829,550.31a82.13,82.13,0,0,0-36.74,6.94,67.25,67.25,0,0,0-43.08-10.32c-22.34,2.39-36.81,15.25-44.15,23.88a84.05,84.05,0,0,0-87.35,26.66,88.32,88.32,0,0,0-71.17,65.24A72,72,0,0,0,520,685.88c-19.62,28.78-10.29,61.77-6.24,72.81-3.69,14.55-3.33,28.82,1.08,41.5,12.75,36.65,53.81,48.14,71.37,53.06,31.47,8.8,60.12,4.81,80.79-1.32,5.67,10.72,17.18,26.7,38.27,35.68,22.83,9.74,43.88,5.63,54.76,2.14,8.87,6.57,26.44,16.79,49.82,16.79,1.89,0,3.84-.06,5.82-.21-4.56,10.59-14.85,34.72-20.37,65.45-7.08,39.46-3.73,75.29,9.95,106.47l.91,2c-43.07,43.21-87.09,87.62-130.94,132.08l-.15.16c-.14.15-.28.3-.41.46a1.25,1.25,0,0,0-.15.19,6.41,6.41,0,0,0-.39.52c-.15.21-.28.43-.41.65h0c-.12.22-.24.44-.36.68s-.21.47-.31.72l-.15.4-50.25,129.08-.24.62-24.1,61.91a30.55,30.55,0,0,0,28.29,41.6,30.94,30.94,0,0,0,10.1-1.72l60.06-20.77c.22-.06.44-.14.65-.22l129-44.61.36-.12c.26-.09.51-.19.76-.3a7.92,7.92,0,0,0,.72-.35c.23-.12.46-.26.68-.4h0c.21-.14.42-.28.62-.44a5.15,5.15,0,0,0,.52-.43l.49-.46a2.28,2.28,0,0,0,.22-.22L922.93,1287c0,.68,0,1.37,0,2.06a50.17,50.17,0,0,0,12.73,32.85,64.4,64.4,0,0,0,6.56,68,10,10,0,0,0,7.94,3.93h9.82c12.38,35.29,46.08,59.68,83.39,59.68.84,0,1.68,0,2.53,0,36.52-1.07,68.68-25.2,80.69-59.64h11.79a10,10,0,0,0,8-4,69,69,0,0,0,14-41.14c0-.84,0-1.67,0-2.48l9.51,11.49a10,10,0,0,0,16.4-1.44c9.93-17.5,31.35-24.93,47.74-16.57,12.86,6.56,20.19,22.18,17.83,38a10,10,0,0,0,9.89,11.48H1318a10,10,0,0,0,10-10.4,39.4,39.4,0,0,1,70.56-25.62,10,10,0,0,0,15,1l38.12-38.12a10,10,0,0,0-2-15.72c-16.68-9.68-24-30.3-16.93-48a39,39,0,0,1,43.26-23.66,10,10,0,0,0,11.79-9.84V1171A10,10,0,0,0,1484.24,1163.48Zm-208.15-259.1c-.12-.28-.25-.56-.38-.84-1.15-2.61-2.34-5.2-3.59-7.76-.44-.92-.89-1.84-1.35-2.75s-.93-1.85-1.41-2.77-1-1.92-1.49-2.87c-.59-1.11-1.18-2.22-1.79-3.32s-1.22-2.2-1.84-3.29-1.25-2.18-1.89-3.26-1.28-2.16-1.93-3.23q-3.68-6-7.7-11.86c-.53-.78-1.07-1.55-1.62-2.32q-1.62-2.33-3.32-4.6c-.75-1-1.5-2-2.27-3q-2.29-3-4.69-6c-.8-1-1.6-2-2.42-2.94s-1.63-2-2.46-2.91-1.66-1.93-2.51-2.88-1.7-1.91-2.56-2.85l-1.07-1.17h0c-.39-.44-.79-.87-1.19-1.3.41.43.81.86,1.2,1.3l77.32-76.59,58.56,57.34Zm55.54-313.17c35.42-20.14,80.33-16.34,109.61,9.4,34,29.92,40.68,82.37,15.65,122.41L1424,756,1293.44,628.12Q1312.55,609.63,1331.63,591.21ZM1279.07,642,1409.85,770.2l-30,30.15-61.2-59.92-9-8.82-61.14-59.86Q1263.77,656.89,1279.07,642Zm-45,43.65,58.71,57.49-77.11,76.38h0l-1-1c-2-1.85-4-3.69-6.1-5.5s-3.88-3.35-5.87-5q-2.64-2.19-5.25-4.24l-1.73-1.36L1194,801.2l-1.72-1.31-1.71-1.28-1.7-1.26-2.46-1.78-2.11-1.5-.65-.46-2.25-1.56c-1-.66-1.92-1.31-2.87-1.94l-1.32-.88q-5-3.3-9.74-6.19l-2.8-1.69c-1-.62-2.06-1.22-3.07-1.8l-1.92-1.11q-4.4-2.51-8.51-4.7l-1.61-.86-3.16-1.65Q1190,728.56,1234.11,685.69ZM814.78,886.34c-24.46,2-41.59-11.3-46.25-15.42a10,10,0,0,0-6.62-2.5,10.13,10.13,0,0,0-3.92.79c-5.26,2.24-24.06,8.87-44.85,0-21.16-9-29.32-27.55-31.31-33a10,10,0,0,0-12.78-6c-18.13,6.52-46.28,12.47-77.45,3.75-15.75-4.41-48.53-13.59-57.84-40.36-3.42-9.82-3.37-20.81.14-32.66a10,10,0,0,0-.42-6.83c-.57-1.31-13.77-32.28,3.07-57a53,53,0,0,1,22.6-18.34,10,10,0,0,0,5.78-7.21,68.46,68.46,0,0,1,59.21-54.87,10,10,0,0,0,6.74-3.83A64.57,64.57,0,0,1,660,591.46c20.15-7.35,38.33-2.17,45.21.4A10,10,0,0,0,717,588c2.08-3.15,13.48-19,34.25-21.18,16.88-1.81,29.31,6.29,33.87,9.86a10,10,0,0,0,10.85,1,62.75,62.75,0,0,1,32.08-7.35c21.83,1,36.71,13.58,42.1,19a10,10,0,0,0,10.52,2.31A56,56,0,0,1,949,616.84a10,10,0,0,0,7.8,5.11,66.72,66.72,0,0,1,38.87,17.25,65.68,65.68,0,0,1,18.1,29.32,10,10,0,0,0,4.66,5.86,65.33,65.33,0,0,1,31.09,74.09,8.82,8.82,0,0,0-.2.89c0,.3-.1.6-.13.9a10.19,10.19,0,0,0,.38,3.79c3,10.13,6.84,29.41-2.07,44.8-.28.49-.57,1-.88,1.44s-.5.76-.76,1.14a1.37,1.37,0,0,1-.15.21c-.07.1-.14.21-.23.32-.26.38-.54.76-.83,1.13-.71.91-1.46,1.8-2.26,2.67q-.6.66-1.23,1.29c-.42.43-.85.84-1.29,1.25-.88.82-1.81,1.62-2.78,2.39-.39.32-.79.62-1.19.92l-.07,0c-.21.17-.43.33-.65.48s-.37.28-.56.4a.24.24,0,0,1-.09.06l-.87.6c-.4.28-.8.54-1.21.8s-1.09.69-1.66,1-1.13.66-1.72,1c-.43.24-.87.47-1.32.7l-1.36.68c-.41.21-.82.4-1.24.59a.72.72,0,0,1-.2.09l-1.36.61q-2.69,1.16-5.56,2.12l-1,.32q-2.55.82-5.25,1.48c-.54.14-1.08.27-1.63.38a1.14,1.14,0,0,1-.25.06c-.62.14-1.24.27-1.87.39l-.56.11c-.48.1-1,.19-1.46.26-1,.19-2,.34-3.06.47-.45.08-.89.14-1.35.18a4.1,4.1,0,0,1-.49.06c-.65.09-1.3.15-2,.21s-1.54.14-2.31.19c-1.13.09-2.28.15-3.44.18-.58,0-1.16,0-1.74,0h-.88c-.29,0-.58,0-.88,0h-2l-.55,0-.75,0-1,0-1,0-.47,0-.76,0-.7-.05h-.07l-1.8-.14c-.85-.08-1.7-.16-2.55-.26l-1.26-.14-1.92-.25c-1-.14-2-.3-3.07-.47-.79-.13-1.58-.27-2.38-.43l-2.28-.45h0l-2.32-.51c-.79-.18-1.57-.37-2.36-.57-1.41-.35-2.83-.73-4.25-1.15-.89-.25-1.79-.52-2.68-.81l-2.59-.84-.07,0c-.8-.27-1.61-.56-2.42-.85-1-.36-2-.74-3-1.14l-2.34-.93-1.58-.66c-1.21-.51-2.42-1-3.63-1.6a10,10,0,0,0-13,4.44,79.48,79.48,0,0,1-21.22,25.62,81,81,0,0,1-41.58,16.8,10,10,0,0,0-6.63,3.56,64.67,64.67,0,0,1-27.57,19A61,61,0,0,1,814.78,886.34Zm1,212.71c.71,1.25,1.42,2.48,2.14,3.7.31.53.62,1.06.94,1.58,1,1.64,2,3.26,3,4.85.44.7.88,1.4,1.33,2.09s.89,1.38,1.34,2.06.89,1.35,1.34,2c.9,1.34,1.8,2.67,2.71,4,.45.65.9,1.3,1.36,1.94l1.36,1.91c5.82,8.07,11.67,15.3,17.13,21.57l1.27,1.45c6,6.79,11.47,12.38,15.83,16.61q.72.71,1.41,1.35l.47.45-116,114.88-55.19-59.85C736.23,1179.06,776.37,1138.57,815.74,1099.05ZM630.17,1428.76A10.49,10.49,0,0,1,617,1415l18.35-47.15,40.89,44.95Zm66.61-23-53.37-58.65L685.88,1238l55.55,60.25h0c1.52,1.64,3,3.29,4.54,4.93h0q29.93,32.44,59.84,64.88Zm127-47.69q-29.43-31.92-58.87-63.85l117.63-116.52,1.13.9c.59.47,1.18.94,1.77,1.43A196.6,196.6,0,0,1,901,1193.64l1.21,1.21,1.46,1.5c.73.76,1.45,1.53,2.16,2.32s1.6,1.79,2.4,2.72l.89,1c.59.71,1.19,1.43,1.77,2.16q1.32,1.64,2.63,3.39l.87,1.18c.29.39.58.8.87,1.2,1.57,2.21,3.12,4.53,4.64,7,.55.9,1.1,1.81,1.63,2.73s1,1.75,1.51,2.64c.67,1.21,1.32,2.44,1.95,3.67q.6,1.15,1.17,2.34t1,2.13a135.22,135.22,0,0,1,5.92,14.86c.16.46.32.92.46,1.39.07.2.13.41.2.62Zm47.28-190,1.14,1C871.88,1168.8,871.5,1168.45,871.1,1168.08ZM937,1206.86c-13.84-22.41-29.69-35.08-42.44-45.26-1.24-1-2.44-1.94-3.6-2.88l-2.49-2-.75-.64-.56-.5c-.32-.27-.7-.61-1.14-1h0c-3-2.67-8.48-7.79-15.2-14.94-.36-.38-.73-.77-1.09-1.17-4.44-4.77-9.35-10.38-14.39-16.71-.79-1-1.58-2-2.38-3-4.84-6.26-9.75-13.16-14.43-20.61-.29-.45-.57-.9-.85-1.36-.54-.86-1.07-1.73-1.6-2.61s-.91-1.51-1.35-2.28-1-1.78-1.55-2.69c-.61-1.07-1.22-2.15-1.81-3.25-.41-.74-.81-1.49-1.21-2.25-.51-1-1-1.91-1.5-2.87s-.93-1.85-1.39-2.78c0,0-.05-.11-.08-.16-1.28-2.59-2.45-5.13-3.53-7.59-19-43.25-15.41-95.87,10.63-156.37,1.95-4.53,4-9,6.25-13.35,1.22-.5,2.41-1,3.56-1.56l.51-.24c1.43-.68,2.82-1.38,4.15-2.12l.68-.37c1.7-.94,3.31-1.92,4.84-2.91l1.13-.74c.44-.29.87-.58,1.28-.88l1.24-.88c1.29-.92,2.5-1.85,3.63-2.76.57-.46,1.12-.91,1.65-1.36,1.67-1.41,3.15-2.78,4.46-4.05l.54-.53.52-.52c.37-.37.72-.74,1.06-1.09l.56-.59a100.55,100.55,0,0,0,47.92-20.49,99.06,99.06,0,0,0,21.86-24c.81.32,1.63.63,2.44.93s1.37.51,2.06.75l2,.7c1.07.37,2.15.72,3.22,1.06s2,.62,3,.91,2.26.65,3.39,1l3.18.81c1,.26,2.11.5,3.16.72l2.35.49,1.18.23,2,.37,2.26.37,2.7.39,1.91.25,3,.33.83.08v169.35a29.12,29.12,0,0,0,29.09,29.09h130.56a9.09,9.09,0,0,1,9.08,9.08v22.8a9.09,9.09,0,0,1-9.08,9.09h-158a29.12,29.12,0,0,0-29.09,29.08V1138a29.12,29.12,0,0,0,29.09,29.09h41.36a9.09,9.09,0,0,1,9.08,9.08v72.32H954.85l-.15-.53A156.71,156.71,0,0,0,937,1206.86Zm5.94,82.09A30.5,30.5,0,0,1,951,1268.5h187.16a65.48,65.48,0,0,1,1.48,22.08,64.35,64.35,0,0,1-4.22,17.09v0l0,.07a4.7,4.7,0,0,0-.17.45h0l-183.29,1.88C948.55,1306.63,942.93,1299.32,942.89,1289Zm102.38,144.46c-27.22.83-52.26-15.3-63.75-39.65H1105C1094.13,1416.9,1071.11,1432.65,1045.27,1433.41Zm87.8-59.65H955.4a44.35,44.35,0,0,1-1.52-43.69l181.85-1.86a47.93,47.93,0,0,1,4.54,20.4A48.48,48.48,0,0,1,1133.07,1373.76Zm4.72-125.26h-86.87v-72.32a29.12,29.12,0,0,0-29.08-29.08H980.48a9.1,9.1,0,0,1-9.09-9.09v-24.79a9.09,9.09,0,0,1,9.09-9.08h158a29.11,29.11,0,0,0,29.08-29.09v-22.8a29.11,29.11,0,0,0-29.08-29.08H1007.92a9.1,9.1,0,0,1-9.09-9.09V844.89l.6,0c.67-.05,1.34-.11,2-.18s1.3-.13,1.94-.21c.48-.05,1-.11,1.43-.18,1-.12,1.9-.26,2.83-.41l1.4-.23c.83-.14,1.65-.29,2.47-.45s1.63-.33,2.43-.51c1.61-.35,3.2-.75,4.76-1.17.84-.22,1.66-.46,2.48-.71l.62-.19.61-.19,1.22-.39,1.18-.4c.53-.17,1-.36,1.56-.55l1-.38,1-.39q2.64-1,5.14-2.2c.59-.27,1.18-.55,1.76-.84s1.41-.7,2.1-1.07c.41-.21.81-.43,1.21-.65l1.24-.7.49-.28,1-.61.18-.11c.46-.27.91-.55,1.35-.83,1-.63,2-1.27,2.92-1.94q1.05-.74,2.07-1.5c1.35-1,2.66-2.06,3.91-3.15.63-.55,1.24-1.1,1.84-1.66s1.19-1.13,1.76-1.71.92-.94,1.37-1.42.75-.81,1.12-1.22c.07-.08.15-.16.22-.25.42-.48.84-1,1.24-1.46.2-.25.41-.5.61-.76s.41-.5.6-.76.36-.46.53-.7a53.42,53.42,0,0,0,3.72-5.61c.38-.66.75-1.33,1.1-2,.18-.33.35-.66.52-1,.51-1,1-2,1.42-3,.15-.34.29-.68.43-1,.43-1,.82-2,1.17-3.07.12-.34.23-.69.35-1s.31-.94.45-1.4.25-.86.37-1.29.25-.89.36-1.34.24-1,.34-1.42.19-.79.27-1.19.19-.92.28-1.38a2.56,2.56,0,0,0,0-.27c.06-.32.12-.64.17-1a67.85,67.85,0,0,0,.89-8q0-.63.06-1.26c0-.67,0-1.34,0-2,0-.5,0-1,0-1.52,0-.18,0-.36,0-.54s0-.45,0-.67v-.21c0-.38,0-.75,0-1.12s0-.9-.06-1.35,0-.73-.07-1.09,0-.43,0-.65,0-.43-.05-.64c0-.56-.09-1.11-.15-1.66s-.11-1.09-.18-1.64-.15-1.26-.24-1.89A283.24,283.24,0,0,1,1125.1,783q2.1,1,4.19,2c62,30.48,105.43,73.83,129.1,128.84l.2.46c1.21,2.82,2.87,6.67,4.72,11.39,8.33,21.23,16.11,48.09,17.43,76.51a0,0,0,0,0,0,0c0,.6.06,1.21.07,1.81a.28.28,0,0,0,0,.09c.78,21.76-2.27,44.39-11.79,66.08a223.49,223.49,0,0,1-20.9,37,271.8,271.8,0,0,1-43.92,49.45c-1.2,1-2.43,2-3.69,3l-.68.54,0,0-1.65,1.32c-12.75,10.18-28.62,22.86-42.46,45.27A156.74,156.74,0,0,0,1137.79,1248.5ZM1290.88,1116a78.82,78.82,0,1,1-76.07,57.89l2.15-1.76.16-.13.28-.24.4-.34.36-.3.46-.4.68-.6c1.67-1.48,4.16-3.73,7.24-6.7l1-.92,2.06-2,.72-.72.18-.19,1-1,2-2,1-1.06a.28.28,0,0,1,.09-.1l2.61-2.76c4-4.33,8.47-9.32,13-14.92.62-.75,1.23-1.51,1.85-2.28s1.24-1.55,1.86-2.34,1.25-1.59,1.87-2.4,1.26-1.63,1.88-2.46,1.26-1.68,1.89-2.53l1.88-2.58c.35-.49.71-1,1.06-1.48l.38-.53A78.44,78.44,0,0,1,1290.88,1116Zm176.79,92a59,59,0,0,0-53.64,36.89c-9.07,22.83-2.47,48.87,15.24,65.13l-22.64,22.64a59.42,59.42,0,0,0-98.19,36.49h-36.36c-.92-20-11.95-38.53-29.12-47.29-21.78-11.11-48.91-5-65.94,13.26l-21-25.42a83.57,83.57,0,0,0,3.59-17A85.66,85.66,0,0,0,1156,1258a137.73,137.73,0,0,1,16.69-40.63,126.45,126.45,0,0,1,19.3-24.11c0,.54,0,1.08,0,1.62a98.8,98.8,0,1,0,86.17-98.1q5.13-9.26,9.19-18.5c9.33-21.26,13.21-43.12,13.56-64.33l13.13,1.46c-1.82,18.61,5.15,36.74,19,47.52,10.38,8.1,23.87,11.59,38,9.83a58.88,58.88,0,0,0,32-14.61l22.16,22.15a60.65,60.65,0,0,0-12.59,60.92c8.27,23.45,30.43,39.13,55.1,40.24Z" transform="translate(-508 -546.56)" fill="url(#c)"/><path d="M1010.71,765a10,10,0,0,1-14.13.33,83,83,0,0,0-70.06-21.92,50.14,50.14,0,0,1-2.47,18.5c-9,27.09-37.13,34.53-40.3,35.29a10,10,0,1,1-4.66-19.45c.83-.2,20.29-5,26-22.14a30.66,30.66,0,0,0,1.16-14.19,80,80,0,0,1-31.77-17.69,80.87,80.87,0,0,1-24.73-45,79.58,79.58,0,0,1-16.5,1.74,76.89,76.89,0,0,1-12.27-1,79.48,79.48,0,0,1-36.18-16A89,89,0,0,1,765,700.44a94.66,94.66,0,0,1,17.36,39.08,60.94,60.94,0,0,1,28.58-.07,62.79,62.79,0,0,1,35.6,23.73,10,10,0,0,1-16.18,11.76,41.42,41.42,0,0,0-46.57-15c-1.48,33.45-21.37,55.7-27.79,62a10,10,0,1,1-14-14.24c5.38-5.3,22.8-24.81,21.89-53.95a1.62,1.62,0,0,1,0-.22A72.63,72.63,0,0,0,750,713.74a90.71,90.71,0,0,1-40.13,15.49c-.2,0-.4.06-.6.07l-.34,0h-.07c-27,2-49.63,17.34-57.81,39.13,0,0,0,.07,0,.11-6,16-2.5,31.33.1,39a10,10,0,0,1-6.28,12.67,9.88,9.88,0,0,1-3.19.53,10,10,0,0,1-9.48-6.81c-3.06-9.06-7-26.14-2.18-45.09a43.46,43.46,0,0,0-25.55-6.77c-16.63.94-27.06,11.35-29.85,14.52a10,10,0,0,1-15-13.23,63.73,63.73,0,0,1,43.71-21.26,62.61,62.61,0,0,1,34.4,8c12.45-21.14,35.49-36,62.45-40a37.25,37.25,0,0,0-3.72-23,37.71,37.71,0,0,0-19.57-17.2A10,10,0,1,1,684,651.36a58,58,0,0,1,30.13,26.54,56.13,56.13,0,0,1,6.4,28.42,69.76,69.76,0,0,0,24.16-13.82l.37-.33c1.25-1.12,2.49-2.31,3.7-3.58,16.58-17.36,18.89-38,19.11-46.05a10,10,0,0,1,17.81-6c4.68,5.87,17.8,19.88,38.5,23.2a59.75,59.75,0,0,0,30.23-3.12l.88-.33a70,70,0,0,0,30-22.63A10,10,0,1,1,901,646a90.57,90.57,0,0,1-32.1,26.21c1.39,9.33,5.71,24.68,19,36.83a61.35,61.35,0,0,0,32.7,15.16,102.94,102.94,0,0,1,89.74,26.74A10,10,0,0,1,1010.71,765Z" transform="translate(-508 -546.56)" fill="url(#d)"/><path d="M1481,1167.25a5,5,0,0,0-4-1.19c-22,3-43.11-9.52-50.28-29.84-6.54-18.56-.15-39.34,15.91-51.71a5,5,0,0,0,.48-7.49l-36.79-36.79a4.94,4.94,0,0,0-3.84-1.45,5,5,0,0,0-3.64,1.92,44.43,44.43,0,0,1-29.7,17.16c-10,1.25-19.78-1.22-26.9-6.77-11.86-9.24-16.49-26.52-11.54-43a5,5,0,0,0-4.24-6.41l-30.91-3.44c-1.75-27.78-9-53.83-17.09-75q52.5-52.66,105-105.34l44.16-44.3q20.34-20.39,40.67-40.79a4.58,4.58,0,0,0,.67-.84c29.65-46.33,22-107.66-17.82-142.64a105.33,105.33,0,0,0-61.39-25.74,112.94,112.94,0,0,0-66.7,15.24,5.06,5.06,0,0,0-1,.72q-23.24,22.42-46.56,45-22.45,21.74-44.92,43.58l-.06.06,0,0q-51.33,49.88-102.21,99.71a298.79,298.79,0,0,0-63.15-20.68,80.26,80.26,0,0,0-37.63-84.94,80.42,80.42,0,0,0-21.67-34.11A81.64,81.64,0,0,0,960.8,607.3a70.91,70.91,0,0,0-82.32-30.84c-8-7.33-25.31-20.05-49.75-21.16a77.4,77.4,0,0,0-37,7.66c-7.41-5.15-22.45-13.17-42.11-11.06-23,2.46-37.26,17.43-42.88,24.66a80.39,80.39,0,0,0-52,.8,79.46,79.46,0,0,0-34.54,24.76,83.39,83.39,0,0,0-69.51,64,67.55,67.55,0,0,0-26.61,22.55C504.85,717,515.7,750,519,758.42c-3.86,14.12-3.67,28,.56,40.12,11.89,34.19,51.19,45.19,68,49.9,32.45,9.07,61.84,4,82-2.55,4.41,9.63,15.26,27.59,37.64,37.12,23.27,9.92,44.56,4.47,53.72,1.14,7.43,5.93,24.91,17.39,48.89,17.39q3,0,6.13-.24a75.18,75.18,0,0,0,7.93-1.08c-1.2,2.54-2.36,5.12-3.48,7.71-4.4,10.23-14.72,34.19-20.2,64.73-6.91,38.47-3.67,73.33,9.61,103.59q1.1,2.51,2.33,5.12c-43.85,44-88.7,89.22-133.38,134.52l-.07.08a4.86,4.86,0,0,0-1,1.61l-.07.18L603,1409.6a25.54,25.54,0,0,0,23.65,34.77,25.85,25.85,0,0,0,8.44-1.43l60.09-20.78.25-.08.25-.09h0l129.48-44.76.19-.08a1.48,1.48,0,0,0,.29-.12,2.86,2.86,0,0,0,.54-.3,1.14,1.14,0,0,0,.23-.15,3.15,3.15,0,0,0,.29-.22,4.18,4.18,0,0,0,.44-.4l104.56-104.88a43.44,43.44,0,0,0-3.82,17.93c.06,16,8.63,26.91,13.81,32.07a59.47,59.47,0,0,0,4.45,65.73,5,5,0,0,0,4,2h13.44c10.66,35.1,43.4,59.68,79.77,59.68.79,0,1.58,0,2.38,0,35.62-1.05,66.84-25.37,77.21-59.64h15.42a5,5,0,0,0,4-2,64,64,0,0,0,12.94-38.14,62.48,62.48,0,0,0-3.35-20.35l21.67,26.18a5,5,0,0,0,8.2-.72c11.24-19.79,35.62-28.12,54.36-18.56,14.75,7.53,23.18,25.29,20.5,43.19a5,5,0,0,0,4.95,5.74H1318a5,5,0,0,0,3.6-1.54,4.94,4.94,0,0,0,1.39-3.66,44.4,44.4,0,0,1,79.51-28.88,5,5,0,0,0,7.5.48l38.12-38.12a5,5,0,0,0-1-7.86c-18.8-10.91-27-34.18-19.07-54.13a44.07,44.07,0,0,1,48.81-26.74,5,5,0,0,0,5.89-4.92V1171A5,5,0,0,0,1481,1167.25ZM1274.41,913.16c-.29-.68-.56-1.33-.83-1.95l-.71-1.69c-.17-.4-.33-.78-.49-1.14l-.2-.46a249.87,249.87,0,0,0-49.39-74.31l83.61-84.14,66.39,65Q1323.59,863.81,1274.41,913.16Zm54.2-326c37.32-21.53,84.92-17.58,115.93,9.68,36,31.64,43,87.13,16.29,129.3L1424,763.08l-137.74-135Q1307.48,607.58,1328.61,587.18Zm-49.52,47.88L1417,770.17q-18.57,18.6-37.11,37.22L1309.9,738.9l0,0,0,0-68.55-67.12Q1260.19,653.37,1279.09,635.06Zm-45,43.64,65.13,63.77-83.51,84Q1208,819,1199.54,812c-4.53-3.75-9-7.23-13.39-10.45L1184,800q-3.92-2.82-7.71-5.38l-2-1.32-2-1.32-2-1.29-2-1.25c-7.25-4.55-14.12-8.43-20.48-11.8-.6-.32-1.19-.64-1.78-.94-2.79-1.47-5.49-2.83-8.06-4.11Q1185.71,725.74,1234.12,678.7ZM1060.49,806.36a54,54,0,0,0,3.19-6.48c.25-.62.5-1.25.73-1.88s.46-1.26.66-1.89.4-1.26.59-1.89q.42-1.43.75-2.85c.15-.63.29-1.27.42-1.91s.25-1.27.35-1.9.21-1.26.3-1.9.16-1.27.23-1.91.13-1.26.18-1.89.09-1.26.12-1.89.06-1.23.08-1.84,0-1.27,0-1.91,0-1.29,0-1.93,0-1.14-.06-1.72,0-1-.08-1.46c-.13-2-.33-3.88-.58-5.76-.06-.47-.13-.94-.2-1.4q-.4-2.67-.93-5.2c-.08-.36-.15-.72-.23-1.08h0a288.59,288.59,0,0,1,61.22,20.78q2.14,1,4.27,2.06c63.09,31,107.33,75.22,131.49,131.36l.2.46c1.22,2.85,2.89,6.74,4.77,11.53,8.54,21.75,16.49,49.29,17.78,78.5h0c0,.39,0,.77,0,1.15a0,0,0,0,0,0,0c.87,22.57-2.27,46.1-12.19,68.7a229,229,0,0,1-21.35,37.84,277.06,277.06,0,0,1-44.86,50.46c-1.21,1-2.46,2-3.73,3l-.69.55-.28.24-1.43,1.13c-12.45,9.94-27.94,22.31-41.32,44a152.38,152.38,0,0,0-18.28,44h-95.74v-77.32a24.1,24.1,0,0,0-24.08-24.08H980.48A14.1,14.1,0,0,1,966.39,1138v-24.79a14.1,14.1,0,0,1,14.09-14.08h158a24.11,24.11,0,0,0,24.08-24.09v-22.8a24.1,24.1,0,0,0-24.08-24.08H1007.92a14.1,14.1,0,0,1-14.09-14.09v-174l2-.08c.68,0,1.35-.07,2-.12a1.23,1.23,0,0,0,.27,0c.58,0,1.15-.08,1.72-.13,1.64-.13,3.27-.31,4.88-.53l1-.14,2.06-.31,2.05-.35C1032.7,834.17,1051.15,822.5,1060.49,806.36ZM1259.62,1117a83.82,83.82,0,1,1-49.18,54q1.71-1.37,3.33-2.71l.09-.08.34-.28.26-.22.39-.33.34-.3.56-.49.74-.65.84-.75.08-.08.47-.42c.48-.43,1-.9,1.55-1.42l.71-.66c.92-.85,1.93-1.81,3-2.86l1.93-1.88.68-.67,1.62-1.61,1.48-1.51.21-.21,2.28-2.37c.85-.89,1.72-1.81,2.61-2.77l1.8-2,2.79-3.09,1.9-2.17c1-1.1,1.94-2.23,2.92-3.4.49-.58,1-1.17,1.48-1.77s1-1.2,1.5-1.81c.67-.81,1.34-1.64,2-2.48l1-1.3c.66-.84,1.34-1.7,2-2.58l.7-.9.45-.59Q1256.09,1122,1259.62,1117ZM815.19,891.33c-26.45,2.14-44.93-12.21-50-16.66a5,5,0,0,0-3.31-1.25,5.15,5.15,0,0,0-2,.39c-5.72,2.44-26.16,9.64-48.77,0-23-9.8-31.88-29.94-34-35.88a5,5,0,0,0-6.39-3c-18.82,6.77-48,12.93-80.49,3.86-16.56-4.64-51-14.3-61.22-43.54-3.76-10.83-3.73-22.85.07-35.72a5,5,0,0,0-.21-3.41c-.61-1.41-14.84-34.84,3.53-61.8a58.13,58.13,0,0,1,24.72-20.1,5,5,0,0,0,2.89-3.61,73.45,73.45,0,0,1,63.51-58.85,5,5,0,0,0,3.38-1.92,69.63,69.63,0,0,1,31.32-23.09c21.72-7.92,41.27-2.34,48.67.42a5,5,0,0,0,5.93-1.93c2.29-3.48,14.88-20.94,37.89-23.4,18.7-2,32.44,6.95,37.48,10.89a5,5,0,0,0,5.43.48,67.74,67.74,0,0,1,34.64-7.93c23.58,1.07,39.61,14.63,45.41,20.41a5,5,0,0,0,5.26,1.16,60.94,60.94,0,0,1,74.42,27.56,5,5,0,0,0,3.9,2.55,71.75,71.75,0,0,1,41.8,18.57,70.63,70.63,0,0,1,19.49,31.56,5,5,0,0,0,2.33,2.92,70.34,70.34,0,0,1,33.46,79.73c0,.14-.07.28-.1.42a2.51,2.51,0,0,0,0,.27c0,.11,0,.22,0,.33a5,5,0,0,0,.19,1.84c3.28,10.9,7.32,31.72-2.53,48.74C1044,815,1028,824.87,1008,828.54c-21.87,4-46.76.36-70.07-10.34a5,5,0,0,0-6.52,2.22,84.38,84.38,0,0,1-22.54,27.23,85.9,85.9,0,0,1-44.15,17.84,5,5,0,0,0-3.31,1.78,69.82,69.82,0,0,1-29.76,20.54A65.8,65.8,0,0,1,815.19,891.33Zm14.45,20.55c2.24-5.22,4.68-10.36,7.25-15.32l1.15-.46q1.51-.6,3-1.26c.48-.21,1-.43,1.43-.66l.4-.19,1-.51c.91-.45,1.78-.91,2.64-1.39l1.29-.72c.43-.24.85-.49,1.26-.74l1.22-.74c.6-.37,1.19-.74,1.76-1.13s.93-.61,1.38-.92c.7-.49,1.39-1,2.06-1.47.47-.34.93-.69,1.38-1l1-.77.71-.57c.46-.37.91-.75,1.35-1.12,1.14-1,2.18-1.89,3.14-2.8l.64-.61c1.32-1.26,2.46-2.44,3.41-3.49l.71-.78a95.64,95.64,0,0,0,47.3-19.71A94,94,0,0,0,938,829.16l1.86.77,1.87.74c1.16.46,2.33.89,3.5,1.31l1.23.44c1,.35,2,.68,2.94,1l2.41.76.17.05,2.28.68c2,.58,4,1.11,6,1.59l1.56.36c1.72.4,3.45.75,5.16,1.07l2,.37c1,.18,2.08.34,3.12.49l1.21.17c2.19.31,4.36.55,6.53.73l1.54.12,1.18.08,1.19.07v174.12a24.12,24.12,0,0,0,24.09,24.09h130.56a14.09,14.09,0,0,1,14.08,14.08v22.8a14.1,14.1,0,0,1-14.08,14.09h-158a24.11,24.11,0,0,0-24.09,24.08V1138a24.12,24.12,0,0,0,24.09,24.09h41.36a14.1,14.1,0,0,1,14.08,14.08v77.32H951c-.31-1.27-.64-2.56-1-3.85l-.09-.36a152,152,0,0,0-17.19-39.81c-13.38-21.67-28.86-34-41.3-44-1.54-1.23-3-2.41-4.45-3.57l-.23-.19-1.48-1.21,0,0-.13-.11-.15-.13-.47-.4c-.18-.16-.41-.35-.66-.58l-.17-.15-.21-.17h0l-.19-.18-.24-.22-.53-.47c-2.94-2.63-8-7.34-14.14-13.81l0,0-.52-.56-.54-.57c-.74-.79-1.5-1.6-2.26-2.43-2.12-2.3-4.33-4.78-6.6-7.43-.52-.59-1-1.2-1.55-1.81q-1.44-1.7-2.9-3.48l-.59-.72-.41-.51c-3.64-4.5-7.37-9.38-11.06-14.6-.37-.52-.74-1-1.1-1.57-.73-1-1.46-2.11-2.18-3.19-.37-.54-.73-1.08-1.09-1.63s-.65-1-1-1.46c-.74-1.12-1.46-2.25-2.18-3.39-.59-.94-1.18-1.88-1.76-2.84-.78-1.28-1.56-2.57-2.32-3.88-.61-1-1.2-2.07-1.79-3.12a.41.41,0,0,1-.05-.09c-.64-1.13-1.28-2.28-1.9-3.44-.43-.79-.86-1.59-1.27-2.39s-.86-1.64-1.28-2.47-.84-1.66-1.25-2.5c-1.34-2.71-2.58-5.37-3.7-7.94C799.46,1027.66,803,973.71,829.64,911.88Zm46.14,253.69c-.35-.31-.73-.64-1.13-1Zm-58.87-74.78c.51,1,1,1.93,1.56,2.88.68,1.25,1.37,2.49,2.08,3.72.59,1,1.19,2.06,1.79,3.08.16.28.32.56.49.83.53.89,1.06,1.77,1.6,2.64q2.64,4.3,5.36,8.38l1.52,2.25,1.38,2c1.38,2,2.77,3.94,4.16,5.83.66.89,1.31,1.77,2,2.64.06.08.11.16.17.23l1.53,2c3.4,4.43,6.77,8.56,10,12.34l1.21,1.4c1,1.2,2.07,2.37,3.07,3.49l1.64,1.81c5,5.5,9.54,10.06,13.19,13.57l.75.71c1.58,1.51,3,2.81,4.17,3.89L751.21,1286.68l-61.93-67.17C732,1176.18,774.93,1132.92,816.91,1090.79ZM631.8,1433.49a15.5,15.5,0,0,1-19.5-20.27l21.28-54.66L685,1415.09Zm63.51-22-57.69-63.38,46.51-119.48,61.68,66.89c1.06,1.14,2.11,2.29,3.16,3.43l65.72,71.27Zm128.37-46.27Q790.85,1329.66,758,1294l124.23-123,2.92,2.33c12.45,10,26.57,21.22,39,41.41.34.55.67,1.1,1,1.65q1.44,2.4,2.78,4.88c.37.67.73,1.36,1.09,2q1.38,2.63,2.63,5.32c.19.4.38.81.56,1.21.5,1.08,1,2.18,1.45,3.28.23.53.46,1.07.67,1.61.14.31.27.62.39.94.3.73.59,1.46.87,2.2s.45,1.18.67,1.78c1.07,2.87,2.05,5.8,2.93,8.76.08.25.16.49.23.74h0ZM937.89,1289c0-13.23,7.59-22.13,11-25.47H1142a70.41,70.41,0,0,1,2.64,27.61,69.57,69.57,0,0,1-4.55,18.44,3.07,3.07,0,0,0-.2.5,5,5,0,0,0,0,3.12h-1.35l-188.59,1.93C946.28,1311.84,937.94,1302.85,937.89,1289Zm107.52,149.44c-31.81.91-60.83-19.62-71.33-49.65h138.33C1102.44,1417.42,1075.74,1437.51,1045.41,1438.41Zm90.38-59.65H952.68a49.47,49.47,0,0,1-1.77-53.66l187.88-1.92a53,53,0,0,1,6.48,25.44A53.75,53.75,0,0,1,1135.79,1378.76Zm336.88-165.67a54,54,0,0,0-54,33.62c-9,22.53-1.21,48.5,18,62.94l-30,30a54.4,54.4,0,0,0-93.7,34.48h-45.9c.86-20.08-9.48-39.2-26.4-47.84-21.44-10.93-48.63-3.41-63.7,16.61l-26.65-32.19a79.22,79.22,0,0,0,4.24-18.54,80.48,80.48,0,0,0-3.75-33.92,142.9,142.9,0,0,1,17.62-43.51c9.39-15.21,19.71-25.36,29.55-33.69a93.81,93.81,0,1,0,70.33-77.35,228.43,228.43,0,0,0,14.43-27.43c9.84-22.42,13.43-45.58,13.15-67.91l23.79,2.65c-3.51,18.59,2.72,37.32,16.38,48,9.33,7.27,21.51,10.4,34.28,8.81a54.07,54.07,0,0,0,32.7-16.67l29.14,29.14c-16.27,15.25-22.28,38.4-14.92,59.28,8.12,23,30.85,37.88,55.39,36.93Z" transform="translate(-508 -546.56)" fill="url(#e)"/><path d="M692.55,1079.8a48.25,48.25,0,0,1-17.48-3.23,50.45,50.45,0,0,1-24.65-20.89,14.45,14.45,0,0,1-1.94-9.52,127,127,0,0,1,17.06-47.57,4.57,4.57,0,0,0,.32-4.16,4.49,4.49,0,0,0-3.14-2.65,91.48,91.48,0,0,1-22-8.24,93.4,93.4,0,0,1-33.24-30,4.53,4.53,0,0,0-4.13-1.93c-25.16,1.92-49.59-9.29-63.77-29.26-12.24-17.24-13.33-35.74-12.09-48.23a14.54,14.54,0,0,1,22.38-10.77,124,124,0,0,0,38.7,16.78,126,126,0,0,0,64.73-1.69,14.5,14.5,0,0,1,16.13,5.77c5.54,8.2,17.94,22.88,38.7,29.13a70.93,70.93,0,0,0,35.67,1.16,14.6,14.6,0,0,1,12.9,3.44,50.93,50.93,0,0,0,19.45,10.94A14.54,14.54,0,0,1,783.42,952a406.48,406.48,0,0,0-65.29,116.31,14.43,14.43,0,0,1-9.08,8.86A52.69,52.69,0,0,1,692.55,1079.8ZM603.72,941.62a14.55,14.55,0,0,1,12,6.33,83.22,83.22,0,0,0,29.65,26.75A81.81,81.81,0,0,0,665,982.05a14.54,14.54,0,0,1,9.09,21.73,116.94,116.94,0,0,0-15.71,43.82,4.39,4.39,0,0,0,.6,2.91,40.38,40.38,0,0,0,19.7,16.73,40,40,0,0,0,27.2.4,4.54,4.54,0,0,0,2.84-2.77,416.57,416.57,0,0,1,66.9-119.18,4.43,4.43,0,0,0,.8-4.15,4.56,4.56,0,0,0-3.13-3.06A61,61,0,0,1,750,925.39a4.58,4.58,0,0,0-4-1.11,80.89,80.89,0,0,1-40.73-1.35c-23.73-7.14-37.82-23.8-44.11-33.1a4.52,4.52,0,0,0-5-1.77,136,136,0,0,1-69.88,1.81,133.91,133.91,0,0,1-41.82-18.13,4.4,4.4,0,0,0-4.38-.28,4.49,4.49,0,0,0-2.58,3.67h0c-1.07,10.79-.16,26.74,10.29,41.45,12.16,17.13,33.19,26.73,54.86,25.08C603,941.63,603.35,941.62,603.72,941.62Zm-71.24-67h0Z" transform="translate(-508 -546.56)" fill="url(#f)"/><path d="M1290.89,1229.92a35,35,0,1,1,35-35A35.08,35.08,0,0,1,1290.89,1229.92Zm0-60.09a25,25,0,1,0,25,25.05A25.08,25.08,0,0,0,1290.89,1169.83Z" transform="translate(-508 -546.56)" fill="url(#g)"/><path d="M1007.09,761.58a5,5,0,0,1-7.06.17A87.93,87.93,0,0,0,922,739.17a4.21,4.21,0,0,1-.87.09,45.73,45.73,0,0,1-1.78,21.11c-8.14,24.51-33.82,31.31-36.72,32a5.18,5.18,0,0,1-1.16.14,5,5,0,0,1-1.16-9.86c.93-.23,23-5.72,29.55-25.44a36.51,36.51,0,0,0,.77-19.76,75.44,75.44,0,0,1-32.75-17.38c-17.37-15.87-22.53-35.51-24-47.47a74.18,74.18,0,0,1-32.06,2c-18.28-2.93-31.73-12.41-40.09-20.27A84.78,84.78,0,0,1,759.56,699c-.38.4-.76.79-1.15,1.18a89.43,89.43,0,0,1,19.88,45.8,56.41,56.41,0,0,1,64.21,20.19,5,5,0,0,1-8.09,5.88,46.48,46.48,0,0,0-55.53-15.63c-.17,33.48-20.11,55.8-26.39,62a5,5,0,1,1-7-7.12c5.76-5.67,24.44-26.6,23.37-57.87a1.62,1.62,0,0,1,0-.22c-.82-22-11.15-38.12-17.88-46.35A85.28,85.28,0,0,1,709,724.29a2.5,2.5,0,0,1-.47.05c-29,2.12-53.39,18.77-62.24,42.44l0,.08c-6.49,17.44-2.75,34,.06,42.36a5,5,0,0,1-3.14,6.33,4.87,4.87,0,0,1-1.59.27,5,5,0,0,1-4.74-3.41c-3.06-9-7-26.58-1.13-45.61a49.3,49.3,0,0,0-31.63-9.65c-18.56,1.06-30.19,12.68-33.31,16.22a5,5,0,0,1-7.5-6.62c3.77-4.27,17.82-18.31,40.25-19.58a58.31,58.31,0,0,1,36,10.07c11.38-23.15,35.91-39.36,64.78-42.54a41.62,41.62,0,0,0-25.73-49.32,5,5,0,0,1,3.56-9.35,51.49,51.49,0,0,1,32.66,57.08,76,76,0,0,0,33.23-17c1.44-1.28,2.87-2.65,4.27-4.11,17.78-18.61,20.25-40.72,20.48-49.37a5,5,0,0,1,8.91-3c5,6.33,19.19,21.43,41.62,25a64.91,64.91,0,0,0,32.9-3.42,1,1,0,0,1,.21-.08l.33-.13a75,75,0,0,0,32.4-24.32,5,5,0,1,1,7.9,6.13,85.32,85.32,0,0,1-33.57,26.25c.88,9.22,4.7,28.6,21.06,43.54a66.48,66.48,0,0,0,36.21,16.53,97.91,97.91,0,0,1,86.15,25.3A5,5,0,0,1,1007.09,761.58Z" transform="translate(-508 -546.56)" fill="url(#h)"/><path d="M692.55,1077.9a46.43,46.43,0,0,1-16.79-3.11,48.57,48.57,0,0,1-23.71-20.1,12.51,12.51,0,0,1-1.68-8.25,125,125,0,0,1,16.8-46.86,6.45,6.45,0,0,0-4-9.65,89.89,89.89,0,0,1-21.52-8.08,91.41,91.41,0,0,1-32.56-29.36,6.46,6.46,0,0,0-5.86-2.76c-24.48,1.87-48.27-9-62.07-28.47-11.89-16.75-12.95-34.77-11.74-46.93h0A12.63,12.63,0,0,1,548.84,865a125.56,125.56,0,0,0,39.29,17,127.89,127.89,0,0,0,65.72-1.71,12.59,12.59,0,0,1,14,5c5.68,8.41,18.4,23.47,39.73,29.89a72.84,72.84,0,0,0,36.64,1.19,12.66,12.66,0,0,1,11.2,3,52.59,52.59,0,0,0,20.18,11.34,12.74,12.74,0,0,1,8.54,8.41,12.59,12.59,0,0,1-2.22,11.62,408.57,408.57,0,0,0-65.59,116.87,12.57,12.57,0,0,1-7.9,7.69A51.06,51.06,0,0,1,692.55,1077.9ZM603.72,943.52a12.63,12.63,0,0,1,10.47,5.5,85.3,85.3,0,0,0,30.33,27.37,83.66,83.66,0,0,0,20.05,7.51,12.64,12.64,0,0,1,7.89,18.89,118.92,118.92,0,0,0-16,44.53,6.35,6.35,0,0,0,.85,4.17,41.17,41.17,0,0,0,49.15,18,6.46,6.46,0,0,0,4-3.94,415.08,415.08,0,0,1,66.59-118.63,6.32,6.32,0,0,0,1.13-5.91,6.45,6.45,0,0,0-4.4-4.32A58.74,58.74,0,0,1,751.29,924a6.46,6.46,0,0,0-5.72-1.55,79,79,0,0,1-39.76-1.31c-23.17-7-36.93-23.26-43.07-32.35a6.42,6.42,0,0,0-7.16-2.53,134.28,134.28,0,0,1-68.9,1.79,132.18,132.18,0,0,1-41.22-17.88,6.27,6.27,0,0,0-6.25-.4,6.41,6.41,0,0,0-3.65,5.2c-1.11,11.11-.16,27.55,10.63,42.74,12.54,17.67,34.21,27.58,56.55,25.88C603.07,943.54,603.4,943.52,603.72,943.52Z" transform="translate(-508 -546.56)" fill="#fff"/><path d="M809.86,899c-24.5,0-42-12.36-48.42-17.73-7.94,3.1-29.51,9.51-53.2-.6-23.34-9.94-33.69-29.38-37.25-37.91-19.89,6.8-49.71,12.46-82.73,3.23-16.43-4.6-54.85-15.36-66.31-48.31-4.14-11.92-4.24-25.54-.29-39.44-2.74-6.68-14.73-39.87,4.56-68.17a65.38,65.38,0,0,1,26.72-22.22,80.92,80.92,0,0,1,68.67-63.44,76.68,76.68,0,0,1,86.09-25c4.47-6.14,18.5-22.57,42.23-25.11,20-2.15,35,6.62,41.61,11.47a75,75,0,0,1,37.08-8.06c24.79,1.12,42,14.62,49.23,21.49a68.45,68.45,0,0,1,81.43,30.35,79.2,79.2,0,0,1,44.9,20.41,78.1,78.1,0,0,1,21.28,34,77.85,77.85,0,0,1,36.29,87.13c3.58,12.23,7.63,34.87-3.43,54-9,15.51-26.79,26.74-48.92,30.81-22.7,4.18-48.33.65-72.43-9.94a91.5,91.5,0,0,1-23.41,27.55,93.38,93.38,0,0,1-47,19.31,77.79,77.79,0,0,1-32.38,22,73.29,73.29,0,0,1-18.38,3.91C813.78,899,811.8,899,809.86,899Zm-48-23.12a2.47,2.47,0,0,1,1.65.62c5.23,4.62,24.41,19.5,51.83,17.28a68.5,68.5,0,0,0,17.13-3.65,72.45,72.45,0,0,0,30.85-21.3A2.49,2.49,0,0,1,865,868a88.48,88.48,0,0,0,45.43-18.37,87.08,87.08,0,0,0,23.21-28,2.5,2.5,0,0,1,3.25-1.11c23.78,10.91,49.2,14.65,71.58,10.53,20.68-3.8,37.26-14.15,45.5-28.39h0c10.32-17.84,6.16-39.44,2.76-50.72a2.46,2.46,0,0,1,0-1.37,72.83,72.83,0,0,0-34.61-82.67,2.5,2.5,0,0,1-1.16-1.47,73.16,73.16,0,0,0-20.18-32.67,74.27,74.27,0,0,0-43.27-19.23,2.51,2.51,0,0,1-2-1.28,63.47,63.47,0,0,0-77.47-28.69,2.52,2.52,0,0,1-2.64-.57c-6-6-22.6-20-47.05-21.14A70.09,70.09,0,0,0,792.46,571a2.48,2.48,0,0,1-2.71-.24c-5.28-4.13-19.68-13.51-39.28-11.41-24.13,2.58-37.32,20.87-39.72,24.51a2.51,2.51,0,0,1-3,1c-7.66-2.86-27.91-8.63-50.41-.43a72.13,72.13,0,0,0-32.45,23.92,2.5,2.5,0,0,1-1.68,1,75.95,75.95,0,0,0-65.67,60.85,2.5,2.5,0,0,1-1.45,1.8,60.56,60.56,0,0,0-25.77,21c-18.83,27.62-5.36,60.54-3.76,64.21a2.49,2.49,0,0,1,.11,1.7c-4,13.39-4,25.92,0,37.25,10.61,30.48,45.93,40.37,62.91,45.13,33.07,9.25,62.85,3,82-3.92a2.49,2.49,0,0,1,3.19,1.49c2.26,6.18,11.49,27.14,35.42,37.34,23.52,10,44.78,2.53,50.73,0A2.59,2.59,0,0,1,761.91,875.92Z" transform="translate(-508 -546.56)" fill="#fff"/><path d="M692.55,1077.3a45.89,45.89,0,0,1-16.58-3.06,47.92,47.92,0,0,1-23.41-19.86,11.85,11.85,0,0,1-1.6-7.86,124.23,124.23,0,0,1,16.72-46.63,7,7,0,0,0,.48-6.43,7,7,0,0,0-4.87-4.11,88.94,88.94,0,0,1-21.39-8,90.79,90.79,0,0,1-32.34-29.17,7.07,7.07,0,0,0-6.39-3c-24.28,1.86-47.87-9-61.55-28.22-11.78-16.6-12.83-34.47-11.63-46.53a12,12,0,0,1,18.53-8.93A126.28,126.28,0,0,0,588,882.58a128.57,128.57,0,0,0,66-1.72,12,12,0,0,1,13.36,4.77c5.73,8.47,18.54,23.65,40,30.12A73.48,73.48,0,0,0,744.36,917,12.07,12.07,0,0,1,755,919.82a53.54,53.54,0,0,0,13,8.66,54.26,54.26,0,0,0,7.37,2.81,12.14,12.14,0,0,1,8.14,8,12,12,0,0,1-2.11,11.08,409.2,409.2,0,0,0-65.69,117,12,12,0,0,1-7.52,7.33A50.16,50.16,0,0,1,692.55,1077.3ZM603.72,944.12a12.07,12.07,0,0,1,10,5.23,85.65,85.65,0,0,0,30.55,27.56,83.77,83.77,0,0,0,20.18,7.57,12,12,0,0,1,7.52,18,119.51,119.51,0,0,0-16,44.76,6.9,6.9,0,0,0,.93,4.56A41.76,41.76,0,0,0,706.68,1070a7,7,0,0,0,4.4-4.29,414.34,414.34,0,0,1,66.49-118.47,6.9,6.9,0,0,0,1.24-6.46,7.09,7.09,0,0,0-4.8-4.71,58.35,58.35,0,0,1-22.32-12.55,7.09,7.09,0,0,0-6.25-1.69,78.47,78.47,0,0,1-39.46-1.3c-23-6.92-36.65-23.09-42.75-32.11a7,7,0,0,0-7.82-2.77,133.45,133.45,0,0,1-68.59,1.78,131.37,131.37,0,0,1-41-17.8A7,7,0,0,0,535,874.88h0c-1.12,11.21-.16,27.8,10.73,43.14,12.67,17.84,34.55,27.85,57.09,26.13Zm-71.24-69.49h0Z" transform="translate(-508 -546.56)" fill="#fff"/><path d="M1145.63,1261H947a2.5,2.5,0,0,1-2.44-2c-.55-2.52-1.19-5.13-1.91-7.77a144.33,144.33,0,0,0-16.33-37.84c-12.69-20.56-27.61-32.47-39.6-42.05-2.19-1.75-4.26-3.4-6.26-5.06-.4-.33-40.32-33.68-64.46-82.82-1.38-2.81-2.67-5.58-3.83-8.24-13.09-29.81-16.27-64.18-9.45-102.15,5.44-30.25,15.67-54,20-64.18,2.58-6,5.41-11.91,8.39-17.56a2.52,2.52,0,0,1,1.38-1.19,72.45,72.45,0,0,0,30.85-21.3A2.49,2.49,0,0,1,865,868a88.48,88.48,0,0,0,45.43-18.37,87.08,87.08,0,0,0,23.21-28,2.49,2.49,0,0,1,3.25-1.11c23.78,10.91,49.2,14.65,71.58,10.53,20.68-3.8,37.26-14.15,45.5-28.39,10.32-17.84,6.16-39.44,2.76-50.72a2.49,2.49,0,0,1,2.86-3.18,297,297,0,0,1,70.81,23c1.46.68,2.91,1.39,4.38,2.11,16.81,8.27,39.18,20.3,63.13,40.13,32,26.51,56.22,58.47,71.94,95l.2.46c1.24,2.89,2.94,6.85,4.86,11.75,15.76,40.14,29.52,99.47,5.53,154.14a235.26,235.26,0,0,1-22.06,39.08,284.24,284.24,0,0,1-46.23,52c-1.24,1-2.52,2.06-3.82,3.11l-2.42,1.93c-12,9.58-26.92,21.5-39.62,42.07a145.69,145.69,0,0,0-18.24,45.61A2.5,2.5,0,0,1,1145.63,1261ZM949,1256h194.65a150.43,150.43,0,0,1,18.42-45.21c13.16-21.31,28.46-33.53,40.76-43.35l2.4-1.92c1.29-1,2.55-2,3.77-3.06a279.06,279.06,0,0,0,45.31-51,230.76,230.76,0,0,0,21.59-38.25l2.29,1-2.29-1c23.3-53.1,9.81-111-5.6-150.3-1.89-4.83-3.58-8.74-4.81-11.61l-.19-.45c-24.4-56.71-69-101.33-132.69-132.62-1.43-.71-2.87-1.4-4.3-2.08a291.55,291.55,0,0,0-65.65-21.78c3.25,12.71,5.8,33.19-4.33,50.7-9,15.51-26.79,26.74-48.92,30.81-22.71,4.18-48.34.65-72.43-9.94a91.5,91.5,0,0,1-23.41,27.55,93.38,93.38,0,0,1-47,19.31,77.87,77.87,0,0,1-31.45,21.71c-2.76,5.28-5.37,10.77-7.77,16.34-26.89,62.49-30.46,117.12-10.6,162.36,1.13,2.59,2.38,5.29,3.73,8,23.66,48.15,62.78,80.86,63.17,81.18,2,1.63,4,3.27,6.19,5,12.29,9.82,27.59,22,40.73,43.33A149.52,149.52,0,0,1,947.47,1250Q948.3,1253,949,1256Z" transform="translate(-508 -546.56)" fill="#fff"/><path d="M1138.34,1386.26H950.12a2.49,2.49,0,0,1-2-1,57,57,0,0,1-3.29-64.66c-4.51-4.09-14.4-15-14.46-31.63-.06-18.69,12.47-30.27,15-32.4a2.5,2.5,0,0,1,3.23,3.82c-2.22,1.88-13.27,12.09-13.22,28.57.06,17.14,11.92,27.32,14.29,29.19a2.5,2.5,0,0,1,.53,3.36,52,52,0,0,0,1.17,59.73h185.7a55.44,55.44,0,0,0,2.45-61.81,2.49,2.49,0,0,1-.09-2.45,72.21,72.21,0,0,0,7.68-25.63,73,73,0,0,0-3.84-32,2.5,2.5,0,1,1,4.71-1.68,77.31,77.31,0,0,1-3.48,60.39,60.62,60.62,0,0,1,8.26,30.59,61.49,61.49,0,0,1-12.43,36.63A2.51,2.51,0,0,1,1138.34,1386.26Z" transform="translate(-508 -546.56)" fill="#fff"/><path d="M948.14,1322.63a2.5,2.5,0,0,1,0-5l193.52-2h0a2.5,2.5,0,0,1,0,5l-193.52,2Z" transform="translate(-508 -546.56)" fill="#fff"/><path d="M1043.33,1445.94c-36.53,0-69.27-25.56-78.4-61.57a2.5,2.5,0,1,1,4.85-1.23c8.75,34.51,40.6,58.83,75.71,57.77,33.59-1,62.87-24.75,71.21-57.76a2.5,2.5,0,1,1,4.85,1.22c-8.88,35.17-40.1,60.48-75.92,61.53C1044.87,1445.93,1044.09,1445.94,1043.33,1445.94Z" transform="translate(-508 -546.56)" fill="#fff"/><path d="M1318,1381.62H1261.6a2.5,2.5,0,0,1-2.47-2.87c2.83-19-6.15-37.78-21.85-45.79-19.91-10.15-45.78-1.38-57.66,19.56a2.51,2.51,0,0,1-1.95,1.25,2.48,2.48,0,0,1-2.15-.89l-32.82-39.64a2.5,2.5,0,0,1,3.86-3.19l30.58,37c13.9-21,41.16-29.33,62.41-18.49,16.79,8.56,26.74,28,24.87,48.11h51a51.9,51.9,0,0,1,91.19-33.36l33.94-33.94c-20-13.37-28.44-39.3-19.54-61.69a51.56,51.56,0,0,1,54.17-31.79v-42c-24.45,2.09-47.5-12.31-55.53-35.1-7.31-20.74-.8-43.83,16.19-58.35L1403,1047.49a51.77,51.77,0,0,1-32.91,17.82c-11.93,1.48-23.76-1.54-32.43-8.3-13.58-10.59-19.37-29.66-14.89-48.19l-32.29-3.59a2.5,2.5,0,0,1,.56-5l35.18,3.91a2.51,2.51,0,0,1,2.12,3.21c-5.25,17.45-.27,35.81,12.39,45.68,7.64,6,18.12,8.61,28.75,7.28a47,47,0,0,0,31.36-18.1,2.5,2.5,0,0,1,3.75-.24l36.78,36.79a2.49,2.49,0,0,1-.24,3.74c-16.91,13-23.63,34.94-16.73,54.52,7.56,21.44,29.83,34.68,53,31.49a2.5,2.5,0,0,1,2.84,2.48v47.73a2.5,2.5,0,0,1-3,2.46,46.55,46.55,0,0,0-51.57,28.27c-8.39,21.09.27,45.69,20.14,57.23a2.49,2.49,0,0,1,.51,3.92l-38.12,38.13a2.52,2.52,0,0,1-3.75-.24,46.89,46.89,0,0,0-84,30.5,2.53,2.53,0,0,1-.7,1.83A2.5,2.5,0,0,1,1318,1381.62Z" transform="translate(-508 -546.56)" fill="#fff"/><path d="M1290.89,1227.42a32.55,32.55,0,1,1,32.54-32.54A32.58,32.58,0,0,1,1290.89,1227.42Zm0-60.09a27.55,27.55,0,1,0,27.54,27.55A27.58,27.58,0,0,0,1290.89,1167.33Z" transform="translate(-508 -546.56)" fill="#fff"/><path d="M1290.88,1286.29a91.47,91.47,0,0,1-87.15-119,2.52,2.52,0,0,1,.81-1.19l.68-.55c1.29-1,2.55-2,3.77-3.06a279.06,279.06,0,0,0,45.31-51,2.5,2.5,0,0,1,1.08-.88,91.42,91.42,0,1,1,35.5,175.67Zm-82.61-116.8A86.39,86.39,0,1,0,1258,1115a283.89,283.89,0,0,1-45.82,51.36c-1.24,1-2.52,2.06-3.82,3.11Z" transform="translate(-508 -546.56)" fill="#fff"/><path d="M1272.62,924.53a2.21,2.21,0,0,1-.51,0,2.5,2.5,0,0,1-1.82-1.53c-1.89-4.83-3.58-8.74-4.81-11.61l-.19-.45c-24.4-56.71-69-101.33-132.69-132.62-1.43-.71-2.87-1.4-4.3-2.08a2.5,2.5,0,0,1-.68-4.05c64.82-63.49,130.83-127.68,196.22-190.77a2.35,2.35,0,0,1,.47-.36,110.5,110.5,0,0,1,65.23-14.91,102.93,102.93,0,0,1,60,25.13c38.89,34.17,46.35,94.11,17.37,139.42a2.72,2.72,0,0,1-.34.42q-96.07,96.36-192.13,192.73A2.54,2.54,0,0,1,1272.62,924.53Zm-139-151.31,1.15.56c16.81,8.27,39.18,20.3,63.13,40.13,32,26.51,56.22,58.47,71.94,95l.2.46c.92,2.16,2.11,4.91,3.45,8.21q94.62-94.94,189.26-189.85c27.49-43.22,20.38-100.25-16.6-132.75-32.39-28.47-80.22-32.4-119.1-9.81C1262.65,647.36,1197.58,710.62,1133.66,773.22Zm331.09-43.92h0Z" transform="translate(-508 -546.56)" fill="#fff"/><path d="M823.54,1375h0a2.49,2.49,0,0,1-1.79-.8q-70.58-76.56-141.16-153.1a2.5,2.5,0,0,1,.05-3.45c45.52-46.15,91.24-92.25,135.87-137a2.5,2.5,0,0,1,4,.66c23.66,48.15,62.78,80.86,63.17,81.18,2,1.63,4,3.27,6.19,5,12.29,9.82,27.59,22,40.73,43.33A149.52,149.52,0,0,1,947.47,1250a2.52,2.52,0,0,1-.64,2.42L825.31,1374.26A2.51,2.51,0,0,1,823.54,1375ZM685.83,1219.46q68.89,74.7,137.78,149.42l118.65-119a144.4,144.4,0,0,0-16-36.45c-12.69-20.56-27.61-32.47-39.6-42.05-2.19-1.75-4.26-3.4-6.26-5.06-.39-.32-38.64-32.27-62.9-79.7C774.25,1130.05,730,1174.72,685.83,1219.46Z" transform="translate(-508 -546.56)" fill="#fff"/><path d="M626.64,1441.87a23,23,0,0,1-21.33-31.37l74.74-192a2.5,2.5,0,0,1,4.66,1.81l-74.74,192a18,18,0,0,0,22.65,23.53l190.1-65.72a2.5,2.5,0,1,1,1.64,4.72l-190.11,65.72A23.19,23.19,0,0,1,626.64,1441.87Z" transform="translate(-508 -546.56)" fill="#fff"/><path d="M1424.05,772.62a2.49,2.49,0,0,1-1.75-.72l-144.94-142a2.5,2.5,0,0,1,3.5-3.57l144.94,142a2.5,2.5,0,0,1-1.75,4.29Z" transform="translate(-508 -546.56)" fill="#fff"/><path d="M1379.88,816.92a2.49,2.49,0,0,1-1.74-.71L1232.38,673.5a2.5,2.5,0,1,1,3.5-3.57l145.75,142.71a2.5,2.5,0,0,1-1.75,4.28Z" transform="translate(-508 -546.56)" fill="#fff"/><path d="M750.64,1296.79a2.5,2.5,0,0,1-1.76-4.28l131.68-130.43a2.5,2.5,0,1,1,3.52,3.55L752.4,1296.06A2.48,2.48,0,0,1,750.64,1296.79Z" transform="translate(-508 -546.56)" fill="#fff"/><path d="M1216.11,835.74a2.47,2.47,0,0,1-1.78-.74,2.5,2.5,0,0,1,0-3.53l90.72-90.1a2.5,2.5,0,0,1,3.52,3.55L1217.87,835A2.52,2.52,0,0,1,1216.11,835.74Z" transform="translate(-508 -546.56)" fill="#fff"/><path d="M693.82,1419.84A2.5,2.5,0,0,1,692,1419l-62-68.11a2.5,2.5,0,1,1,3.69-3.36l62,68.1a2.5,2.5,0,0,1-1.85,4.19Z" transform="translate(-508 -546.56)" fill="#fff"/><path d="M641.62,813.32a2.49,2.49,0,0,1-2.37-1.71c-3.13-9.28-7.29-27.78,0-47.4,9.86-26.42,36.82-45,68.71-47.34a77.17,77.17,0,0,0,46.15-23.1c18.39-19.24,20.94-42.1,21.18-51a2.51,2.51,0,0,1,4.46-1.49c5.22,6.55,19.88,22.2,43.17,25.93,25.15,4,51.28-7,68.21-28.88a2.5,2.5,0,1,1,4,3.06c-18.05,23.29-46,35.07-73,30.76-20.48-3.28-34.71-15.1-42.26-23.12a81.43,81.43,0,0,1-71.36,72.84h-.13C678.43,724,653.14,741.34,644,766c-6.77,18.17-2.89,35.4,0,44.06a2.5,2.5,0,0,1-1.57,3.16A2.54,2.54,0,0,1,641.62,813.32Z" transform="translate(-508 -546.56)" fill="#fff"/><path d="M1003.48,760.63a2.5,2.5,0,0,1-1.73-.69,90.39,90.39,0,0,0-80.29-23.22,2.56,2.56,0,0,1-.78,0,74.07,74.07,0,0,1-41.17-18.53c-20.44-18.68-23.39-42.79-23.71-52.29a2.5,2.5,0,0,1,5-.17c.23,6.92,2.51,30.89,22.09,48.77a69,69,0,0,0,38,17.21,95.42,95.42,0,0,1,84.34,24.58,2.5,2.5,0,0,1-1.72,4.31Z" transform="translate(-508 -546.56)" fill="#fff"/><path d="M708.22,721.86a2.36,2.36,0,0,1-.78-.13,2.5,2.5,0,0,1-1.59-3.16c1.41-4.26,5.36-19.37-2.82-34.83A45.31,45.31,0,0,0,679.5,663a2.5,2.5,0,1,1,1.78-4.67,50.4,50.4,0,0,1,26.17,23c9.1,17.21,4.71,34,3.15,38.74A2.52,2.52,0,0,1,708.22,721.86Z" transform="translate(-508 -546.56)" fill="#fff"/><path d="M567.06,772.56a2.51,2.51,0,0,1-1.88-4.16c3.61-4.09,17.05-17.52,38.52-18.73a56.26,56.26,0,0,1,39.56,13.53A2.5,2.5,0,1,1,640,767a51.25,51.25,0,0,0-36-12.31c-19.53,1.1-31.76,13.33-35.05,17.05A2.48,2.48,0,0,1,567.06,772.56Z" transform="translate(-508 -546.56)" fill="#fff"/><path d="M749,817.29a2.5,2.5,0,0,1-1.75-4.28c5.94-5.85,25.23-27.46,24.11-59.77-.93-26.78-15.48-45.1-21.69-51.73a2.5,2.5,0,0,1,3.65-3.42c6.6,7,22.05,26.51,23,55,1.19,34.34-19.29,57.29-25.59,63.5A2.5,2.5,0,0,1,749,817.29Z" transform="translate(-508 -546.56)" fill="#fff"/><path d="M838.45,771.56a2.47,2.47,0,0,1-2-1,49,49,0,0,0-61.49-15.13,2.5,2.5,0,1,1-2.21-4.48,54,54,0,0,1,67.74,16.67,2.49,2.49,0,0,1-.55,3.49A2.44,2.44,0,0,1,838.45,771.56Z" transform="translate(-508 -546.56)" fill="#fff"/><path d="M1040.92,1261a2.5,2.5,0,0,1-2.5-2.5v-82.32a16.6,16.6,0,0,0-16.58-16.58H980.48A21.61,21.61,0,0,1,958.89,1138v-24.79a21.61,21.61,0,0,1,21.59-21.58h158a16.6,16.6,0,0,0,16.58-16.59v-22.8a16.6,16.6,0,0,0-16.58-16.58H1007.92a21.62,21.62,0,0,1-21.59-21.59v-179a2.5,2.5,0,0,1,5,0v179a16.61,16.61,0,0,0,16.59,16.59h130.56a21.6,21.6,0,0,1,21.58,21.58v22.8a21.61,21.61,0,0,1-21.58,21.59h-158a16.6,16.6,0,0,0-16.59,16.58V1138a16.61,16.61,0,0,0,16.59,16.59h41.36a21.6,21.6,0,0,1,21.58,21.58v82.32A2.5,2.5,0,0,1,1040.92,1261Z" transform="translate(-508 -546.56)" fill="#fff"/><path d="M881.42,790a2.5,2.5,0,0,1-.58-4.93c1-.24,24.36-6.05,31.35-27.08a39.76,39.76,0,0,0,0-24,2.5,2.5,0,1,1,4.78-1.45,44.62,44.62,0,0,1-.09,27.05c-7.72,23.23-32.17,29.7-34.93,30.36A2.3,2.3,0,0,1,881.42,790Z" transform="translate(-508 -546.56)" fill="#fff"/></svg>