<svg xmlns="http://www.w3.org/2000/svg" xmlns:xlink="http://www.w3.org/1999/xlink" width="896.96" height="866.41" viewBox="0 0 896.96 866.41"><defs><linearGradient id="a" x1="569.59" y1="764.35" x2="955.12" y2="764.35" gradientUnits="userSpaceOnUse"><stop offset="0" stop-color="blue"/><stop offset="0.25" stop-color="#f0f"/><stop offset="0.53" stop-color="#ff5100"/><stop offset="0.78" stop-color="#26ff00"/><stop offset="1" stop-color="#ff0"/></linearGradient><linearGradient id="b" x1="1081.02" y1="764.36" x2="1466.55" y2="764.36" xlink:href="#a"/><linearGradient id="c" x1="898.79" y1="899.53" x2="900.52" y2="899.53" xlink:href="#a"/><linearGradient id="d" x1="626.27" y1="627.07" x2="628.06" y2="627.07" xlink:href="#a"/><linearGradient id="e" x1="624.19" y1="899.52" x2="625.91" y2="899.52" xlink:href="#a"/><linearGradient id="f" x1="896.65" y1="627.07" x2="898.44" y2="627.07" xlink:href="#a"/><linearGradient id="g" x1="745.51" y1="750.95" x2="752.45" y2="750.95" xlink:href="#a"/><linearGradient id="h" x1="659" y1="718.93" x2="801.93" y2="718.93" xlink:href="#a"/><linearGradient id="i" x1="681.71" y1="1091.57" x2="825.14" y2="1091.57" xlink:href="#a"/><linearGradient id="j" x1="1202.07" y1="1091.57" x2="1345.5" y2="1091.57" xlink:href="#a"/><linearGradient id="k" x1="835.28" y1="1219.29" x2="1193.2" y2="1219.29" xlink:href="#a"/><linearGradient id="l" x1="954.29" y1="1353" x2="1075" y2="1353" xlink:href="#a"/><linearGradient id="m" x1="1032.07" y1="1117.29" x2="1113.79" y2="1117.29" xlink:href="#a"/><linearGradient id="n" x1="958.79" y1="762.43" x2="1072" y2="762.43" xlink:href="#a"/><linearGradient id="o" x1="895.49" y1="896.02" x2="896.69" y2="896.02" gradientUnits="userSpaceOnUse"><stop offset="0" stop-color="#13c0ff"/><stop offset="0.18" stop-color="#31cdd3"/><stop offset="0.58" stop-color="#70e678"/><stop offset="0.87" stop-color="#97f73f"/><stop offset="1" stop-color="#a6fd29"/></linearGradient><linearGradient id="p" x1="630.1" y1="630.64" x2="631.25" y2="630.64" xlink:href="#o"/><linearGradient id="q" x1="628.01" y1="896.04" x2="629.28" y2="896.04" xlink:href="#o"/><linearGradient id="r" x1="893.4" y1="630.64" x2="894.66" y2="630.64" xlink:href="#o"/><linearGradient id="s" x1="739.41" y1="754.57" x2="740.28" y2="754.57" xlink:href="#o"/><linearGradient id="t" x1="574.59" y1="764.35" x2="950.12" y2="764.35" xlink:href="#o"/><linearGradient id="u" x1="1086.02" y1="764.36" x2="1461.55" y2="764.36" xlink:href="#o"/><linearGradient id="v" x1="963.79" y1="762.43" x2="1067" y2="762.43" xlink:href="#o"/><linearGradient id="w" x1="664" y1="718.93" x2="796.93" y2="718.93" xlink:href="#o"/><linearGradient id="x" x1="686.71" y1="1091.57" x2="820.14" y2="1091.57" xlink:href="#o"/><linearGradient id="y" x1="1207.07" y1="1091.57" x2="1340.5" y2="1091.57" xlink:href="#o"/><linearGradient id="z" x1="840.21" y1="1219.29" x2="1188.27" y2="1219.29" xlink:href="#o"/><linearGradient id="aa" x1="959.29" y1="1353" x2="1070" y2="1353" xlink:href="#o"/><linearGradient id="ab" x1="1037.07" y1="1117.29" x2="1108.79" y2="1117.29" xlink:href="#o"/></defs><path d="M898.44,628l-1.79-1.76a192.46,192.46,0,0,0-268.59,0L626.27,628a192.47,192.47,0,0,0-2.08,270.7c.57.59,1.14,1.17,1.72,1.75h0a192.48,192.48,0,0,0,272.86,0h0c.58-.58,1.15-1.16,1.73-1.76A192.47,192.47,0,0,0,898.44,628Zm-6.18,250.17-12.83-12.83a10,10,0,1,0-14.14,14.14l13,13a172.12,172.12,0,0,1-105.88,44.45v-17a10,10,0,0,0-20,0v17a172.12,172.12,0,0,1-105.89-44.45l12.27-12.26A10,10,0,1,0,644.6,866l-12.15,12.14a171.93,171.93,0,0,1-42.57-103.76H606.7a10,10,0,0,0,0-20H589.88a172,172,0,0,1,44.45-105.89L645,659.14A10,10,0,0,0,659.14,645l-10.55-10.55a171.93,171.93,0,0,1,103.77-42.57v15a10,10,0,0,0,20,0v-15a171.93,171.93,0,0,1,103.76,42.57l-12,12a10,10,0,0,0,14.15,14.14l12.09-12.1a172.12,172.12,0,0,1,44.45,105.89h-19.4a10,10,0,0,0,0,20h19.4A172,172,0,0,1,892.26,878.12Z" transform="translate(-569.59 -571.59)" fill="url(#a)"/><path d="M1273.79,957.12a194,194,0,0,1-39.87-4.13,10,10,0,0,1-7.71-11.91l3.56-16.4a164.16,164.16,0,0,1-46.92-21.16L1172.78,917a10,10,0,0,1-14,2,193,193,0,0,1-46.57-49.53,10,10,0,0,1,2.11-13.25L1128.39,845a164.41,164.41,0,0,1-17-45l-16,3.34a10,10,0,0,1-11.91-8.2,194.39,194.39,0,0,1,2.36-73.74,10,10,0,0,1,13-7.24l15,5.08a163.61,163.61,0,0,1,19-42.93l-13.63-10.74a10,10,0,0,1-1.93-13.69,193,193,0,0,1,51.63-49.25,10,10,0,0,1,13.77,2.84l9.43,14.13a164,164,0,0,1,40.39-16.27l-4-15.78a10,10,0,0,1,7.75-12.28,195.64,195.64,0,0,1,71.32-.73,10,10,0,0,1,8,12.06l-3.61,15.94A164.4,164.4,0,0,1,1352.65,618l11.93-14.12a10,10,0,0,1,13-2,192.78,192.78,0,0,1,51.24,47.92,10,10,0,0,1-2.1,14l-13.54,10a163.65,163.65,0,0,1,20.48,45l16.73-3.32a10,10,0,0,1,11.72,7.68,194.37,194.37,0,0,1,1.93,72.12,10,10,0,0,1-12.34,8.09l-15.44-3.94a163.7,163.7,0,0,1-18.18,47.44l14.09,9a10,10,0,0,1,3,13.91,192.58,192.58,0,0,1-51.44,52.9,10,10,0,0,1-14.1-2.77l-9-13.84a164.34,164.34,0,0,1-44.54,19l1.84,17.76a10,10,0,0,1-8.09,10.86A195.32,195.32,0,0,1,1273.79,957.12ZM1248,935.2a175.6,175.6,0,0,0,49.16.36l-1.78-17.13a10,10,0,0,1,7.94-10.83A144.83,144.83,0,0,0,1357.84,884a10,10,0,0,1,14.15,2.74l8.66,13.37a172.72,172.72,0,0,0,32-33l-13.61-8.68a10,10,0,0,1-3-13.92,144.38,144.38,0,0,0,22.37-58.87,10,10,0,0,1,12.37-8.25l14.92,3.8c.54-5.58.81-11.23.81-16.87a174.71,174.71,0,0,0-2.14-27.27l-16.14,3.21a10,10,0,0,1-11.71-7.65,144.67,144.67,0,0,0-25.14-55.15,10,10,0,0,1,2.1-14l13.07-9.66a172.29,172.29,0,0,0-32.53-30.2l-11.51,13.63a10,10,0,0,1-12.84,2.09,144.9,144.9,0,0,0-51.49-19.2,10,10,0,0,1-8.09-12.07l3.49-15.38a174.84,174.84,0,0,0-43.13.43l3.88,15.23a10,10,0,0,1-7.84,12.3,144.48,144.48,0,0,0-52,20.82,10,10,0,0,1-13.75-2.85l-9.1-13.64a172.78,172.78,0,0,0-32.37,30.93l13.16,10.37a10,10,0,0,1,2,13.63,144.34,144.34,0,0,0-23.71,54.3,10,10,0,0,1-13,7.43l-14.47-4.9a173.73,173.73,0,0,0-2.19,27.59c0,5.74.28,11.5.85,17.19l15.46-3.22a10,10,0,0,1,11.93,8.28A144.64,144.64,0,0,0,1149.87,842a10,10,0,0,1-2.2,13.11l-13.57,10.92a173.25,173.25,0,0,0,28.79,30.79l9.72-13.05a10,10,0,0,1,14-2,144.66,144.66,0,0,0,57.06,25.71,10,10,0,0,1,7.72,11.91Zm25.84-86.91a83.93,83.93,0,1,1,83.92-83.93A84,84,0,0,1,1273.79,848.29Zm0-147.86a63.93,63.93,0,1,0,63.92,63.93A64,64,0,0,0,1273.79,700.43Z" transform="translate(-569.59 -571.59)" fill="url(#b)"/><path d="M900.52,898.65a9,9,0,0,1-.87,1,8.82,8.82,0,0,1-.86.76C899.37,899.83,899.94,899.25,900.52,898.65Z" transform="translate(-569.59 -571.59)" fill="url(#c)"/><path d="M628.06,626.19,626.27,628a9.48,9.48,0,0,1,.79-.89A9,9,0,0,1,628.06,626.19Z" transform="translate(-569.59 -571.59)" fill="url(#d)"/><path d="M625.91,900.4a9.92,9.92,0,0,1-.85-.75,9,9,0,0,1-.87-1C624.76,899.24,625.33,899.82,625.91,900.4Z" transform="translate(-569.59 -571.59)" fill="url(#e)"/><path d="M898.44,628l-1.79-1.76a9,9,0,0,1,1,.87A9.48,9.48,0,0,1,898.44,628Z" transform="translate(-569.59 -571.59)" fill="url(#f)"/><path d="M746.86,748.86a10,10,0,0,1-1.35,5.55,19.58,19.58,0,0,1,6.94-6.92A10,10,0,0,1,746.86,748.86Zm0,0a10,10,0,0,1-1.35,5.55,19.58,19.58,0,0,1,6.94-6.92A10,10,0,0,1,746.86,748.86Zm0,0a10,10,0,0,1-1.35,5.55,19.58,19.58,0,0,1,6.94-6.92A10,10,0,0,1,746.86,748.86Z" transform="translate(-569.59 -571.59)" fill="url(#g)"/><path d="M787.36,733.69V658.93a25,25,0,0,0-50,0v74.76a40,40,0,0,0-5.67,5.67H684a25,25,0,0,0,0,50h47.71a39.56,39.56,0,1,0,55.65-55.67Zm-64.25,35.67H684a5,5,0,0,1,0-10h39.11a39.22,39.22,0,0,0,0,10Zm34.25-110.43a5,5,0,0,1,10,0v66.18a39.22,39.22,0,0,0-10,0Zm5,125a19.64,19.64,0,0,1-16.87-9.66,19.57,19.57,0,0,1-1.09-17.69c.15-.34.3-.67.46-1s.41-.77.63-1.14l0,0a10,10,0,0,0,1.35-5.55,10,10,0,0,0,5.59-1.37,19.57,19.57,0,0,1,17.69-1.09c.34.15.67.3,1,.46s.77.41,1.14.63l0,0a19.57,19.57,0,0,1-9.94,36.42Z" transform="translate(-569.59 -571.59)" fill="url(#h)"/><path d="M815.14,1231.43h-85.5a48,48,0,0,1-47.93-47.93V961.71a10,10,0,0,1,20,0V1183.5a28,28,0,0,0,27.93,27.93h85.5a10,10,0,1,1,0,20Z" transform="translate(-569.59 -571.59)" fill="url(#i)"/><path d="M1297.57,1231.43h-85.5a10,10,0,0,1,0-20h85.5a28,28,0,0,0,27.93-27.93V961.71a10,10,0,0,1,20,0V1183.5A48,48,0,0,1,1297.57,1231.43Z" transform="translate(-569.59 -571.59)" fill="url(#j)"/><path d="M1185.86,1050.8a63.89,63.89,0,0,0-19.06-21.34,45.86,45.86,0,0,0-25.12-8.61,24.22,24.22,0,0,0-23.8-20.28H914.25a25.27,25.27,0,0,0-24.8,20.22h-2.61a39.92,39.92,0,0,0-21.21,6,64.6,64.6,0,0,0-23,24c-14.17,26.07-4.22,53.62,0,65.38,18.76,52,75,73.13,95.9,79.35a265.53,265.53,0,0,0,36.32,40.67v14.4a17.66,17.66,0,0,0,6,13.28v14.92l-21.52,14.94H943.93a19.24,19.24,0,0,0-19.22,19.22v75.86c0,.26,0,.51,0,.77a17.5,17.5,0,0,0-10.3,15.94v15a17.52,17.52,0,0,0,17.5,17.5h166.28a17.52,17.52,0,0,0,17.5-17.5v-15a17.53,17.53,0,0,0-11.58-16.47,1.93,1.93,0,0,0,0-.24v-75.86a19.24,19.24,0,0,0-19.21-19.22h-15.68l-18.68-14.59V1263a17.66,17.66,0,0,0,5.14-12.47v-13.79a291.2,291.2,0,0,0,35-41.48c21.52-6.5,76.62-27.78,95.14-79.12C1190.08,1104.42,1200,1076.86,1185.86,1050.8Zm-324.4,58.56c-3.9-10.78-11.15-30.86-1.27-49a45.08,45.08,0,0,1,16-16.59,20,20,0,0,1,10.6-2.94h1.83c.36,34.55,7.07,80.48,32.23,126.71C899.34,1157.54,872.35,1139.54,861.46,1109.36ZM1095.71,1418H934.43v-10h161.28Zm-11.57-104.29V1388H944.71v-74.29Zm-89.28-65.42v-6.58h40.85v6.58Zm35.71,20V1274h-29.71v-5.71Zm45.48-87,0,.06a269.63,269.63,0,0,1-33.51,40.36H988.68A243.66,243.66,0,0,1,939.59,1160c-28.11-50.48-32.19-100.92-30.66-134.34a5.32,5.32,0,0,1,5.32-5.08h203.63a4.1,4.1,0,0,1,4.1,4c0,2,0,4.1,0,6.25-.2,31.2-5.76,75.85-29.07,121.81A264,264,0,0,1,1076.05,1181.29Zm91-71.9c-10.86,30.09-37.73,48.07-59.25,58,1-1.91,2-3.83,3-5.77,22.66-44.67,29.7-88.13,31-120.78a25.91,25.91,0,0,1,13.34,4.8,44.12,44.12,0,0,1,13.17,14.66C1178.16,1078.52,1170.92,1098.6,1167,1109.39Z" transform="translate(-569.59 -571.59)" fill="url(#k)"/><path d="M1056.21,1383.14H973.07a18.8,18.8,0,0,1-18.78-18.78v-22.72a18.8,18.8,0,0,1,18.78-18.78h83.14a18.8,18.8,0,0,1,18.79,18.78v22.72A18.8,18.8,0,0,1,1056.21,1383.14Zm-81.92-20H1055v-20.28H974.29Z" transform="translate(-569.59 -571.59)" fill="url(#l)"/><path d="M1042.07,1208.29a10,10,0,0,1-7.76-16.31,266.57,266.57,0,0,0,59.49-156.15,10,10,0,1,1,20,.92,286.55,286.55,0,0,1-64,167.84A10,10,0,0,1,1042.07,1208.29Z" transform="translate(-569.59 -571.59)" fill="url(#m)"/><path d="M1072,764.36a10,10,0,0,1-10,10h-36.67v33.71a10,10,0,1,1-20,0V774.36H968.79a10,10,0,0,1,0-20h36.54V716.79a10,10,0,1,1,20,0v37.57H1062A10,10,0,0,1,1072,764.36Z" transform="translate(-569.59 -571.59)" fill="url(#n)"/><path d="M896.69,895.41a4.23,4.23,0,0,1-.58.7,3.8,3.8,0,0,1-.62.52Z" transform="translate(-569.59 -571.59)" fill="url(#o)"/><path d="M631.25,630.07l-1.15,1.13a4,4,0,0,1,.5-.6A3.59,3.59,0,0,1,631.25,630.07Z" transform="translate(-569.59 -571.59)" fill="url(#p)"/><path d="M629.28,896.68A4.64,4.64,0,0,1,628,895.4C628.43,895.83,628.85,896.26,629.28,896.68Z" transform="translate(-569.59 -571.59)" fill="url(#q)"/><path d="M894.66,631.26,893.4,630a4.52,4.52,0,0,1,.72.59A4.11,4.11,0,0,1,894.66,631.26Z" transform="translate(-569.59 -571.59)" fill="url(#r)"/><path d="M739.41,755.57c.26-.68.55-1.35.87-2C740,754.22,739.67,754.89,739.41,755.57Zm0,0c.26-.68.55-1.35.87-2C740,754.22,739.67,754.89,739.41,755.57Z" transform="translate(-569.59 -571.59)" fill="url(#s)"/><path d="M894.66,631.26,893.4,630a187.44,187.44,0,0,0-262.12,0s0,0,0,0l-1.15,1.13,0,0A187.45,187.45,0,0,0,628,895.4c.42.43.84.86,1.27,1.28l0,0a187.44,187.44,0,0,0,266.17-.05l0,0,1.2-1.22h0a187.44,187.44,0,0,0-2-264.14Zm-2.21,254.12-16.56-16.56a5,5,0,0,0-7.07,7.07l16.62,16.62a177.19,177.19,0,0,1-118.08,49.54V919.88a5,5,0,0,0-10,0v22.17a177.19,177.19,0,0,1-118.08-49.54l15.92-15.93a5,5,0,0,0-7.07-7.07l-15.87,15.87a177.12,177.12,0,0,1-47.6-116h22a5,5,0,0,0,0-10h-22a177.16,177.16,0,0,1,49.55-118.08l14.33,14.33a5,5,0,1,0,7.07-7.07l-14.27-14.27a177.08,177.08,0,0,1,116-47.61v20.2a5,5,0,0,0,10,0v-20.2a177.12,177.12,0,0,1,116,47.6L867.68,650a5,5,0,0,0,7.07,7.08l15.76-15.76a177.19,177.19,0,0,1,49.54,118.08H915.43a5,5,0,0,0,0,10h24.62A177.12,177.12,0,0,1,892.45,885.38Z" transform="translate(-569.59 -571.59)" fill="url(#t)"/><path d="M1273.79,952.12a188.27,188.27,0,0,1-38.84-4,5,5,0,0,1-3.86-6l4.58-21.1a159.35,159.35,0,0,1-54-24.34L1168.77,914a5,5,0,0,1-7,1,187.84,187.84,0,0,1-45.37-48.25,5,5,0,0,1,1-6.62l17.39-14a159.22,159.22,0,0,1-19.54-52.12l-21,4.37a5,5,0,0,1-6-4.11,189.41,189.41,0,0,1,2.31-71.82,5,5,0,0,1,6.48-3.63l20,6.8a159,159,0,0,1,22.22-50.49l-17.2-13.55a5,5,0,0,1-1-6.85,187.62,187.62,0,0,1,50.3-48,5,5,0,0,1,6.88,1.41l12,18.06a159,159,0,0,1,48-19.28l-5.27-20.71a5,5,0,0,1,3.88-6.14,190.47,190.47,0,0,1,69.48-.7,4.93,4.93,0,0,1,3.29,2.15,5,5,0,0,1,.72,3.88l-4.73,20.85a159.64,159.64,0,0,1,47.91,18l14.58-17.28a5,5,0,0,1,6.52-1,187.74,187.74,0,0,1,49.91,46.69,5,5,0,0,1-1,7l-17.39,12.84a159.22,159.22,0,0,1,23.69,52l21.32-4.23a5,5,0,0,1,5.86,3.84,189.66,189.66,0,0,1,1.88,70.25,5,5,0,0,1-6.18,4l-20.55-5.25a159,159,0,0,1-21.08,55.2l18.18,11.58a5,5,0,0,1,1.49,7,187.63,187.63,0,0,1-50.11,51.53,5,5,0,0,1-3.81.81,5,5,0,0,1-3.24-2.19l-11.66-18a159.56,159.56,0,0,1-51.47,22.13L1313,943.4a5,5,0,0,1-4,5.43A189.6,189.6,0,0,1,1273.79,952.12ZM1242,939.27a180.16,180.16,0,0,0,60.63.53l-2.27-21.88a5,5,0,0,1,4-5.42,149.71,149.71,0,0,0,56.44-24.4,5,5,0,0,1,7.08,1.37l11.59,17.89a177.54,177.54,0,0,0,40.42-41.59l-18.06-11.51a5,5,0,0,1-1.49-7,149.26,149.26,0,0,0,23.14-60.89,5,5,0,0,1,6.18-4.13l20.48,5.22a179.86,179.86,0,0,0-1.6-56.3l-21.17,4.2a5,5,0,0,1-5.85-3.82,149.63,149.63,0,0,0-26-57.05,5,5,0,0,1,1-7l17.27-12.76a177.93,177.93,0,0,0-40.58-37.83l-14.45,17.12a5,5,0,0,1-6.42,1,149.64,149.64,0,0,0-53.26-19.86,5,5,0,0,1-4-6l4.71-20.73a180.37,180.37,0,0,0-55.42.56l5.24,20.59a5,5,0,0,1-3.93,6.14,149.5,149.5,0,0,0-53.83,21.54,5,5,0,0,1-6.88-1.42l-12-17.93a177.91,177.91,0,0,0-40.68,38.83l17.07,13.45a5,5,0,0,1,1,6.82,149.48,149.48,0,0,0-24.53,56.17,5,5,0,0,1-6.5,3.72l-20-6.78a179.71,179.71,0,0,0-1.79,57.4l20.83-4.33a5,5,0,0,1,6,4.14,149.7,149.7,0,0,0,21.33,57.31,5,5,0,0,1-1.1,6.55L1127.3,865.1a178,178,0,0,0,36.48,38.9l12.84-17.22a5,5,0,0,1,7-1,149.76,149.76,0,0,0,59,26.6,5,5,0,0,1,3.86,5.95Zm31.84-96a78.93,78.93,0,1,1,78.92-78.93A79,79,0,0,1,1273.79,843.29Zm0-147.86a68.93,68.93,0,1,0,68.92,68.93A69,69,0,0,0,1273.79,695.43Z" transform="translate(-569.59 -571.59)" fill="url(#u)"/><path d="M1067,764.36a5,5,0,0,1-5,5h-41.67v38.71a5,5,0,0,1-10,0V769.36H968.79a5,5,0,0,1,0-10h41.54V716.79a5,5,0,0,1,10,0v42.57H1062A5,5,0,0,1,1067,764.36Z" transform="translate(-569.59 -571.59)" fill="url(#v)"/><path d="M782.36,736.18V658.93a20,20,0,0,0-40,0v77.24a34.39,34.39,0,0,0-8.18,8.19H684a20,20,0,0,0,0,40h50.17a34.56,34.56,0,1,0,48.19-48.18Zm-54.55,29.34c0,.38,0,.77.06,1.15s0,.48.06.72,0,.45.06.67.07.63.12,1,.08.58.13.87.11.7.18,1,.11.58.18.86a1.42,1.42,0,0,0,0,.22c.08.38.18.76.28,1.14s.19.72.3,1.07a.83.83,0,0,0,0,.15H684a10,10,0,0,1,0-20h45.27a.83.83,0,0,0,0,.15c-.11.35-.21.71-.3,1.07s-.2.76-.28,1.14a1.42,1.42,0,0,0,0,.22c-.07.28-.13.57-.18.86s-.08.39-.11.58,0,.3-.07.46-.1.58-.13.87-.09.63-.12.95,0,.45-.06.67,0,.48-.06.72,0,.77-.06,1.15,0,.77,0,1.16S727.8,765.14,727.81,765.52Zm24.55-106.59a10,10,0,0,1,20,0v72.34l-.15,0c-.35-.11-.71-.21-1.07-.3s-.76-.2-1.14-.28l-.22,0c-.28-.07-.57-.13-.86-.18l-.58-.11-.46-.07c-.29,0-.58-.1-.87-.13s-.63-.09-1-.12-.45,0-.67-.06l-.72-.06c-.38,0-.77,0-1.15-.06l-1.16,0-1.16,0c-.38,0-.77,0-1.15.06l-.72.06c-.22,0-.45,0-.67.06s-.63.07-.95.12-.58.08-.87.13l-.46.07-.58.11c-.29.05-.58.11-.86.18l-.22,0c-.38.08-.76.18-1.14.28s-.72.19-1.07.3l-.15,0Zm10,130a24.58,24.58,0,0,1-23-33.36c.26-.68.55-1.35.87-2s.58-1.13.9-1.67h0a24.59,24.59,0,0,1,30-10.48,22.23,22.23,0,0,1,2.23,1c.24.12.49.24.73.38l.71.41a24.57,24.57,0,0,1-12.46,45.74Z" transform="translate(-569.59 -571.59)" fill="url(#w)"/><path d="M815.14,1226.43h-85.5a43,43,0,0,1-42.93-42.93V961.71a5,5,0,0,1,10,0V1183.5a33,33,0,0,0,32.93,32.93h85.5a5,5,0,1,1,0,10Z" transform="translate(-569.59 -571.59)" fill="url(#x)"/><path d="M1297.57,1226.43h-85.5a5,5,0,0,1,0-10h85.5a33,33,0,0,0,32.93-32.93V961.71a5,5,0,0,1,10,0V1183.5A43,43,0,0,1,1297.57,1226.43Z" transform="translate(-569.59 -571.59)" fill="url(#y)"/><path d="M1181.46,1053.18a58.71,58.71,0,0,0-17.58-19.66,41,41,0,0,0-24.11-7.71H1137c0-.5,0-1,0-1.49a19.16,19.16,0,0,0-19.1-18.75H914.25A20.29,20.29,0,0,0,894,1025c0,.27,0,.55,0,.83h-7.07a34.94,34.94,0,0,0-18.56,5.23A59.86,59.86,0,0,0,847,1053.16c-13.09,24.09-4,49.22.34,61.3,18.48,51.19,75.41,71.36,94.23,76.71A261.19,261.19,0,0,0,979.86,1234v16.62a12.7,12.7,0,0,0,6,10.79v20l-24.94,17.33h-17a14.24,14.24,0,0,0-14.22,14.22v75.86a14,14,0,0,0,.67,4.31,12.51,12.51,0,0,0-11,12.4v15a12.52,12.52,0,0,0,12.5,12.5h166.28a12.51,12.51,0,0,0,12.5-12.5v-15A12.5,12.5,0,0,0,1098.5,1393a14,14,0,0,0,.64-4.22v-75.86a14.23,14.23,0,0,0-14.21-14.22h-17.41l-22-17.15v-20.78a12.7,12.7,0,0,0,5.14-10.21v-15.91a285.16,285.16,0,0,0,36.88-43.66c19.49-5.65,75.29-25.93,93.54-76.52C1185.49,1102.41,1194.56,1077.28,1181.46,1053.18Zm-324.71,57.88c-3.86-10.7-11.9-33-1-53.13a49.8,49.8,0,0,1,17.79-18.43,24.87,24.87,0,0,1,13.25-3.71h6.83c-.25,34.94,5.9,83.16,32.82,131.5q3,5.31,6.16,10.46C909.76,1169.39,870.77,1149.9,856.75,1111.06Zm244,294.44v15a2.5,2.5,0,0,1-2.5,2.5H931.93a2.5,2.5,0,0,1-2.5-2.5v-15a2.5,2.5,0,0,1,2.5-2.5h166.28A2.5,2.5,0,0,1,1100.71,1405.5Zm-15.78-96.79a4.22,4.22,0,0,1,4.21,4.22v75.86a4.22,4.22,0,0,1-4.21,4.21h-141a4.22,4.22,0,0,1-4.22-4.21v-75.86a4.22,4.22,0,0,1,4.22-4.22Zm-33.65-10H978.44l14-9.71h46.42Zm-58.71-45.42a2.71,2.71,0,0,1-2.71-2.72v-13.86h50.85v13.86a2.71,2.71,0,0,1-2.71,2.72Zm43,10V1279H995.86v-15.71Zm9-36.58H986.76a248.35,248.35,0,0,1-51.53-64.29c-28.69-51.5-32.85-102.93-31.29-137a10.3,10.3,0,0,1,10.31-9.85h203.63a9.12,9.12,0,0,1,9.1,8.91c0,2,0,4.15,0,6.33-.2,31.76-5.86,77.24-29.61,124.07A273.08,273.08,0,0,1,1044.54,1226.71Zm127.19-115.62c-14,38.63-52.6,58.12-75.53,66.56q5.4-8.93,10.12-18.24c23.41-46.16,29.86-91,30.62-123.6h2.83a31.12,31.12,0,0,1,18.27,5.82,49,49,0,0,1,14.64,16.33C1183.63,1078.11,1175.59,1100.38,1171.73,1111.09Z" transform="translate(-569.59 -571.59)" fill="url(#z)"/><path d="M1056.21,1378.14H973.07a13.79,13.79,0,0,1-13.78-13.78v-22.72a13.79,13.79,0,0,1,13.78-13.78h83.14a13.8,13.8,0,0,1,13.79,13.78v22.72A13.8,13.8,0,0,1,1056.21,1378.14Zm-83.14-40.28a3.78,3.78,0,0,0-3.78,3.78v22.72a3.78,3.78,0,0,0,3.78,3.78h83.14a3.79,3.79,0,0,0,3.79-3.78v-22.72a3.79,3.79,0,0,0-3.79-3.78Z" transform="translate(-569.59 -571.59)" fill="url(#aa)"/><path d="M1042.07,1203.29a5,5,0,0,1-3.88-8.16,271.55,271.55,0,0,0,60.6-159.07,5,5,0,1,1,10,.46A281.58,281.58,0,0,1,1046,1201.44,5,5,0,0,1,1042.07,1203.29Z" transform="translate(-569.59 -571.59)" fill="url(#ab)"/><path d="M762.36,949.62c-102.16,0-185.27-83.11-185.27-185.26S660.2,579.09,762.36,579.09,947.62,662.2,947.62,764.36,864.51,949.62,762.36,949.62Zm0-365.53c-99.4,0-180.27,80.87-180.27,180.27S663,944.62,762.36,944.62s180.26-80.86,180.26-180.26S861.76,584.09,762.36,584.09Z" transform="translate(-569.59 -571.59)" fill="#fff"/><path d="M1273.79,949.62a186.85,186.85,0,0,1-38.33-4,2.5,2.5,0,0,1-1.92-3l5.1-23.51a156.92,156.92,0,0,1-57.49-25.91l-14.39,19.29a2.49,2.49,0,0,1-3.49.52,185.53,185.53,0,0,1-44.76-47.61,2.5,2.5,0,0,1,.52-3.32l19.08-15.35a157.08,157.08,0,0,1-20.79-55.68L1093.85,796a2.5,2.5,0,0,1-1.93-.39,2.53,2.53,0,0,1-1.05-1.66,187.09,187.09,0,0,1,2.27-70.88,2.51,2.51,0,0,1,3.24-1.81l22.66,7.68a156.92,156.92,0,0,1,23.79-54.27l-19-15a2.5,2.5,0,0,1-.48-3.42A185.42,185.42,0,0,1,1173,608.91a2.5,2.5,0,0,1,3.44.71l13.38,20.06a156.72,156.72,0,0,1,51.84-20.77l-5.91-23.22a2.51,2.51,0,0,1,.31-2,2.45,2.45,0,0,1,1.63-1.11,187.61,187.61,0,0,1,68.55-.7,2.51,2.51,0,0,1,2,3l-5.3,23.37a157.4,157.4,0,0,1,51.47,19.29l15.94-18.87a2.49,2.49,0,0,1,3.26-.49,185.26,185.26,0,0,1,49.25,46.06,2.53,2.53,0,0,1,.46,1.86,2.49,2.49,0,0,1-1,1.64l-19.36,14.3a156.64,156.64,0,0,1,25.27,55.48l23.67-4.7a2.49,2.49,0,0,1,2.93,1.92,186.92,186.92,0,0,1,1.86,69.32,2.5,2.5,0,0,1-3.09,2l-23.18-5.91a156.58,156.58,0,0,1-22.5,59.06l20.26,12.92a2.48,2.48,0,0,1,1.1,1.58,2.45,2.45,0,0,1-.35,1.9,185.22,185.22,0,0,1-49.44,50.85,2.51,2.51,0,0,1-3.53-.69l-13-20.13a157.21,157.21,0,0,1-54.9,23.67l2.52,24.28a2.52,2.52,0,0,1-2,2.72A187.29,187.29,0,0,1,1273.79,949.62ZM1239,941.25a182.85,182.85,0,0,0,66.34.63l-2.51-24.22a2.51,2.51,0,0,1,2-2.71,152.4,152.4,0,0,0,57.38-24.8,2.51,2.51,0,0,1,3.54.68l13,20.11a180,180,0,0,0,44.61-45.89l-20.23-12.9a2.51,2.51,0,0,1-.75-3.48,152,152,0,0,0,23.53-61.91,2.49,2.49,0,0,1,3.09-2.06l23.18,5.91a182.07,182.07,0,0,0-1.72-62.36l-23.62,4.69a2.49,2.49,0,0,1-2.93-1.91,152.15,152.15,0,0,0-26.43-58,2.53,2.53,0,0,1-.46-1.86,2.49,2.49,0,0,1,1-1.64l19.33-14.27a180.41,180.41,0,0,0-44.59-41.64l-15.89,18.81a2.49,2.49,0,0,1-3.21.53,152,152,0,0,0-54.14-20.19,2.56,2.56,0,0,1-1.67-1.08,2.51,2.51,0,0,1-.36-1.94l5.3-23.35a182.69,182.69,0,0,0-61.54.62l5.9,23.2a2.5,2.5,0,0,1-2,3.08,151.91,151.91,0,0,0-54.73,21.89,2.51,2.51,0,0,1-3.44-.71l-13.36-20a180.06,180.06,0,0,0-44.82,42.77l19,15a2.5,2.5,0,0,1,.49,3.41,151.82,151.82,0,0,0-24.93,57.1,2.51,2.51,0,0,1-1.21,1.66,2.48,2.48,0,0,1-2,.2l-22.67-7.69a181.18,181.18,0,0,0-3.9,37.48,183,183,0,0,0,1.89,26.2l23.45-4.89a2.5,2.5,0,0,1,3,2.07A152.22,152.22,0,0,0,1143.52,846a2.51,2.51,0,0,1-.55,3.28l-19,15.31a180.45,180.45,0,0,0,40.32,42.94l14.37-19.26a2.49,2.49,0,0,1,3.49-.52,152,152,0,0,0,60,27,2.49,2.49,0,0,1,1.93,3Zm34.83-100.46a76.43,76.43,0,1,1,76.42-76.43A76.52,76.52,0,0,1,1273.79,840.79Zm0-147.86a71.43,71.43,0,1,0,71.42,71.43A71.51,71.51,0,0,0,1273.79,692.93Z" transform="translate(-569.59 -571.59)" fill="#fff"/><path d="M762.36,949.62a2.49,2.49,0,0,1-2.5-2.5V919.88a2.5,2.5,0,0,1,5,0v27.24A2.49,2.49,0,0,1,762.36,949.62Z" transform="translate(-569.59 -571.59)" fill="#fff"/><path d="M762.36,609.36a2.5,2.5,0,0,1-2.5-2.5V581.59a2.5,2.5,0,0,1,5,0v25.27A2.5,2.5,0,0,1,762.36,609.36Z" transform="translate(-569.59 -571.59)" fill="#fff"/><path d="M606.7,766.86H579.59a2.5,2.5,0,0,1,0-5H606.7a2.5,2.5,0,0,1,0,5Z" transform="translate(-569.59 -571.59)" fill="#fff"/><path d="M945.12,766.86H915.43a2.5,2.5,0,0,1,0-5h29.69a2.5,2.5,0,0,1,0,5Z" transform="translate(-569.59 -571.59)" fill="#fff"/><path d="M892.58,895.08a2.5,2.5,0,0,1-1.77-.74l-20.22-20.22a2.5,2.5,0,0,1,3.53-3.53l20.22,20.22a2.49,2.49,0,0,1,0,3.53A2.46,2.46,0,0,1,892.58,895.08Z" transform="translate(-569.59 -571.59)" fill="#fff"/><path d="M652.07,654.57a2.49,2.49,0,0,1-1.77-.73L632.37,635.9a2.5,2.5,0,0,1,3.53-3.54l17.94,17.94a2.5,2.5,0,0,1-1.77,4.27Z" transform="translate(-569.59 -571.59)" fill="#fff"/><path d="M632.13,895.08a2.49,2.49,0,0,1-1.77-.73,2.52,2.52,0,0,1,0-3.54l19.54-19.53a2.5,2.5,0,0,1,3.53,3.53L633.9,894.35A2.49,2.49,0,0,1,632.13,895.08Z" transform="translate(-569.59 -571.59)" fill="#fff"/><path d="M871.21,656a2.45,2.45,0,0,1-1.76-.73,2.5,2.5,0,0,1,0-3.54l19.36-19.37a2.5,2.5,0,0,1,3.54,3.54L873,655.27A2.49,2.49,0,0,1,871.21,656Z" transform="translate(-569.59 -571.59)" fill="#fff"/><path d="M762.36,796.43a32.07,32.07,0,1,1,32.07-32.07A32.17,32.17,0,0,1,762.36,796.43Zm0-59.14A27.07,27.07,0,1,0,776.09,741,27,27,0,0,0,762.36,737.29Z" transform="translate(-569.59 -571.59)" fill="#fff"/><path d="M736.88,781.86H684a17.5,17.5,0,0,1,0-35h52.88a2.5,2.5,0,0,1,2.15,3.77,27.07,27.07,0,0,0,0,27.46,2.5,2.5,0,0,1-2.15,3.77Zm-52.88-30a12.5,12.5,0,0,0,0,25h48.83a32,32,0,0,1,0-25Z" transform="translate(-569.59 -571.59)" fill="#fff"/><path d="M777.36,741.38a2.51,2.51,0,0,1-1.27-.35,27.07,27.07,0,0,0-27.46,0,2.5,2.5,0,0,1-3.77-2.15v-80a17.5,17.5,0,0,1,35,0v80a2.5,2.5,0,0,1-2.5,2.5Zm-15-9.09a32,32,0,0,1,12.5,2.54v-75.9a12.5,12.5,0,0,0-25,0v75.9A32,32,0,0,1,762.36,732.29Z" transform="translate(-569.59 -571.59)" fill="#fff"/><path d="M815.14,1223.93h-85.5a40.48,40.48,0,0,1-40.43-40.43V961.71a2.5,2.5,0,0,1,5,0V1183.5a35.47,35.47,0,0,0,35.43,35.43h85.5a2.5,2.5,0,1,1,0,5Z" transform="translate(-569.59 -571.59)" fill="#fff"/><path d="M1297.57,1223.93h-85.5a2.5,2.5,0,0,1,0-5h85.5A35.47,35.47,0,0,0,1333,1183.5V961.71a2.5,2.5,0,0,1,5,0V1183.5A40.48,40.48,0,0,1,1297.57,1223.93Z" transform="translate(-569.59 -571.59)" fill="#fff"/><path d="M1046.57,1234.21H984.86a2.53,2.53,0,0,1-1.66-.62,256.41,256.41,0,0,1-54.53-67.52c-29.54-53-33.83-106-32.23-141a17.8,17.8,0,0,1,17.81-17h203.63a16.66,16.66,0,0,1,16.6,16.29c.53,32.72-4.31,82.51-30.39,133.91a280.65,280.65,0,0,1-55.78,75.24A2.51,2.51,0,0,1,1046.57,1234.21Zm-60.76-5h59.75a275.56,275.56,0,0,0,54.07-73.2c25.62-50.49,30.37-99.41,29.85-131.57a11.63,11.63,0,0,0-11.6-11.37H914.25a12.8,12.8,0,0,0-12.81,12.24c-1.58,34.39,2.63,86.31,31.6,138.33A251.23,251.23,0,0,0,985.81,1229.21Z" transform="translate(-569.59 -571.59)" fill="#fff"/><path d="M1038,1260.79H992.57a10.23,10.23,0,0,1-10.21-10.22v-18.86a2.5,2.5,0,0,1,2.5-2.5h60.85a2.5,2.5,0,0,1,2.5,2.5v18.86A10.23,10.23,0,0,1,1038,1260.79Zm-50.64-26.58v16.36a5.22,5.22,0,0,0,5.21,5.22H1038a5.22,5.22,0,0,0,5.21-5.22v-16.36Z" transform="translate(-569.59 -571.59)" fill="#fff"/><path d="M1040.57,1286.5H990.86a2.5,2.5,0,0,1-2.5-2.5v-25.71a2.5,2.5,0,0,1,2.5-2.5h49.71a2.5,2.5,0,0,1,2.5,2.5V1284A2.5,2.5,0,0,1,1040.57,1286.5Zm-47.21-5h44.71v-20.71H993.36Z" transform="translate(-569.59 -571.59)" fill="#fff"/><path d="M962.47,1306.21a2.48,2.48,0,0,1-2.05-1.07,2.5,2.5,0,0,1,.62-3.48L989.43,1282a2.5,2.5,0,1,1,2.85,4.1l-28.39,19.72A2.48,2.48,0,0,1,962.47,1306.21Z" transform="translate(-569.59 -571.59)" fill="#fff"/><path d="M1065.8,1306.21a2.45,2.45,0,0,1-1.53-.53L1039,1286a2.5,2.5,0,0,1,3.08-3.94l25.23,19.71a2.5,2.5,0,0,1-1.54,4.47Z" transform="translate(-569.59 -571.59)" fill="#fff"/><path d="M1084.93,1400.5h-141a11.73,11.73,0,0,1-11.72-11.71v-75.86a11.74,11.74,0,0,1,11.72-11.72h141a11.73,11.73,0,0,1,11.71,11.72v75.86A11.72,11.72,0,0,1,1084.93,1400.5Zm-141-94.29a6.73,6.73,0,0,0-6.72,6.72v75.86a6.73,6.73,0,0,0,6.72,6.71h141a6.72,6.72,0,0,0,6.71-6.71v-75.86a6.73,6.73,0,0,0-6.71-6.72Z" transform="translate(-569.59 -571.59)" fill="#fff"/><path d="M1098.21,1430.5H931.93a10,10,0,0,1-10-10v-15a10,10,0,0,1,10-10h166.28a10,10,0,0,1,10,10v15A10,10,0,0,1,1098.21,1430.5Zm-166.28-30a5,5,0,0,0-5,5v15a5,5,0,0,0,5,5h166.28a5,5,0,0,0,5-5v-15a5,5,0,0,0-5-5Z" transform="translate(-569.59 -571.59)" fill="#fff"/><path d="M1056.21,1375.64H973.07a11.29,11.29,0,0,1-11.28-11.28v-22.72a11.29,11.29,0,0,1,11.28-11.28h83.14a11.29,11.29,0,0,1,11.29,11.28v22.72A11.29,11.29,0,0,1,1056.21,1375.64Zm-83.14-40.28a6.29,6.29,0,0,0-6.28,6.28v22.72a6.29,6.29,0,0,0,6.28,6.28h83.14a6.29,6.29,0,0,0,6.29-6.28v-22.72a6.29,6.29,0,0,0-6.29-6.28Z" transform="translate(-569.59 -571.59)" fill="#fff"/><path d="M1084.47,1189.19a2.5,2.5,0,0,1-.67-4.91c16.72-4.62,72.65-23.49,90.28-72.34,4-11,12.28-34,.8-55.18a51.56,51.56,0,0,0-15.38-17.15,33.52,33.52,0,0,0-19.73-6.3H1132a2.5,2.5,0,1,1,0-5h7.76a38.55,38.55,0,0,1,22.65,7.24,56.39,56.39,0,0,1,16.85,18.83c12.56,23.11,3.75,47.52-.49,59.25-18.45,51.11-76.34,70.68-93.64,75.47A2.63,2.63,0,0,1,1084.47,1189.19Z" transform="translate(-569.59 -571.59)" fill="#fff"/><path d="M944,1189.16a2.57,2.57,0,0,1-.67-.09c-17.3-4.78-75.2-24.35-93.64-75.46-4.24-11.74-13.05-36.15-.49-59.26a57.28,57.28,0,0,1,20.4-21.21,32.35,32.35,0,0,1,17.23-4.85h9.63a2.5,2.5,0,0,1,0,5h-9.63a27.4,27.4,0,0,0-14.58,4.09,52.3,52.3,0,0,0-18.66,19.36c-11.48,21.13-3.19,44.12.8,55.17,17.63,48.85,73.55,67.72,90.27,72.34a2.5,2.5,0,0,1-.66,4.91Z" transform="translate(-569.59 -571.59)" fill="#fff"/><path d="M1042.07,1200.79a2.51,2.51,0,0,1-1.94-4.08,274.11,274.11,0,0,0,61.16-160.54,2.5,2.5,0,0,1,5,.23A279.09,279.09,0,0,1,1044,1199.86,2.48,2.48,0,0,1,1042.07,1200.79Z" transform="translate(-569.59 -571.59)" fill="#fff"/><path d="M1015.33,810.57a2.5,2.5,0,0,1-2.5-2.5V716.79a2.5,2.5,0,0,1,5,0v91.28A2.49,2.49,0,0,1,1015.33,810.57Z" transform="translate(-569.59 -571.59)" fill="#fff"/><path d="M1062,766.86H968.79a2.5,2.5,0,0,1,0-5H1062a2.5,2.5,0,0,1,0,5Z" transform="translate(-569.59 -571.59)" fill="#fff"/></svg>